<svg xmlns="http://www.w3.org/2000/svg" xmlns:xlink="http://www.w3.org/1999/xlink" viewBox="0 0 623.62 623.62"><defs><style>.cls-1{isolation:isolate;}.cls-2,.cls-3{fill:#9c2f3e;}.cls-3{opacity:0.43;mix-blend-mode:multiply;}.cls-4{fill:#f39579;}.cls-5{fill:#431021;}.cls-6{fill:#73cbf4;}.cls-7{fill:#84d0f5;}.cls-8{fill:#f28d6f;}.cls-9{fill:#d13f40;}.cls-10{fill:#fde5df;}.cls-11{fill:#fad5c9;}.cls-12{fill:#f18665;}.cls-13{fill:#9c3a15;}.cls-14{fill:#b4cbdd;}.cls-15{fill:#ec9e27;}.cls-16{fill:#fbc573;}.cls-17{fill:#872212;}.cls-18,.cls-22{fill:#fff;}.cls-19{fill:#eb8e70;}.cls-20{fill:none;stroke:#431021;stroke-miterlimit:10;stroke-width:0.96px;}.cls-21{fill:url(#Degradado_sin_nombre_30);}.cls-22{font-size:16.18px;font-family:LuloCleanW01-OneBold;font-weight:700;}.cls-22,.cls-28{letter-spacing:-0.15em;}.cls-23{letter-spacing:-0.2em;}.cls-24{letter-spacing:-0.18em;}.cls-25{letter-spacing:-0.15em;}.cls-26{letter-spacing:-0.27em;}.cls-27{letter-spacing:-0.2em;}.cls-29{letter-spacing:-0.21em;}.cls-30{letter-spacing:-0.2em;}</style><linearGradient id="Degradado_sin_nombre_30" x1="533.18" y1="390.74" x2="233.15" y2="390.74" gradientUnits="userSpaceOnUse"><stop offset="0" stop-color="#9c2f3e" stop-opacity="0"/><stop offset="0.01" stop-color="#9c2f3e" stop-opacity="0.06"/><stop offset="0.06" stop-color="#9c2f3e" stop-opacity="0.35"/><stop offset="0.12" stop-color="#9c2f3e" stop-opacity="0.58"/><stop offset="0.17" stop-color="#9c2f3e" stop-opacity="0.77"/><stop offset="0.23" stop-color="#9c2f3e" stop-opacity="0.9"/><stop offset="0.28" stop-color="#9c2f3e" stop-opacity="0.97"/><stop offset="0.33" stop-color="#9c2f3e"/></linearGradient></defs><g class="cls-1"><g id="Capa_1" data-name="Capa 1"><circle class="cls-2" cx="255.76" cy="311.81" r="137.23"/><path class="cls-3" d="M428.88,349.36c0,1.93-37.34,1.25-71.65,2.44-11.11.38-7.81,3.13-21.27,3.39-15.58.3-32.53-1.61-50.39-1.52-7.73.05-15.63,2.19-23.66,2.19-7,0-18.81-3.09-25.62-3.12-9.9-.05-14.68,2.94-24,2.83-13.89-.17-35.38-2.54-47.45-2.83-47-1.15-69.94-1.06-69.94-3.38,0-3.59,74.76-6.5,167-6.5S428.88,345.77,428.88,349.36Z"/><path class="cls-4" d="M212.31,221c-.23-.63-2.61-1.75-2.61-1.75s.59-3.41,0-3.41-1.34,3.28-1.37,3.4c0,0-.05-.08-.8.31-.9.46.1,3.82.1,3.82s-3.6,8.33-7.49,17c-6-1.24-11.56-2.46-14.45-3.27a14.12,14.12,0,0,0-3.43-.56,3.63,3.63,0,0,0-2.94,5.9,8.18,8.18,0,0,0,4.08,2.49,108.76,108.76,0,0,0,13.14,3.38c1.86.35,3.83.65,5.87.87a3.94,3.94,0,0,0,4.1-2.53c.57-1.5,1.12-3.06,1.61-4.67a53.61,53.61,0,0,0,2.56-17.5C211.19,223.63,212.49,221.46,212.31,221Z"/><path class="cls-5" d="M203.36,233.09a38.8,38.8,0,0,1,6.48,1.91l-6.22-2.52Z"/><path class="cls-4" d="M174.62,236.65a8.3,8.3,0,0,0-4.53-1.54,110.39,110.39,0,0,0-13.55-.43c-1.89.07-3.88.2-5.92.43a4,4,0,0,0-3.45,3.37c-.23,1.58-.42,3.23-.55,4.91A53.82,53.82,0,0,0,147.94,261c-.31.9-1.12,3.3-.82,3.76s2.92,1.13,2.92,1.13.17,3.46.75,3.33.59-3.49.59-3.61.07.06.71-.48-.92-3.71-.92-3.71,1.69-8.91,3.59-18.23c6.1-.1,11.81-.12,14.82,0a13.81,13.81,0,0,0,3.46-.19A3.64,3.64,0,0,0,174.62,236.65Z"/><path class="cls-5" d="M146.43,249.45s4.74.74,6.42.78l-6.4,0Z"/><path class="cls-4" d="M187,238.41c-1.93-1.16-3.26-1.59-4.21-2.73-.1-.38-.34-1.31-.53-2.35a11.09,11.09,0,0,1-.19-2.76h0a2.36,2.36,0,0,1,.27-1l-9-5.07s0,.06,0,.09c.15.84,1.24,7.41.12,10.89a6.32,6.32,0,0,1-2.55.57,4.68,4.68,0,0,0-3,1.2c-1.13,1.07-2.11,3.07-1.47,6.81,1.28,7.48,2.44,14.26,2,18.81h18.49s.19-7.37.76-12.82C188.1,245.08,189.92,240.18,187,238.41Z"/><path class="cls-5" d="M182.24,233.33c-4.9.62-7.39-5.24-7.48-5.46a5.76,5.76,0,0,0,3.5,2.51,9.59,9.59,0,0,0,3.76.2h0A11.09,11.09,0,0,0,182.24,233.33Z"/><path class="cls-6" d="M211.55,236.9c0,.15,0,.31,0,.48-.41,3.49-3.72,11.46-6.73,12.56a2.07,2.07,0,0,1-.33.1l-.19,0-.16,0-.55,0c-3.9.14-12.31-2.19-14.44-2.8l-.46-.14h0l-1.28,14.26-19.39-.76s-1.32-15.71-2.11-17.54l-10.79.68a27.46,27.46,0,0,1-.3,5.18h0a4.36,4.36,0,0,1-.12.46,2.08,2.08,0,0,1-.13.3c-.7,1.33-9.46-.6-9.46-.6s0-.3,0-.79c0-.14,0-.3,0-.47.08-3,.48-10.63,2.43-12.7l.05-.06a2.51,2.51,0,0,1,.24-.19l.15-.09a2.53,2.53,0,0,1,.33-.16c4.07-1.73,19.94-1,24.23.34a2.72,2.72,0,0,1,1,.44l0,0h0c.61.29,6.25,2.93,10.1.72l.17,0,.54.11,15.55,3.29a29.64,29.64,0,0,1,.89-5.7,3.5,3.5,0,0,1,.17-.43,1.09,1.09,0,0,1,.5-.59c1.18-.39,8.68,1.65,9.93,2.9A1.47,1.47,0,0,1,211.55,236.9Z"/><path class="cls-7" d="M182.42,241.93l4.48.53s.95,5.58-2.68,5.23C181.18,247.41,182.42,241.93,182.42,241.93Z"/><rect class="cls-5" x="184.49" y="241.08" width="0.47" height="3.59" transform="translate(-75.1 402.87) rotate(-84.37)"/><path class="cls-5" d="M184.29,236.39a7,7,0,0,1-5.14,2.68h-.28c-3.32-.17-5.82-3.26-6.39-4a2.72,2.72,0,0,1,1,.44l0,0h0c1,1.14,3,3,5.41,3.08a6.2,6.2,0,0,0,4.86-2.32Z"/><rect class="cls-5" x="175.67" y="252.89" width="4.63" height="0.47" transform="translate(-104.44 126.68) rotate(-30.77)"/><rect class="cls-5" x="175.48" y="253.99" width="7.29" height="0.47" transform="translate(-105.34 128.54) rotate(-30.99)"/><path class="cls-5" d="M154.74,249h0a4.36,4.36,0,0,1-.12.46L145,248.38c0-.14,0-.3,0-.47Z"/><path class="cls-5" d="M211.55,236.9c0,.15,0,.31,0,.48L200.73,234a3.5,3.5,0,0,1,.17-.43Z"/><path class="cls-5" d="M165.83,243.15a11.11,11.11,0,0,0,3.24-1.22c.74-.64-.12,7.37-2.27,7.24l-.37-2.91Z"/><path class="cls-5" d="M189.11,247.34l-.46-.14a12,12,0,0,0-1.83-7.53l.38-.28A12.25,12.25,0,0,1,189.11,247.34Z"/><path class="cls-5" d="M204.1,250.09l-.55,0-1.64-2.29.39-.27Z"/><path class="cls-5" d="M205.32,247.54l-.54,2.4a2.07,2.07,0,0,1-.33.1l-.19,0,.6-2.64Z"/><path class="cls-5" d="M148.12,237.52l-.47,0-.17-2.34.05-.06a2.51,2.51,0,0,1,.24-.19l.15-.09,0,.19Z"/><path class="cls-5" d="M150.63,236.2l-.26.4-2.43-1.54-.17-.1.15-.09a2.53,2.53,0,0,1,.33-.16Z"/><path class="cls-4" d="M185.52,214.59c-1.18-3-6.74-4.2-10.61-.84-1.8,1.57-2.17,4.4-2.07,7a1.33,1.33,0,0,0-.23-.1,1.63,1.63,0,0,0-1.82,1.14,2.16,2.16,0,0,0,.28,1.78,2.76,2.76,0,0,0,1.22,1,3.17,3.17,0,0,0,1.05.1,7.79,7.79,0,0,0,2.58,4.39,7.06,7.06,0,0,0,6,1.52c1.67-.34,4.15-1.42,4.77-3.16a4.5,4.5,0,0,0,.18-1.42C186.93,222.34,186.86,218.06,185.52,214.59Z"/><path class="cls-5" d="M184.07,220.67c0,.57.22,1,.5,1s.5-.45.5-1-.23-1-.5-1S184.07,220.11,184.07,220.67Z"/><path class="cls-5" d="M180.76,220.67c0,.57-.22,1-.5,1s-.49-.45-.49-1,.22-1,.49-1S180.76,220.11,180.76,220.67Z"/><path class="cls-5" d="M184.28,223.75a2.27,2.27,0,0,1-.75.85,1.81,1.81,0,0,1-1.11.37,1.91,1.91,0,0,1-1.11-.38,3.89,3.89,0,0,1-.43-.38c-.11-.15-.23-.3-.33-.46.15.11.29.23.43.35s.3.21.46.29a1.9,1.9,0,0,0,2,0A4.11,4.11,0,0,0,184.28,223.75Z"/><path class="cls-5" d="M182.94,225.56a.81.81,0,0,1-.52.17.84.84,0,0,1-.53-.17,2.44,2.44,0,0,0,.53.05A2.35,2.35,0,0,0,182.94,225.56Z"/><path class="cls-5" d="M181.17,217.14a1.18,1.18,0,0,0-.77-.28,2.12,2.12,0,0,0-.82.12,2.09,2.09,0,0,0-1.21,1,.23.23,0,0,0,.09.32.23.23,0,0,0,.28,0l0,0a2.54,2.54,0,0,1,.49-.39,1.71,1.71,0,0,1,.54-.22,2.32,2.32,0,0,1,.59-.06,2.17,2.17,0,0,0,.62,0l.07,0a.25.25,0,0,0,.18-.3A.26.26,0,0,0,181.17,217.14Z"/><path class="cls-5" d="M183.66,217.14a1.18,1.18,0,0,1,.77-.28,2.12,2.12,0,0,1,.82.12,2,2,0,0,1,.72.41,1.86,1.86,0,0,1,.49.63.22.22,0,0,1-.09.32.21.21,0,0,1-.27,0l0,0a3,3,0,0,0-.5-.39,1.71,1.71,0,0,0-.54-.22,2.27,2.27,0,0,0-.59-.06,2.2,2.2,0,0,1-.62,0l-.07,0a.25.25,0,0,1-.18-.3A.26.26,0,0,1,183.66,217.14Z"/><path class="cls-5" d="M183.42,219.12c.09.38.15.76.22,1.14s.15.75.25,1.11l.09.26a.88.88,0,0,1,.08.33.66.66,0,0,1-.35.6.83.83,0,0,1-.65,0,1.6,1.6,0,0,1-.52-.31c.36.13.78.24,1,.05a.4.4,0,0,0,.18-.36.7.7,0,0,0-.08-.23c0-.1-.07-.19-.1-.29a5.29,5.29,0,0,1-.19-1.17A6.54,6.54,0,0,1,183.42,219.12Z"/><path class="cls-5" d="M171.17,221.69a3.67,3.67,0,0,1,1,.4,3.12,3.12,0,0,1,.81.67l.18-.22a3.22,3.22,0,0,0-.86-.34,1.37,1.37,0,0,0-.5,0,.59.59,0,0,0-.43.35.84.84,0,0,0,.25.92,1.16,1.16,0,0,0,.83.34,1.26,1.26,0,0,1-.7-.45.67.67,0,0,1-.13-.7c.08-.21.35-.2.61-.14a3.78,3.78,0,0,1,.79.3h0a.14.14,0,0,0,.19-.06.15.15,0,0,0,0-.17,2.71,2.71,0,0,0-.94-.66A2.59,2.59,0,0,0,171.17,221.69Z"/><path class="cls-5" d="M175.21,223.44l.1,0a.56.56,0,0,0,.08-1.06h0c-1.74-.72-.08-3.4.51-5.28a1.8,1.8,0,0,1,2.17-1.44,6.59,6.59,0,0,0,7-1.53,8.34,8.34,0,0,1,1,2.07s6.3-4.2.63-6.23S174,213.37,174,213.37c-2.17-1.26-2.65,3.68-1.15,7.24a7.92,7.92,0,0,1,.46,1.46A1.66,1.66,0,0,0,175.21,223.44Z"/><path class="cls-8" d="M201.51,313a20.36,20.36,0,0,0,0-12.19c-2-6.36-4-12.52-5.81-17.42a79.64,79.64,0,0,0-3.53-8.69q-1.57-3-3-5.57c-4.8.38-9.61.64-14.43.75l16.8,37-6,34.08c-.66,1.48-1.73,4-1.68,4.76a1.17,1.17,0,0,0,1.07,1.1l15.6,1.36A.64.64,0,0,0,201,348a.83.83,0,0,0,.17-1.09.6.6,0,0,0-.55-.28c-4,.17-8.57-3.63-8.57-3.63l-.1,0c.25-.76,3.19-9.61,6.66-20.53C199.34,320,200.51,316.22,201.51,313Z"/><path class="cls-5" d="M194.64,337.84c0,.15-.11.29-.17.44l-8.85-3,.09-.47Z"/><path class="cls-6" d="M202.08,348a.53.53,0,0,1-.58.48l-16.81-1.25a1.47,1.47,0,0,1-1.25-.91,1.52,1.52,0,0,1-.1-.48,1.55,1.55,0,0,1,.07-.52l1.81-5.54,7.66,2.11V343s.35,2.24,4.92,2.44c2.75.12,3.78,1.19,4.16,2a2.44,2.44,0,0,1,.1.24A.65.65,0,0,1,202.08,348Z"/><path class="cls-5" d="M202.08,348l-18.64-1.68a1.52,1.52,0,0,1-.1-.48L202,347.51a2.44,2.44,0,0,1,.1.24A.65.65,0,0,1,202.08,348Z"/><path class="cls-9" d="M202.52,310.19c-1.43,6.4-4.43,18.91-7.88,27.65,0,.15-.11.29-.17.44-.38,1-.77,1.85-1.16,2.7l-8.21-3.05.52-2.69.09-.47,5.49-28.55-17.95-37,16-.32a113.23,113.23,0,0,1,13.35,32.78A19.88,19.88,0,0,1,202.52,310.19Z"/><polygon class="cls-5" points="179.72 282.57 197.9 286.56 181.23 285.68 179.72 282.57"/><rect class="cls-5" x="185.93" y="286.51" width="0.47" height="1.17" transform="translate(-101.79 102.25) rotate(-24.34)"/><path class="cls-5" d="M189.42,330.29l-.46-.09.41-2.2.46.09Zm.82-4.4-.46-.08.41-2.2.46.08Zm.82-4.39-.46-.09.41-2.2.46.09Zm.82-4.4-.46-.08.41-2.2.47.09Zm.83-4.39-.46-.09.41-2.19.46.08Zm.82-4.39-.46-.09.41-2.2.46.09Zm0-4.3-.92-2,.43-.19.92,2ZM191.72,300l-.92-2,.43-.19.92,2Zm-1.84-4.08-.92-2,.42-.2.92,2ZM188,291.8l-.92-2,.43-.19.92,2Z"/><rect class="cls-5" x="188.08" y="332.78" width="1.17" height="0.47" transform="translate(-173.32 457.35) rotate(-79.42)"/><path class="cls-4" d="M239.67,305a.85.85,0,0,0-.75-.82.63.63,0,0,0-.56.27c-2.33,3.21-8.17,4.45-8.17,4.45l-.09.06h0c-.46-.71-5.56-8.5-11.94-18-2-2.92-5.51-8.07-7.57-11.07a9.26,9.26,0,0,0-4.3-3.39c-6.15-2.36-12.33-4.67-17.58-6.5l-3-1a80.85,80.85,0,0,0-9-2.63c-3.75-.73-7.08-1.29-9.9-1.63a41.44,41.44,0,0,0-1.39,5.05c-.64,3,4.38,8.95,4.38,8.95l31.77,8.12,23,25.89h0c.75,1.44,2.07,3.84,2.68,4.27a1.19,1.19,0,0,0,1.54-.15l10.75-11.39A.59.59,0,0,0,239.67,305Z"/><path class="cls-6" d="M240.29,304.71l-11.22,12.58a1.47,1.47,0,0,1-1.59.41,1.52,1.52,0,0,1-.41-.24,1.42,1.42,0,0,1-.29-.31l-3.3-4.81,6.33-4.8.92.7s2,1.09,4.93-2.42c1.88-2.24,3.43-2.29,4.31-2l.08,0a.52.52,0,0,1,.3.24A.56.56,0,0,1,240.29,304.71Z"/><path class="cls-5" d="M240.35,304.07,227.48,317.7a1.52,1.52,0,0,1-.41-.24L240,303.8l.08,0A.52.52,0,0,1,240.35,304.07Z"/><path class="cls-9" d="M229.16,306.54l-6.49,5.32-1.6-1.84-.31-.35L201.25,287.3c-14-3.2-33.94-6-35.89-12.12s2.58-14.49,2.58-14.49l19.39.76,1.88,7.48,16.06,6.23a13.87,13.87,0,0,1,6.55,5.26l16,24.14.26.4Z"/><polygon class="cls-5" points="228.11 304.96 221.07 310.02 220.76 309.67 227.85 304.56 228.11 304.96"/><polygon class="cls-5" points="189.21 268.93 183.81 266.15 188.81 267.34 189.21 268.93"/><polygon class="cls-5" points="221.42 306.88 203.85 284.78 177.34 278.02 177.46 277.57 204.12 284.36 221.79 306.59 221.42 306.88"/><rect class="cls-5" x="170.79" y="261.45" width="0.47" height="1.94"/><rect class="cls-5" x="171.73" y="261.45" width="0.47" height="1.94"/><rect class="cls-5" x="176.7" y="261.45" width="0.47" height="1.94"/><rect class="cls-5" x="177.64" y="261.45" width="0.47" height="1.94"/><rect class="cls-5" x="182.61" y="261.45" width="0.47" height="1.94"/><rect class="cls-5" x="183.54" y="261.45" width="0.47" height="1.94"/><path class="cls-4" d="M122.13,242.85a13.91,13.91,0,0,0-2.64-2.25c-2.61-1.79-7.5-5.57-12.57-9.58-1.69-9.75-3.28-19.68-3.37-20.23l.17-1.63c.34-1.87.36-4.74-.65-6.34-.17-.28-1.49,4.65-1.92,4.5s-.71-1.3-.76-1.9a.21.21,0,0,0-.24-.21c-.24,0-.6.18-.59.82a11.4,11.4,0,0,0,.83,4.8,50.54,50.54,0,0,0-2,13.37,67.46,67.46,0,0,0,.32,8,7.69,7.69,0,0,0,2.51,5,88.35,88.35,0,0,0,8,6.37c2.3,1.64,4.3,2.92,5.73,3.83a8.23,8.23,0,0,0,4.54,1.53A3.64,3.64,0,0,0,122.13,242.85Z"/><path class="cls-10" d="M123.73,245.54a4.23,4.23,0,0,1-2.7,3.22,5.3,5.3,0,0,1-4.51-.37l-2.1-1.18-6.18-3.46,6.59-7.06a36.5,36.5,0,0,1,5.82,3.81l.37.31a10,10,0,0,1,2.34,2.73A3,3,0,0,1,123.73,245.54Z"/><polygon class="cls-5" points="114.57 236.97 108.75 243.21 107.48 242.27 114.57 236.97"/><path class="cls-4" d="M118.8,267.52s-2.43-7.57-3.56-12.6-.84-10.1,2.11-11.87,4.49-1.82,5.4-5.32l5.44-.57s.89,3.39,5.25,3.54a4.59,4.59,0,0,1,3,1.2c1.14,1.06,2.11,3.07,1.47,6.8-1.28,7.48-4.46,14.06-4,18.62Z"/><path class="cls-11" d="M118.39,266.21l-.84-2.79s-2.37-.15-2.62,1.16C114.93,264.58,114.51,266,118.39,266.21Z"/><path class="cls-10" d="M121,240.89s-2.36,2.85-1.85,3.71,11.3-4,11.89-4.65a4.52,4.52,0,0,0,2,.55c.9,0,5.44.74,5.28,5.43a37.7,37.7,0,0,1-1.88,10,42.14,42.14,0,0,0-1.91,10.88s-16.46-4.69-19-2.81c-2.13,1.56,2.88,2.25,2.88,2.25l.09.32s-4,.75-4.77-2.07,1-7.42.62-11.76S113.69,243.05,121,240.89Z"/><path class="cls-5" d="M121,240.81l-.2.14c-1.24.86-4.88,3.58-5.36,6.16L115,247c.39-2.11,2.63-4.22,4.25-5.51.59-.45,1.09-.81,1.4-1Z"/><rect class="cls-5" x="121.37" y="255.64" width="0.47" height="3.48" transform="translate(-115.51 99.87) rotate(-31.12)"/><rect class="cls-5" x="123.29" y="254.98" width="0.47" height="4.85" transform="translate(-126.48 119.51) rotate(-35.48)"/><polygon class="cls-5" points="133.95 267.13 118.8 267.52 118.56 266.76 133.95 267.13"/><path class="cls-4" d="M134.1,242.05a14.22,14.22,0,0,0-3.37.82c-3,1.08-8.9,2.85-15.11,4.62-8.91-4.31-17.9-8.82-18.4-9.07L96,237.34c-1.32-1.37-3.64-3.06-5.53-3.18-.33,0,2.91,3.93,2.54,4.19s-1.48-.18-2-.49a.22.22,0,0,0-.31.07c-.12.22-.2.59.31,1A11.4,11.4,0,0,0,95.4,241a50.53,50.53,0,0,0,9.7,9.43,67,67,0,0,0,6.7,4.41,7.63,7.63,0,0,0,5.49.87,90.38,90.38,0,0,0,9.85-2.79c2.68-.91,4.89-1.79,6.46-2.42a8.2,8.2,0,0,0,3.88-2.79A3.63,3.63,0,0,0,134.1,242.05Z"/><path class="cls-10" d="M124.74,244.51l1.64,9.52,8.69-3.8a5.31,5.31,0,0,0,3-3.37,4.22,4.22,0,0,0-.93-4.09C134.58,239.76,124.74,244.51,124.74,244.51Z"/><polygon class="cls-5" points="124.74 244.81 126.24 253.24 124.96 253.65 124.74 244.81"/><path class="cls-5" d="M126.56,254.59l-.86-1.32.4-.26.64,1c1.22-.5,8.29-3.39,9.41-4.69l.36.31c-1.3,1.5-9.43,4.75-9.77,4.89Z"/><path class="cls-5" d="M132.63,226a4.46,4.46,0,0,0-1.15.46,3.13,3.13,0,0,0-.92.77l-.21-.26a3.76,3.76,0,0,1,1-.38,1.54,1.54,0,0,1,.57,0,.63.63,0,0,1,.49.4,1,1,0,0,1-.27,1.06,1.44,1.44,0,0,1-1,.39,1.52,1.52,0,0,0,.81-.53.76.76,0,0,0,.14-.8c-.09-.23-.39-.22-.7-.15a3.78,3.78,0,0,0-.9.34h0a.17.17,0,0,1-.2-.26,3.1,3.1,0,0,1,2.33-1Z"/><path class="cls-4" d="M133.53,226.43a1.61,1.61,0,0,0-1.81-1.14,1.53,1.53,0,0,0-.24.09c.11-2.59-.27-5.42-2.07-7-3.87-3.37-9.42-2.19-10.6.84a24.06,24.06,0,0,0-1.34,7.75c0,1.13,0,2.26,0,3.33v.34a4.54,4.54,0,0,0,.18,1.42c.61,1.74,3.09,2.81,4.77,3.16a7.1,7.1,0,0,0,6-1.52,7.92,7.92,0,0,0,2.58-4.39,3.32,3.32,0,0,0,1-.11,2.61,2.61,0,0,0,1.23-1A2.14,2.14,0,0,0,133.53,226.43Z"/><path class="cls-12" d="M117.44,230.32a1.61,1.61,0,0,0,.44.06,1.72,1.72,0,1,0,0-3.44,1.4,1.4,0,0,0-.41.05C117.43,228.12,117.42,229.25,117.44,230.32Z"/><path class="cls-12" d="M128.16,228.66a1.72,1.72,0,1,1-1.72-1.72A1.72,1.72,0,0,1,128.16,228.66Z"/><path class="cls-5" d="M120.5,225.32c0,.56-.22,1-.49,1s-.5-.45-.5-1,.22-1,.5-1S120.5,224.76,120.5,225.32Z"/><path class="cls-5" d="M119,224a1.58,1.58,0,0,0,.34.43,1.18,1.18,0,0,0,.52.27h0a.18.18,0,0,0,.22-.14.19.19,0,0,0-.14-.22h0a1.09,1.09,0,0,1-.8-.4h0a.05.05,0,0,0-.08,0S119,224,119,224Z"/><path class="cls-5" d="M123.81,225.32c0,.56.23,1,.5,1s.5-.45.5-1-.22-1-.5-1S123.81,224.76,123.81,225.32Z"/><path class="cls-5" d="M125.22,223.92a1.07,1.07,0,0,1-.79.4.18.18,0,0,0-.19.18.18.18,0,0,0,.17.19h.06a1.18,1.18,0,0,0,.52-.27,1.58,1.58,0,0,0,.34-.43.06.06,0,0,0,0-.08,0,0,0,0,0-.07,0Z"/><path class="cls-5" d="M120.29,228.4a2.65,2.65,0,0,0,.75.85,2,2,0,0,0,1.11.37,1.89,1.89,0,0,0,1.11-.39,3.08,3.08,0,0,0,.43-.38q.18-.22.33-.45l-.43.34c-.16.1-.3.22-.45.3a2.07,2.07,0,0,1-1,.27,1.92,1.92,0,0,1-1-.26A4.54,4.54,0,0,1,120.29,228.4Z"/><path class="cls-5" d="M121.64,230.2a.8.8,0,0,0,.52.18.86.86,0,0,0,.52-.18,2.37,2.37,0,0,1-.52.06A1.89,1.89,0,0,1,121.64,230.2Z"/><path class="cls-13" d="M123.4,221.79a1.16,1.16,0,0,1,.77-.29,2.55,2.55,0,0,1,.82.12,1.91,1.91,0,0,1,.72.41,2.28,2.28,0,0,1,.5.63.25.25,0,0,1-.1.33.24.24,0,0,1-.27,0l0,0a2.89,2.89,0,0,0-.49-.39,1.65,1.65,0,0,0-.55-.23,2.2,2.2,0,0,0-.58,0,2.74,2.74,0,0,1-.63,0h-.06a.26.26,0,0,1-.19-.31A.25.25,0,0,1,123.4,221.79Z"/><path class="cls-13" d="M120.92,221.79a1.18,1.18,0,0,0-.77-.29,2.51,2.51,0,0,0-.82.12,2,2,0,0,0-.73.41,2.44,2.44,0,0,0-.49.63.24.24,0,0,0,.37.3l0,0a2.89,2.89,0,0,1,.49-.39,1.69,1.69,0,0,1,.54-.23,2.32,2.32,0,0,1,.59,0,2.74,2.74,0,0,0,.63,0h.06a.25.25,0,0,0,.18-.31A.24.24,0,0,0,120.92,221.79Z"/><path class="cls-5" d="M122,223.76c-.08.39-.15.77-.22,1.14a9.47,9.47,0,0,1-.25,1.11,2,2,0,0,1-.08.26.93.93,0,0,0-.09.33.67.67,0,0,0,.36.61.78.78,0,0,0,.65,0,1.66,1.66,0,0,0,.51-.31,1.15,1.15,0,0,1-1,0,.38.38,0,0,1-.17-.36.71.71,0,0,1,.07-.23c0-.09.07-.19.1-.28a5.29,5.29,0,0,0,.19-1.17A6.62,6.62,0,0,0,122,223.76Z"/><path class="cls-5" d="M132.63,226a4.46,4.46,0,0,0-1.15.46,3.13,3.13,0,0,0-.92.77l-.21-.26a3.76,3.76,0,0,1,1-.38,1.54,1.54,0,0,1,.57,0,.63.63,0,0,1,.49.4,1,1,0,0,1-.27,1.06,1.44,1.44,0,0,1-1,.39,1.52,1.52,0,0,0,.81-.53.76.76,0,0,0,.14-.8c-.09-.23-.39-.22-.7-.15a3.78,3.78,0,0,0-.9.34h0a.17.17,0,0,1-.2-.26,3.1,3.1,0,0,1,2.33-1Z"/><path class="cls-4" d="M130.53,240c-1.33-3.37.33-9.85.48-10.72,0,0,0-.06,0-.09l-9,5.08a2.42,2.42,0,0,1,.27,1h0a10.64,10.64,0,0,1-.2,2.76,23,23,0,0,1-.58,2.53Z"/><path class="cls-5" d="M122.08,238c4.91.62,7.39-5.23,7.48-5.45a5.79,5.79,0,0,1-3.5,2.51,9.69,9.69,0,0,1-3.75.19h0A10.64,10.64,0,0,1,122.08,238Z"/><path class="cls-13" d="M131,229.23s-4,6.64-3.44,7.45,2.45-.72,3.2-.91,4.45,0,4.56-4.09-1-17.48-7.42-15.1c0,0-1.11-2.84-5.91-1.08s-4.42,4.41-6.15,7.17-6.24,8.32-1.73,10.61c0,0-1.31.95-.31,1.86s6.93,2.69,8.45,1.55a7.9,7.9,0,0,0,0-1.48s-3.47-.75-4.55-2.87c0,0-.3-.36-.27-5.23a40.43,40.43,0,0,1,.7-5.73s5.35-.55,7.66-1.9,2.69,1.11,2.26,2.6c-1.12,3.79.68,5.29,2,4.09,0,0,1.59-1.39,2.64-.71s1.24,1.89.19,3.1a2.13,2.13,0,0,1-.92.65A1.64,1.64,0,0,1,131,229.23Z"/><path class="cls-8" d="M170.67,336c-.37-.65-2.65-2.18-4-3.06h0L143,307.74l-4.53-29.44H124.56c.08.92.17,1.85.27,2.82a79.84,79.84,0,0,0,1.8,9.22c1.2,5.06,2.86,11.32,4.66,17.75a20.33,20.33,0,0,0,6.63,10.23c2.61,2.16,5.67,4.69,7.64,6.3,8.88,7.25,16.19,13.05,16.81,13.55l-.07.09s-1.77,5.69-5.18,7.72a.62.62,0,0,0-.31.54.84.84,0,0,0,.74.82.57.57,0,0,0,.5-.12l12.32-9.66A1.19,1.19,0,0,0,170.67,336Z"/><path class="cls-5" d="M160.37,337.3l1.07,1.21-5.61,9.19a.51.51,0,0,0,.49.77h0a.46.46,0,0,0,.25-.1l14.21-10.63a1.57,1.57,0,0,0,.26-2.28l-3.07-3.6Z"/><path class="cls-14" d="M123.13,278.3s5.51,30.73,8.8,35.19,27.68,23.81,27.68,23.81l5.74-7L143.42,307l-4.57-29.91S124.65,274.67,123.13,278.3Z"/><path class="cls-5" d="M126.31,294.28s9.77-1.25,13.83-8.67c0,0-1.66,7.51-13.38,10.72Z"/><path class="cls-5" d="M160.93,332l-.68-.62.31-.34.69.61Zm-2.42-2.19-1.75-1.57.32-.34,1.74,1.57ZM155,326.7l-1.74-1.57.31-.34,1.74,1.57Zm-3.49-3.14L149.79,322l.32-.34,1.74,1.57Zm-3.48-3.14-1.74-1.57.31-.34,1.74,1.57Zm-3.49-3.14-1.74-1.57.31-.34,1.75,1.57Zm-3.48-3.14-1.74-1.57.31-.34,1.74,1.57Zm-3.38-3.31a11.45,11.45,0,0,1-1.24-2l.42-.2a11,11,0,0,0,1.2,2Zm-2-4.29a6.91,6.91,0,0,1-.16-.79l-.26-1.54.46-.07.26,1.54q.06.38.15.75Zm-.8-4.64-.39-2.31.47-.08.38,2.31Zm-.77-4.63-.38-2.31.46-.08.38,2.31Z"/><path class="cls-4" d="M140.76,278.63c-1.53-6.57-6.81-11.5-6.81-11.5-15.21,5.65-29.55,16.64-35.86,21.85a5.93,5.93,0,0,0-1.61,7c5.88,12.89,17.85,31.74,19.34,34.08h0s-2.42,5.45-6,7.07a.62.62,0,0,0-.37.5.84.84,0,0,0,.65.9.58.58,0,0,0,.51-.06l13.35-8.17a1.17,1.17,0,0,0,.47-1.47,9.6,9.6,0,0,0-2.41-3.27c-.71-1.55-11-23.83-12.4-27.76-.13-.38.69-.63.91-.71a25.88,25.88,0,0,1,4.54-1.33q1.26-.22,2.49-.48a108,108,0,0,0,17.2-5.19A9.91,9.91,0,0,0,140.76,278.63Z"/><path class="cls-5" d="M113.67,328.38l1.09,1.94-6.59,8.51a.5.5,0,0,0,.4.81h0a.45.45,0,0,0,.25-.07l15.31-9a1.56,1.56,0,0,0,.52-2.23L122,324.44Z"/><path class="cls-14" d="M117.42,267.52l17.16-.39s9.19,9.43,6.2,17.07-11.14,9.94-30.43,13.51l11,25.28L113.16,327,96,297.3a8,8,0,0,1-.83-6h0a8,8,0,0,1,3.35-4.72l14.88-9.85a5,5,0,0,0,2-2.71Z"/><path class="cls-5" d="M116.27,323.79l-12.18-26.64a4.15,4.15,0,0,1-.11-3.26,4.21,4.21,0,0,1,2.27-2.36L126,283a8.34,8.34,0,0,0,5.05-7.67v-5.61h.47v5.61a8.8,8.8,0,0,1-5.33,8.1L106.44,292a3.74,3.74,0,0,0-1.93,5l12.19,26.63Z"/><path class="cls-4" d="M273.18,281.88l.85-3s-8.19-3.92-16.71-8.13c1.46-5.92,2.89-11.45,3.81-14.32a13.79,13.79,0,0,0,.69-3.4,3.63,3.63,0,0,0-5.79-3.16,8.3,8.3,0,0,0-2.65,4,110.56,110.56,0,0,0-3.87,13c-.41,1.85-.79,3.8-1.09,5.84a4,4,0,0,0,2.38,4.19c1.47.63,3,1.23,4.6,1.79A53.44,53.44,0,0,0,273.18,281.88Z"/><path class="cls-15" d="M261.93,265.45l1.86,2.37s-3.08.13-3.08-1.07A1.16,1.16,0,0,1,261.93,265.45Z"/><path class="cls-4" d="M277.71,247.19c-.81-3.71-2.46-5.2-3.92-5.76a4.63,4.63,0,0,0-3.24,0,6.78,6.78,0,0,1-2.58.43c-2.34-2.82-3.8-9.32-4-10.15a.29.29,0,0,0,0-.09l-6.46,8.09a2.31,2.31,0,0,1,.63.82h0a11.28,11.28,0,0,1,.85,2.63c.22,1,.34,2,.39,2.38-.45,1.41-1.52,2.3-2.88,4.11-2.06,2.74-.44,7.56,2.49,11.79s8,10.34,8,10.34l14-5.86C278.84,261.9,279.32,254.6,277.71,247.19Z"/><path class="cls-5" d="M259,243.18c4.78-1.26,4.89-7.62,4.89-7.86a5.77,5.77,0,0,1-2.3,3.64,9.61,9.61,0,0,1-3.41,1.58h0A11.28,11.28,0,0,1,259,243.18Z"/><path class="cls-16" d="M269.07,241.73s3.54,12.65,9.32,9.59a.41.41,0,0,1,.6.3l.8,6.95a.56.56,0,0,1-.4.62c-2.85.88-17.93,5.55-18.18,6.9s1.9.87,1.9.87l.68.86s-3.25,1.59-4.39-1c-.83-1.89-2.86-8.62-3.89-12.07a5.69,5.69,0,0,1,.38-4.21,20.87,20.87,0,0,1,3.2-4.81s6,.59,9-3.91C268.14,241.68,269,241.89,269.07,241.73Z"/><path class="cls-5" d="M268.88,257.53a42.49,42.49,0,0,1-7.65-1.42l.12-.45a43.6,43.6,0,0,0,7.54,1.4Z"/><path class="cls-5" d="M279.39,259.19l.07,1.15-16.72,4.76,4.77-2.11a41.06,41.06,0,0,1,5.47-2Z"/><path class="cls-4" d="M273.24,242a13.66,13.66,0,0,0-3.42.57c-8.07,2.27-37,7.8-37,7.8h0a11.17,11.17,0,0,0-4.22-1.93c-.62-.15-.84.15-.93.39a.22.22,0,0,0,.15.28c.57.18,1.62.72,1.68,1.18s-4.54.15-4.65.83c-.05.27,3.22.62,3.22.62s-3.52.32-3.29.76,3.41.58,3.41.58-3.45.77-3.05,1.12,3.19.17,3.19.17a3.6,3.6,0,0,0-1.8,1,.15.15,0,0,0,.13.24c1.64.07,5.13-1.58,6.22-2.12h0c15.86,4.26,32.79-1.05,39.28-3.1a8.26,8.26,0,0,0,4.08-2.5A3.63,3.63,0,0,0,273.24,242Z"/><path class="cls-5" d="M253.1,254.65s15.55-2,23.29-6.14l-1.86,2.63-1.07-.9S258.19,254.89,253.1,254.65Z"/><path class="cls-4" d="M265.28,228.19a1.61,1.61,0,0,0-2.11-.38,1,1,0,0,0-.18.18c-.87-2.44-2.29-4.93-4.54-5.71-4.85-1.67-9.56,1.51-9.52,4.76a24.51,24.51,0,0,0,1.66,7.68c.39,1.07.81,2.12,1.22,3.11a2.88,2.88,0,0,1,.13.31,4.51,4.51,0,0,0,.7,1.25c1.22,1.38,3.93,1.45,5.61,1.14a7.08,7.08,0,0,0,5-3.67,7.8,7.8,0,0,0,.74-5,3.71,3.71,0,0,0,.94-.49,2.71,2.71,0,0,0,.75-1.4A2.17,2.17,0,0,0,265.28,228.19Z"/><path class="cls-12" d="M251.81,237.83a1.62,1.62,0,0,0,.43-.12,1.72,1.72,0,1,0-1.29-3.19,2.08,2.08,0,0,0-.36.2C251,235.79,251.4,236.84,251.81,237.83Z"/><path class="cls-12" d="M261.14,232.26a1.73,1.73,0,1,1-2.25-.95A1.73,1.73,0,0,1,261.14,232.26Z"/><path class="cls-5" d="M255.66,236.14a.75.75,0,0,0,.55,0,.83.83,0,0,0,.42-.36,2.6,2.6,0,0,1-.46.25A2.13,2.13,0,0,1,255.66,236.14Z"/><path class="cls-17" d="M254.15,227.68a1.11,1.11,0,0,1,.6-.55,2.24,2.24,0,0,1,.81-.2,1.9,1.9,0,0,1,.82.11,2.2,2.2,0,0,1,.7.4.25.25,0,0,1,0,.34.23.23,0,0,1-.27.07h0a3.11,3.11,0,0,0-.6-.18,1.94,1.94,0,0,0-.59,0,2.06,2.06,0,0,0-.57.17,2.16,2.16,0,0,1-.59.2h-.07a.25.25,0,0,1-.28-.21A.21.21,0,0,1,254.15,227.68Z"/><path class="cls-17" d="M251.84,228.61a1.15,1.15,0,0,0-.82,0,2.48,2.48,0,0,0-.72.41,2.06,2.06,0,0,0-.51.66,2.12,2.12,0,0,0-.22.77.23.23,0,0,0,.21.26.22.22,0,0,0,.24-.13v0a4,4,0,0,1,.31-.54,1.49,1.49,0,0,1,.42-.41,2,2,0,0,1,.52-.27,2.28,2.28,0,0,0,.57-.27l.05,0a.25.25,0,0,0,.06-.35A.27.27,0,0,0,251.84,228.61Z"/><path class="cls-5" d="M257.19,229.35a1.07,1.07,0,0,1-.21.87.19.19,0,0,0,.28.25.08.08,0,0,0,0,0h0a1.28,1.28,0,0,0,.13-.57,1.63,1.63,0,0,0-.12-.54.06.06,0,0,0-.08,0,.07.07,0,0,0,0,.07Z"/><path class="cls-5" d="M255.32,231a1.29,1.29,0,0,1,.7-.9,1.26,1.26,0,0,1,1.12-.05.35.35,0,0,1,.15.46.36.36,0,0,1-.15.15l0,0a5.92,5.92,0,0,1-.68.27c-.21.06-.42.19-.68.29l-.09,0a.24.24,0,0,1-.31-.14A.32.32,0,0,1,255.32,231Z"/><path class="cls-5" d="M250.73,231.76a1.09,1.09,0,0,0,.77.47.18.18,0,1,1,0,.36h0a1.12,1.12,0,0,1-.5-.31,1.41,1.41,0,0,1-.3-.46.05.05,0,0,1,0-.07,0,0,0,0,1,.07,0Z"/><path class="cls-5" d="M253.1,232.06c-.25.12-.49.17-.68.28a5.47,5.47,0,0,1-.67.3h0a.35.35,0,0,1-.44-.22.38.38,0,0,1,0-.21,1.27,1.27,0,0,1,.82-.76,1.29,1.29,0,0,1,1.13.13.25.25,0,0,1,.06.35.34.34,0,0,1-.09.08Z"/><path class="cls-18" d="M254.07,234.9s.84,1.08,1.82.52a1.76,1.76,0,0,0,.8-1.78Z"/><path class="cls-5" d="M253.63,230c.06.39.14.77.22,1.14a11.32,11.32,0,0,1,.18,1.12c0,.1,0,.19,0,.28a1.14,1.14,0,0,0,0,.34.66.66,0,0,0,.56.42.84.84,0,0,0,.62-.21,1.68,1.68,0,0,0,.36-.48c-.28.26-.63.51-.93.43a.37.37,0,0,1-.3-.27.79.79,0,0,1,0-.24c0-.1,0-.2,0-.3a5.75,5.75,0,0,0-.27-1.16A6.81,6.81,0,0,0,253.63,230Z"/><path class="cls-5" d="M264.82,228.7a4.53,4.53,0,0,0-1.16.46,3.4,3.4,0,0,0-.92.77l-.2-.26a3.76,3.76,0,0,1,1-.38,1.54,1.54,0,0,1,.57,0,.63.63,0,0,1,.49.4,1,1,0,0,1-.28,1.06,1.39,1.39,0,0,1-.95.39,1.5,1.5,0,0,0,.8-.53.74.74,0,0,0,.15-.8c-.09-.23-.4-.22-.7-.15a3.63,3.63,0,0,0-.9.34h0a.18.18,0,0,1-.23-.07.17.17,0,0,1,0-.19,3.08,3.08,0,0,1,1.07-.76A3,3,0,0,1,264.82,228.7Z"/><path class="cls-17" d="M249.08,228.93s2.39-2.7,2.4-4c0,0,7.65,6.84,11.53,3.09a1.59,1.59,0,0,1,2.48.47,2.47,2.47,0,0,1-1.6,3.37s.38,6.77-.47,8.75,3.09,3.37,8.69.52a3.67,3.67,0,0,1,1.68.28s.21-5.86-5.34-11.14-4.17-7.42-5.87-8.89-6.35-4.24-13.76.19a6.11,6.11,0,0,0-3,5.78.53.53,0,0,0,0,.13,12.67,12.67,0,0,1-3.2,10,16.1,16.1,0,0,0-2.79,3.87c-1.84,3.94,7.38,6.32,7.38,6.32L259.31,245a16.3,16.3,0,0,0-1.17-4.44s-3.95.71-5.6-1.3a48.74,48.74,0,0,1-2.26-5.43C249.65,231.77,249.08,228.93,249.08,228.93Z"/><path class="cls-19" d="M305.92,337.37c-.31-.68-2.44-2.41-3.72-3.4l-21.37-27.23-2.23-34.67H265.14c-.05,2-.05,4.18,0,6.55a82.79,82.79,0,0,0,1,9.33c.71,4.89,1.75,10.89,2.89,17.09a23.55,23.55,0,0,0,6.59,12.48c2.24,2.21,4.71,4.65,6.36,6.26,8.19,8,15,14.43,15.54,15l-.08.08s-2.26,5.52-5.84,7.24a.61.61,0,0,0-.36.5.85.85,0,0,0,.67.89.58.58,0,0,0,.51-.07l13.13-8.54A1.18,1.18,0,0,0,305.92,337.37Z"/><path class="cls-10" d="M264.15,272.7s.1,26.35,5.26,37.25c4.56,9.63,19.25,24.72,22.64,28.14a1.29,1.29,0,0,0,1.58.21c2-1.18,6.9-4.26,8.43-7.22a1.31,1.31,0,0,0-.16-1.44l-19.82-23.89s-1.16-31.22-2.28-33.68S268.74,267.12,264.15,272.7Z"/><polygon class="cls-5" points="266.54 300.21 281.19 286.8 281.41 290.78 266.54 300.21"/><path class="cls-5" d="M298.35,331.67l-17.92-18.4a13.78,13.78,0,0,1-3.88-8.9l-.41-8,1.4-.07.42,8a12.32,12.32,0,0,0,3.48,8l17.92,18.41Z"/><path class="cls-16" d="M306.58,337.45a1.55,1.55,0,0,1-.73,1.4l-15,9.54a.38.38,0,0,1-.25.08.44.44,0,0,1-.28-.07.47.47,0,0,1-.25-.39.5.5,0,0,1,.1-.34l6.27-8.75-1-1.29,8-4.86,2.79,3.82a1.43,1.43,0,0,1,.2.36A1.24,1.24,0,0,1,306.58,337.45Z"/><path class="cls-5" d="M306.58,337.45,290.36,348.4a.47.47,0,0,1-.25-.39L306.48,337A1.24,1.24,0,0,1,306.58,337.45Z"/><path class="cls-4" d="M285.57,276.18l-.09-.5c-.63-2.9-2.64-5.57-4.55-7.78a22,22,0,0,0-2.65-2.46,108.21,108.21,0,0,0-9.68,8.88,82.16,82.16,0,0,0-6,7.24c-3,3.93-6.55,8.87-10.17,14A23.56,23.56,0,0,0,248.18,309c0,3.15,0,6.62,0,8.92,0,11.45.19,20.79.21,21.58h-.11s-5.53,2.25-9.27.9a.59.59,0,0,0-.61.1.84.84,0,0,0-.16,1.1.59.59,0,0,0,.41.31l15.29,3.38a1.19,1.19,0,0,0,1.36-.74c.27-.7,0-3.43-.18-5h0l4.45-34.32Z"/><path class="cls-16" d="M256.66,339.66l-.77,4.67a1.2,1.2,0,0,1-.1.35,1.73,1.73,0,0,1-.27.43,1.56,1.56,0,0,1-1.54.49l-17.29-4a.56.56,0,0,1-.24-.13.51.51,0,0,1-.14-.49.5.5,0,0,1,.41-.38h0l10.6-1.65.24-1.6Z"/><path class="cls-5" d="M255.79,344.68a1.73,1.73,0,0,1-.27.43L236.31,341a.5.5,0,0,1,.41-.38h0Z"/><path class="cls-10" d="M265,269.4l16-5.22s9.17,9.18,6.18,15.4-26.47,25.56-26.47,25.56l-1.59,30.76a1.84,1.84,0,0,1-1.83,1.73c-2.71,0-8-.28-11.83-2.46a1.8,1.8,0,0,1-.88-1.74l2.35-27a18.94,18.94,0,0,1,3-8.6l12.31-18.72Z"/><rect class="cls-5" x="265.38" y="267.61" width="16.17" height="0.47" transform="translate(-67.17 93.22) rotate(-17.26)"/><path class="cls-5" d="M253.66,334.8l-1.41-.12,2.14-25.2A16.43,16.43,0,0,1,259,299.41c11.33-11.63,18.69-19.7,20.2-22.12,2.59-4.17-1.26-8.32-1.42-8.5l1-1c.05.05,4.77,5.12,1.6,10.21-2.14,3.44-13.7,15.48-20.4,22.36a15,15,0,0,0-4.2,9.21Z"/><path class="cls-4" d="M348.86,209.32a3.65,3.65,0,0,0-1.89-1.59c.27-.48,2.33-3.85,1.85-4s-4.09,4.66-4.09,4.66c-.74-1.25-3-2.59-2.14-.82a11,11,0,0,1,.44,4.76s-1,9-2.22,18.45c-6.08.55-11.77,1-14.78,1.08a13.81,13.81,0,0,0-3.44.45,3.64,3.64,0,0,0-1.1,6.51,8.27,8.27,0,0,0,4.63,1.2,109.56,109.56,0,0,0,13.55-.59c1.88-.21,3.85-.49,5.87-.87a3.94,3.94,0,0,0,3.19-3.62c.11-1.6.18-3.25.19-4.94a53.84,53.84,0,0,0-2.65-17.5C348,211.61,349.23,210.23,348.86,209.32Z"/><path class="cls-14" d="M332.24,230.93l.52,9.33s-13.64,2.89-13.23-4.82C319.53,235.44,319.3,229.8,332.24,230.93Z"/><path class="cls-5" d="M337,239.67c.91-1.57.37-8.61.37-8.61a19.2,19.2,0,0,1,1.57,8.43Z"/><path class="cls-4" d="M331.62,243.72c-.95-4.91-.63-10.13-4-11-2.19-.55-3.58-.57-4.82-1.39-.21-.33-.71-1.14-1.19-2.09a11.06,11.06,0,0,1-1-2.58h0a2.42,2.42,0,0,1,0-1l-10.11-2.23.05.08c.38.76,3.33,6.73,3.27,10.39a6.48,6.48,0,0,1-2.27,1.29,4.68,4.68,0,0,0-2.54,2c-.77,1.36-1.13,3.55.57,6.94,3.4,6.78,6.48,12.94,7.34,17.44l17.69-5.38S332.67,249.1,331.62,243.72Z"/><path class="cls-5" d="M321.65,229.27c-4.51,2-8.59-2.86-8.74-3.05a5.75,5.75,0,0,0,4.08,1.39,9.55,9.55,0,0,0,3.64-.91h0A11.06,11.06,0,0,0,321.65,229.27Z"/><path class="cls-14" d="M335.18,255.68c-2.59.46-16.26,3-19.57,5a.36.36,0,0,1-.55-.25,35.16,35.16,0,0,0-1.4-6.27c-.05-.17-.11-.33-.17-.5s-.06-.19-.1-.28l-.18-.48a17.76,17.76,0,0,0-.92-2c-1.84-3.36-4.63-8.56-4.13-12.2a4.1,4.1,0,0,1,1.91-2.87l3.34-2.11s5.58,1.83,9.53-2.19c0,0,4.95,1,5.3.9s2.3,1.4,3.17,7.91c.76,5.69,3.39,13.07,4,14.87A.36.36,0,0,1,335.18,255.68Z"/><path class="cls-5" d="M329.1,235a4.75,4.75,0,0,0-3.12-2.9l.1-.46a5.14,5.14,0,0,1,3.46,3.19Z"/><path class="cls-5" d="M322.51,252l-.27-.38a12,12,0,0,0,3.66-4.3l.43.19A12.27,12.27,0,0,1,322.51,252Z"/><path class="cls-5" d="M324.43,252.73l-.37-.28s3.27-4.38,3.78-6.11l.45.13C327.76,248.28,324.57,252.55,324.43,252.73Z"/><path class="cls-5" d="M315.73,253.94l-.07.47-2-.29c-.05-.17-.11-.33-.17-.5Z"/><path class="cls-5" d="M314.78,251.94l-1.39,1.4-.18-.48,1.24-1.25Z"/><path class="cls-4" d="M334.81,216.18c1.71-.87,2.94-2.24,2.57-3.15a3.71,3.71,0,0,0-1.89-1.59c.27-.48,2.33-3.84,1.85-4s-4.09,4.66-4.09,4.66c-.74-1.24-3-2.58-2.14-.82a11,11,0,0,1,.44,4.76h0c-.06.48-1.06,9.26-2.22,18.43-6.07.55-11.77,1-14.78,1.08a13.88,13.88,0,0,0-3.44.45,3.64,3.64,0,0,0-1.09,6.51,8.25,8.25,0,0,0,4.63,1.2,109.48,109.48,0,0,0,13.54-.59c1.88-.21,3.86-.49,5.88-.87a4,4,0,0,0,3.18-3.62c.12-1.6.18-3.25.19-4.94A53.81,53.81,0,0,0,334.81,216.18Z"/><path class="cls-14" d="M321.11,234.88v9.35s-13.77,2.14-12.95-5.54C308.16,238.69,308.25,233.05,321.11,234.88Z"/><path class="cls-5" d="M317.11,245a13.77,13.77,0,0,1-7.45-2l.27-.38A14.14,14.14,0,0,0,321.05,244l.12.45A16.13,16.13,0,0,1,317.11,245Z"/><polygon class="cls-5" points="321.11 235.15 321.11 243.7 322.75 235.02 321.11 235.15"/><path class="cls-4" d="M324,220.92c-1-3.53-2.34-7.61-4.63-10.53-2-2.56-7.67-2.07-10.39,2.28-1.27,2-.81,4.84.05,7.29l-.25,0a1.62,1.62,0,0,0-1.41,1.62,2.14,2.14,0,0,0,.78,1.62,2.73,2.73,0,0,0,1.47.62,3.23,3.23,0,0,0,1-.21,7.78,7.78,0,0,0,3.74,3.45,7,7,0,0,0,6.2-.29c1.5-.82,3.56-2.57,3.65-4.41A4.54,4.54,0,0,0,324,220.92Z"/><path class="cls-5" d="M319.72,216.63c.16.54.51.91.77.83s.35-.58.18-1.12-.51-.91-.77-.83S319.56,216.09,319.72,216.63Z"/><path class="cls-5" d="M316.55,217.59c.17.54.09,1-.18,1.12s-.61-.29-.77-.83-.08-1,.18-1.12S316.39,217.05,316.55,217.59Z"/><path class="cls-5" d="M320.82,219.51a2.48,2.48,0,0,1-.47,1,1.89,1.89,0,0,1-1,.68,1.94,1.94,0,0,1-1.17,0,4.12,4.12,0,0,1-.52-.24,5.3,5.3,0,0,1-.45-.34c.18.06.34.13.51.2s.35.12.52.15a2.07,2.07,0,0,0,1,0,2,2,0,0,0,.87-.54A4.18,4.18,0,0,0,320.82,219.51Z"/><path class="cls-5" d="M320.06,221.63a.82.82,0,0,1-.45.32.8.8,0,0,1-.55,0,2.71,2.71,0,0,0,.51-.09A2.58,2.58,0,0,0,320.06,221.63Z"/><path class="cls-5" d="M315.92,214.09a1.23,1.23,0,0,0-.82-.05,2.7,2.7,0,0,0-.75.35,2.21,2.21,0,0,0-.57.61,2.09,2.09,0,0,0-.29.75.24.24,0,0,0,.18.28.25.25,0,0,0,.26-.11v0a3.41,3.41,0,0,1,.36-.52,1.74,1.74,0,0,1,.45-.37,2.06,2.06,0,0,1,.55-.23,2.32,2.32,0,0,0,.59-.21l.05,0a.25.25,0,0,0,.09-.34A.22.22,0,0,0,315.92,214.09Z"/><path class="cls-5" d="M318.3,213.37a1.23,1.23,0,0,1,.65-.5,2.51,2.51,0,0,1,.82-.12,2,2,0,0,1,.81.18,2.23,2.23,0,0,1,.66.46.24.24,0,0,1,0,.34.23.23,0,0,1-.27.05h0a2.4,2.4,0,0,0-.59-.23,1.64,1.64,0,0,0-.58-.06,2.4,2.4,0,0,0-.58.12,2.87,2.87,0,0,1-.61.15h-.06a.26.26,0,0,1-.27-.24A.23.23,0,0,1,318.3,213.37Z"/><path class="cls-5" d="M318.64,215.33c.2.34.37.69.55,1s.36.67.56,1a1.88,1.88,0,0,0,.16.23,1.22,1.22,0,0,1,.18.29.67.67,0,0,1-.17.68.78.78,0,0,1-.61.22,1.59,1.59,0,0,1-.58-.14c.38,0,.81,0,1-.25a.4.4,0,0,0,.07-.4.82.82,0,0,0-.14-.2l-.18-.24a5.56,5.56,0,0,1-.52-1.07A7.26,7.26,0,0,1,318.64,215.33Z"/><path class="cls-5" d="M308.16,220.66a4.53,4.53,0,0,1,1.16.46,3.22,3.22,0,0,1,.91.77l.21-.26a3.79,3.79,0,0,0-1-.39,1.55,1.55,0,0,0-.57,0,.63.63,0,0,0-.49.4.93.93,0,0,0,.28,1,1.39,1.39,0,0,0,.95.39,1.49,1.49,0,0,1-.81-.52.76.76,0,0,1-.14-.8c.09-.23.4-.22.7-.16a4.64,4.64,0,0,1,.9.34h0a.18.18,0,0,0,.23-.07.17.17,0,0,0,0-.19,3.08,3.08,0,0,0-1.07-.76A3,3,0,0,0,308.16,220.66Z"/><path class="cls-5" d="M307.74,220.46a1.15,1.15,0,0,1,1.49-.31,13,13,0,0,0,1.61.86.64.64,0,0,0,.9-.71l-.65-3a3.34,3.34,0,0,1,.46-2.54c.89-1.36,2.5-3.39,4.43-3.83a1.76,1.76,0,0,1-.64,1.29s2.71-.86,3.61-2.26c0,0,.85,1,1.14,1.47a7,7,0,0,0-.58-6.85s-5.13,2.87-7.3,3.38-5.08,3-4.55,5.75C307.66,213.72,303.56,214.42,307.74,220.46Z"/><path class="cls-8" d="M374.27,332a.61.61,0,0,0-.61-.11c-3.75,1.32-9.26-1-9.26-1h-.11c0-.8.27-10.13.41-21.58,0-2.55.05-6.52.07-9.9a20.46,20.46,0,0,0-3.58-11.66c-3.78-5.5-7.51-10.8-10.63-15a81.57,81.57,0,0,0-5.91-7.3c-2.66-2.72-5.06-5.06-7.18-6.94-3.58.37-7.1,1-10.63,1.72l-.73,5.16,27.31,31.06,4.14,34.37c-.2,1.61-.49,4.33-.23,5a1.18,1.18,0,0,0,1.36.74L374,333.42a.62.62,0,0,0,.41-.31A.85.85,0,0,0,374.27,332Z"/><path class="cls-14" d="M375.43,333.07l-1.38.33h0l-.1,0h-.06L359,337a1.47,1.47,0,0,1-1.36-.37,1.46,1.46,0,0,1-.29-.41,1.41,1.41,0,0,1-.15-.65v-.93l0-4.9h.16l6.91-.28.87,0,.36,1.1s1,2,5.43.82c2.61-.71,3.92,0,4.55.65a1.24,1.24,0,0,1,.19.22.54.54,0,0,1-.3.86Z"/><path class="cls-5" d="M375.83,332.41l-1.29.29-16.6,3.87-.27.06a1.46,1.46,0,0,1-.29-.41l.11,0,17-3.95,1.08-.25a1.24,1.24,0,0,1,.19.22A.54.54,0,0,1,375.83,332.41Z"/><polygon class="cls-5" points="349.88 292.48 360.03 286.1 358.88 284.43 349.88 292.48"/><polygon class="cls-5" points="364.33 329.45 357.42 329.74 357.28 328.58 364.33 329.45"/><path class="cls-4" d="M333.05,283.23a81,81,0,0,0-1.92-9.19,93.38,93.38,0,0,0-5-13.61l-.36.07c-2.35.47-4.7.92-7,1.46l-1.06.24-1.26,2.65L318,278.53l6.79,27.08-12,32.45c-.92,1.34-2.42,3.64-2.51,4.38a1.19,1.19,0,0,0,.86,1.29l15.11,4.13a.59.59,0,0,0,.5-.09.84.84,0,0,0,.37-1,.59.59,0,0,0-.49-.37c-3.94-.55-7.78-5.11-7.78-5.11l-.09-.06c.38-.69,4.86-8.88,10.23-19,1.65-3.11,4.53-8.65,6.21-11.88a9.24,9.24,0,0,0,1-5.39C335.11,297.08,334.06,289.27,333.05,283.23Z"/><path class="cls-14" d="M327.64,347.86a.6.6,0,0,1-.05.3.55.55,0,0,1-.65.29l-16.16-4.78a1.47,1.47,0,0,1-1-1.56,1.1,1.1,0,0,1,.13-.45.75.75,0,0,1,.06-.13l2.94-5,.35.18,6.15,3.22.54.29-.24,1.12a2.51,2.51,0,0,0,.95,1.8l.15.13a8,8,0,0,0,3.2,1.5c2.71.71,3.46,2,3.63,2.93A1.29,1.29,0,0,1,327.64,347.86Z"/><path class="cls-5" d="M327.64,347.86a.6.6,0,0,1-.05.3l-1-.34h0l-16.35-5.54-.49-.17a1.1,1.1,0,0,1,.13-.45l.53.18L327,347.46l.63.21A1.29,1.29,0,0,1,327.64,347.86Z"/><polygon class="cls-5" points="334.89 295.67 335.24 298.29 322.44 296.46 334.89 295.67"/><polygon class="cls-5" points="319.37 339.9 313.21 336.68 313.61 335.62 319.37 339.9"/><path class="cls-6" d="M359.27,282.21l-.31-.37-16.79-20h0l0,0a3.42,3.42,0,0,0-.43-.51l-1.11-1-.36-.34-4.44-4.08-1.58.41-.49.13-14.63,3.82-.46.12-1.12.3-.47.12-2.07.54s-1.62,9,6.23,33.42l.15.47c.14.43.28.87.43,1.31l13.69-.82-.16-1.28-.07-.47-2.27-18s.35-.26.9-.71l13.7,16.25.31.36,1.16,1.38,11.11-9.93Z"/><path class="cls-5" d="M329.48,277.46l-.12-.45a13.88,13.88,0,0,0,6.25-4.2l.35.32A14.18,14.18,0,0,1,329.48,277.46Z"/><rect class="cls-5" x="341.48" y="272.01" width="0.47" height="18.95" transform="translate(-100.83 293.99) rotate(-41.1)"/><path class="cls-5" d="M323.05,292.71l-.44.14a117.07,117.07,0,0,1-5.55-32.13l.47-.12c0,1,.05,3.06.3,5.92,0,.16,0,.31,0,.47A123,123,0,0,0,323.05,292.71Z"/><path class="cls-5" d="M340.61,260.24a2.6,2.6,0,0,1-1.3.36,2.39,2.39,0,0,1-.53-.06c-2.24-.4-4.39-3.26-5-4.18l.49-.13c.72,1,2.7,3.5,4.63,3.86a2.12,2.12,0,0,0,1.39-.19Z"/><path class="cls-5" d="M319.29,266a2,2,0,0,1-1.42,1l-.1,0-.07-.46.13,0a1.52,1.52,0,0,0,1.06-.73c.88-1.46.07-4.48-.24-5.49l.46-.12C319.44,261.26,320.28,264.41,319.29,266Z"/><path class="cls-5" d="M335.33,294.36l-14,.79-.15-.47,14-.79Z"/><polygon class="cls-5" points="359.27 282.21 347.9 291.83 347.59 291.47 358.96 281.84 359.27 282.21"/><path class="cls-19" d="M385.42,307.25l14.09-30.19c-1.09-1.13-2.19-2.25-3.23-3.42-2.06-2.31-4.23-4.77-6.18-7.31-1.52,2.4-3.17,5.34-5,8.71a80.08,80.08,0,0,0-3.62,8.66c-1.73,4.63-3.7,10.38-5.68,16.37a23.62,23.62,0,0,0-.2,14.12c.89,3,1.89,6.34,2.56,8.54,3.35,10.95,6.2,19.84,6.45,20.6l-.11,0s-4.64,3.75-8.6,3.54a.62.62,0,0,0-.56.27.85.85,0,0,0,.16,1.1.63.63,0,0,0,.48.18l15.62-1.19a1.18,1.18,0,0,0,1.09-1.1c0-.74-1-3.28-1.63-4.77Z"/><path class="cls-4" d="M423.63,344.91a.6.6,0,0,0-.58-.23c-3.94.48-8.82-2.94-8.82-2.94l-.11,0c.19-.77,2.42-9.83,5-21,.52-2.24,1.28-5.63,2-8.7A23.59,23.59,0,0,0,419.92,298c-2.39-5.84-4.75-11.45-6.79-15.95a82.31,82.31,0,0,0-4.21-8.39l-.24-.37c-1.87,1.18-3.72,2.39-5.49,3.72-1.95,1.47-3.86,3-5.88,4.35l13.54,24.46-3.3,34.45c-.54,1.53-1.4,4.14-1.3,4.88a1.18,1.18,0,0,0,1.17,1l15.66.11a.59.59,0,0,0,.46-.21A.85.85,0,0,0,423.63,344.91Z"/><path class="cls-9" d="M392.82,347.11a1.59,1.59,0,0,1-1.35.83l-17.74.53a.44.44,0,0,1-.25-.06.58.58,0,0,1-.21-.2.52.52,0,0,1,0-.47.56.56,0,0,1,.26-.24l9.86-4.3-.17-1.61,9.34-.08.45,4.71a1.12,1.12,0,0,1,0,.41A1.36,1.36,0,0,1,392.82,347.11Z"/><path class="cls-5" d="M392.82,347.11l-19.55,1.1a.52.52,0,0,1,0-.47L393,346.63A1.36,1.36,0,0,1,392.82,347.11Z"/><path class="cls-9" d="M406.51,346.17a1.56,1.56,0,0,0,1.41.72l17.72-.84a.5.5,0,0,0,.26-.08.63.63,0,0,0,.18-.22.5.5,0,0,0,0-.46.54.54,0,0,0-.28-.23l-10.17-3.52.05-1.61-9.32.64-.08,4.73a1.4,1.4,0,0,0,.05.41A1.46,1.46,0,0,0,406.51,346.17Z"/><path class="cls-5" d="M406.51,346.17l19.57-.42a.5.5,0,0,0,0-.46l-19.75.42A1.46,1.46,0,0,0,406.51,346.17Z"/><path class="cls-16" d="M389.16,265.11l18.29-2,14.69,39a9.88,9.88,0,0,1,.4,5.59l-6.17,27.89H407l3.08-29.32-12.68-22.7L386.46,307l4.81,28.62h-9.85l-7.62-25.33a9.91,9.91,0,0,1,0-5.66A301.05,301.05,0,0,1,389.16,265.11Z"/><polyline class="cls-20" points="391.49 266.71 376.72 305.77 384.11 334.87"/><polyline class="cls-20" points="396.58 266.71 382.2 305.3 388.14 334.29"/><polyline class="cls-20" points="398.22 266.71 414.25 304.68 410.55 333.71"/><polyline class="cls-20" points="404.4 265.73 419.88 304.21 414.72 333.71"/><polygon class="cls-5" points="382.2 335.64 390.46 337.61 390.12 335.6 382.2 335.64"/><polygon class="cls-5" points="408 335.6 407.82 337.39 415.61 335.6 408 335.6"/><path class="cls-4" d="M407.22,237.93a4.59,4.59,0,0,0-3.06-1.08,6.54,6.54,0,0,1-2.57-.48c-1.24-3.44-.4-10.05-.29-10.89,0,0,0-.06,0-.09l-8.82,5.41a2.57,2.57,0,0,1,.31,1h0a11.31,11.31,0,0,1-.09,2.76c-.15,1-.36,2-.45,2.37-.9,1.17-2.21,1.65-4.1,2.88-2.87,1.88-3,7-1.66,11.94s4.18,13.76,4.18,13.76l15.64-1.68c-.66-4.53,1.63-11.62,2.63-19.14C409.45,240.92,408.4,239,407.22,237.93Z"/><path class="cls-5" d="M392.71,234.55c4.92.44,7.18-5.51,7.27-5.73a5.84,5.84,0,0,1-3.41,2.64,9.58,9.58,0,0,1-3.74.33h0A11.31,11.31,0,0,1,392.71,234.55Z"/><path class="cls-4" d="M391.54,239.48a8.33,8.33,0,0,0-4.76.55,110.44,110.44,0,0,0-12.42,5.43c-1.68.87-3.42,1.85-5.17,2.93a4,4,0,0,0-1.67,4.52c.47,1.53,1,3.1,1.61,4.68a54.34,54.34,0,0,0,8.06,14.49c.24,1.36.94,4.87,1.91,6.11a.16.16,0,0,0,.27-.05,3.62,3.62,0,0,0-.24-2s1.48,2.36,2,2.48-.88-3.12-.88-3.12,2,2.48,2.47,2.41-1.32-3.11-1.32-3.11,2.21,2.45,2.4,2.25c.48-.49-2.51-4-2.06-4.25s1.45.31,1.94.67a.22.22,0,0,0,.31-.05c.14-.21.25-.57-.23-1a11.34,11.34,0,0,0-3.16-2c-.76-2.9-2.48-9.57-4.19-16.49,5.47-2.7,10.62-5.18,13.4-6.33a14.18,14.18,0,0,0,3.05-1.66A3.64,3.64,0,0,0,391.54,239.48Z"/><path class="cls-4" d="M417.53,194.48a.16.16,0,0,0-.25-.11,3.61,3.61,0,0,0-.89,1.85s0-2.77-.37-3.16-.92,3.11-.92,3.11-.35-3.16-.8-3.36-.55,3.33-.55,3.33-.55-3.25-.82-3.18c-.67.15,0,4.72-.54,4.69s-1.06-1-1.27-1.6a.23.23,0,0,0-.3-.13c-.22.1-.52.35-.33,1a11.38,11.38,0,0,0,2.07,3.94c-1.07,4-7.67,28.59-10.28,35.83a13.86,13.86,0,0,0-.82,3.37,3.63,3.63,0,0,0,5.67,3.38,8.29,8.29,0,0,0,2.79-3.89c2.5-6.31,9-22.72,5.93-38.79C416.36,199.48,417.69,196.06,417.53,194.48Z"/><path class="cls-9" d="M416.31,218.73l-.14.73c0,.14-.05.29-.09.46-.73,3.78-3.22,15.61-6.59,21.54a43.32,43.32,0,0,1-2.92,18.61l-.28.06L390,263.82l-4.3-14-8.37,4.46.3,1.34.1.46.3,1.37L368.75,259l-.4-1.36-.13-.45-1.39-4.79a4.17,4.17,0,0,1,2.34-5l17.58-7.67s11.26,5.69,15.54-3.52l4.87-17,.13-.46.22-.75Z"/><polygon class="cls-5" points="390.14 263.82 406.21 261.63 406.3 260.13 390.14 263.82"/><polygon class="cls-5" points="377.71 256.12 368.36 257.61 368.22 257.15 377.61 255.66 377.71 256.12"/><path class="cls-5" d="M416.17,219.46c0,.14-.05.29-.09.46l-8.92-.7.13-.46Z"/><path class="cls-5" d="M394.06,243.22a17.23,17.23,0,0,1-7.68-2.1l.23-.41c.06,0,5.41,3.07,10.21,1.66a9,9,0,0,0,5.5-4.81l.41.21a9.46,9.46,0,0,1-5.78,5.06A10.32,10.32,0,0,1,394.06,243.22Z"/><rect class="cls-5" x="395.28" y="251.82" width="5.16" height="0.47" transform="translate(-72.56 274.98) rotate(-35.14)"/><rect class="cls-5" x="397.63" y="253.11" width="2.12" height="0.47" transform="translate(-70.64 306.87) rotate(-38.94)"/><path class="cls-5" d="M407.84,242a25.93,25.93,0,0,1,.72,4.56,32.38,32.38,0,0,1,0,4.62,27.17,27.17,0,0,1-.72,4.57,22.22,22.22,0,0,1-1.55,4.34c.11-.37.23-.73.35-1.1l.18-.54.14-.56.3-1.1.23-1.12a36.08,36.08,0,0,0,.6-4.52c.11-1.52.13-3.05.1-4.57,0-.76-.06-1.53-.13-2.29S407.94,242.81,407.84,242Z"/><polygon class="cls-5" points="369.62 258.82 377.81 259.53 377.28 257.61 369.62 258.82"/><polygon class="cls-5" points="407.86 218.01 416.17 216.9 415.92 218.7 407.86 218.01"/><path class="cls-4" d="M403.71,222.58a1.62,1.62,0,0,0-1.86-1.07l-.22.11c0-2.59-.48-5.41-2.34-6.91-4-3.22-9.5-1.83-10.56,1.24a24.14,24.14,0,0,0-1.05,7.79c0,1.14,0,2.26.09,3.34,0,.11,0,.22,0,.33a4.43,4.43,0,0,0,.23,1.41c.68,1.72,3.2,2.7,4.89,3a7,7,0,0,0,5.95-1.74,7.88,7.88,0,0,0,2.42-4.48,3.37,3.37,0,0,0,1-.15,2.64,2.64,0,0,0,1.18-1.06A2.13,2.13,0,0,0,403.71,222.58Z"/><path class="cls-12" d="M387.77,227.08a2.22,2.22,0,0,0,.45,0,1.72,1.72,0,0,0-.13-3.44,1.84,1.84,0,0,0-.41.06C387.68,224.88,387.72,226,387.77,227.08Z"/><path class="cls-12" d="M398.43,225a1.72,1.72,0,1,1-1.78-1.65A1.73,1.73,0,0,1,398.43,225Z"/><path class="cls-5" d="M389,221.32a1,1,0,0,0,.59.67.17.17,0,0,1,.11.23.18.18,0,0,1-.23.12l0,0h0a1.14,1.14,0,0,1-.38-.44,1.47,1.47,0,0,1-.16-.53.07.07,0,0,1,.06-.07.08.08,0,0,1,.06,0Z"/><path class="cls-5" d="M389.52,221.86c.28,0,.52,0,.73,0s.43,0,.73,0h0a.36.36,0,0,1,.32.38.33.33,0,0,1-.08.19,1.27,1.27,0,0,1-1,.4,1.31,1.31,0,0,1-1-.55.25.25,0,0,1,.07-.34.28.28,0,0,1,.12,0Z"/><path class="cls-5" d="M395.63,221.32a1,1,0,0,1-.59.67.19.19,0,0,0-.11.23.18.18,0,0,0,.23.12l0,0h0a1.26,1.26,0,0,0,.39-.44,1.68,1.68,0,0,0,.15-.53.08.08,0,0,0-.05-.07.07.07,0,0,0-.06,0Z"/><path class="cls-5" d="M395.43,222.24a1.29,1.29,0,0,1-1,.55,1.27,1.27,0,0,1-1-.4.35.35,0,0,1,.05-.49.46.46,0,0,1,.19-.08h.05c.3,0,.51,0,.73,0s.46,0,.73,0h.1a.25.25,0,0,1,.23.26A.17.17,0,0,1,395.43,222.24Z"/><path class="cls-5" d="M390.56,225.05a2.35,2.35,0,0,0,.78.82,1.91,1.91,0,0,0,1.12.33,1.94,1.94,0,0,0,1.09-.43,3.88,3.88,0,0,0,.42-.39c.11-.16.22-.31.32-.47-.15.11-.29.24-.43.36s-.28.22-.44.31a1.92,1.92,0,0,1-1,.31,2,2,0,0,1-1-.22A4.75,4.75,0,0,1,390.56,225.05Z"/><path class="cls-5" d="M392,226.8a.8.8,0,0,0,.52.16.88.88,0,0,0,.52-.2,2.43,2.43,0,0,1-.52.08A2.32,2.32,0,0,1,392,226.8Z"/><path class="cls-5" d="M393.41,218.33a1.22,1.22,0,0,1,.76-.32,2.58,2.58,0,0,1,.83.09,2,2,0,0,1,.73.38,2,2,0,0,1,.52.62.23.23,0,0,1-.08.32.23.23,0,0,1-.28,0l0,0a3.39,3.39,0,0,0-.5-.37,1.82,1.82,0,0,0-.55-.2,1.94,1.94,0,0,0-.59,0,2.24,2.24,0,0,1-.63,0h-.06a.25.25,0,0,1-.2-.29A.23.23,0,0,1,393.41,218.33Z"/><path class="cls-5" d="M390.93,218.42a1.2,1.2,0,0,0-.78-.26,2.52,2.52,0,0,0-.81.15,1.93,1.93,0,0,0-.71.44,2.12,2.12,0,0,0-.47.65.24.24,0,0,0,.11.32.23.23,0,0,0,.27,0l0,0a3,3,0,0,1,.48-.41,1.5,1.5,0,0,1,.53-.24,2.25,2.25,0,0,1,.58-.08,2.32,2.32,0,0,0,.63-.06l.06,0a.25.25,0,0,0,.17-.31A.2.2,0,0,0,390.93,218.42Z"/><path class="cls-5" d="M392.13,220.35c-.07.39-.12.77-.18,1.15a10.07,10.07,0,0,1-.21,1.12,2,2,0,0,1-.07.26,1.23,1.23,0,0,0-.08.33.66.66,0,0,0,.38.59.78.78,0,0,0,.65,0,1.58,1.58,0,0,0,.51-.32c-.36.14-.77.26-1,.08a.39.39,0,0,1-.19-.35A1.11,1.11,0,0,1,392,223l.09-.29a5.94,5.94,0,0,0,.14-1.18A5.76,5.76,0,0,0,392.13,220.35Z"/><path class="cls-5" d="M403.19,222.5A4.46,4.46,0,0,0,402,223a3.13,3.13,0,0,0-.92.77l-.21-.26a4.23,4.23,0,0,1,1-.38,1.48,1.48,0,0,1,.56,0,.66.66,0,0,1,.5.4,1,1,0,0,1-.28,1.06,1.42,1.42,0,0,1-1,.39,1.52,1.52,0,0,0,.81-.53.76.76,0,0,0,.14-.8c-.09-.23-.39-.22-.7-.15a4,4,0,0,0-.9.34h0a.16.16,0,0,1-.22-.07.19.19,0,0,1,0-.19,3.12,3.12,0,0,1,1.08-.76A3.21,3.21,0,0,1,403.19,222.5Z"/><path class="cls-5" d="M401.63,221.62s-1,1.44-1.79,1.36-2.61-3.68-1.29-5.69a3.41,3.41,0,0,1-3.7-1.56s-2.86,2-4.77,0a2.28,2.28,0,0,1-1.63,1.14,28.36,28.36,0,0,0-.72,4.76,46.13,46.13,0,0,0,.23,7,3.62,3.62,0,0,0,2,2.15,12.56,12.56,0,0,0,2.8,1,14.7,14.7,0,0,1-.54,5.15,8.22,8.22,0,0,1-5.11,3l-.4-.18-10.1,4.4s-3.47-6.4,1.62-8.28c0,0-3.62-7.2,4.16-9.39,0,0-4.22-6.28,3.4-8.54,0,0-1.54-6.73,5.76-7.38,0,0,8.92-6.29,10.42,4.27,0,0,5.85.2,3.18,6.65a2.06,2.06,0,0,1,.72,2.08l-3.62,12.67v.44l-.69-.26a23,23,0,0,1-.29-10.9s2.35.05,2.47-2.12a1.78,1.78,0,0,0-.63-1.5A1.48,1.48,0,0,0,401.63,221.62Z"/><polygon class="cls-21" points="533.18 422 263.55 422 233.15 359.49 533.18 359.49 533.18 422"/><text class="cls-22" transform="translate(203.27 376.57)">Expresión<tspan class="cls-23" x="114.93" y="0"> </tspan><tspan x="119.93" y="0">artísti</tspan><tspan class="cls-24" x="199.44" y="0">c</tspan><tspan x="213.39" y="0">a, </tspan><tspan class="cls-25"><tspan x="0" y="19.42">cre</tspan><tspan class="cls-26" x="40.76" y="19.42">a</tspan><tspan x="53.53" y="19.42">tivi</tspan><tspan class="cls-27" x="93.96" y="19.42">d</tspan><tspan class="cls-28" x="107.72" y="19.42">ad</tspan><tspan class="cls-29" x="136.95" y="19.42" xml:space="preserve"> y</tspan><tspan class="cls-28" x="155.35" y="19.42" xml:space="preserve"> habili</tspan><tspan class="cls-30" x="229.05" y="19.42">d</tspan><tspan x="242.81" y="19.42">ades </tspan><tspan x="0" y="38.83">socioemocionales</tspan></tspan></text></g></g></svg>