<svg xmlns="http://www.w3.org/2000/svg" xmlns:xlink="http://www.w3.org/1999/xlink" viewBox="0 0 623.62 623.62"><defs><style>.cls-1{fill:none;}.cls-2{fill:#a05129;}.cls-3{clip-path:url(#clip-path);}.cls-4{fill:#499097;}.cls-5{fill:#67623c;}.cls-6{fill:#f4a189;}.cls-7{fill:#f3997f;}.cls-8{fill:#503e36;}.cls-14,.cls-17,.cls-19,.cls-21,.cls-22,.cls-8,.cls-9{fill-rule:evenodd;}.cls-9{fill:#dc8463;}.cls-10{fill:#db6844;}.cls-11{fill:#010101;}.cls-12{fill:#d0d4d6;}.cls-13{fill:#123142;}.cls-14{fill:#944b2f;}.cls-15{fill:#245f76;}.cls-16{fill:#f8bca9;}.cls-17{fill:#33231f;}.cls-18{fill:#deae85;}.cls-19{fill:#b16144;}.cls-20{fill:#977a72;}.cls-21{fill:#4e3733;}.cls-22{fill:#743a24;}.cls-23{fill:#0b3d62;}.cls-24{fill:#ede3cc;}.cls-25{fill:#ddd1b3;}.cls-26{fill:#734439;}.cls-27{fill:#f5aa91;}.cls-28{fill:#0e1d25;}.cls-29{fill:url(#Degradado_sin_nombre_26);}.cls-30{font-size:16.18px;fill:#fff;font-family:LuloCleanW01-OneBold;font-weight:700;letter-spacing:-0.15em;}.cls-31{letter-spacing:-0.2em;}.cls-32{letter-spacing:-0.15em;}.cls-33{letter-spacing:-0.2em;}.cls-34{letter-spacing:-0.22em;}.cls-35{letter-spacing:-0.2em;}.cls-36{letter-spacing:-0.27em;}.cls-37{letter-spacing:-0.18em;}</style><clipPath id="clip-path"><rect class="cls-1" x="76.59" y="168.98" width="302.32" height="201.55"/></clipPath><linearGradient id="Degradado_sin_nombre_26" x1="547.04" y1="383.98" x2="247.01" y2="383.98" gradientUnits="userSpaceOnUse"><stop offset="0" stop-color="#a05129" stop-opacity="0"/><stop offset="0.41" stop-color="#a05129"/></linearGradient></defs><g id="Capa_1" data-name="Capa 1"><circle class="cls-2" cx="214.59" cy="317.4" r="137.23"/><g class="cls-3"><path class="cls-4" d="M240.28,317.94c-.36,1.82.25,4.14,2.25,4.72a5.25,5.25,0,0,0,3-.29,10.16,10.16,0,0,0,3.18-1.57,6,6,0,0,0,1.51-1.47,9.8,9.8,0,0,0,.75-1.61c-.15-.1,4.28-8.72,4.18-8.86"/><path class="cls-5" d="M257.46,375.82c.22-2,2.58-22,2.58-23.15s16.93,1,24-.11,16.29-2.36,16.29-2.36,6.76,3,7.18,8.26,1.4,14.36,1.4,15.44S257.46,375.82,257.46,375.82Z"/><path class="cls-6" d="M270.54,278.92c.32,3.21,5.25,9.54,8.26,9.54s5.3-6.43,4.55-12.11S270.54,278.92,270.54,278.92Z"/><path class="cls-7" d="M299.7,352.13a45.45,45.45,0,0,1-2.22,4s2.72,8.94,10.44,6.43a8.75,8.75,0,0,0,0-4.52S305.34,350.45,299.7,352.13Z"/><path class="cls-8" d="M259.88,347.69c-.06,1.28-.17,4.77.16,5s13.13,2.31,23.15.91,16.4-2.36,17.42-2.84.48-5.84.38-6.32C300.4,344.15,292.52,348.81,259.88,347.69Z"/><path class="cls-9" d="M276.28,347.66c.11,1.49.61,6.61.84,6.72s8.29-.11,11.26-1.15c.84-1.27-.45-6.4-.45-6.4s-1.91-.17-2,.22.56,5.07.28,5.29-6.89.78-7.22.83-.79-5.73-.79-5.73Z"/><path class="cls-5" d="M269.76,347.45c-.15,1.58-.22,6.79-.22,6.79s1.79.5,1.93-.07-.21-6.72-.21-6.72Z"/><path class="cls-5" d="M292.7,345.81c.14,1,.28,7,.5,6.93s1.71-.07,1.78-.36-.21-6.93-.21-6.93Z"/><path class="cls-4" d="M245.35,292.32c1.93-4.18,2.79-10.61,7.83-12.33s12.11-2.68,14.68-2.36,2.25.65,2.68,1.29,1.61,2.57,3.43,3.21,2.58.14,3.22,2.5c.51,1.87.45,2.14.8,2.36.64-.33-.27-2.28,1.77-3.25A6.14,6.14,0,0,0,283.3,278c.32-1.28,3.86-.42,4.18,1.29l.11,1c1.82.65,6.11.86,9.11,4.51s5.89,8.79,7,19.61a90.38,90.38,0,0,0,5.25,23.91c2.46,7,7.29,23,1.82,26.26-.86,3.33-1.71,5.68-2.25,5.36s-1.5-7.61-8.79-7.72c.32-2.35,1-3.58.61-7.55-7.4,2-7.36,2.52-22.59,3.48-4.31.27-15.86.54-17.26.11s-5.46-.75-5.36-6.86,2.77-32.66,2.08-33.09c-7.29,2.86-17,1.11-17.44-.07Z"/><path class="cls-6" d="M268.93,249.44a9.91,9.91,0,0,0-3.28,8.9c.53,4,1.14,9.22,1.35,10.29s16.3,2.89,16.94-2c3.75,1.29,4.5-4.29,2-5.57a60.65,60.65,0,0,1-2.25-9S273,246.54,268.93,249.44Z"/><path class="cls-10" d="M266.11,262.91c-.57,1.64-.43,4.72-.57,8.93s1.81,7.15,5.91,8c6.17,1.34,11.85,1,12.76-4.77a31.43,31.43,0,0,0-.23-12.06s.78-1.71,1.71-1.71.85-1.57,1-2.52c.32-1.77.37-3.74,1.23-4s3.25-.75,3.18-3.61-1.93-2.64-2.93-3.14.57-2.79-.64-4.29-2.79-.65-4.5-.5-.36-1.65-.79-3.22-3.29-2.71-6.79.14-4.79,2.36-6.93,2.43-3.79,2.79-3.29,4.94-.78,3-1.78,4.28-.54,4.67,2,4.95c.43-1.93.68-4.95,4-7.09,2.43,2.57,6.49,3.73,8.2,2.38s1.71-1.6,2.66-.31c.34.47,1,1.36,1.9,1.43-.49,5.25,1.17,5.07.85,9.06-1.07.54-1.66,1.07-2.82,3.66-.42.93-.86-.5-2.43-1.43s-3.07-2.21-5.57-.64-2.79,2.5-3.58,2S266.68,262.84,266.11,262.91Z"/><path class="cls-11" d="M277.94,258.63c-1-.16-1.46,1.61-.25,1.85S278.92,258.79,277.94,258.63Z"/><path class="cls-11" d="M270.17,258.93a.94.94,0,0,0-.25,1.85C271.25,261,271.15,259.09,270.17,258.93Z"/><path class="cls-11" d="M273.17,259.11c-.19.67-.41,1.33-.61,2a4,4,0,0,0-.31,1.59c.09.76,1.55.85,2.08.8.25,0,.26-.43,0-.41a3.33,3.33,0,0,1-1.29-.17c-.65-.19-.27-1.06-.18-1.42.18-.77.48-1.52.7-2.28a.2.2,0,0,0-.39-.11Z"/><path class="cls-11" d="M272,266.36a16.15,16.15,0,0,1,2.73-.64,3.79,3.79,0,0,1,.66-.11c.75-.06.71.78.75,1.19a3.34,3.34,0,0,1-.28,1.65,1.92,1.92,0,0,1-2.68.9c-1-.58-1-2.13-1.11-3.13,0-.26-.44-.26-.4,0,.16,1.34.19,2.84,1.5,3.59a2.34,2.34,0,0,0,2.92-.94,3.29,3.29,0,0,0,.06-3.41c-.29-.36-.92-.25-1.29-.18a14.81,14.81,0,0,0-3,.69c-.24.09-.14.48.1.39Z"/><path class="cls-11" d="M272.6,268.85a6.79,6.79,0,0,1,3.7-1,.2.2,0,0,0,0-.4,7,7,0,0,0-3.9,1.1c-.21.15,0,.5.2.34Z"/><path class="cls-10" d="M268.44,255.8c-.36.19-.65.52-1,.71-.6.31-.66-.43-.58-.83a2.84,2.84,0,0,1,.65-1.31,2.16,2.16,0,0,1,1.31-.78,2.79,2.79,0,0,1,1.95.32c.89.75-.55,1.12-1.08,1.34S268.84,255.59,268.44,255.8Z"/><path class="cls-10" d="M277,255.12a11.3,11.3,0,0,1,2.48.7c.24.1.72.32.85-.06.37-1.19-1.24-2.22-2.22-2.36a2.06,2.06,0,0,0-2.17.73c-.26.51,0,.76.5.87Z"/><path class="cls-11" d="M267.91,249.53c.89-.21,2.4,1,3.16,1.49a10.6,10.6,0,0,0,2.69,1.54,5.08,5.08,0,0,0,4.66-.69c.4-.33.9-1.09,1.41-.31a4.56,4.56,0,0,0,.81.89,3.5,3.5,0,0,0,2,.91,2.4,2.4,0,0,0,2.64-2.21c0-.26-.41-.26-.4,0,0,1.13-1,1.69-2,1.8a3.33,3.33,0,0,1-2.72-1.6c-.16-.23-.47-.8-.85-.71-.68.16-1,.86-1.59,1.24-1.71,1.17-4.19.39-5.71-.67-.84-.58-1.8-1.06-2.58-1.71a1.56,1.56,0,0,0-1.64-.36c-.26.06-.15.45.1.39Z"/><path class="cls-11" d="M266.33,278c-.53,1.42.66,2.83,1.39,4,1,1.58,2,3.17,3.13,4.72.53.75,1.4,1.75,2.43,1.18,1.3-.72,1.78-2.53,3.21-3,.25-.08.14-.47-.11-.39a3.56,3.56,0,0,0-1.81,1.55c-.5.68-1.19,1.7-2.21,1.5-.69-.13-1.2-1.14-1.57-1.66-.8-1.16-1.55-2.36-2.33-3.54s-2.26-2.87-1.74-4.25c.09-.24-.3-.35-.39-.11Z"/><path class="cls-11" d="M257.24,279.77a25.43,25.43,0,0,1,1.25,5,31.16,31.16,0,0,1,.43,6,.21.21,0,0,0,.41,0,36,36,0,0,0-.39-5.78,23.19,23.19,0,0,0-1.36-5.47c-.1-.24-.45,0-.34.2Z"/><path class="cls-11" d="M277.73,287.08a9.87,9.87,0,0,0,1.76.93c.82.34.64,2,.66,2.75,0,.26.41.26.4,0,0-.53,0-1.06-.07-1.59,0-.27.07-.87-.15-1.12s-.59-.35-.9-.55c-.47-.32-1-.45-1.5-.77-.21-.15-.41.2-.2.35Z"/><path class="cls-11" d="M279.56,286c.47-.78,1.09-1.83,2.09-1a18.21,18.21,0,0,1,1.51,1.25c.47.49,1.15,1.13,1.84.58a5.69,5.69,0,0,0,1.63-2.66,14.69,14.69,0,0,0,.89-4c0-.25-.39-.25-.4,0a16.09,16.09,0,0,1-.88,3.93,6.6,6.6,0,0,1-1.14,2.12c-.74.94-1.58-.17-2.08-.64s-1.4-1.41-2.1-1.41-1.35,1-1.71,1.64c-.13.22.22.42.35.2Z"/><path class="cls-11" d="M281.71,301.05a21.56,21.56,0,0,0-.33,5.26,41.72,41.72,0,0,0,0,5.81c.26,1.92.75,3.79,1.11,5.69a31.07,31.07,0,0,1,.6,6.16c0,2-.16,3.91,0,5.88s.13,3.85.13,5.79c0,3.36,1.14,7.41-1.44,10.13-.18.19.11.48.29.29,2.22-2.35,1.8-5.51,1.6-8.48-.12-1.84,0-3.7,0-5.54,0-2.1-.23-4.16-.15-6.26a33.19,33.19,0,0,0-.09-5.55c-.29-2-.76-4.05-1.21-6.05a26.09,26.09,0,0,1-.39-6.72c.06-2.09-.19-4.25.34-6.3.06-.25-.33-.36-.39-.11Z"/><path class="cls-11" d="M297.78,303.47c-.17,1.78-.55,3.54-.78,5.31a33.64,33.64,0,0,0-.2,5.4,50.13,50.13,0,0,0,1.38,10.34c.82,3.43,2.24,6.74,2.48,10.3.11,1.72.23,3.42.23,5.15a8.63,8.63,0,0,1-.41,2.85,7.17,7.17,0,0,0-.45,1.81c0,.26.39.26.41,0a12.81,12.81,0,0,1,.62-2.36,8.9,8.9,0,0,0,.23-2.3c0-1.73-.16-3.43-.23-5.15-.14-3.33-1.48-6.48-2.3-9.67a50.74,50.74,0,0,1-1.56-11,33.16,33.16,0,0,1,.25-5.72c.23-1.66.57-3.31.74-5,0-.26-.38-.26-.41,0Z"/><path class="cls-11" d="M301.54,347.79c1.56-.37,3.39,1.1,4.63,1.87a9.85,9.85,0,0,1,2,1.8,9.6,9.6,0,0,1,1.69,2.17c.11.23.46,0,.34-.2a11.63,11.63,0,0,0-4.07-4.29c-1.28-.8-3-2.12-4.66-1.74-.25.06-.14.45.11.39Z"/><path class="cls-11" d="M301.18,336.57a16.43,16.43,0,0,1,2.08-4.09,19.92,19.92,0,0,1,2.58-3.54.2.2,0,0,0-.28-.28,20.45,20.45,0,0,0-2.65,3.61,16.75,16.75,0,0,0-2.12,4.2.2.2,0,0,0,.39.1Z"/><path class="cls-11" d="M301.89,333.21a21.3,21.3,0,0,1,2.06-3.66c.12-.23-.23-.43-.35-.21a21.74,21.74,0,0,0-2.09,3.77c-.08.25.31.35.38.1Z"/><path class="cls-11" d="M278.36,290.32a.64.64,0,0,1-.15-.79c.15-.27.53.09.62.25a.6.6,0,0,1,0,.58c-.12.23-.38.21-.59.1s-.44.24-.2.35a.82.82,0,0,0,1.12-.21,1,1,0,0,0,0-1.15c-.27-.36-.9-.61-1.21-.16a1,1,0,0,0,.27,1.38c.21.15.41-.2.2-.35Z"/><path class="cls-11" d="M279.15,307.47c-.16-.3-.35-.53-.15-.87a.44.44,0,0,1,.72-.12.65.65,0,0,1,.2.67c-.08.28-.64.29-.87.3a.2.2,0,0,0,0,.4c.43,0,1.05-.07,1.24-.53a1.05,1.05,0,0,0-.34-1.17.83.83,0,0,0-1.18.08.94.94,0,0,0-.28.63,1.87,1.87,0,0,0,.31.82c.12.23.47,0,.35-.21Z"/><path class="cls-11" d="M280,320.48a.94.94,0,0,1,.13-1.28c.31-.21.56.33.61.54a.41.41,0,0,1-.31.53c-.19.06-.47.07-.48-.19s-.41-.26-.4,0c0,.51.46.69.9.6a1,1,0,0,0,.55-.32.79.79,0,0,0,.13-.73c-.09-.48-.57-1.05-1.11-.82a1.14,1.14,0,0,0-.56.74,1.27,1.27,0,0,0,.19,1.13c.14.22.49,0,.35-.2Z"/><path class="cls-11" d="M279.93,334.77a.61.61,0,0,1-.1-.67.48.48,0,0,1,.41-.19.52.52,0,0,1,.57.51.73.73,0,0,1-.34.65c-.29.18-.54-.06-.68-.3s-.48,0-.35.21a.91.91,0,0,0,1.2.46,1.13,1.13,0,0,0,.56-1.16.94.94,0,0,0-1.12-.76.84.84,0,0,0-.62.42,1,1,0,0,0,.13,1c.14.22.49,0,.34-.21Z"/><path class="cls-11" d="M258.86,367.91c2.55,1.15,5.05-1.11,6.28-3.19a10.29,10.29,0,0,0,1.2-4.48,51.9,51.9,0,0,0,0-5.85c0-.26-.41-.26-.4,0,.11,2.84.38,5.93-.47,8.69-.73,2.38-3.56,5.74-6.35,4.48-.24-.11-.44.24-.21.35Z"/><path class="cls-11" d="M267,354.65a17.2,17.2,0,0,1,.45,5.35,18.05,18.05,0,0,1-1.41,5.64c-.1.24.29.35.39.11a20.9,20.9,0,0,0,1.39-5.38,16.29,16.29,0,0,0-.43-5.82.2.2,0,0,0-.39.1Z"/><path class="cls-11" d="M296.28,352.78a14.12,14.12,0,0,0,1.46,4.3,12.38,12.38,0,0,0,2.8,4.26,7.71,7.71,0,0,0,3.89,1.71,4.71,4.71,0,0,0,3.73-.45c.21-.15,0-.5-.2-.35-1.11.8-2.48.59-3.74.35a7.14,7.14,0,0,1-3.86-2,11.75,11.75,0,0,1-2.13-3.39,14.53,14.53,0,0,1-1.55-4.43c0-.26-.42-.26-.4,0Z"/><path class="cls-11" d="M295.38,354.65a16.69,16.69,0,0,0,3.43,7.06,7.42,7.42,0,0,0,2.79,1.7,8.54,8.54,0,0,0,4,.88c.25,0,.26-.43,0-.4a9.19,9.19,0,0,1-6.79-2.72,16.12,16.12,0,0,1-3.09-6.62.2.2,0,0,0-.39.1Z"/><path class="cls-11" d="M280.9,354.71c-.11,3.8.81,7.55,1,11.33.05.89-.39,2.27.66,2.69.86.35,2.44-.84,3-1.39a.2.2,0,0,0-.28-.29,6.62,6.62,0,0,1-1.39,1c-.89.51-1.6.06-1.58-.95a28.91,28.91,0,0,0-.3-4,53.9,53.9,0,0,1-.73-8.31c0-.26-.39-.26-.4,0Z"/><path class="cls-11" d="M285.19,355.24c0,3.81.81,7.66.43,11.47,0,.26.37.26.4,0,.38-3.81-.38-7.66-.43-11.47a.2.2,0,0,0-.4,0Z"/><path class="cls-11" d="M275,315.62c1.44-1.35,3.45-2,5.23-2.81,2-.86,4-1.69,6-2.63.23-.11,0-.46-.21-.35-2,.94-4,1.77-6,2.63a17.79,17.79,0,0,0-5.3,2.87c-.19.18.09.46.28.29Z"/><path class="cls-7" d="M239.67,357c-.07,2.43-.22,11.68.43,12.36a4.13,4.13,0,0,0,2.71,1.36c1,0,3.86-1.22,4.65-5.65s-.86-4.57-1.36-6.5-.79-4-.79-4l-5.71.14Z"/><path class="cls-12" d="M240.2,356.8a19.58,19.58,0,0,1,5.9,1.12c.48.11.16-1.71.05-2.57s-5.18-3.47-5.87-2.45S240.2,356.8,240.2,356.8Z"/><path class="cls-11" d="M240.22,360.82c.31,1.75.42,3.46.88,5.19a4,4,0,0,0,1.29,2.54c.78.49,1.51-.54,1.71-1.16.52-1.61-.79-3.14-.11-4.8.1-.24-.29-.35-.39-.11a4.37,4.37,0,0,0,0,2.79,6.73,6.73,0,0,1,.22,1.54,1.46,1.46,0,0,1-.84,1.42c-.42.17-.73-.39-.88-.65a11.14,11.14,0,0,1-.91-3.06c-.3-1.26-.31-2.54-.53-3.81,0-.26-.43-.15-.39.11Z"/><path class="cls-11" d="M242.5,370.45c-.75-.44-.34-1.47-.27-2.13,0-.26-.38-.25-.41,0s-.12.48-.14.73a3.05,3.05,0,0,0,0,.74,1.31,1.31,0,0,0,.62,1,.2.2,0,0,0,.2-.35Z"/><path class="cls-13" d="M198,371.75l42.74.43s-.71-14.86-1.86-20.72S232,336,231.31,336.31,204.15,355,196.43,355.46C197.15,362.46,198,371.75,198,371.75Z"/><path class="cls-7" d="M211.18,281.38a92.16,92.16,0,0,0-.69-12.51c-3.45.57-5-4.73-3.68-6.55,1.65-2.22,3.45.88,3.45.88.8-.11-.12-7.76,2.87-10.18A12.29,12.29,0,0,1,226,251.88c4.82,2.29,5.16,5.39,4.93,8.15s-1.26,2.29-.91,6.89a9.44,9.44,0,0,1-6.78,10.1c.12,3.56.6,8.17.25,9.2S215.54,286.44,211.18,281.38Z"/><path class="cls-14" d="M207.39,261.75c.92-.46,2.64.46,2.81,1.89s.75,1.21,1.61,1.1.46-2.7.28-3.39a2.55,2.55,0,0,1,1.33-2.3c.8-.4,1.77-.4,1-3.33s-.92-2.64.29-3.61,7.29-2.36,11.3-.06,3.76,3.67,5.76,2.81,2.86-3.67.62-4.82-2.82-1.26-1.84-2.41,1.21-4-1.61-3.79-7.92,2.58-10.1,2.24-5.8-1.09-6.32,4C208.94,250.79,206.3,250.9,207.39,261.75Z"/><path class="cls-11" d="M220.42,260.63c-.87-.17-1.45,1.78-.34,2S221.31,260.8,220.42,260.63Z"/><path class="cls-11" d="M227.94,261.35c-.87-.17-1.45,1.77-.34,2S228.83,261.52,227.94,261.35Z"/><path class="cls-14" d="M217.41,257.77a3.1,3.1,0,0,1,3.26-2.72c2,.08,2.85,1.68,1.83,1.76a6.67,6.67,0,0,0-3.78.83C217.36,258.35,217.6,258.14,217.41,257.77Z"/><path class="cls-14" d="M226.68,257c0,.38,1.26.23,2.18,1.07s1.12,1.46,1.32,1.11a2.83,2.83,0,0,0-1.21-2.89A1.5,1.5,0,0,0,226.68,257Z"/><path class="cls-11" d="M224.78,258.39c-.06,1.39-.39,3.12.11,4.44a2,2,0,0,0,.73.91c1.5,1.05-.5,2.15-1.47,2.47-.24.08-.14.47.11.39.61-.21,3.15-1.47,2.38-2.5-.6-.81-1.46-1-1.54-2.2a34.27,34.27,0,0,1,.08-3.51c0-.26-.39-.26-.4,0Z"/><path class="cls-11" d="M220.89,267.38a5.07,5.07,0,0,0,2.08.4c.95.06,1.85.3,2.79.4l-.18-.3a7.68,7.68,0,0,1-1.83,3c-.85.65-1.71-.72-2-1.27a5.07,5.07,0,0,1-.57-2.39.21.21,0,0,0-.41,0c0,1.25.62,3.8,2.14,4.14s2.54-2.16,3-3.32a.2.2,0,0,0-.17-.3c-.6-.07-1.19-.26-1.8-.33a8.43,8.43,0,0,1-2.87-.42c-.23-.11-.43.23-.2.35Z"/><path class="cls-11" d="M221.34,269.07a3.22,3.22,0,0,1,1.87.37c.49.25.6.77.91,1.17.16.2.51,0,.35-.21s-.21-.47-.38-.67a3,3,0,0,0-.68-.64,3.26,3.26,0,0,0-2.07-.42c-.26,0-.26.43,0,.4Z"/><path class="cls-11" d="M214.07,270.66c.84,1.76,1.7,3.78,3.34,4.94a8.12,8.12,0,0,0,6,1.7c.26-.05.15-.43-.11-.39a7.84,7.84,0,0,1-5.91-1.84c-1.43-1.11-2.21-3-3-4.61-.11-.23-.46,0-.35.2Z"/><path class="cls-11" d="M209.86,269a1.68,1.68,0,0,0,.88-.2,4.33,4.33,0,0,0,.71-.64c.19-.18-.09-.46-.28-.28s-.35.35-.54.51a1.17,1.17,0,0,1-.77.21.2.2,0,0,0,0,.4Z"/><path class="cls-15" d="M196,356.46c4.58,4,15.15,5.57,20,5.14s11.62-.85,15.62-16.86c4.38,16.32,6.68,15.86,7.82,15.86s1-6.46,1-6.46a11.88,11.88,0,0,1,6.08,1.61c.86-1.86-.69-11.58-1.7-15.73s-3.43-9.72-4.14-19.15S238,300.78,235,296.06s-8.35-10.93-9.07-10.78c-.05.48.23,4.71-.2,5.71s-29.15-.28-29.87,2.86S192.86,341,196,356.46Z"/><path class="cls-11" d="M200.92,320.3c2.15,2.56,4.83,5.22,8.44,4.95a12.41,12.41,0,0,0,5.29-2,51.39,51.39,0,0,0,7.28-5.54c.19-.17-.09-.45-.29-.28a57.44,57.44,0,0,1-6.75,5.2,13.33,13.33,0,0,1-5.36,2.19c-3.55.43-6.24-2.33-8.33-4.82-.17-.2-.45.09-.28.29Z"/><path class="cls-12" d="M207.66,281c0-.53,2.92-4.76,3.38-4.21,3.5,4.29,6.66,8.61,12.13,9.42.92-.51.11-5.75.22-6.61,1.15.58,4.71,9.05,2.85,11.31C225.47,291.76,209.11,288,207.66,281Z"/><path class="cls-11" d="M223.21,288.9a3.42,3.42,0,0,1,.38-1.81l-.28.07a3.4,3.4,0,0,1,1,1.3,7.2,7.2,0,0,0,.69,1.39c.17.2.45-.08.29-.28a9.12,9.12,0,0,1-.76-1.57,3.33,3.33,0,0,0-1-1.18.2.2,0,0,0-.28.07,3.87,3.87,0,0,0-.43,2,.2.2,0,0,0,.4,0Z"/><path class="cls-12" d="M226.52,313.86c.64,1.72,3.13,7.54,3.34,8.69,1-2.07,2.07-8.35,1.5-10.78S226.52,313.86,226.52,313.86Z"/><path class="cls-11" d="M231.11,316.28c-.32,1.89-.73,3.77-1.13,5.66a25.75,25.75,0,0,0-.75,4.16,46.51,46.51,0,0,0,.53,6.46c.49,4.41,1.07,8.81,1.67,13.2,0,.25.43.14.39-.11-.59-4.29-1.15-8.58-1.63-12.88a56.79,56.79,0,0,1-.56-6.51,20.08,20.08,0,0,1,.68-3.93c.41-2,.86-3.95,1.19-5.95,0-.25-.34-.36-.39-.1Z"/><path class="cls-11" d="M233.79,314.35a23.59,23.59,0,0,1-1.4,4.73c-.61,1.39-1.42,2.69-2,4.11-.1.24.29.35.38.11.59-1.5,1.43-2.87,2.08-4.34a22.62,22.62,0,0,0,1.3-4.51c0-.25-.33-.36-.39-.1Z"/><path class="cls-11" d="M221.88,313.82c1.57,1,2.67,3,3.69,4.47s2.16,3.32,3.2,5c.14.22.49,0,.35-.2-1.14-1.83-2.28-3.66-3.5-5.44-1-1.43-2.05-3.22-3.54-4.17-.22-.14-.42.21-.2.34Z"/><path class="cls-11" d="M235.07,316.11c-.19,6,.83,12,1.9,17.9,1.23,6.8,2.62,13.58,3.27,20.47,0,.25.43.25.41,0-.64-6.69-2-13.27-3.16-19.86-1.12-6.1-2.22-12.29-2-18.51,0-.26-.39-.26-.4,0Z"/><path class="cls-11" d="M202.81,330.18c-1.27.41-1.48,2.09-1.57,3.23-.07.85-.19,2.8.59,3.43a8,8,0,0,0,3.07,1c1.72.41,3.47.71,5.22.95a23,23,0,0,0,4.61.29,3.18,3.18,0,0,0,2.62-2.14,8.39,8.39,0,0,0,.81-4.24c-.08-.72-.61-.75-1.22-.87-2.59-.54-5.24-.85-7.87-1.18-1.37-.17-2.74-.33-4.12-.45a8.08,8.08,0,0,0-2.14-.05c-.25.05-.15.44.11.39a10.11,10.11,0,0,1,2.85.14c1.67.16,3.33.37,5,.59s3.26.45,4.89.73c.6.1,2,.07,2.12.82a7.94,7.94,0,0,1-1.25,4.79c-.89,1.34-2.49,1.13-3.89,1a36.61,36.61,0,0,1-9.95-1.86c-1-.37-1-1.37-1.05-2.36s0-3.47,1.29-3.89C203.16,330.49,203.06,330.1,202.81,330.18Z"/><path class="cls-11" d="M232.27,325.78c-1,0-1.18,2.06-.2,2.18s1.23-2,.25-2.17c-.25,0-.36.35-.11.39.52.07.48,1.38-.09,1.38s-.35-1.38.15-1.38A.2.2,0,0,0,232.27,325.78Z"/><path class="cls-11" d="M226.41,373a24.06,24.06,0,0,1,2.61-6.76.2.2,0,0,0-.35-.2,24.41,24.41,0,0,0-2.65,6.85c-.06.25.33.36.39.11Z"/><path class="cls-11" d="M227.81,369.05a5.65,5.65,0,0,1,1.82-.7q.7-.23,1.41-.42a.2.2,0,0,0-.11-.39c-.56.16-1.12.33-1.67.51a5.13,5.13,0,0,0-1.74.72c-.2.17.09.45.29.28Z"/><path class="cls-16" d="M233.56,305a33.61,33.61,0,0,0,8.36.27c2.89-.43,8.2-1.72,12.76-.81s7.71,2.15,10.5,2.74,2.52,1.39,2.31,2a1.47,1.47,0,0,1-1,.81c-.65,2.3-2.52,2.19-5.42.21-3.91,0-4.39-1.5-6-.38s-8.84,2.68-11.2,3.49-8.42,2.25-11.52-.32S233.56,305,233.56,305Z"/><path class="cls-11" d="M255.53,306.66c.76.24,1.49.57,2.25.81a13.1,13.1,0,0,0,2.58.22c.89.08,3.63-.13,2.85,1.6-.44,1-2.15.79-3,.78a.21.21,0,0,0,0,.41c.9,0,2.25.15,3-.55a1.36,1.36,0,0,0,.24-1.93c-.58-.77-1.92-.68-2.75-.7a15.19,15.19,0,0,1-2.78-.22c-.77-.17-1.5-.57-2.25-.81a.2.2,0,0,0-.11.39Z"/><path class="cls-11" d="M263.52,309.29c.92.36,3.85,1.49,4.21-.14.06-.25-.33-.36-.38-.11-.26,1.16-3,.13-3.72-.14-.25-.09-.35.3-.11.39Z"/><path class="cls-17" d="M156,345c3.29-1,28.16-2.14,39.74,5,2,9.14,2.57,21.86,2.71,23.29s-44.16-.14-44.16-.14Z"/><path class="cls-11" d="M181.26,347.85c0,5.28.26,10.58.43,15.86a.21.21,0,0,0,.3.18c.68-.32,1.34-.66,2-1,.39-.22,1.26-.6,1.34-1.12a24.53,24.53,0,0,0,0-4c-.08-3.15-.2-6.3-.33-9.45,0-.26-.41-.26-.4,0,.12,2.89.23,5.78.31,8.67,0,1.46.1,2.92.05,4.38,0,.66-.63.88-1.16,1.19s-1.32.7-2,1l.3.17c-.16-5.28-.42-10.58-.43-15.86a.2.2,0,0,0-.4,0Z"/><path class="cls-18" d="M151.27,278.42c2-3.43,6.71-6.29,9-6.15S187,281,188.71,284.42s32,14.76,40.13,16.47c6,1.43,5.61,2.26,5.9,3-.38,1.38-.47,9.36-2.47,11.08-1.18,1.07-6.25.35-6.25.35-5,1.43-12.58,2.72-28.59-1.85,1,11.29,3.22,29.19-.64,31.62-.57,3-.5,5.11-.93,5.68-14-6.14-26.87-6.57-38.88-3.57-6.14-9.86-9.29-33.88-8.72-44.6A234.64,234.64,0,0,1,151.27,278.42Z"/><path class="cls-11" d="M228.32,303.68c-.46,3.83-.71,7.69-2.44,11.21-.11.23.23.44.35.2,1.77-3.59,2-7.51,2.49-11.41,0-.26-.37-.25-.4,0Z"/><path class="cls-11" d="M159.08,297.46c2.9,1.81,6,3.23,9,4.89s6.32,3.33,9.59,4.76a117.92,117.92,0,0,0,19.71,6.52c.25.06.36-.33.11-.39a118.77,118.77,0,0,1-20-6.63,102.05,102.05,0,0,1-9.25-4.6c-3-1.68-6.11-3.09-9-4.9-.22-.14-.42.21-.2.35Z"/><path class="cls-11" d="M159.43,340.32c12.4-2.31,25.39.13,36.83,5.13.23.1.44-.25.2-.35-11.55-5-24.62-7.5-37.14-5.17-.25.05-.14.44.11.39Z"/><path class="cls-11" d="M181.23,376.58c0-1.85-.09-3.7-.07-5.55a21.6,21.6,0,0,1,.17-3.12c.15-.92,1.51-1.23,2.27-1.56.24-.1,0-.45-.2-.35-.64.28-2.1.65-2.35,1.36a9.56,9.56,0,0,0-.28,2.87c-.06,2.12,0,4.23.06,6.35a.2.2,0,0,0,.4,0Z"/><path class="cls-11" d="M174.8,338.64a50.78,50.78,0,0,0,6.53.42,40.18,40.18,0,0,1,7.47,1.16c.26,0,.36-.33.11-.39a46.58,46.58,0,0,0-6.44-1.1c-2.52-.23-5.06,0-7.57-.48-.25,0-.36.35-.1.39Z"/><path class="cls-11" d="M163,304.36q-1.16,8.13-2.33,16.25c-.36,2.48-.93,5-1.08,7.5-.08,1.33-.13,2.66-.26,4a10.66,10.66,0,0,0,.12,3.38c.06.26.45.15.39-.1a10.94,10.94,0,0,1-.07-3.61c.11-1.22.16-2.43.22-3.66s.39-2.73.59-4.08.4-2.71.59-4.07c.73-5.16,1.49-10.33,2.22-15.49,0-.26-.35-.37-.39-.11Z"/><path class="cls-11" d="M171.24,305.09c-3.48-1.12-7.19-1.43-10.58-2.85-.24-.1-.34.29-.1.39,3.38,1.42,7.09,1.73,10.57,2.85.25.08.36-.31.11-.39Z"/><path class="cls-19" d="M190.37,287.06c2.1,2.46,30.76,12.3,40.29,14.91,1.72,4.86,6,3.73,10.87,3.39s12.1-4.63,12.1-4.63-12.06-3.24-16.43-4.55-26.58-12.12-37.85-21.05C197.48,276.09,190.37,287.06,190.37,287.06Z"/><path class="cls-11" d="M233.53,302.43a4.4,4.4,0,0,0,2.2,1.89,19.62,19.62,0,0,0,4.38.7c.26,0,.26-.38,0-.4a25,25,0,0,1-3.74-.55,3.3,3.3,0,0,1-1.61-.73,11,11,0,0,1-.94-1.2c-.17-.2-.45.09-.29.29Z"/><path class="cls-7" d="M240.28,293a11.14,11.14,0,0,1,5.42.12c4.34,1.39,5.65,2.3,6.81,2.57,2.38.56,2.76,1.5,2.14,2.15,1.77,1.6,0,2.94-1.78,2.56-.7.48-3.43-.05-4.23-.91-.65,1-2.25.11-4.4-.7s-5.62-2.19-6.05-2.46S237.33,293.84,240.28,293Z"/><path class="cls-12" d="M234.75,295.12c.65-.64,5.88-3.58,6.63-2.24-1.93.43-3.19,1.69-2.78,3.67A9.59,9.59,0,0,1,234.75,295.12Z"/><path class="cls-11" d="M242.47,295.8l3,1c1.1.38,3.61,1.12,2.87,2.8-.1.24.25.44.35.2a1.91,1.91,0,0,0-.85-2.4,8.31,8.31,0,0,0-2.26-1l-3-1c-.25-.08-.35.31-.11.39Z"/><path class="cls-11" d="M245.43,295.14a34.27,34.27,0,0,1,4.19,2.32c.89.63,4.27,1.1,3.3,2.64-.14.22.21.42.35.2.87-1.39-.45-1.93-1.57-2.38a16.28,16.28,0,0,1-2.82-1.44c-1-.67-2.16-1.13-3.25-1.69-.23-.12-.44.23-.2.35Z"/><path class="cls-11" d="M255.43,299.63c.52-1.52-1-2-2.16-2.32a10.92,10.92,0,0,1-2.85-1.44,31.54,31.54,0,0,0-2.91-1.45c-.23-.11-.43.24-.2.35,1.42.67,2.78,1.39,4.13,2.19,1,.61,4.15.94,3.6,2.57-.08.24.31.35.39.1Z"/><path class="cls-15" d="M233.85,294.89c.24-.16,3-2.16,4.32-2.46a1,1,0,0,1,1.1.37,4,4,0,0,0-2.71,3.22C235.38,295.61,233.85,294.89,233.85,294.89Z"/><path class="cls-16" d="M166,247.94c-.85-6.72,3.51-16,11.37-16.62s16.18,2.22,17.47,6.36,1.57,8.72-.43,12.44.07,8.43-6.93,14.15C184.11,267,169,258.23,166,247.94Z"/><path class="cls-20" d="M168.62,232.83a8.54,8.54,0,0,1,5.41-3.24c1.08-.11,2.13.22,3.21.18,2-.08,3.66-.35,5.72-.32a19.91,19.91,0,0,1,9.22,2.09,12.71,12.71,0,0,1,4.66,3.53,5.64,5.64,0,0,1,.89,3.1c.07,1.9-1.88,2.13-3.3,2.12a15,15,0,0,1-6.87-2,34.46,34.46,0,0,0-3.52-1.94c-1.25-.52-2.35-1-3.55-.26-1.59,1-1.73,2.47-2.25,4.06a10.71,10.71,0,0,1-1.1,3.15c-.54.72-1.53,1.06-1.63,2s.6,3.67-.83,4-1.84-2.26-2.67-3a2,2,0,0,0-2.56-.08c-1.82,1.29-1.18,4.29-1.18,4.29s-.1,2.47-3.32-4.29a6.43,6.43,0,0,1,0-2.05c0-.72.07-1.43.14-2.14a21.3,21.3,0,0,1,.78-4.11A15.15,15.15,0,0,1,168.62,232.83Z"/><path class="cls-11" d="M185.23,247.34c-.88-.5-2.2,1.4-1.1,2.08S186.13,247.84,185.23,247.34Z"/><path class="cls-11" d="M192.7,250.06c-.75-.43-1.89,1.26-1,1.85S193.46,250.5,192.7,250.06Z"/><path class="cls-11" d="M190.23,246.31c-.51.88-1.28,2.55-.67,3.53.46.76.88,1.49,1.27,2.29a2.76,2.76,0,0,1,.32,1.64c-.14,1-1.42,1-2.13,1a.2.2,0,0,0,0,.4,2.59,2.59,0,0,0,2.06-.56,1.74,1.74,0,0,0,.46-1.67,8.46,8.46,0,0,0-1.11-2.52,2.46,2.46,0,0,1-.56-2.13,6.89,6.89,0,0,1,.71-1.81.2.2,0,0,0-.35-.2Z"/><path class="cls-11" d="M185.6,253.9c0,1.34-.1,2.54.93,3.54a2.45,2.45,0,0,0,3,.18.2.2,0,0,0-.21-.35,2.08,2.08,0,0,1-2.92-.57,4.42,4.42,0,0,1-.41-2.8.21.21,0,0,0-.41,0Z"/><path class="cls-20" d="M182.57,242.9c1.3.26,2.79-.23,4.1-.29.59,0,1.39.24,1.86-.2a1.14,1.14,0,0,0,.13-1.46,2.83,2.83,0,0,0-2-.77,4.59,4.59,0,0,0-2.62.54C183.81,240.85,182.09,242.81,182.57,242.9Z"/><path class="cls-20" d="M193.28,244.19a2.08,2.08,0,0,0,.38.46,8.15,8.15,0,0,1,1.75,3.18c.14.5.83-.76.85-.84a4.52,4.52,0,0,0-.13-2.19c-.16-.57-.45-1.36-1.06-1.61a1.52,1.52,0,0,0-1.48.41C193.3,243.88,193.23,244,193.28,244.19Z"/><path class="cls-11" d="M182.28,244.82a9.94,9.94,0,0,1,5.27,1.08,1.64,1.64,0,0,1,.89,1.8,4.37,4.37,0,0,1-1.3,3c-1.34,1.34-4.22,1.44-5.27-.34-.79-1.33-.92-4.33.34-5.42.2-.17-.09-.45-.28-.28-1.38,1.19-1.26,4.11-.54,5.62.87,1.85,3.35,2.21,5.07,1.4a4.49,4.49,0,0,0,2-2.16,4.74,4.74,0,0,0,.34-1.43c0-.31.28-1.27.05-1.5a6.27,6.27,0,0,0-2.58-1.73,14.55,14.55,0,0,0-4-.41.21.21,0,0,0,0,.41Z"/><path class="cls-11" d="M188.89,248.36c.19-.26,1.76.79,2.11.82s.26-.39,0-.41c-.63-.05-1.9-1.39-2.46-.61-.15.21.2.41.35.2Z"/><path class="cls-11" d="M190.61,250.78c.18-1.07.82-2.62,2.16-2.4a3.5,3.5,0,0,1,2.77,2.68c.15,1.76-1.95,4.71-3.8,3.15-.19-.17-.48.11-.28.28,2.19,1.86,4.84-1.46,4.46-3.67a4.06,4.06,0,0,0-3.28-2.87c-1.43-.23-2.23,1.62-2.42,2.72-.05.26.34.36.39.11Z"/><path class="cls-11" d="M172.49,246.75a33.42,33.42,0,0,0,4-.24,35,35,0,0,1,4.58-.19.21.21,0,0,0,0-.41,20.93,20.93,0,0,0-3.88.09,27.39,27.39,0,0,1-4.7.34.21.21,0,0,0,0,.41Z"/><path class="cls-21" d="M182.14,244.08c-.57.25-1,.68-.68.93s4.86-.68,7.36,2.32c.32.36.54-.5.39-.89S187.36,243.54,182.14,244.08Z"/><path class="cls-21" d="M191.21,248.48a6.6,6.6,0,0,1,4.71,3.07c.36.28.55-.55.28-1.19a5.54,5.54,0,0,0-4-2.52C191.22,247.7,191.1,248.38,191.21,248.48Z"/><path class="cls-19" d="M119.11,236A30,30,0,0,0,121,222.39c-.57-6-7.71-13.86.58-24.58s28.41-9,33.59,3.14c3.35,7.86-2.72,11.58.14,14.72s4.86,3.86-.14,5.29c-1.72.14-1.29,2.29-2.86,5.29s-4.43,6.57-9.72,6.29S119.11,236,119.11,236Z"/><path class="cls-22" d="M108.46,212c-1.86,3-.36,13.22,5.72,8.21-2.58,7.22,4.71,7.65,7.64,4.22-1.36,5.93,4.29,5.79,6.72.29.72-.86,1.22,3.21,3.57,2s2.93-4.86,3.15-5c.66.81,1.71,2.24,2.92,1.68a5,5,0,0,0,1.53-1.76c.15-.22.95-2.18.56-2.35.83.35,1.29,1.24,2.42.73s1.35-2.31,1.36-3.36a12,12,0,0,0-.84-4.09,8,8,0,0,1-.45-4c.17-.56,1.37-1.42,1.29-2,.36,2.51.71,3.36,2.71,2.65,1.56-.56,3.38-1.73,4.81-8.2,2.42-.22,5.53-.74,7.4-2.43.71-.65,1.58-1.84,1.36-2.89-.12-.62-1.61-2.22-2.33-1.45.75-.8,2.64-1.13,2.85-2.39.26-1.58-2-2-3.14-2.18,2.8-1.63-.65-4.49-2.49-4.69a6,6,0,0,0-2.93.38c.48-.68,1.94-2.42.3-3.47-.68-.44-2.68-.3-3.16.41,1.18-1.76,1.75-2.93-.72-3.84a8,8,0,0,0-8,1.68c1-1.84,1-4.38-1.49-4.91s-6,2-7.68,3.65c.68-.91,1.12-2.71-.38-3.24s-3.53.8-4.48,1.88a28.11,28.11,0,0,0-3.39,5.24c-.77,1.45-.72,2.33-2.11,1.38a6.85,6.85,0,0,0-4.17-1.44,5,5,0,0,0-3.84,1.89c-1,1.59.37,3.57,1.49,4.68-4.08.86-8.58,4.5-8.29,7.22a4.93,4.93,0,0,0,2.78,3.79c-4.28,1.42-5.21,6.21-5.14,8.71S106.82,213.1,108.46,212Z"/><path class="cls-23" d="M94.31,376c1.5-3.86,1.5-13.08-1.07-20.15s-1.93-20.8,10.72-39c17.79-2.15,47.38-.22,47.38-.22,3.21,15.87,6.43,23.83,6.43,38.59s-1.07,22.3-1.07,22.3Z"/><path class="cls-11" d="M108.78,316.05A59.15,59.15,0,0,0,106.5,322a110.09,110.09,0,0,0-3.11,10.85A64.28,64.28,0,0,0,101.66,345a22.22,22.22,0,0,0,1.61,10.15,26.93,26.93,0,0,0,6.14,8.5c.23.22.48.43.73.64s0-.16,0,0l.18,2q.55,6.17,1.1,12.33c0,.26.43.26.41,0q-.64-7.1-1.27-14.21c0-.49-.44-.66-.82-1a26.11,26.11,0,0,1-3.79-4.34,20.91,20.91,0,0,1-3.93-11.55c-.28-6.41,1.15-12.91,2.85-19.06a76.25,76.25,0,0,1,4.21-12.21c.11-.23-.23-.43-.35-.2Z"/><path class="cls-11" d="M110.44,364.37l18.87-3.14c.25-.05.15-.43-.11-.39L110.33,364c-.25,0-.14.43.11.39Z"/><path class="cls-11" d="M109.91,329.39a41.75,41.75,0,0,0-2.43,13.82,20,20,0,0,0,2,8.8,15.15,15.15,0,0,0,7.22,6.72,22.3,22.3,0,0,0,2.66,1c.76.24,1.88-.77,2.53-1.14q3.06-1.79,6-3.71a17.3,17.3,0,0,0,3.28-2.34c.42-.46.36-1.72.42-2.29.62-6.24.59-12.58.67-18.85,0-.55,0-1.11,0-1.66,0-.12-.09-.19-.2-.2a97,97,0,0,0-22-.29c-.25,0-.26.44,0,.41a96.45,96.45,0,0,1,22,.28l-.2-.2c0,5.31-.14,10.63-.38,15.94-.07,1.48-.15,2.95-.29,4.43-.07.75,0,1.9-.62,2.41a41.18,41.18,0,0,1-4.47,3q-3,1.91-6.12,3.65c-.8.44-2.35-.46-3.11-.8a17.27,17.27,0,0,1-2.58-1.46,13.91,13.91,0,0,1-3.73-3.8A18.2,18.2,0,0,1,107.9,344a39.66,39.66,0,0,1,2.36-14.34l0-.11C110.38,329.25,110,329.15,109.91,329.39Z"/><path class="cls-11" d="M96.24,330.65l4,.14-.2-.2c-.57,4.61-1.12,9.23-1.62,13.85-.29,2.7-.6,5.41-.77,8.13a7.84,7.84,0,0,1-1,4.13,7.16,7.16,0,0,1-2.53,2.3c-.23.12,0,.47.2.35a6.87,6.87,0,0,0,3.68-6c.08-2.6.41-5.21.69-7.8q.8-7.49,1.73-14.93c0-.11-.1-.2-.2-.2l-4-.15c-.26,0-.26.4,0,.41Z"/><path class="cls-11" d="M138.92,315.92c.75,4.28,1.22,8.63,1.71,12.95.94,8.28,1.65,16.6,2,24.93.29,7.78.38,15.79-1.08,23.47-.05.26.34.36.38.11,1.49-7.81,1.39-15.93,1.1-23.85-.3-8.31-1-16.61-2-24.87-.49-4.28-1-8.6-1.7-12.85,0-.25-.43-.14-.39.11Z"/><path class="cls-11" d="M140.78,316.06c.67,4.29,1.53,8.55,2.16,12.85a222.13,222.13,0,0,1,2.4,26c.21,7.36,0,14.88-1.7,22.08-.06.25.33.36.39.1,2-8.48,2-17.41,1.57-26.07A238.25,238.25,0,0,0,143,326.31c-.53-3.46-1.24-6.9-1.78-10.35,0-.26-.43-.15-.39.1Z"/><path class="cls-11" d="M144.26,336.94c5.26.06,8.57-5.06,9.48-9.74,0-.26-.33-.37-.39-.11v0c0,.26.34.36.38.11v0l-.39-.11c-.87,4.5-4,9.51-9.09,9.44a.21.21,0,0,0,0,.41Z"/><path class="cls-11" d="M144.64,339.5a8.86,8.86,0,0,0,5.26-1.05,9.55,9.55,0,0,0,5-6.08.2.2,0,0,0-.39-.1,9.21,9.21,0,0,1-4.59,5.73,8.36,8.36,0,0,1-5.14,1.11c-.26,0-.37.34-.11.39Z"/><path class="cls-24" d="M104,316.87c-.29-1.86,1.28-8.72,1.71-8.86s29-3.44,45.17,0c1.14,1,.5,8.64.5,8.64A430,430,0,0,0,104,316.87Z"/><path class="cls-24" d="M105.67,308c-5.14-2.44-7.72-3.86-5.86-12.15s8.29-46.74,20.3-61.89c6-3.58,18.44-7.86,25.3-6s13.43,9,17.58,14.3,10.43,10,16.72,13.43,17.44,9.58,14.58,16.15c-2.86,5.44-7.86,12.72-7.86,12.72-8.87,2.58-27.16-5.57-35-12.86,3.43,18.44,9.58,33.3-.57,36.31A336.54,336.54,0,0,0,105.67,308Z"/><path class="cls-25" d="M118.25,259.55C122,246.68,125,236.36,127,230.72c-1,.37-1.87.75-2.74,1.14-2.32,5.39-9.47,21.13-11.17,30.66-1.56,8.69-5.72,24.65-7.72,32.37s1.46,9.83,3.89,12.54h4.29c-3.86-6.14-3.57-12.15-1.57-21.58S114.25,273.42,118.25,259.55Z"/><path class="cls-25" d="M133.54,250.55c-.71,6.57-4,28.3-5.71,36a141,141,0,0,0-2.72,20.58l-4.16.12c-1.29-4.57,1.73-18.56,3.45-28.71s5.86-32.16,6.57-35.3Z"/><path class="cls-25" d="M143.4,264.55c.43,5.72,5.15,35.88-2.14,43.17l-3.72-.29s1.58-2.28,2.58-10.14,0-32.31,0-36.17Z"/><path class="cls-24" d="M186.43,284.56c1,1.29,2.71,3.11,4.91,3.26,1,.07,8.09-11.4,8.52-12.55s-3.39-4.28-5.38-4.44"/><path class="cls-11" d="M152,213c-1.27-.12-2.25,2.56-.71,3C152.27,216.32,153.48,213.17,152,213Z"/><path class="cls-11" d="M150.55,208a5.32,5.32,0,0,1,3.86-1.45.2.2,0,0,0,0-.4,5.7,5.7,0,0,0-4.14,1.56c-.18.19.1.48.28.29Z"/><path class="cls-11" d="M149.71,220.67c0,1.87,1.22,4,3.27,4.07.26,0,.26-.4,0-.41-1.82-.07-2.83-2-2.87-3.66,0-.25-.41-.26-.4,0Z"/><path class="cls-11" d="M137.2,202.91a2.35,2.35,0,0,0,.09,2.31,2.73,2.73,0,0,0,2,.73l-.19-.26a2.18,2.18,0,0,0,1.65,2.76c1.38.41,2.64-.59,3.47-1.56.17-.19-.11-.48-.28-.28a4.27,4.27,0,0,1-2,1.45,2.31,2.31,0,0,1-1.55-.18,1.68,1.68,0,0,1-.87-2.08.21.21,0,0,0-.2-.25,2.65,2.65,0,0,1-1.53-.46c-.6-.47-.38-1.49-.13-2.08.1-.24-.29-.34-.39-.1Z"/><path class="cls-25" d="M189.43,279.56c-3.57-3.29-17.44-6-30.87-15.15s-25.16-26.58-27-30.44c0,0-.87,3.43-.43,5.43,2.29,6,8.15,14,18.87,24s30,19.3,38,18.44l.2.06,1.38-2.13Z"/><path class="cls-25" d="M194.45,271.42c-1.91-2.52-6.3-5.76-13.6-9a54.62,54.62,0,0,1-21.15-16.58c-5.57-7.43-16.3-15.87-22-17.87l-.2-.11c-.89.13-1.8.3-2.71.5a5.74,5.74,0,0,0-1,1.31c2.57,2.29,20.94,17.88,30.37,26.46s15.87,9.72,21,12.86a32.63,32.63,0,0,1,7.37,6c.64-1.08,1.25-2.16,1.78-3.17C194.35,271.7,194.4,271.56,194.45,271.42Z"/><path class="cls-11" d="M105.67,308.21c1.9-.24,3.83-.28,5.74-.36,3.74-.17,7.48-.27,11.23-.33,9.4-.15,18.83-.08,28.2.69.26,0,.25-.39,0-.41-9.37-.76-18.8-.83-28.2-.68-3.75.06-7.49.16-11.23.33-1.91.08-3.84.12-5.74.35-.25,0-.26.44,0,.41Z"/><path class="cls-11" d="M135,228c-3.46,3.11-4.46,8.2-4.22,12.65.42,7.78,4.58,14.92,9.47,20.76a74,74,0,0,0,11.05,10.47c.2.16.49-.12.28-.28-7.91-6.22-15.44-14-18.87-23.63-1.89-5.31-2.43-11.66.33-16.79a10.53,10.53,0,0,1,2.25-2.89c.19-.17-.09-.46-.29-.29Z"/><path class="cls-11" d="M194.44,270.72a19.51,19.51,0,0,1-2.52,4.91c-.86,1.44-1.76,2.86-2.66,4.28s-2,3-3,4.55c-.14.22.21.42.35.21q1.62-2.37,3.16-4.79,1.37-2.13,2.66-4.31a18.49,18.49,0,0,0,2.41-4.75c.06-.25-.33-.36-.39-.1Z"/><path class="cls-7" d="M238.7,315.42c-1.5.54-.48,1.71.43,2.2s1.72-.06,2.52.8a6.17,6.17,0,0,0,5.15,1.07c1.93-.48,2.57-.85,4.34-.64s2.73.21,3.7-.48c2.19,1.87,2.94,1.77,3.86,1s-.81-2.95-1.93-4.18-2.25-4.34-4.88-4.23-5.2,1.44-6.38,1.71-3.64.65-4.23.91a1.2,1.2,0,0,0-.7.7C239.4,314.08,238.06,314,238.7,315.42Z"/><path class="cls-11" d="M240.43,314.12a2.37,2.37,0,0,0,.78,1.67c.52.55,1.43.44,2.08.7.25.09.35-.3.11-.39-.44-.17-1-.21-1.42-.34a1.74,1.74,0,0,1-1.15-1.64.2.2,0,0,0-.4,0Z"/><path class="cls-11" d="M238.53,315.36a2.6,2.6,0,0,0,1.44,1.27,10.77,10.77,0,0,1,1.57.54,2.31,2.31,0,0,0,.92.29c.25,0,.25-.38,0-.4a18,18,0,0,1-1.9-.68,2.43,2.43,0,0,1-1.68-1.22.2.2,0,0,0-.35.2Z"/><path class="cls-11" d="M247.06,312a6.35,6.35,0,0,1-3.06,1.45,1,1,0,0,0-.83,1.28c.47,1.77,3.38,1.48,4.66,1.18.26-.06.15-.45-.1-.39a6.51,6.51,0,0,1-2.56.11,2.4,2.4,0,0,1-1.24-.45.8.8,0,0,1,.44-1.4,6.43,6.43,0,0,0,3-1.49c.19-.18-.1-.47-.29-.29Z"/><path class="cls-11" d="M241.1,318.18a1.89,1.89,0,0,0,1.29-.46c.74-.58,1.91-.22,2.78-.33,1.59-.2,2.65-1,4-1.74.24-.12,0-.47-.2-.35-1.5.76-2.63,1.64-4.39,1.74a9.1,9.1,0,0,0-1.73,0c-.65.16-1.06.74-1.78.75a.21.21,0,0,0,0,.41Z"/><path class="cls-11" d="M253.5,316.79c.12.16.17.35.3.51l.45.57c.28.35.58.71.89,1a.2.2,0,0,0,.29-.28c-.32-.33-.58-.71-.9-1a12.87,12.87,0,0,1-.75-1.07c-.16-.2-.44.08-.28.28Z"/><path class="cls-26" d="M304.06,244.51c-2.72-.64-4.5-4.4-4.22-7.54s3.58-6.36,7.43-8.15,9.72-5.64,18.09-1.64,7.07,13.43,11.43,17.65,13.22,5.29,17.29,13.51-1.21,12.72,5,17.86,10.43,12.8,1.14,19.66-19.44,3-19.44,3-26-9.7-31.16-17.66c-4.5-7-2.78-9.36-1.64-11.5s-.29-4.15-1.64-6.36-.36-5.79,2.92-8.08"/><path class="cls-27" d="M318.78,268.84c.21-2.57-2.14-9.65-2.14-9.65-3.72,1-8.79-3.64-10.62-6.75s-.93-5.12-1.93-7.4c-1.58-3.61-3.64-10.5,6.65-14.36,11.47-4.3,14.58,8.36,17.15,17.26s2.25,13.51,2.25,13.51Z"/><path class="cls-28" d="M314.21,313.29c.14,2.29.57,5.86.57,5.86-.43,6-4.43,36.45-2.15,52.17,11.44,1.43,50.89.57,50.89.57-1.86-12.14-3.58-30.87-9.29-43.45s-7.86-16.15-7.86-16.15l-.86-4.86S326.21,307.86,314.21,313.29Z"/><path class="cls-11" d="M313.71,242.4c-.94-.09-1.13,1.84,0,2.11S314.81,242.51,313.71,242.4Z"/><path class="cls-11" d="M306.67,244.76c-.94-.09-1.13,1.83,0,2.11S307.77,244.87,306.67,244.76Z"/><path class="cls-27" d="M238.67,305.15c-1.58,1.13-2.5,2.07-1.36,2.71a2.06,2.06,0,0,0,2.14-.07c.86.93,2.43.57,3.72-.36a3.87,3.87,0,0,0,4.22-.35c1.28-.86,3.43-2.51,5.93-2.15s6.14,1.5,9.07-.07A22.29,22.29,0,0,1,273,301.93c4.43-.07,22.3-2.29,29.45-6.43.35-4.07-9.22-10.58-9.22-10.58-4.72,1.65-20,10-26.66,11.51s-16.08,3.29-21,5.36S239.17,304.79,238.67,305.15Z"/><path class="cls-11" d="M243.54,307.31c-.42-1.28,1.81-2,2.64-2.33,1.21-.51,2.24-1.35,3.48-1.78.24-.09.13-.48-.11-.39-1.57.55-3,1.55-4.5,2.23-.92.42-2.29,1.18-1.9,2.38.09.24.48.14.39-.11Z"/><path class="cls-11" d="M239.77,307.72c-.62-1.19,1.2-1.72,1.92-2s1.28-.61,1.9-.95c1.5-.8,2.66-1.87,4.35-2.3a.2.2,0,0,0-.11-.39c-2.11.54-3.75,2-5.67,3-1,.53-3.63,1.16-2.74,2.88.12.23.47,0,.35-.21Z"/><path class="cls-26" d="M309.27,230.75c.08,2.22.5,4.29,3.22,5.15s5.43,0,5.43,4.21.29,8.29,3.58,9.51,3.71,1,3.64,4.29,1.13,6.73,6.49,7-1.49-13-3.13-18.32S322,223.53,309.27,230.75Z"/><path class="cls-9" d="M292.73,285.24c-.86-.85,1.5-3,5.79-4.28.11-3.11,5.57-5.47,8.68-6.11s20.05-13.19,23.37-14.58,10.51-1.4,14.15,4.71,3.43,17.8,1.82,23.37,2.26,10.72,2.79,14.37-3.11,5.46-4.5,5.36-21,1.28-29.91,5.78c-2.36.86-7.29-3.43-6.86-10.5s-.75-9.43-.75-9.43-3.86,3.1-7.5,2.78C300.77,294.78,296.7,286.85,292.73,285.24Z"/><path class="cls-11" d="M310,244.69c.11.83-.29,1.21-.79,1.79a1.2,1.2,0,0,0-.17,1.13c.2.69,1.53,1.19,2.16,1.17a.2.2,0,0,0,0-.4,2.51,2.51,0,0,1-1.22-.44c-.78-.41-.67-1-.07-1.6a1.68,1.68,0,0,0,.5-1.65c0-.26-.44-.26-.41,0Z"/><path class="cls-11" d="M311.26,238.41a3.29,3.29,0,0,1,2.81.52c.23.12.43-.23.2-.35a3.6,3.6,0,0,0-3.12-.55c-.24.09-.13.48.11.38Z"/><path class="cls-11" d="M303.51,242.36a2.51,2.51,0,0,1,1.42-2c.23-.11,0-.46-.21-.34a2.86,2.86,0,0,0-1.61,2.31.2.2,0,0,0,.4,0Z"/><path class="cls-11" d="M310.16,250.61a10.05,10.05,0,0,1,2.48-.7c.87-.22,1.56-.9,2.41-1.17l-.26-.19c-.06,1.3.2,4.57-1.91,4.22-1.11-.18-1.73-1.8-2.61-2.43-.21-.15-.41.2-.2.35,1,.74,2,3.14,3.67,2.43s1.39-3.11,1.45-4.57a.2.2,0,0,0-.25-.2c-.85.28-1.56.86-2.41,1.17a15.42,15.42,0,0,0-2.57.75c-.23.12,0,.47.2.34Z"/><path class="cls-11" d="M312.79,252.89a4.72,4.72,0,0,1,1.88-2.1c.21-.14,0-.49-.21-.35a5.19,5.19,0,0,0-2.06,2.34c-.08.25.31.35.39.11Z"/><path class="cls-11" d="M316.48,259.46a10.83,10.83,0,0,0,7.18-7c.08-.24-.31-.35-.39-.1a10.42,10.42,0,0,1-6.9,6.68.2.2,0,0,0,.11.39Z"/><path class="cls-11" d="M297.25,281.61c1.15-.17,2.25.6,3.22,1.13a9.22,9.22,0,0,1,2.41,1.85,10,10,0,0,1,2.83,5.76c0,.26.43.26.41,0a10.7,10.7,0,0,0-3-6.05A10.28,10.28,0,0,0,300,282a4.64,4.64,0,0,0-2.87-.81c-.25,0-.14.42.11.38Z"/><path class="cls-11" d="M298.16,281.24c1.74-1,4.19-1,6.13-.7.25,0,.36-.35.11-.39-2.06-.31-4.59-.34-6.45.74a.2.2,0,0,0,.21.35Z"/><path class="cls-11" d="M303.23,296.46a14.92,14.92,0,0,0,2.43-1.3c.7-.46,1.28-1.05,2-1.47a15,15,0,0,1,2.89-1.07l3-1a69.24,69.24,0,0,0,11.16-4.32,50,50,0,0,0,9.41-6,26.23,26.23,0,0,0,3.8-4,49,49,0,0,0,3.14-5.26.2.2,0,0,0-.35-.21c-.89,1.56-1.66,3.21-2.7,4.67a26,26,0,0,1-4.18,4.53,48.89,48.89,0,0,1-9.66,6.07,71.9,71.9,0,0,1-11.48,4.35,33.2,33.2,0,0,0-5.27,1.84,17,17,0,0,0-2,1.48,13.15,13.15,0,0,1-2.43,1.29c-.24.1,0,.45.2.35Z"/><path class="cls-11" d="M340.83,275.53c-1.73,2.77-3.29,5.48-6,7.43-.21.15,0,.5.2.35,2.78-2,4.38-4.74,6.15-7.58.14-.22-.21-.42-.35-.2Z"/><path class="cls-11" d="M316.05,318.85c1.12-.38,2.17-.84,3.31-1.15s2.5-.91,3.75-1.36a48.71,48.71,0,0,1,7.44-1.84c2.65-.51,5.27-1.06,8-1.31s5.14-.71,7.73-.81c.26,0,.26-.41,0-.4-2.48.09-4.91.59-7.38.78a70.91,70.91,0,0,0-7.66,1.2,78.31,78.31,0,0,0-7.87,1.88c-1.26.38-2.45,1-3.7,1.37-.6.19-1.21.31-1.81.49s-1.24.54-1.88.76c-.25.08-.14.47.11.39Z"/><path class="cls-11" d="M340.45,314.63a62,62,0,0,1,1.81,7c.24,1,.7,2,1,3.09s.67,2.35,1,3.52c.72,2.27,1.51,4.52,2.18,6.81s1.2,4.79,1.73,7.2,1.08,5,1.37,7.57.44,4.93.73,7.38c.26,2.24.41,4.47.8,6.7s.74,4.62,1.06,6.93c0,.26.43.15.39-.1-.32-2.32-.64-4.64-1.06-6.94s-.6-4.91-.88-7.38-.44-4.91-.73-7.35-.8-4.62-1.29-6.92-1.05-4.82-1.73-7.2-1.46-4.54-2.18-6.81c-.34-1.05-.64-2.12-.94-3.19s-.82-2.26-1.1-3.42a69.73,69.73,0,0,0-1.81-7c-.08-.25-.47-.14-.39.1Z"/><path class="cls-11" d="M343.46,319.06a130.21,130.21,0,0,1,3.89,12.51,134.17,134.17,0,0,1,3.21,13.12c.89,4.65,1.68,9.32,2.28,14,.26,2,.41,4.06.8,6.07s1.31,4.36,1.39,6.54a.2.2,0,0,0,.4,0,32.71,32.71,0,0,0-1.18-5.59c-.52-2.32-.71-4.67-1-7-.58-4.61-1.37-9.18-2.23-13.74a94.3,94.3,0,0,0-3.17-13.15c-1.46-4.26-2.3-8.68-4-12.86-.09-.24-.48-.14-.38.1Z"/><path class="cls-11" d="M238,305.42c-.6.49-1.52,1.15-1.31,2s1.47.92,2.1.84a2.2,2.2,0,0,0,.78-.31c-.31.19.95.53,1,.54a3.17,3.17,0,0,0,1.52-.25,5.31,5.31,0,0,0,.64-.3,1.62,1.62,0,0,1,1.41,0c2.31.65,4.1-1.41,6-2.31,1.68-.78,3.28-.52,5-.2a17.33,17.33,0,0,0,4.76.35c.26,0,.26-.43,0-.4a24,24,0,0,1-6.25-.63,6.73,6.73,0,0,0-4.26.79c-1.45.73-2.65,2.06-4.35,2.12a4.05,4.05,0,0,1-1.49-.31c-.07,0-.36-.22-.5-.12-1,.68-2.43,1.35-3.47.39a.21.21,0,0,0-.25,0,2.12,2.12,0,0,1-1.15.31.89.89,0,0,1-.73-1.54,6.15,6.15,0,0,1,.77-.68c.21-.16-.08-.45-.28-.29Z"/><path class="cls-11" d="M336.74,259.6a50.4,50.4,0,0,1,5.41,2.29,20.37,20.37,0,0,1,4.18,3.28,7.92,7.92,0,0,1,2.57,4.45,20.4,20.4,0,0,0,1,4.25,6.37,6.37,0,0,0,2.33,2.68c.65.43,1.43.69,2.12,1.07a17.42,17.42,0,0,1,2.05,1.37,9.42,9.42,0,0,1,3.45,3.95c.72,1.77-.4,3.16-1.84,4.06-.22.14,0,.49.2.35a4.44,4.44,0,0,0,2.23-2.74,4.63,4.63,0,0,0-1.19-3.53,16.15,16.15,0,0,0-3.78-3.26c-1.71-1.14-3.57-1.59-4.78-3.37-1.06-1.55-1.11-3.48-1.48-5.26a7.84,7.84,0,0,0-2.36-4.08,24.33,24.33,0,0,0-4.19-3.38,34.32,34.32,0,0,0-5.83-2.52c-.24-.09-.34.3-.1.39Z"/></g><polygon class="cls-29" points="547.03 415.24 277.4 415.24 247.01 352.72 547.03 352.72 547.03 415.24"/><text class="cls-30" transform="translate(288.53 372.53)">Ciu<tspan class="cls-31" x="35.47" y="0">d</tspan><tspan x="49.22" y="0">a</tspan><tspan class="cls-31" x="63.93" y="0">d</tspan><tspan class="cls-32" x="77.68" y="0">aní</tspan><tspan class="cls-33" x="113.7" y="0">a</tspan><tspan class="cls-32" x="127.57" y="0"> </tspan><tspan class="cls-34" x="133.41" y="0">p</tspan><tspan class="cls-32" x="145.38" y="0">ar</tspan><tspan class="cls-33" x="173.78" y="0">a</tspan><tspan class="cls-32" x="187.65" y="0"> </tspan><tspan x="0" y="19.42">un</tspan><tspan class="cls-33" x="29.32" y="19.42">a</tspan><tspan class="cls-32" x="43.19" y="19.42"> </tspan><tspan class="cls-34" x="49.03" y="19.42">p</tspan><tspan class="cls-32" x="61" y="19.42">artici</tspan><tspan class="cls-34" x="129.64" y="19.42">p</tspan><tspan class="cls-35" x="141.61" y="19.42">a</tspan><tspan x="155.51" y="19.42">ción </tspan><tspan x="0" y="38.83">democr</tspan><tspan class="cls-36" x="87.76" y="38.83">á</tspan><tspan x="100.53" y="38.83">ti</tspan><tspan class="cls-37" x="119.79" y="38.83">c</tspan><tspan class="cls-33" x="133.73" y="38.83">a</tspan></text></g></svg>