<svg xmlns="http://www.w3.org/2000/svg" xmlns:xlink="http://www.w3.org/1999/xlink" viewBox="0 0 1133.86 1133.86"><defs><style>.cls-1{fill:url(#Degradado_sin_nombre_25);}.cls-2,.cls-50{fill:none;}.cls-3{fill:url(#Degradado_sin_nombre_11);}.cls-4{font-size:36.9px;letter-spacing:-0.15em;}.cls-20,.cls-4{fill:#fff;}.cls-4,.cls-45{font-family:LuloCleanW01-OneBold;font-weight:700;}.cls-5{letter-spacing:-0.19em;}.cls-6{letter-spacing:-0.15em;}.cls-7{fill:#dc7f38;}.cls-8{clip-path:url(#clip-path);}.cls-9{mask:url(#mask);}.cls-10{fill:url(#Degradado_sin_nombre_24);}.cls-11{fill:#eae8e9;}.cls-12{opacity:0.3;}.cls-13{clip-path:url(#clip-path-2);}.cls-14{fill:#1a1413;}.cls-15{fill:#e0dedd;}.cls-16{fill:#2c313a;}.cls-17{fill:#3d5561;}.cls-18{opacity:0.2;}.cls-19{clip-path:url(#clip-path-3);}.cls-21{clip-path:url(#clip-path-4);}.cls-22{opacity:0.1;}.cls-23{clip-path:url(#clip-path-5);}.cls-24{clip-path:url(#clip-path-6);}.cls-25{clip-path:url(#clip-path-7);}.cls-26{clip-path:url(#clip-path-8);}.cls-27{clip-path:url(#clip-path-9);}.cls-28{clip-path:url(#clip-path-10);}.cls-29{clip-path:url(#clip-path-11);}.cls-30{clip-path:url(#clip-path-12);}.cls-31{clip-path:url(#clip-path-13);}.cls-32{clip-path:url(#clip-path-14);}.cls-33{clip-path:url(#clip-path-15);}.cls-34{clip-path:url(#clip-path-16);}.cls-35{clip-path:url(#clip-path-17);}.cls-36{clip-path:url(#clip-path-18);}.cls-37{clip-path:url(#clip-path-19);}.cls-38{clip-path:url(#clip-path-20);}.cls-39{clip-path:url(#clip-path-21);}.cls-40{clip-path:url(#clip-path-22);}.cls-41{clip-path:url(#clip-path-23);}.cls-42{clip-path:url(#clip-path-24);}.cls-43{clip-path:url(#clip-path-25);}.cls-44{clip-path:url(#clip-path-26);}.cls-45{font-size:25.12px;letter-spacing:-0.15em;}.cls-45,.cls-51{fill:#3e0d25;}.cls-46{letter-spacing:-0.15em;}.cls-47{letter-spacing:-0.15em;}.cls-48{letter-spacing:-0.15em;}.cls-49{letter-spacing:-0.2em;}.cls-50{stroke:#7c3b8f;stroke-miterlimit:10;stroke-width:6px;}.cls-52{fill:#5c3f2e;}.cls-53{fill:#a05129;}.cls-54{fill:#8d134f;}.cls-55{fill:#9c2f3e;}.cls-56{fill:#af4644;}.cls-57{fill:#d17b37;}</style><linearGradient id="Degradado_sin_nombre_25" x1="-4604.12" y1="1409.2" x2="-4602.35" y2="1409.2" gradientTransform="matrix(189.08, 0, 0, -189.08, 870930.59, 266991.7)" gradientUnits="userSpaceOnUse"><stop offset="0" stop-color="#fff"/><stop offset="0.29" stop-color="#fdfdfd"/><stop offset="0.43" stop-color="#f5f5f5"/><stop offset="0.53" stop-color="#e8e8e8"/><stop offset="0.62" stop-color="#d6d6d6"/><stop offset="0.7" stop-color="#bebebe"/><stop offset="0.77" stop-color="#a0a0a0"/><stop offset="0.84" stop-color="#7d7d7d"/><stop offset="0.9" stop-color="#555"/><stop offset="0.96" stop-color="#282828"/><stop offset="1"/></linearGradient><linearGradient id="Degradado_sin_nombre_11" x1="566.93" y1="883.39" x2="566.93" y2="233.06" gradientUnits="userSpaceOnUse"><stop offset="0" stop-color="#d17b37"/><stop offset="0.3" stop-color="#b65241"/><stop offset="0.59" stop-color="#a03048"/><stop offset="0.84" stop-color="#921b4d"/><stop offset="1" stop-color="#8d134f"/></linearGradient><clipPath id="clip-path"><rect class="cls-2" x="401.07" y="434.91" width="334.07" height="219.32"/></clipPath><mask id="mask" x="401.07" y="434.91" width="334.07" height="219.32" maskUnits="userSpaceOnUse"><rect class="cls-1" x="401.07" y="434.91" width="334.07" height="219.32"/></mask><linearGradient id="Degradado_sin_nombre_24" x1="-4604.12" y1="1409.2" x2="-4602.35" y2="1409.2" gradientTransform="matrix(189.08, 0, 0, -189.08, 870930.59, 266991.7)" gradientUnits="userSpaceOnUse"><stop offset="0" stop-color="#dc7f38"/><stop offset="0.85" stop-color="#dc7f38"/><stop offset="1" stop-color="#dc7f38"/></linearGradient><clipPath id="clip-path-2"><rect class="cls-2" x="521.36" y="519.94" width="97.06" height="134.29"/></clipPath><clipPath id="clip-path-3"><rect class="cls-2" x="533.91" y="567.06" width="71.92" height="48.11"/></clipPath><clipPath id="clip-path-4"><rect class="cls-2" x="533.91" y="585.38" width="71.92" height="37.38"/></clipPath><clipPath id="clip-path-5"><rect class="cls-2" x="416.54" y="554.76" width="19.99" height="8.27"/></clipPath><clipPath id="clip-path-6"><rect class="cls-2" x="406.92" y="545.14" width="19.99" height="8.27"/></clipPath><clipPath id="clip-path-7"><rect class="cls-2" x="434.82" y="500.21" width="19.99" height="8.27"/></clipPath><clipPath id="clip-path-8"><rect class="cls-2" x="445.42" y="488.62" width="19.99" height="8.27"/></clipPath><clipPath id="clip-path-9"><rect class="cls-2" x="370.49" y="482.14" width="19.99" height="8.27"/></clipPath><clipPath id="clip-path-10"><rect class="cls-2" x="381.09" y="470.55" width="19.99" height="8.27"/></clipPath><clipPath id="clip-path-11"><rect class="cls-2" x="271.71" y="511.15" width="19.99" height="8.27"/></clipPath><clipPath id="clip-path-12"><rect class="cls-2" x="246.41" y="479.63" width="19.99" height="8.27"/></clipPath><clipPath id="clip-path-13"><rect class="cls-2" x="282.3" y="499.56" width="19.99" height="8.27"/></clipPath><clipPath id="clip-path-14"><rect class="cls-2" x="287.72" y="633.53" width="19.99" height="8.27"/></clipPath><clipPath id="clip-path-15"><rect class="cls-2" x="359.9" y="493.61" width="19.99" height="8.27"/></clipPath><clipPath id="clip-path-16"><rect class="cls-2" x="875.65" y="478.01" width="19.99" height="8.27"/></clipPath><clipPath id="clip-path-17"><rect class="cls-2" x="886.25" y="466.41" width="19.99" height="8.27"/></clipPath><clipPath id="clip-path-18"><rect class="cls-2" x="776.87" y="507.02" width="19.99" height="8.27"/></clipPath><clipPath id="clip-path-19"><rect class="cls-2" x="751.57" y="475.5" width="19.99" height="8.27"/></clipPath><clipPath id="clip-path-20"><rect class="cls-2" x="787.46" y="495.42" width="19.99" height="8.27"/></clipPath><clipPath id="clip-path-21"><rect class="cls-2" x="861.54" y="510.01" width="19.99" height="8.27"/></clipPath><clipPath id="clip-path-22"><rect class="cls-2" x="570.97" y="443.68" width="19.99" height="8.27"/></clipPath><clipPath id="clip-path-23"><rect class="cls-2" x="715.71" y="516.06" width="19.44" height="8.27"/></clipPath><clipPath id="clip-path-24"><rect class="cls-2" x="725.7" y="503.69" width="9.45" height="8.27"/></clipPath><clipPath id="clip-path-25"><rect class="cls-2" x="660.66" y="496.07" width="9.99" height="8.27"/></clipPath><clipPath id="clip-path-26"><rect class="cls-2" x="661.26" y="483.71" width="19.99" height="8.27"/></clipPath></defs><g id="Capa_1" data-name="Capa 1"><circle class="cls-3" cx="566.93" cy="558.22" r="325.17"/><text class="cls-4" transform="translate(368.63 714.45)">escuel<tspan class="cls-5" x="178.95" y="0">a</tspan><tspan x="211.06" y="0">s como</tspan><tspan class="cls-6"><tspan x="-36.2" y="44.29">territorio común</tspan></tspan></text><rect class="cls-7" x="214.08" y="456.05" width="706.13" height="197.93"/><rect class="cls-7" x="401.08" y="434.91" width="334.07" height="219.32"/><g class="cls-8"><g class="cls-9"><rect class="cls-10" x="401.07" y="434.91" width="334.07" height="219.32"/></g></g><rect class="cls-11" x="214.08" y="595.43" width="307.28" height="19.74"/><rect class="cls-11" x="618.42" y="595.43" width="301.8" height="19.74"/><g class="cls-12"><g class="cls-13"><rect class="cls-14" x="521.36" y="519.94" width="97.06" height="134.3"/></g></g><rect class="cls-15" x="474.42" y="456.61" width="186.23" height="47.73"/><rect class="cls-15" x="389.72" y="423.81" width="352.4" height="11.1"/><rect class="cls-16" x="529.62" y="532.54" width="80.61" height="121.7"/><rect class="cls-17" x="533.91" y="538.02" width="71.92" height="23.99"/><rect class="cls-17" x="533.91" y="567.06" width="71.92" height="84.19"/><g class="cls-18"><g class="cls-19"><polygon class="cls-20" points="605.84 567.06 533.91 599.7 533.91 615.17 605.84 580.14 605.84 567.06"/></g></g><g class="cls-18"><g class="cls-21"><polygon class="cls-20" points="605.84 585.38 533.91 618.02 533.91 622.75 605.84 589.78 605.84 585.38"/></g></g><path class="cls-16" d="M569.8,653.05c-.16,0-.28-19.56-.28-43.69s.12-43.7.28-43.7.28,19.56.28,43.7-.13,43.69-.28,43.69"/><path class="cls-16" d="M582.54,604.33c-.12-.09,3.07-4.55,7.13-10s7.45-9.7,7.57-9.61-3.07,4.55-7.13,10-7.44,9.7-7.57,9.61"/><path class="cls-16" d="M580.27,619.8c-.12-.09,3.6-5.57,8.32-12.25s8.65-12,8.77-11.93-3.6,5.57-8.32,12.25-8.64,12-8.77,11.93"/><path class="cls-16" d="M541.14,625.26a109.71,109.71,0,0,1,7.76-7.92c4.4-4.26,8.05-7.63,8.15-7.52a107.2,107.2,0,0,1-7.76,7.92,110,110,0,0,1-8.15,7.52"/><path class="cls-16" d="M536.09,639.05a5.26,5.26,0,0,1,.83-.86L539.3,636l7.86-7.3,7.74-7.41c.93-.88,1.71-1.63,2.35-2.25a6.34,6.34,0,0,1,.91-.78,4.54,4.54,0,0,1-.75.93c-.52.58-1.28,1.39-2.23,2.38-1.9,2-4.59,4.66-7.64,7.54s-5.89,5.4-8,7.19c-1,.89-1.89,1.6-2.5,2.08a4.63,4.63,0,0,1-1,.7"/><rect class="cls-16" x="563.73" y="601.23" width="4.27" height="15.84"/><rect class="cls-16" x="572.29" y="601.23" width="4.27" height="15.84"/><path class="cls-16" d="M583.11,544.24a37.4,37.4,0,0,1-3.1,2.35l-7.55,5.57c-3,2.18-5.66,4.12-7.66,5.45-1,.67-1.82,1.2-2.4,1.54a4.14,4.14,0,0,1-.93.5,33.55,33.55,0,0,1,3.1-2.36l7.56-5.57c3-2.18,5.65-4.12,7.65-5.45,1-.67,1.82-1.2,2.4-1.54a3.39,3.39,0,0,1,.93-.49"/><path class="cls-16" d="M570.17,548.5a65.31,65.31,0,0,1-6.86,5.25,69,69,0,0,1-7.17,4.8A64.49,64.49,0,0,1,563,553.3a68.47,68.47,0,0,1,7.18-4.8"/><g class="cls-22"><g class="cls-23"><rect class="cls-14" x="416.54" y="554.76" width="19.99" height="8.27"/></g></g><g class="cls-18"><g class="cls-24"><rect class="cls-14" x="406.92" y="545.14" width="19.99" height="8.27"/></g></g><g class="cls-22"><g class="cls-25"><rect class="cls-14" x="434.82" y="500.21" width="19.99" height="8.27"/></g></g><g class="cls-18"><g class="cls-26"><rect class="cls-14" x="445.42" y="488.62" width="19.99" height="8.27"/></g></g><g class="cls-22"><g class="cls-27"><rect class="cls-14" x="370.49" y="482.14" width="19.99" height="8.27"/></g></g><g class="cls-18"><g class="cls-28"><rect class="cls-14" x="381.09" y="470.55" width="19.99" height="8.27"/></g></g><g class="cls-22"><g class="cls-29"><rect class="cls-14" x="271.71" y="511.15" width="19.99" height="8.27"/></g></g><g class="cls-22"><g class="cls-30"><rect class="cls-14" x="246.41" y="479.63" width="19.99" height="8.27"/></g></g><g class="cls-18"><g class="cls-31"><rect class="cls-14" x="282.3" y="499.56" width="19.99" height="8.27"/></g></g><g class="cls-18"><g class="cls-32"><rect class="cls-14" x="287.72" y="633.52" width="19.99" height="8.27"/></g></g><g class="cls-18"><g class="cls-33"><rect class="cls-14" x="359.9" y="493.61" width="19.99" height="8.27"/></g></g><g class="cls-22"><g class="cls-34"><rect class="cls-14" x="875.65" y="478.01" width="19.99" height="8.27"/></g></g><g class="cls-18"><g class="cls-35"><rect class="cls-14" x="886.25" y="466.41" width="19.99" height="8.27"/></g></g><g class="cls-22"><g class="cls-36"><rect class="cls-14" x="776.87" y="507.02" width="19.99" height="8.27"/></g></g><g class="cls-22"><g class="cls-37"><rect class="cls-14" x="751.57" y="475.5" width="19.99" height="8.27"/></g></g><g class="cls-18"><g class="cls-38"><rect class="cls-14" x="787.46" y="495.42" width="19.99" height="8.27"/></g></g><g class="cls-18"><g class="cls-39"><rect class="cls-14" x="861.53" y="510.01" width="19.99" height="8.27"/></g></g><g class="cls-22"><g class="cls-40"><rect class="cls-14" x="570.97" y="443.68" width="19.99" height="8.27"/></g></g><g class="cls-18"><g class="cls-41"><rect class="cls-14" x="715.71" y="516.06" width="19.44" height="8.27"/></g></g><g class="cls-22"><g class="cls-42"><rect class="cls-14" x="725.7" y="503.69" width="9.45" height="8.27"/></g></g><g class="cls-18"><g class="cls-43"><rect class="cls-14" x="660.66" y="496.07" width="9.99" height="8.27"/></g></g><g class="cls-22"><g class="cls-44"><rect class="cls-14" x="661.26" y="483.71" width="19.99" height="8.27"/></g></g><path class="cls-16" d="M401.07,654c-.15,0-.27-49-.27-109.4s.12-109.41.27-109.41.28,49,.28,109.41-.12,109.4-.28,109.4"/><path class="cls-16" d="M734.87,654c-.15,0-.28-49-.28-109.4s.13-109.41.28-109.41.28,49,.28,109.41S735,654,734.87,654"/><rect class="cls-11" x="313.91" y="524.77" width="77.99" height="108.26"/><rect class="cls-16" x="321.46" y="532.54" width="62.9" height="92.72"/><rect class="cls-17" x="326.87" y="558.55" width="52.07" height="61.08"/><rect class="cls-17" x="326.87" y="538.02" width="52.07" height="17.13"/><path class="cls-16" d="M352.91,621.28c-.16,0-.28-13.83-.28-30.88s.12-30.88.28-30.88.28,13.83.28,30.88-.13,30.88-.28,30.88"/><path class="cls-16" d="M347.56,593.66a81.35,81.35,0,0,1-7,6.57,80.72,80.72,0,0,1-7.36,6.14,85,85,0,0,1,7-6.56,83.26,83.26,0,0,1,7.37-6.15"/><path class="cls-16" d="M347.59,589.29a62.78,62.78,0,0,1-9.08,7.83,32.21,32.21,0,0,1,4.36-4.12,33,33,0,0,1,4.72-3.71"/><path class="cls-16" d="M374.83,574.44a92.67,92.67,0,0,1-7.58,6.59,90.69,90.69,0,0,1-7.92,6.16,89.43,89.43,0,0,1,7.57-6.59,92.26,92.26,0,0,1,7.93-6.16"/><path class="cls-16" d="M368.16,584c.11.11-.57.93-1.5,1.82s-1.78,1.53-1.89,1.42.57-.93,1.5-1.82,1.78-1.53,1.89-1.42"/><rect class="cls-11" x="227.26" y="524.77" width="77.99" height="108.26"/><rect class="cls-16" x="234.81" y="532.54" width="62.9" height="92.72"/><rect class="cls-17" x="240.23" y="558.55" width="52.07" height="61.08"/><rect class="cls-17" x="240.23" y="538.02" width="52.07" height="17.13"/><path class="cls-16" d="M266.26,621.28c-.15,0-.28-13.83-.28-30.88s.13-30.88.28-30.88.28,13.83.28,30.88-.13,30.88-.28,30.88"/><path class="cls-16" d="M260.91,593.66a82.05,82.05,0,0,1-7,6.57,81.57,81.57,0,0,1-7.37,6.14,84.2,84.2,0,0,1,7-6.56,84.07,84.07,0,0,1,7.36-6.15"/><path class="cls-16" d="M261,589.29a31.89,31.89,0,0,1-4.36,4.13,32.41,32.41,0,0,1-4.72,3.7,32.47,32.47,0,0,1,4.35-4.12,32.08,32.08,0,0,1,4.73-3.71"/><path class="cls-16" d="M288.18,574.44a89.43,89.43,0,0,1-7.57,6.59,89.88,89.88,0,0,1-7.93,6.16,89.43,89.43,0,0,1,7.57-6.59,92.26,92.26,0,0,1,7.93-6.16"/><path class="cls-16" d="M281.51,584c.11.11-.56.93-1.5,1.82s-1.78,1.53-1.88,1.42.56-.93,1.5-1.82,1.78-1.53,1.88-1.42"/><rect class="cls-11" x="832.53" y="524.77" width="77.99" height="108.26"/><rect class="cls-16" x="840.08" y="532.54" width="62.9" height="92.72"/><rect class="cls-17" x="845.49" y="558.55" width="52.07" height="61.08"/><rect class="cls-17" x="845.49" y="538.02" width="52.07" height="17.13"/><path class="cls-16" d="M871.53,621.28c-.16,0-.28-13.83-.28-30.88s.12-30.88.28-30.88.28,13.83.28,30.88-.13,30.88-.28,30.88"/><path class="cls-16" d="M866.18,593.66a164.14,164.14,0,0,1-14.36,12.71,85,85,0,0,1,7-6.56,83.26,83.26,0,0,1,7.37-6.15"/><path class="cls-16" d="M866.21,589.29a32.14,32.14,0,0,1-4.35,4.13,31.57,31.57,0,0,1-4.73,3.7,32.21,32.21,0,0,1,4.36-4.12,33,33,0,0,1,4.72-3.71"/><path class="cls-16" d="M893.45,574.44a88.71,88.71,0,0,1-7.58,6.59,90.69,90.69,0,0,1-7.92,6.16,89.43,89.43,0,0,1,7.57-6.59,92.26,92.26,0,0,1,7.93-6.16"/><path class="cls-16" d="M886.78,584c.11.11-.57.93-1.5,1.82s-1.78,1.53-1.89,1.42.57-.93,1.5-1.82,1.78-1.53,1.89-1.42"/><rect class="cls-11" x="745.89" y="524.77" width="77.99" height="108.26"/><rect class="cls-16" x="753.43" y="532.54" width="62.9" height="92.72"/><rect class="cls-17" x="758.85" y="558.55" width="52.07" height="61.08"/><rect class="cls-17" x="758.85" y="538.02" width="52.07" height="17.13"/><path class="cls-16" d="M784.88,621.28c-.15,0-.28-13.83-.28-30.88s.13-30.88.28-30.88.28,13.83.28,30.88-.12,30.88-.28,30.88"/><path class="cls-16" d="M779.53,593.66a164.14,164.14,0,0,1-14.36,12.71,168.64,168.64,0,0,1,14.36-12.71"/><path class="cls-16" d="M779.57,589.29a31.89,31.89,0,0,1-4.36,4.13,32.41,32.41,0,0,1-4.72,3.7,32.21,32.21,0,0,1,4.36-4.12,31.73,31.73,0,0,1,4.72-3.71"/><path class="cls-16" d="M806.8,574.44a179.72,179.72,0,0,1-15.5,12.75,89.43,89.43,0,0,1,7.57-6.59,92.26,92.26,0,0,1,7.93-6.16"/><path class="cls-16" d="M800.13,584c.11.11-.56.93-1.5,1.82s-1.77,1.53-1.88,1.42.56-.93,1.5-1.82,1.78-1.53,1.88-1.42"/><path class="cls-17" d="M321.9,652.89a15.52,15.52,0,0,0-18.34-6.47,11.67,11.67,0,0,0-21.31,0,12.17,12.17,0,0,0-14.94,3.7,13.39,13.39,0,0,0-16.61-2.64,9,9,0,0,0-17,.45c-6.71-3.87-16.46.95-19.57,8H334.82c-1.95-4.31-9.06-5.84-12.92-3.1"/><path class="cls-17" d="M395.23,651.25a52.16,52.16,0,0,0-6.43-.94,8,8,0,0,0-4-3.27c-1.44-.45-4.36-.52-5.53.43a10.15,10.15,0,0,0-20.12,1.27,8.68,8.68,0,0,0-14.1,3.43c-3.85-2.13-9.29,0-11.53,3.82l68.33.22c-.5-3.15-3.77-4.3-6.63-5"/><path class="cls-17" d="M846.65,652.89a15.52,15.52,0,0,0-18.34-6.47,11.67,11.67,0,0,0-21.31,0,12.17,12.17,0,0,0-14.94,3.7,13.38,13.38,0,0,0-16.6-2.64,9,9,0,0,0-17.06.45c-6.71-3.87-16.46.95-19.57,8H859.58c-2-4.31-9.07-5.84-12.93-3.1"/><path class="cls-17" d="M920,651.25a51.89,51.89,0,0,0-6.43-.94,8,8,0,0,0-4-3.27c-1.44-.45-4.35-.52-5.52.43a10.16,10.16,0,0,0-20.13,1.27,8.67,8.67,0,0,0-14.09,3.43c-3.86-2.13-9.3,0-11.54,3.82l68.33.22c-.5-3.15-3.77-4.3-6.63-5"/><rect class="cls-15" x="193.74" y="654.78" width="748.51" height="10.84"/><path class="cls-16" d="M206.87,666a50.59,50.59,0,0,1,0-10.63,50.59,50.59,0,0,1,0,10.63"/><path class="cls-16" d="M244.08,666a50.59,50.59,0,0,1,0-10.63,50.59,50.59,0,0,1,0,10.63"/><path class="cls-16" d="M281.29,666a52.45,52.45,0,0,1,0-10.63,50.59,50.59,0,0,1,0,10.63"/><path class="cls-16" d="M318.51,666a50.59,50.59,0,0,1,0-10.63,50.59,50.59,0,0,1,0,10.63"/><path class="cls-16" d="M355.72,666a50.59,50.59,0,0,1,0-10.63,50.59,50.59,0,0,1,0,10.63"/><path class="cls-16" d="M392.93,666a50.59,50.59,0,0,1,0-10.63,50.59,50.59,0,0,1,0,10.63"/><path class="cls-16" d="M430.15,666a50.59,50.59,0,0,1,0-10.63,52.45,52.45,0,0,1,0,10.63"/><path class="cls-16" d="M467.36,666a50.59,50.59,0,0,1,0-10.63,50.59,50.59,0,0,1,0,10.63"/><path class="cls-16" d="M504.57,666a50.59,50.59,0,0,1,0-10.63,50.59,50.59,0,0,1,0,10.63"/><path class="cls-16" d="M541.78,666a52.45,52.45,0,0,1,0-10.63,50.59,50.59,0,0,1,0,10.63"/><path class="cls-16" d="M579,666a50.59,50.59,0,0,1,0-10.63A50.59,50.59,0,0,1,579,666"/><path class="cls-16" d="M616.21,666a50.59,50.59,0,0,1,0-10.63,50.59,50.59,0,0,1,0,10.63"/><path class="cls-16" d="M653.42,666a50.59,50.59,0,0,1,0-10.63,50.59,50.59,0,0,1,0,10.63"/><path class="cls-16" d="M690.64,666a50.59,50.59,0,0,1,0-10.63,50.59,50.59,0,0,1,0,10.63"/><path class="cls-16" d="M727.85,666a50.59,50.59,0,0,1,0-10.63,50.59,50.59,0,0,1,0,10.63"/><path class="cls-16" d="M765.06,666a50.59,50.59,0,0,1,0-10.63,50.59,50.59,0,0,1,0,10.63"/><path class="cls-16" d="M802.28,666a50.59,50.59,0,0,1,0-10.63,50.59,50.59,0,0,1,0,10.63"/><path class="cls-16" d="M839.49,666a50.59,50.59,0,0,1,0-10.63,50.59,50.59,0,0,1,0,10.63"/><path class="cls-16" d="M876.7,666a50.59,50.59,0,0,1,0-10.63,50.59,50.59,0,0,1,0,10.63"/><path class="cls-16" d="M913.92,666a50.59,50.59,0,0,1,0-10.63,52.45,52.45,0,0,1,0,10.63"/><rect class="cls-15" x="206.87" y="451.95" width="194.21" height="8.23"/><rect class="cls-15" x="735.15" y="451.93" width="188.87" height="8.23"/><path class="cls-16" d="M735.15,654.13c-.15,0-.28-49-.28-109.4s.13-109.41.28-109.41.28,49,.28,109.41-.13,109.4-.28,109.4"/><path class="cls-16" d="M953.51,665.62c0,.15-172.61.28-385.49.28s-385.53-.13-385.53-.28,172.58-.28,385.53-.28,385.49.13,385.49.28"/><text class="cls-45" transform="translate(493.24 491.03)">e<tspan class="cls-46" x="19.49" y="0">scu</tspan><tspan class="cls-47" x="84.15" y="0">e</tspan><tspan class="cls-48" x="103.64" y="0">l</tspan><tspan class="cls-49" x="121.9" y="0">a</tspan></text><circle class="cls-50" cx="566.93" cy="558.22" r="397.88"/><circle class="cls-51" cx="300.06" cy="263.28" r="18.02"/><circle class="cls-52" cx="169.67" cy="538.37" r="18.02"/><circle class="cls-53" cx="271.98" cy="825.09" r="18.02"/><circle class="cls-54" cx="547.07" cy="955.49" r="18.02"/><circle class="cls-55" cx="833.79" cy="853.17" r="18.02"/><circle class="cls-56" cx="964.19" cy="578.08" r="18.02"/><circle class="cls-57" cx="861.88" cy="291.36" r="18.02"/></g></svg>