<svg xmlns="http://www.w3.org/2000/svg" xmlns:xlink="http://www.w3.org/1999/xlink" viewBox="0 0 623.62 623.62"><defs><style>.cls-1{isolation:isolate;}.cls-2{fill:#5c3f2e;}.cls-3{fill:#5ba2a1;}.cls-4{fill:#212449;}.cls-5{fill:#3f9190;}.cls-6{fill:#b8d8d9;}.cls-7{fill:#156f6c;}.cls-8{fill:#146f6e;}.cls-9{fill:#deaa06;}.cls-10{fill:#aa8112;}.cls-11,.cls-13{fill:#4489c9;}.cls-12{fill:#57bdb9;}.cls-13{opacity:0.5;mix-blend-mode:multiply;}.cls-14{fill:#f09575;}.cls-15{fill:#275399;}.cls-16{fill:#f7b18f;}.cls-17{fill:#3160ab;}.cls-18{fill:#e84141;}.cls-19{fill:#fdc423;}.cls-20{fill:#c89905;}.cls-21{fill:#262c5f;}.cls-22{fill:url(#Degradado_sin_nombre_20);}.cls-23{font-size:16.18px;fill:#fff;font-family:LuloCleanW01-OneBold;font-weight:700;}.cls-23,.cls-30{letter-spacing:-0.15em;}.cls-24{letter-spacing:-0.2em;}.cls-25{letter-spacing:-0.15em;}.cls-26{letter-spacing:-0.27em;}.cls-27{letter-spacing:-0.2em;}.cls-28{letter-spacing:-0.21em;}.cls-29{letter-spacing:-0.18em;}</style><linearGradient id="Degradado_sin_nombre_20" x1="494.58" y1="448.25" x2="198.38" y2="448.25" gradientUnits="userSpaceOnUse"><stop offset="0" stop-color="#5c3f2e" stop-opacity="0"/><stop offset="0.27" stop-color="#5c3f2e"/></linearGradient></defs><g class="cls-1"><g id="Capa_1" data-name="Capa 1"><circle class="cls-2" cx="266.28" cy="343.16" r="137.23"/><path class="cls-3" d="M350.08,232.94c-6.47,2.36-11.5,7.47-15.46,12.85-2.41,3.27-6.92,8.57-9,13.47.93.36,1.84.74,2.67,1.16,16.55,8.28,37.32,11.39,52.29-1.91,7-6.23,11.79-14.69,15.23-23.35,1-2.43,2.08-8.44,3.68-13.26A48.32,48.32,0,0,1,383.25,230C372.38,232.39,360.53,229.14,350.08,232.94Z"/><path class="cls-4" d="M386.85,251.62c-.46-.33-1-.74-1.57-1.24-6.71-5.63-7.68,4.29-13.55,5.76s-7.57-7.67-14.15-2.84c-1.81,1.34-4,5.15-6.05,5.52-2.44.46-4.16-3.25-6.48-3.83-2.73-.68-8.82,2.73-14.14,6.68,16.07,7.31,35.47,9.45,49.66-3.16A46.63,46.63,0,0,0,386.85,251.62Z"/><path class="cls-5" d="M396.11,251c-2.16-1.95-5.57.54-7.76,1.2-3.11.95-4,.44-6.65-1.77-6.71-5.63-7.68,4.29-13.56,5.76s-7.56-7.67-14.14-2.84c-1.82,1.34-4,5.15-6.06,5.52-2.44.46-4.16-3.25-6.47-3.83-3.5-.87-12.54,5-18.38,10.09,4.28,4.45,9.35,7.69,14.2,10.77,3.41,2.16,7.62,5.74,11.47,5.82,1.41,0,4.94-.59,5.87-2.19,1.05-1.82,0-4.5.21-6.69,4.41.37,7,3.9,11.09,5.29,2.44.82,5.78.79,7.92-1.19,2.39-2.21,1.46-7.34,3.71-8.67,1.73-1,5.13,2.65,6.89,2.68,3.7.08,4.06-2.9,5.34-6.39,1.42-3.84,2.34-3.32,5-5.83C396.81,256.78,398.91,253.48,396.11,251Z"/><path class="cls-5" d="M352.48,247a79.19,79.19,0,0,0-13,4.72,96.83,96.83,0,0,0-10,5.32c-2.76,1.68-4.91,3.16-6.37,4.22a15.14,15.14,0,0,1-2.33,1.59,12.5,12.5,0,0,1,2.06-1.94,67.79,67.79,0,0,1,6.21-4.55,85,85,0,0,1,10-5.58,75.37,75.37,0,0,1,13.15-4.87,87.63,87.63,0,0,1,13.83-2c2.13-.21,4.13-.43,6-.76a36.57,36.57,0,0,0,5.06-1.28c.75-.27,1.46-.55,2.12-.83s1.28-.57,1.83-.89,1.08-.58,1.55-.86l1.27-.79a16.6,16.6,0,0,1,2.37-1.52,11.39,11.39,0,0,1-2.12,1.88l-1.23.89c-.46.31-1,.61-1.53,1s-1.19.63-1.84,1-1.39.62-2.15.92a33.32,33.32,0,0,1-5.16,1.46c-1.89.38-3.92.63-6.05.87A94.87,94.87,0,0,0,352.48,247Z"/><path class="cls-3" d="M348.14,266.93c-5.65.1-11-.17-15.89-.57l-6.89-.63c-1.07-.07-2.11-.12-3.1-.14l-1.47,0h-.7l-.69.06a30.89,30.89,0,0,0-8.39,1.9,19.85,19.85,0,0,1-3,1.12,15,15,0,0,1,2.83-1.52,28.12,28.12,0,0,1,8.49-2.29l.71-.08c.23,0,.47,0,.72,0l1.49-.06c1,0,2.08,0,3.17.08l6.91.52c4.85.35,10.19.58,15.79.48a119.57,119.57,0,0,0,15.71-1.25,94.15,94.15,0,0,0,12.57-2.72c.89-.24,1.71-.53,2.5-.78s1.54-.47,2.22-.73c1.36-.52,2.56-.9,3.51-1.31a17.74,17.74,0,0,1,3-1.11,16.62,16.62,0,0,1-2.83,1.52c-.93.46-2.11.91-3.46,1.49-.68.29-1.42.54-2.21.82s-1.61.59-2.49.86a86.45,86.45,0,0,1-12.65,3A113,113,0,0,1,348.14,266.93Z"/><path class="cls-3" d="M173.85,219.78c-13.26-.21-25.87,3.66-38.77,6.53a50.71,50.71,0,0,0,2.85,4.53c5.87,7.07,11.68,14,19.92,18.3,6.74,3.51,14.78,8.25,22.63,7.88a70.55,70.55,0,0,0,22.74-4.79,33,33,0,0,0,5.35-3.53C201.92,236.46,185.23,220,173.85,219.78Z"/><path class="cls-4" d="M208.57,248.7c-.72-1.33-1.56-2.7-2.49-4.09-1.47-.25-2.94-.54-4.41-.91-4-1-7.68-3-11.73-4-5.68-1.36-14.18-2.63-19.15,1.3-8.86,7,6.15,7.29,5.55,11.64-.24,1.8-3.14,2.35-5.47,2.66a25.45,25.45,0,0,0,9.61,1.68,70.55,70.55,0,0,0,22.74-4.79A33,33,0,0,0,208.57,248.7Z"/><path class="cls-5" d="M182.21,240.76c9.69,3.09,18.51,5.7,24.94,7.41,1.59.47,3.06.79,4.35,1.11l3.28.83a13.89,13.89,0,0,1,2.78.84,13.71,13.71,0,0,1-2.87-.41l-3.34-.64c-1.29-.27-2.78-.53-4.4-1-6.5-1.52-15.38-4-25.08-7.1s-18.41-5.93-24.78-7.89c-1.58-.52-3-.91-4.29-1.29l-3.25-1a15.66,15.66,0,0,1-2.74-1,13.85,13.85,0,0,1,2.85.54l3.3.8c1.29.32,2.76.67,4.36,1.14C163.75,235,172.54,237.67,182.21,240.76Z"/><path class="cls-5" d="M208.72,242a70.3,70.3,0,0,1-7.05-1.31c-4-1-7.68-3-11.73-4-5.68-1.37-14.18-2.64-19.15,1.3-8.85,7,6.15,7.28,5.55,11.63-.34,2.54-5.94,2.59-7.81,3a18.79,18.79,0,0,0-8,3.48c-2.06,1.53-5.11,3.62-5.36,6.36-.3,3.3,2.15,3.61,4.24,5.24,5.84,4.56-2.94,8.09-5.86,12.49-4.05,6.07-1.1,13.47,6.49,8.81,4.5-2.76,10.62-10.52,15.9-10.43a15.6,15.6,0,0,0,1.63,3.51c5,6.93,9.32-1.85,11.32-6.59.81-1.92,2.52-6.71,5.51-6.18,2.14.38,3.56,5.12,5.69,6.27C209.31,280.58,209.66,254.22,208.72,242Z"/><path class="cls-3" d="M192.24,254.1c4.51-2.49,8.95-4.59,13-6.36,2.06-.86,4-1.68,5.87-2.38s3.58-1.34,5.17-1.9,3-1,4.31-1.44,2.37-.75,3.27-1a14,14,0,0,1,2.85-.7,14.62,14.62,0,0,1-2.71,1.11l-3.21,1.19c-1.25.47-2.68,1-4.24,1.6s-3.28,1.26-5.1,2-3.76,1.58-5.79,2.46c-4,1.82-8.44,3.93-12.92,6.39s-8.56,5.1-12.18,7.63l-2.62,1.9c-.85.61-1.63,1.27-2.41,1.86s-1.54,1.18-2.22,1.78l-2,1.7C170,271,169,272.07,168,273s-1.82,1.68-2.49,2.34a15.11,15.11,0,0,1-2.18,1.95,14.7,14.7,0,0,1,1.87-2.26c.62-.7,1.4-1.56,2.36-2.49s2-2,3.28-3.15l2-1.77c.68-.62,1.45-1.2,2.21-1.83s1.54-1.3,2.4-1.93l2.61-1.95A126,126,0,0,1,192.24,254.1Z"/><path class="cls-6" d="M194.27,337.43c0,4.76,34.53,8.61,77.13,8.61s77.12-3.85,77.12-8.61c0-2.73-11.34-5.16-29-6.73H223.31C205.61,332.27,194.27,334.7,194.27,337.43Z"/><path class="cls-7" d="M386.54,211.76c-1.72,1-3.61.75-5.47.73-3.63,0-7.27-.89-11-1.18-7.78-.6-13.84,5-17,11.78,7.22-.62,13.09,4.86,20.9,5,8.7.17,11.86-9.16,13.16-16.69A5.64,5.64,0,0,1,386.54,211.76Z"/><path class="cls-5" d="M356,221.32c-2.71,1.7-5,3.81-7.36,5.41a16.08,16.08,0,0,1-6.93,3,11.19,11.19,0,0,1-2.93.05,9.65,9.65,0,0,1-1.19-.18c-.31-.06-.69-.08-1-.15a4,4,0,0,1-.78-.25,2.87,2.87,0,0,1-.53-.27c-.27-.18-.4-.28-.38-.31s.18,0,.46.15a3.18,3.18,0,0,0,.53.19,4.45,4.45,0,0,0,.75.16c.3,0,.59,0,1,.08s.74.09,1.15.1a11.51,11.51,0,0,0,2.8-.17,16.23,16.23,0,0,0,6.58-3.06c2.27-1.61,4.55-3.73,7.35-5.5a16.59,16.59,0,0,1,4.41-2,11.69,11.69,0,0,1,4.53-.25c1.43.18,2.74.48,4,.75s2.35.52,3.39.67a10,10,0,0,0,4.86-.28c1.1-.4,1.62-.82,1.67-.76s-.1.15-.35.35a6.07,6.07,0,0,1-1.19.72,7.33,7.33,0,0,1-2.14.58,12.49,12.49,0,0,1-2.93,0c-2.15-.2-4.61-.92-7.36-1.23a11,11,0,0,0-4.22.27A15.93,15.93,0,0,0,356,221.32Z"/><path class="cls-7" d="M385.4,186.6c-7.84-2-17.37,0-23.39,5.24a38,38,0,0,0-7.18,8.53c-.25.39-.64.89-1.09,1.46,11.09,4.75,23.41,2,30.93-7.92a51.79,51.79,0,0,1,4.87-5.77A27,27,0,0,0,385.4,186.6Z"/><path class="cls-4" d="M362,191.84c-.9.79-1.73,1.6-2.51,2.43,5.79.76,11.57,1.78,16.21-2.34a37.11,37.11,0,0,0,5.05-6C374,185.49,366.88,187.59,362,191.84Z"/><path class="cls-7" d="M368.87,172.39a19,19,0,0,0-13.82,8.42c-2,3.18-4.26,8.65-4.41,13,7.74-.25,16.22,3.76,22.57-1.89,3.89-3.46,6.05-8.45,10.08-11.87a7.38,7.38,0,0,1,3.76-1.33,38.14,38.14,0,0,0-4-3.22A25.29,25.29,0,0,0,368.87,172.39Z"/><path class="cls-5" d="M352.92,190.12l.8-.88c.27-.29.56-.55.83-.82l.83-.81c.27-.27.55-.53.84-.77l1.69-1.43,1.72-1.26a16.89,16.89,0,0,1,1.7-1.1,14.68,14.68,0,0,1,1.65-1l1.6-.79a5.82,5.82,0,0,1,.77-.34l.74-.29c.48-.2,1-.37,1.4-.51s.86-.3,1.26-.42c.81-.21,1.49-.41,2.07-.51a7.36,7.36,0,0,1,1.8-.18,6.92,6.92,0,0,1-1.73.5c-.55.15-1.21.4-2,.64l-1.22.48c-.43.16-.89.35-1.36.56a32.73,32.73,0,0,0-6.23,3.56l-1.66,1.26-1.65,1.42c-.28.23-.55.49-.82.76l-.81.79c-.27.27-.55.53-.81.81l-.79.87c-.52.58-1.05,1.15-1.51,1.75s-1,1.16-1.4,1.77L349.37,196l-1.19,1.74a38.61,38.61,0,0,1-4.57,5.72,16.29,16.29,0,0,1-4,2.95l-.7.35-.53.2c-.29.11-.44.15-.45.13s.12-.13.38-.28l.49-.28.65-.4a19.2,19.2,0,0,0,3.7-3.1,42.69,42.69,0,0,0,4.36-5.74l1.16-1.75,1.28-1.8c.42-.62.93-1.2,1.41-1.81S352.38,190.71,352.92,190.12Z"/><path class="cls-5" d="M361,199.51a62.15,62.15,0,0,0-7,2.54,18.12,18.12,0,0,0-5,3.3,20.56,20.56,0,0,0-2.64,3.08c-.52.81-.82,1.26-.88,1.23a4.92,4.92,0,0,1,.6-1.4,16.37,16.37,0,0,1,2.5-3.34,17.45,17.45,0,0,1,5.05-3.59,54,54,0,0,1,7.06-2.64c2.54-.79,5-1.46,7.13-2.19a41.07,41.07,0,0,0,5.61-2.28c3.08-1.56,4.71-3,4.81-2.86s-.35.42-1.09,1.07c-.37.32-.87.66-1.43,1.07a10,10,0,0,1-.93.61c-.34.2-.69.45-1.08.64a35.11,35.11,0,0,1-5.63,2.5C365.93,198,363.5,198.72,361,199.51Z"/><path class="cls-8" d="M178.33,162.29c-3.83-.55-7.86-.44-11.65-1.21a22,22,0,0,1-4.75-2c-2.26,7.5-2.73,15.84,2.21,21.16,8.21,8.83,21.59,6,30.44,13.11.54-2.37,1.23-4.7,1.46-6.7C197.6,173.25,192.07,164.27,178.33,162.29Z"/><path class="cls-5" d="M192.75,187.36l.68,1.46c.2.5.39,1,.58,1.48s.37,1,.53,1.47.34,1,.48,1.46c.61,1.93,1.11,3.81,1.66,5.56a34.73,34.73,0,0,0,1.88,4.83c.19.35.39.69.58,1a8.52,8.52,0,0,0,.6,1q.31.47.63.9c.11.15.2.3.31.44l.35.39.66.76.31.37.35.32,1.28,1.2c.88.66,1.6,1.28,2.25,1.71a11.94,11.94,0,0,1,2,1.41,12.32,12.32,0,0,1-2.18-1.1c-.68-.39-1.45-1-2.38-1.61l-1.36-1.18-.37-.32-.34-.37-.71-.76-.36-.4c-.12-.14-.22-.29-.34-.44l-.68-.91a11.35,11.35,0,0,1-.64-1c-.2-.35-.43-.7-.63-1.07a33,33,0,0,1-2-4.92c-.58-1.77-1.11-3.64-1.71-5.55-.15-.48-.33-.95-.49-1.43s-.32-1-.52-1.44l-.57-1.44-.66-1.43c-.21-.48-.47-.93-.72-1.39s-.48-.92-.75-1.34l-.87-1.21-1-1.09a21.81,21.81,0,0,0-4.56-3.35c-1.58-.91-3.17-1.64-4.66-2.34s-2.88-1.33-4.14-1.95a28.6,28.6,0,0,1-5.67-3.5,10.84,10.84,0,0,1-1.33-1.23c-.29-.3-.43-.47-.4-.49s.2.1.53.35a17.77,17.77,0,0,0,1.42,1.08,32.74,32.74,0,0,0,5.73,3.19c1.27.58,2.67,1.19,4.18,1.85s3.13,1.37,4.76,2.29a22.42,22.42,0,0,1,4.79,3.45l1.06,1.16.93,1.3c.29.45.52.92.79,1.39S192.54,186.86,192.75,187.36Z"/><path class="cls-8" d="M162.37,208c-4.75,2.51-8,7.85-12.18,11.34,7.43,2.39,14.76,8.26,22.37,7.75A15.77,15.77,0,0,0,183,221.5c1.33-1.49,2.24-3.44,3.71-4.91a9,9,0,0,1,1.92-1.37C181.82,208.36,170.5,203.67,162.37,208Z"/><path class="cls-4" d="M162.37,208a17,17,0,0,0-1.57,1,26.41,26.41,0,0,0,19.66,3.38c.87-.18,2.24-.48,3.82-.74C177.6,206.9,168.94,204.49,162.37,208Z"/><path class="cls-5" d="M182,214.22a78.4,78.4,0,0,1,9.18.95,61,61,0,0,0,7.42.73,38.43,38.43,0,0,0,5-.24,7.27,7.27,0,0,1,1.85-.17,7.25,7.25,0,0,1-1.79.53,28.13,28.13,0,0,1-5.07.54,53.72,53.72,0,0,1-7.53-.54,87.17,87.17,0,0,0-9.09-.87c-.4,0-.8,0-1.2,0s-.79,0-1.18,0l-2.29.19-2.21.35c-.72.11-1.43.28-2.11.41-2.75.57-5.23,1.19-7.36,1.5-.53.09-1,.18-1.51.24l-1.37.11-1.18.1c-.37,0-.71,0-1,0a7.47,7.47,0,0,1-1.86-.14c0-.19,2.66-.08,6.81-.94,2.09-.39,4.53-1.07,7.3-1.69.69-.14,1.39-.33,2.13-.45l2.25-.38,2.37-.2c.4-.05.81,0,1.21,0S181.6,214.19,182,214.22Z"/><path class="cls-8" d="M187.45,205.35c-4.84-7-13.74-12-22.12-11.95a40.19,40.19,0,0,0-11.54,1.8,17.64,17.64,0,0,1-1.86.41c5.5,11.4,17.15,17.67,29.9,15a55.45,55.45,0,0,1,7.83-1.21A29.13,29.13,0,0,0,187.45,205.35Z"/><path class="cls-5" d="M185.06,205.51a77.26,77.26,0,0,1,7.43,5.59,36.58,36.58,0,0,0,6.2,4.17,26.35,26.35,0,0,0,4.7,1.78,7.3,7.3,0,0,1,1.81.49,7.58,7.58,0,0,1-1.88-.14,20.78,20.78,0,0,1-4.92-1.54,33.25,33.25,0,0,1-6.44-4.08,88.7,88.7,0,0,0-7.39-5.48,29.41,29.41,0,0,0-8.35-3.57c-2.71-.75-5.24-1.18-7.34-1.66l-1.5-.34c-.48-.11-.92-.24-1.34-.35a17.9,17.9,0,0,1-2.1-.65,6.83,6.83,0,0,1-1.73-.73c0-.15,2.57.7,6.8,1.42,2.1.4,4.65.76,7.43,1.48A28.91,28.91,0,0,1,185.06,205.51Z"/><path class="cls-9" d="M245.52,289.4l-3.11-2c-.91,5.81,3.74,13.1,7.5,17.15,3.05,3.3,6.88,5.37,10.66,7.47a50.64,50.64,0,0,0,0-6.16C253.18,303,247.91,296.48,245.52,289.4Z"/><path class="cls-10" d="M255.4,309c1.68,1.08,3.43,2,5.17,3a50.64,50.64,0,0,0,0-6.16,23,23,0,0,1-4.78-2.53A35.77,35.77,0,0,1,255.4,309Z"/><path class="cls-9" d="M293,285.87c-2.33.22-2.92,10.71-3.69,13.06-1.41,4.24-3.59,8.59-6.94,11.55l.67,5.11c3.8-3.76,7.41-8.8,8.94-14S293.26,291.3,293,285.87Z"/><path class="cls-10" d="M288.2,306.14a10.91,10.91,0,0,1-1-2.2,21.69,21.69,0,0,1-4.86,6.54l.67,5.11a39.94,39.94,0,0,0,6.36-8.14A6.2,6.2,0,0,1,288.2,306.14Z"/><path class="cls-9" d="M302.21,339.76a29.83,29.83,0,0,1-5-1c-.43-.11-.84-.23-1.25-.37-1.51-.46-2.94-1-4.47-1.32h0a12.18,12.18,0,0,0-2.94-.23c-1.74.1-3,0-3.89,1.76-.06.13-.12.25-.17.37a6.36,6.36,0,0,0-.3.91c-.25,1-.22,1.41-2.26,1.13-3.72-.51-7.2-2.49-11.05-2.8a13.27,13.27,0,0,0-4.15.14,3.53,3.53,0,0,0-1.35.6,1.33,1.33,0,0,0-.29.29h0c-.84,1-1.09,3-2.09,3.5-2.42,1.17-4.62-4.18-6.63-4.74-2.53-.69-6.79,3.54-9.28,4.28-1.64.5-2.24.42-2.55-.3a6.76,6.76,0,0,1-.34-1.61,2.82,2.82,0,0,0-.07-.31h0c-.4-1.47-2.05-2.23-3.76-2.43a15.66,15.66,0,0,0,5.19-3c4.42-3.92,8-8,9.86-13.69,2.71-8.23,3.29-16.87,3.41-25.8.81.21,1.62.38,2.43.52s1.34.22,2,.3a54.73,54.73,0,0,0,6.15.37h2.21c1.86,0,3.76,0,5.73,0a14.81,14.81,0,0,0,2.26-.2c.65-.09,1.31-.22,2-.34,1.26-.25,2.51-.5,3.66-.62.18,8.22,1.05,18.2,3.56,25.8,1.86,5.67,5.44,9.77,9.85,13.69a15,15,0,0,0,3.19,2.17C302.21,337.77,302.74,338.77,302.21,339.76Z"/><path class="cls-10" d="M263.49,304.91c0,2.76-.17,5.39-.42,7.78-.14,1.19-.28,2.32-.48,3.37s-.38,2-.59,2.92c-.87,3.54-1.87,5.57-2.14,5.49s.12-2.27.57-5.78c.11-.88.23-1.84.31-2.88s.18-2.14.27-3.3c.13-2.34.21-4.9.23-7.61,0-3.33,0-6.49,0-9.26q1,.18,2,.3C263.38,298.63,263.5,301.67,263.49,304.91Z"/><path class="cls-10" d="M282.78,318.5c-.27.11-1.18-1.41-2-4.13a35.54,35.54,0,0,1-1-4.83,56.17,56.17,0,0,1-.48-6,67.37,67.37,0,0,1,.24-7.47c.65-.09,1.31-.22,2-.34,0,2.27,0,4.92.05,7.75.06,2.08.16,4,.29,5.83s.3,3.38.5,4.72C282.73,316.72,283.09,318.38,282.78,318.5Z"/><path class="cls-10" d="M284.45,339a6.36,6.36,0,0,0-.3.91,15.53,15.53,0,0,1-2.54-3.05c-.2-.31-.41-.63-.62-1s-.4-.71-.6-1.09c-.44-.75-.79-1.6-1.2-2.48a44.14,44.14,0,0,1-2-5.95,54.66,54.66,0,0,1-1.09-6.16,46.74,46.74,0,0,1-.28-5.08c0-2.91.34-4.68.63-4.68s.57,1.77,1,4.57c.18,1.4.44,3.06.74,4.9s.73,3.83,1.23,5.9,1.11,4,1.71,5.74c.34.86.61,1.7.95,2.44l.46,1.09c.16.35.32.67.47,1C283.57,337.28,284.1,338.27,284.45,339Z"/><path class="cls-10" d="M269.13,328.42a53.42,53.42,0,0,1-2.23,9.39c-.08.19-.14.37-.21.55a3.53,3.53,0,0,0-1.35.6,1.33,1.33,0,0,0-.29.29c.07-.53.18-1.15.3-1.84.42-2.39,1-5.68,1.55-9.32,1-7.29,1.5-13.3,2.16-13.3.3,0,.56,1.52.66,4A60.23,60.23,0,0,1,269.13,328.42Z"/><path class="cls-10" d="M255.87,330.88a35.77,35.77,0,0,1-5.4,6.51,37.92,37.92,0,0,1-6,4.61,6.76,6.76,0,0,1-.34-1.61,2.82,2.82,0,0,0-.07-.31h0c1.41-1.21,3.1-2.68,4.84-4.31,2.3-2.21,4.25-4.31,5.69-5.85s2.38-2.48,2.64-2.3S257,329,255.87,330.88Z"/><path class="cls-10" d="M295.93,338.4c-1.51-.46-2.94-1-4.47-1.32h0c-.69-.62-1.4-1.31-2.1-2.06a22.68,22.68,0,0,1-4.28-7c-.62-2-.81-3.3-.53-3.4s1,1,2,2.73a42.47,42.47,0,0,0,4.5,6.21C292.77,335.4,294.56,337.05,295.93,338.4Z"/><path class="cls-10" d="M271.6,298.88c0,6.73-.5,12.21-1.12,12.21s-1.13-5.48-1.13-12.21c0-.88,0-1.74,0-2.57h2.21C271.6,297.14,271.6,298,271.6,298.88Z"/><path class="cls-10" d="M285,300.51l.4,0c-.11-1.83-.18-3.63-.22-5.35-1.15.12-2.4.37-3.66.62-.65.12-1.31.25-2,.34a14.81,14.81,0,0,1-2.26.2c-2,0-3.87,0-5.73,0h-2.21a54.73,54.73,0,0,1-6.15-.37q-1-.12-2-.3c-.81-.14-1.62-.31-2.43-.52,0,1.15,0,2.3-.07,3.45a77.55,77.55,0,0,0,18.79,2.31A74.49,74.49,0,0,0,285,300.51Z"/><path class="cls-11" d="M348.52,220.37a77.1,77.1,0,0,1-69.63,76.77q-3.7.36-7.51.36a77.6,77.6,0,0,1-19.1-2.38A76.77,76.77,0,0,1,234.2,288,76,76,0,0,1,221,278.75a77.1,77.1,0,0,1,45.41-135.36c1.65-.11,3.32-.16,5-.16a77.07,77.07,0,0,1,77.14,77.14Z"/><path class="cls-12" d="M343.72,193.53a5.15,5.15,0,0,1-6.23,1.31c-3.45-1.46-3.06-6.61-5.38-7.79-7.22-3.68-.39,16.21-7.25,16.19-4.41,0-2.81-6.29-2.65-8.84.32-5.13-1.53-5.14-3.85-9.33-2-3.57-1-5.2-5.93-6.93-4.74-1.66-6.84.3-10.15,3.49.92,3.1,5.93,4.76,5.49,8.52s-5.47,5.75-8.52,4.67c-2.81-1-4.43-4.53-7.22-5.53-4.12-1.47-7.37,1-4.14,5,1.84,2.28,5.38,2.74,7,5.6.78,1.37-.33,2.86,1,4.17,1.08,1,3.28.5,4.5,1,3.32,1.44,4.1,3.22,3.49,7.13-.7,4.52-2.91,4.47-5.54,7.54-3.66,4.26-1.32,6.1.56,10.31,1.74,3.92,1.44,9.1.22,13.18s-5.45,6-7.07,9.78c-1.46,3.4,0,8.95-2.7,11.91s-8.51,1.76-11.42-.53c-3.24-2.55-3.35-6.81-5.49-10.11-2.5-3.84-6.79-7-8.43-11.47-1.3-3.51-.28-8.52-5.54-9-1.18-2.31.2-5-.5-7.58-1.08-4-2.5-2.8-5.42-4.27-2.21-1.11-3.09-3.48-6-3.41-3.9.09-5.46,4.71-9,5.58-13.5,3.34-11.49-18.16-9.45-25.09,2.2-7.47,9.53-16.16,17.13-16.6,3.75-.22,6.21-1.34,9.78-.52,2.79.64,6.24,3.4,9.35,2.13,1.92-.78,2.1-3,3.83-3.74,1.47-.66,3,.09,4.67,0,3.42-.15,9.12-3.31,3.83-5.11-1.71-.58-3.4,1.17-5,.34-1-.52-.62-2.67-1.87-3.3-3.68-1.85-3.6,4.21-7.9,2-1.53-.79-.49-3.22-3.07-3.34-1.92-.09-2.37,2.46-3.91,2.91s-3.6-.57-5.44,0c-1.5.43-2.79,2.1-4.23,2.69-3.06,1.24-7.46,2.07-6.09-2.13,1.05-3.18,6.65-4.74,8.94-6.93,2.68-2.55,3.64-2.85,7.24-4.23,3-1.13,6.7-2.47,4.69-6.2a9,9,0,0,0-4.62.32c-1.51.6-.71,4-3.4,2.27-3.53-2.21,2.49-5.25,3.87-6.4,2.32-1.94,3.33-4.12,6.78-3.5,2.8.51,3.47,4,6.74,2.49-.37-2.62-2.43-5.87-3.05-8.86,1.65-.11,3.32-.16,5-.16A77.16,77.16,0,0,1,343.72,193.53Z"/><path class="cls-12" d="M224.45,275.51a14.49,14.49,0,0,1-3.48,3.24,77.21,77.21,0,0,1-21.92-85.25,10.09,10.09,0,0,1,4.13,4.81c1.6,4.07-1.8,9.46.74,13.13,1.72,2.49,4.4,1.44,6.5,3.26,2.51,2.15,1.33,4.56,2.19,7.32,1.27,4.11,3,2.79,5.36,5.52,2.05,2.4.49,5.15,1.33,7.68,1.46,4.29,8.9,7.5,6.33,13.1-6.73,0-3.35,7.48-1.72,10.7C226.19,263.53,227.81,271,224.45,275.51Z"/><path class="cls-12" d="M247.82,150.19c-.95,4.29-3.88,4.65-6.9,6.68-4.38,3-1.71,5.21-4,8.74-1.68,2.54-5.44,2.27-7.42,4.13-2.76,2.56-1.2,5.82-3.41,8.49-2.4,2.91-6.59,2.83-8.49-.34-2.93-.42-4.53,3.5-7.58,4.19a11,11,0,0,1-5.49-.15A77.36,77.36,0,0,1,248,146.85,8.51,8.51,0,0,1,247.82,150.19Z"/><path class="cls-12" d="M308.74,287.87a76.68,76.68,0,0,1-29.85,9.27q-3.7.36-7.51.36a77.6,77.6,0,0,1-19.1-2.38A76.77,76.77,0,0,1,234.2,288c3.06-8.19,9.86-14,19.89-11.19,3.43.94,6.63,3.74,10.3,3.51,4.45-.29,6-4.74,10.19-6.06,5.63-1.79,6.88.73,11.52,3.1,4.42,2.26,5-1.08,9.3-1.73,5.46-.82,9,4,11.5,8.18A21.09,21.09,0,0,1,308.74,287.87Z"/><path class="cls-13" d="M343.72,193.53a76.63,76.63,0,0,0-11.24-20.25,77.09,77.09,0,0,1-67.66,94.16,74.29,74.29,0,0,1-7.5.37,77.6,77.6,0,0,1-19.1-2.38,77.14,77.14,0,0,1-31.31-16.37,77.92,77.92,0,0,1-10.7-11.31,77.11,77.11,0,0,0,24.76,41A76,76,0,0,0,234.2,288a76.77,76.77,0,0,0,18.08,7.16,77.6,77.6,0,0,0,19.1,2.38q3.81,0,7.51-.36a77.19,77.19,0,0,0,64.83-103.61Z"/><ellipse class="cls-6" cx="360.49" cy="375.65" rx="17.05" ry="2.41"/><path class="cls-14" d="M332.87,293.48s-2.21-3.56-4.8-1.85c0,0,.41,2.69,2.82,3.25l.75.26Z"/><polygon class="cls-15" points="331.64 295.14 341.17 305.45 352.59 308.34 355.67 303.88 343.66 301.78 332.87 293.48 331.64 295.14"/><path class="cls-16" d="M352.43,300.64a20,20,0,0,1,2.71,3.49l3.46-1.58-1.72-2.88-3-1.37Z"/><path class="cls-14" d="M356.47,299.49l-.16-.08-2.57-.19-.56.19-.75,1.23s.66.67,1.42,1.62Z"/><path class="cls-16" d="M358.23,297.84s2.68-7.91-4.5-8.77c0,0-4.44-1.05-5.76,6.32-.18,1-.37,1.48-.66,2.8l.92-.09s.29,3.71,1.86,3.67l6.79-2.1Z"/><path class="cls-16" d="M366.65,327.25s4.12,3.37,0,12.54c0,0-2.2,9.54-.63,14.36a84.47,84.47,0,0,1-.56,13.28v8.69h-13s2.92-2.56,9.68-4.13l-2.92-22.42-2.4-18.18Z"/><path class="cls-17" d="M363.12,318.55c-.15-3.92,1.17-8.63-.24-12.31a7.26,7.26,0,0,0-4.22-4.46l-3.76,1.71h0c-.69,1-1.51,1.95-2.12,2.87a15.16,15.16,0,0,0-2.46,4.94c-.44,2.14.81,3.19,1.73,4.93s4,13.72,4.77,15.11l0,.05,9.79-4.14C365,324.54,363.24,321.69,363.12,318.55Z"/><path class="cls-4" d="M363.88,325.55a4.28,4.28,0,0,1-2.53,1.4s-1.32,1.28-2.64.76v-1.25l1.68-1.14,1-.27,2.19-.38Z"/><path class="cls-4" d="M362.9,306.31c-1.37.12-2.75.2-4.13.25a14.45,14.45,0,0,1,.06,3.16,12.25,12.25,0,0,0,.18,4.52,8.2,8.2,0,0,0,1.49,2.87,11.55,11.55,0,0,0,2.66,2c0-.19,0-.37,0-.55C363,314.65,364.27,310,362.9,306.31Z"/><path class="cls-14" d="M360.85,324.57l-2.64-2.18a2.91,2.91,0,0,0-.77.57,10.31,10.31,0,0,0-.79.72,1.46,1.46,0,0,0-.11,1.77,7.41,7.41,0,0,0,1.34,1.8,1.5,1.5,0,0,0,.83.46c.42.05.59-.19.9-.41a14.81,14.81,0,0,1,1.28-.84c.34-.2.47-.17.46-.6A2.15,2.15,0,0,0,360.85,324.57Z"/><path class="cls-16" d="M362.05,322.58l-3.84-.19s-.3,2.1,2.68,4.07a8.22,8.22,0,0,0,3-.91A6.88,6.88,0,0,0,362.05,322.58Z"/><path class="cls-4" d="M366.65,327.25l-9.79,4.14,2.4,18.18,2.33,17.89,3.93-.53a85.44,85.44,0,0,0,.5-12.78c-1.57-4.82.63-14.36.63-14.36C370.77,330.62,366.65,327.25,366.65,327.25Z"/><path class="cls-17" d="M362.05,322.58s-.64,1.74,1.83,3a27.51,27.51,0,0,0,8.3-14.42s-6-7.62-11.09-9.66a5.57,5.57,0,0,0,0,5.38l6.11,5.59S365.11,321.35,362.05,322.58Z"/><path class="cls-9" d="M368.18,314.26a7.47,7.47,0,0,1-1.18-3.13,17.13,17.13,0,0,1-.06-3.43,11.41,11.41,0,0,0-.65-4.53,9.78,9.78,0,0,0-2.9-3.57,10.91,10.91,0,0,1-2.84-3.5c-.52-1.05-.93-2.17-1.5-3.2a9.47,9.47,0,0,0-1.21-1.6,5.32,5.32,0,0,0-4.11-2.23,3.46,3.46,0,0,0-.64-.05c-1.2,0-3.76.65-4.91,5.35A4,4,0,0,0,351,295a2.72,2.72,0,0,1,2.38.21c.25.2.54.46.74.65a1.38,1.38,0,0,1,.4.85h-.07a8.73,8.73,0,0,1,.45,2.66,4.07,4.07,0,0,0,1.39,2.28c2.14,1.64,2.23,4.17,2.05,6.68a12.47,12.47,0,0,0,.18,4.52,8.45,8.45,0,0,0,1.49,2.87,4.71,4.71,0,0,0,1.28,1.11,5.28,5.28,0,0,0,5,1.06c1.15-.27,2.15-.78,2.23-2.05A2.54,2.54,0,0,0,368.18,314.26Z"/><path class="cls-16" d="M355.13,296c-.08,1-.66,1.78-1.29,1.73s-1.07-.91-1-1.92.66-1.78,1.29-1.73S355.21,294.94,355.13,296Z"/><path class="cls-18" d="M365.46,376.12v-3a7.23,7.23,0,0,0-1,.11,20.38,20.38,0,0,0-3.15,1.24,5.54,5.54,0,0,1-3.3.31,1.35,1.35,0,0,1-1.17-1.09,17.07,17.07,0,0,0-4.31,2.42Z"/><path class="cls-4" d="M332.09,304.36c-3,5.61-8,3.77-8,3.77S327.23,303.6,332.09,304.36Z"/><path class="cls-9" d="M332.09,304.36c-4.86-.76-8,3.77-8,3.77l-1.38-2.94-2-4.25-4.11-8.78a4.92,4.92,0,0,1,.55-.6,6.18,6.18,0,0,1,.58-.51,6.28,6.28,0,0,1,3.52-1.39,6.62,6.62,0,0,1,.77,0,6,6,0,0,1,.9.15Z"/><polygon class="cls-9" points="322.75 305.19 312.9 297.75 310.68 298.25 313.28 294.1 313.73 296.48 320.76 300.94 322.75 305.19"/><path class="cls-4" d="M322.07,289.67a6.62,6.62,0,0,0-.77,0,4.2,4.2,0,0,0-1.83-2.38,1.5,1.5,0,0,0-1.15-.1,1.38,1.38,0,0,0-.84.86,4.94,4.94,0,0,0,.3,3,6.18,6.18,0,0,0-.58.51,6,6,0,0,1-.41-3.77,2.17,2.17,0,0,1,1.24-1.28,2.24,2.24,0,0,1,1.73.11A5,5,0,0,1,322.07,289.67Z"/><polygon class="cls-4" points="319.89 303.03 322.75 305.19 320.76 300.94 319.19 299.94 319.89 303.03"/><path class="cls-9" d="M329.13,300.66l-.62-.36c1.8-3.11,2.23-5.37,1.29-6.72-1.5-2.16-6.11-1.4-6.16-1.39l-.12-.72c.21,0,5.1-.85,6.87,1.69C331.51,294.77,331.09,297.29,329.13,300.66Z"/><path class="cls-16" d="M328.42,291.39l-.7.5s-.44,3.32,3.31,3.46a1.17,1.17,0,0,0,.61-1.08S330.16,290.53,328.42,291.39Z"/><path class="cls-3" d="M177,310.75a6.48,6.48,0,0,1,.31-3.74c.67-1.44,1.91-.23,2.2.81s.07,1.79.67,2.69.34,1.9.2,3,.48,1.92.66,2.9a6.32,6.32,0,0,1-.26,2.94l-.11,0a2.32,2.32,0,0,1-1.19-.62,3,3,0,0,1-1-1.1c-.2-.51-.15-.82-.62-1.23s-.63-.45-.8-.92a3.67,3.67,0,0,1-.12-1.58A10.67,10.67,0,0,0,177,310.75Z"/><path class="cls-3" d="M179,312.72a4.12,4.12,0,0,1,.07-1.44,11.09,11.09,0,0,1,1.12-2.48c.22-.53.16-2.18,1.07-2.11s.68,1.38.76,1.91c.13.82.77,1.33,1.08,2.07a3.4,3.4,0,0,1-.22,2.9,2.78,2.78,0,0,0-.37,2.14,6.6,6.6,0,0,1,.22,2.35,3.58,3.58,0,0,1-.7,1.6c-.56-.26-1.33-.57-1.59-1.17-.16-.36-.06-.69-.37-1a6.64,6.64,0,0,1-.79-.8c-.56-.85-.16-1.76-.08-2.69A4.55,4.55,0,0,0,179,312.72Z"/><path class="cls-6" d="M186.87,382c0,1.36-7.83,2.47-17.49,2.47s-17.49-1.11-17.49-2.47,7.83-2.47,17.49-2.47S186.87,380.65,186.87,382Z"/><path class="cls-4" d="M179.68,315.76c-.84-3.12-.83-5.78-1-5.78a5.48,5.48,0,0,0-.11,1.74,19,19,0,0,0,.62,4.17,13.57,13.57,0,0,0,1.74,3.84,3.62,3.62,0,0,0,.44.59l.37.41c.2.22.33.33.35.31s-.05-.18-.2-.43l-.29-.46a3.66,3.66,0,0,1-.37-.6A18,18,0,0,1,179.68,315.76Z"/><path class="cls-3" d="M182.91,308.78c.17-1.1-.13-2.26.09-3.33.06-.31.21-1,.63-1s.65.75.73,1a7,7,0,0,1,.13,1.3,4.79,4.79,0,0,0,.47,1.58c.37.89.8,1.73,1.2,2.58,1,2.15-.38,4.11-.38,6.3,0,1.36-.4,4-1.95,4.54a.78.78,0,0,1-.05-.14,18,18,0,0,1-.62-2.77c-.16-1.28,0-2.57-.1-3.86-.05-.95-.58-1.76-.62-2.72A18.27,18.27,0,0,1,182.91,308.78Z"/><path class="cls-3" d="M201.9,316.7c1.77-1,3.9-1.75,5.49,0a2.72,2.72,0,0,1-.74,4c-1.28.87-3,.74-4.45.89-.9.09-1.79.05-2.67.09a12,12,0,0,0-1.91.27,8.9,8.9,0,0,1,1.09-2.35A10,10,0,0,1,201.9,316.7Z"/><path class="cls-3" d="M196.32,319.28a6,6,0,0,1-.28-2.1,14.18,14.18,0,0,1,.59-3.12c.66-2.28,1-5.13,3.06-6.65,1.23-.91,3.41-1,3.4.87a14.16,14.16,0,0,1-.84,4.59C201.36,315.4,198.76,317.75,196.32,319.28Z"/><polygon class="cls-10" points="200.11 339 191.84 334.29 173.47 337.2 173.63 339.66 192.21 337 200.42 342.21 200.11 339"/><polygon class="cls-14" points="162.72 371.68 162.07 372.45 166.7 378.3 166.46 379 157.45 374.3 159.95 369.8 162.72 371.68"/><path class="cls-17" d="M158.87,371.75c1.21.7,1.26,2.24,2.19,3.12a2.59,2.59,0,0,0,1.73.8c.48,0,1.18-.06,1.42-.51l2.49,3.14-.24.7-9-4.7Z"/><path class="cls-14" d="M187.65,329.48s-.46,1.4-3.82.55l-2.41-3.92-9.58-1,1.34-3.79,12.37,3.46S186.2,328.18,187.65,329.48Z"/><polygon class="cls-4" points="174.71 321.32 173.69 325.8 171.27 325.4 171.98 320.36 174.71 321.32"/><polygon class="cls-10" points="199.68 334.56 192.27 329.43 173.19 332.69 173.41 336.18 192.27 333.53 200.03 338.15 199.68 334.56"/><polygon class="cls-10" points="199.55 333.22 192.27 328.18 173.1 331.25 172.91 328.18 192.63 324.84 199.17 329.32 199.55 333.22"/><path class="cls-4" d="M195,325.55c.76-3.52,1.58-6.68,2.29-8.94q.12-.42.24-.81c.08-.25.16-.49.24-.71.14-.45.27-.83.38-1.15a4,4,0,0,0,.26-1,4.38,4.38,0,0,0-.45.93c-.12.31-.28.69-.46,1.12-.08.22-.18.46-.28.71s-.17.52-.27.8a78.67,78.67,0,0,0-2.44,8.95,75,75,0,0,0-1.31,9.17c0,.3,0,.58-.07.85s0,.52,0,.75c0,.47,0,.88,0,1.21a3.76,3.76,0,0,0,.05,1,4.55,4.55,0,0,0,.14-1c0-.33.07-.73.11-1.2,0-.23,0-.48,0-.75s.07-.54.1-.83C193.8,332.31,194.3,329.08,195,325.55Z"/><path class="cls-4" d="M189.74,325.33c.16-3.57.32-6.8.28-9.14,0-1.17,0-2.12,0-2.77a4.21,4.21,0,0,0-.07-1,3.62,3.62,0,0,0-.12,1c0,.65-.09,1.6-.13,2.76,0,2.34-.26,5.56-.43,9.12s-.42,6.77-.56,9.11c-.07,1.17-.11,2.11-.13,2.76a4.72,4.72,0,0,0,0,1,3.42,3.42,0,0,0,.18-1c.08-.65.18-1.59.29-2.75C189.26,332.11,189.5,328.89,189.74,325.33Z"/><path class="cls-4" d="M183.37,327.33c-.46-3.2-.92-6.08-1.24-8.17a23.7,23.7,0,0,0-.6-3.38,3.81,3.81,0,0,0,0,.92c0,.59.1,1.45.22,2.5.24,2.11.65,5,1.1,8.2s.77,6.09.93,8.19a29.23,29.23,0,0,0,.3,3.41,3.33,3.33,0,0,0,.07-.92c0-.59.05-1.45,0-2.51C184.08,333.45,183.8,330.53,183.37,327.33Z"/><path class="cls-4" d="M198.43,321.48a14.28,14.28,0,0,1,3.33-2c.92-.38,1.55-.37,1.55-.45a2.47,2.47,0,0,0-1.66.11,11.6,11.6,0,0,0-3.53,1.93,12.13,12.13,0,0,0-2.75,2.92,2.79,2.79,0,0,0-.59,1.57c.08,0,.27-.58.88-1.36A15.25,15.25,0,0,1,198.43,321.48Z"/><path class="cls-4" d="M192.66,317.94a43.94,43.94,0,0,0,1.17-5.21,9,9,0,0,0,.22-2.21c-.16,0-.73,3.3-1.87,7.28-.6,2-1.27,3.73-1.78,5a10.66,10.66,0,0,0-.8,2.06,9.17,9.17,0,0,0,1.12-1.91A33.51,33.51,0,0,0,192.66,317.94Z"/><path class="cls-4" d="M187.26,313.45c-.3-1.91-.33-3.69-.46-5a7,7,0,0,0-.33-2.06,11.19,11.19,0,0,0,0,2.08,35.37,35.37,0,0,0,.31,5,11.84,11.84,0,0,0,.75,2.7,2.78,2.78,0,0,0,.29.57l.3.52c.21.32.41.6.6.87a10.07,10.07,0,0,1,.79,1.27c.17.31.29.48.32.47s0-.21-.14-.55A6.87,6.87,0,0,0,189,318l-.54-.89-.26-.5a2.31,2.31,0,0,1-.25-.55A12.64,12.64,0,0,1,187.26,313.45Z"/><path class="cls-4" d="M184.55,318.23a24.55,24.55,0,0,0-.08-5,7.6,7.6,0,0,0-.45-2,9.85,9.85,0,0,0,.09,2.07,33.34,33.34,0,0,1-.06,4.94,34.86,34.86,0,0,1-.88,4.86,10.64,10.64,0,0,0-.49,2,7.18,7.18,0,0,0,.83-1.91A23.37,23.37,0,0,0,184.55,318.23Z"/><path class="cls-8" d="M191.75,313a22.72,22.72,0,0,1,1.93-4.69c.49-1,1-2,1.56-3l.18-.33c.05.28.1.55.13.77.09.83.2,1.66.21,2.51a20,20,0,0,1-.38,4.7c-.6,2.65-1.48,4.91-3.54,6.52A11.32,11.32,0,0,1,191.75,313Z"/><path class="cls-8" d="M185.93,313.64a7.73,7.73,0,0,1-.72-3.71,30.17,30.17,0,0,1,.81-5.05c.22-1,.47-1.95.72-2.91,0-.13.08-.26.13-.4.06.2.13.37.17.49a23.78,23.78,0,0,1,1.27,4.82,15.06,15.06,0,0,1-.94,8.58A5.7,5.7,0,0,1,185.93,313.64Z"/><path class="cls-8" d="M189,311.79c.3-1.13.7-2.26,1.05-3.38.26-.84.53-1.68.76-2.53,0-.15.05-.29.08-.43.17.73.35,1.39.38,1.56a18.54,18.54,0,0,1,.19,4.59c-.12,1.4-.42,4.24-1.7,5.32C189.19,315.26,188.54,313.65,189,311.79Z"/><polygon class="cls-10" points="200.86 346.68 192.87 339.67 173.77 342 173.67 340.32 193.4 338.42 200.53 343.33 200.86 346.68"/><polygon class="cls-10" points="200.86 346.68 193.54 338.66 173.77 342 177.87 350.3 200.86 346.68"/><polygon class="cls-4" points="177.48 346.28 173.67 340.32 173.77 342 177.87 350.3 177.48 346.28"/><polygon class="cls-4" points="173.47 337.2 173.63 339.66 177.39 345.37 177.08 342.15 173.47 337.2"/><polygon class="cls-4" points="173.19 332.69 173.41 336.18 176.99 341.31 176.64 337.71 173.19 332.69"/><polygon class="cls-4" points="172.91 328.18 173.1 331.25 176.52 336.38 176.18 332.93 172.91 328.18"/><polygon class="cls-19" points="176.18 332.93 176.52 336.38 199.54 333.22 199.55 333.22 199.17 329.32 194.89 329.99 193.29 330.24 176.18 332.93"/><polygon class="cls-19" points="176.64 337.71 176.99 341.31 200.03 338.15 199.68 334.56 176.64 337.71"/><polygon class="cls-19" points="177.08 342.15 177.39 345.37 200.42 342.21 200.11 339 177.08 342.15"/><polygon class="cls-19" points="177.48 346.28 177.87 350.3 200.86 346.68 200.53 343.33 177.48 346.28"/><polygon class="cls-20" points="172.91 328.18 173.1 331.25 176.52 336.38 176.18 332.93 172.91 328.18"/><polygon class="cls-20" points="173.19 332.69 173.41 336.18 176.99 341.31 176.64 337.71 173.19 332.69"/><polygon class="cls-20" points="173.47 337.2 173.63 339.66 177.39 345.37 177.08 342.15 173.47 337.2"/><polygon class="cls-20" points="173.67 340.32 173.77 342 177.87 350.3 177.48 346.28 173.67 340.32"/><path class="cls-14" d="M183.53,324.36l2,.42a2.82,2.82,0,0,1,1.66,1s2.72,5.1-1.89.3l-.3.05Z"/><path class="cls-18" d="M160,369.8l2.77,1.88,12.35-15.12s1.15-1.67.14-4.83l-4.86-15.07-8.24,4.78,5.07,14.18Z"/><polygon class="cls-4" points="165.68 358.57 166.61 356.74 166.82 356.42 168.12 356.74 169.26 360.04 168.57 364.52 168.57 364.52 164.14 369.94 165.68 358.57"/><path class="cls-16" d="M170.17,303.56a19.39,19.39,0,0,0-2.3,3.59l-3.47-1.21,1.4-2.92,2.8-1.59Z"/><path class="cls-14" d="M166.18,302.81l.15-.09,2.46-.41.56.13.82,1.12a20.38,20.38,0,0,0-1.22,1.68Z"/><path class="cls-16" d="M164.35,301.37s-3.28-7.38,3.56-8.83c0,0,4.18-1.4,6.1,5.58.25.91.48,1.39.88,2.63H174s0,3.59-1.47,3.69L165.8,303Z"/><path class="cls-18" d="M174.1,296.38a2.89,2.89,0,0,1-1.94,3c-1.13.4-2.58-.43-3.62.2a1,1,0,0,0-.23.18l-.82-1.69,2.68-2.05Z"/><path class="cls-21" d="M162,323.81c-.33-4.19-2.33-9-1.28-13.15.57-2.24,2.23-4.07,4.16-5.78l3.37,1.47c.89.92,2.56,2.37,3.25,3.17a16.45,16.45,0,0,1,3.24,5c.74,2.22-.47,3.49-1.23,5.46-.71,1.81-2.52,15.13-3.19,16.71l0,.06-11-3.19C160.82,330.44,162.29,327.18,162,323.81Z"/><path class="cls-4" d="M172.33,326.05l-.82-.37.07-8.95s.22-6.66-3.81-6.63c0,0-6,.3-3.48,8.37l2.1,9.7s1.27,1.64,5.15,2.59C171.79,329.23,172.06,327.59,172.33,326.05Z"/><path class="cls-18" d="M168.44,299.23c-.17.8-1.05,1.1-1.59,1.61a2.53,2.53,0,0,0-.65,2.11,3.47,3.47,0,0,1-.4,2.39c-.51.67-1.24,1-1.62,1.82a10.41,10.41,0,0,0-.55,2.43c-.19.83-.74,1.11-1.25,1.71-1.38,1.59.32,3.67-.68,5.46a2.93,2.93,0,0,1-4.34,1.06,5.31,5.31,0,0,1-1.48-2.64,3.5,3.5,0,0,1,.19-2.48,20.88,20.88,0,0,0,1.09-2.68,6.75,6.75,0,0,1,1.06-3.1c.82-1,2.09-1.44,3-2.3s1-2,1.43-3.1a3.6,3.6,0,0,1,1.1-1.66c.7-.59.75-1.14,1.12-1.93a1.92,1.92,0,0,1,3.6.25"/><path class="cls-16" d="M167.16,299.28c.17,1,.79,1.66,1.39,1.55s1-1,.79-1.93-.79-1.65-1.39-1.55S167,298.32,167.16,299.28Z"/><path class="cls-18" d="M159.36,333.53l11,3.13,4.16,21.08-5.64,20h-3.63l1.09-20.13s-3.44-8-6.46-14.84C158,338.47,158.05,336.34,159.36,333.53Z"/><path class="cls-21" d="M175.52,326.31l-3.58-1.63.07-8.95s.22-6.66-3.81-6.63c0,0-6,.3-3.48,8.37l2.1,9.7s1.73,2.23,7.33,3Z"/><polygon class="cls-4" points="175.63 326.02 173.91 330.86 170.88 330.06 172.96 324.84 175.63 326.02"/><path class="cls-14" d="M187.33,331.18l-1.49-1.75,2,.42a2.82,2.82,0,0,1,1.66,1Z"/><path class="cls-16" d="M190,334.54s-.46,1.41-3.82.56l-2.4-3.92-9.59-1,1.34-3.78,12.37,3.46S188.51,333.25,190,334.54Z"/><path class="cls-9" d="M173.36,295.45a15.16,15.16,0,0,1,5.55-.4,55.09,55.09,0,0,1-19.06,5.82,28.09,28.09,0,0,1,3.7-2.57Z"/><path class="cls-9" d="M163.55,298.3l-.77-3.38a13.07,13.07,0,0,1,9-3c.82.61,1.6,3.54,1.6,3.54S172.38,296.94,163.55,298.3Z"/><path class="cls-4" d="M172.92,294.05h0c.26.74.44,1.39.44,1.39s-1,1.49-9.81,2.85l-.32-1.38C170.29,295.73,172.37,294.5,172.92,294.05Z"/><path class="cls-4" d="M171.76,291.91s-2.47,2.18-9,3A13.07,13.07,0,0,1,171.76,291.91Z"/><polygon class="cls-16" points="168.87 377.71 168.62 378.89 177.38 381.7 177.38 382.33 164.96 382.33 165.24 377.71 168.87 377.71"/><path class="cls-17" d="M165.13,379.44l.53,0a5.33,5.33,0,0,1,2.37.41c.61.25,1.19.63,1.85.84a4.57,4.57,0,0,0,2.86-.45l4.65,1.49v.63H165Z"/><path class="cls-6" d="M352.66,407.9c0,1.38-13.9,2.5-31,2.5s-31-1.12-31-2.5,13.9-2.49,31-2.49S352.66,406.53,352.66,407.9Z"/><path class="cls-4" d="M300.42,337.76a8.33,8.33,0,0,0-2.54-2.61c-.73-.48-1.49-.92-2.23-1.37l-.21-.13c.28.87.23,1.92.44,2.79a8.82,8.82,0,0,0,1.34,3.25,7.44,7.44,0,0,0,2,1.73,6.45,6.45,0,0,0,2.72,1.21A8.31,8.31,0,0,0,300.42,337.76Z"/><path class="cls-4" d="M301.36,353.18c-.2-.12-.55-.28-.86-.48a7.88,7.88,0,0,0,0,1.09,7.33,7.33,0,0,0,.47,2.11,4.66,4.66,0,0,0,3.18,2.32,7.06,7.06,0,0,0-.71-3.2A5.17,5.17,0,0,0,301.36,353.18Z"/><path class="cls-4" d="M296.59,349a32.62,32.62,0,0,0-2.4,2.45,7.32,7.32,0,0,1,.77,0A10.83,10.83,0,0,0,299,351a4.75,4.75,0,0,0,2.59-2.41C300.55,347.38,297.57,348.13,296.59,349Z"/><polygon class="cls-4" points="313.44 370.92 310.38 388.13 309.1 403.81 312.39 404.37 315.69 388.93 322.52 375.83 313.44 370.92"/><polygon class="cls-4" points="315.81 373.13 319.27 382.06 320.77 379.19 315.81 373.13"/><polygon class="cls-4" points="316.33 373.42 326.38 389.66 337.88 400.43 340.61 398.66 331.05 385.48 325.87 370.2 316.33 373.42"/><path class="cls-4" d="M304.93,406.64l-1.87,0a4.23,4.23,0,0,0-.2-.67l1.75-.6A6.09,6.09,0,0,1,304.93,406.64Z"/><path class="cls-4" d="M308.34,406.73l-1.56-.05a6.31,6.31,0,0,0-.5-1.91l1.52-.52A7.48,7.48,0,0,1,308.34,406.73Z"/><path class="cls-14" d="M312.39,404.37l-.11,2.46,0,1.07H300.65l.41-1.36,1.8-.61a4.23,4.23,0,0,1,.2.67l1.87,0a6.09,6.09,0,0,0-.32-1.31l1.67-.56a6.31,6.31,0,0,1,.5,1.91l1.56.05a7.48,7.48,0,0,0-.54-2.48h0l1.3-.44Z"/><path class="cls-4" d="M340,402.9,338.83,404a4.08,4.08,0,0,0-1.77-1.66l.1-.07.52-1.34A3.83,3.83,0,0,1,340,402.9Z"/><path class="cls-4" d="M336.78,405.39l-2,.19a3.73,3.73,0,0,0-.76-1.24l1.6-1.06A4.32,4.32,0,0,1,336.78,405.39Z"/><path class="cls-14" d="M343.1,401.48l-2.58,2.42L339.37,405l-1.49,1.4-.91.07-1.83.15-3.37.26v-1l2.29-1.52a3.73,3.73,0,0,1,.76,1.24l2-.19a4.32,4.32,0,0,0-1.12-2.11l1.4-.93a4.08,4.08,0,0,1,1.77,1.66L340,402.9a3.83,3.83,0,0,0-2.31-2l.2-.51,2.73-1.77,1.76,2Z"/><polygon class="cls-4" points="343.1 401.48 340.52 403.9 339.37 404.98 337.88 406.38 336.97 406.45 335.14 406.6 331.77 406.86 331.77 405.86 334.82 405.58 336.78 405.39 337.44 405.33 338.83 404.01 339.99 402.9 342.37 400.64 343.1 401.48"/><polygon class="cls-4" points="312.28 406.83 312.23 407.9 300.65 407.9 301.06 406.54 303.06 406.6 304.93 406.64 306.78 406.69 308.34 406.73 312.28 406.83"/><path class="cls-18" d="M313.38,344.62l-2.2,10.65s-3.72-8.35,1.57-11.86l3.37-.24v2.06Z"/><path class="cls-16" d="M310.64,340.33a23.53,23.53,0,0,1,2.74,4.29l4.14-1.45-1.67-3.48-3.34-1.89Z"/><path class="cls-14" d="M315.4,339.44l-.18-.1-2.94-.5-.66.17-1,1.32s.69.84,1.46,2Z"/><path class="cls-16" d="M317.18,337.51s2.58-9.61-6-10.07c0,0-4.85-1.41-5.85,7.44-.13,1.16-.26,2.17-.51,3.77l1.21-.25s1.91,3.82,3.77,3.64l5.94-2.26Z"/><path class="cls-4" d="M317.18,337.51s2.58-9.61-6-10.07c0,0-5.43-1.4-6.36,4.1a22.49,22.49,0,0,1,2.46,1c.84.27,1.12,2.62,1.73,3.16s1.53.19,2.22.08a2.22,2.22,0,0,1,2.29.86,8.68,8.68,0,0,1,1.21,1.91,3.36,3.36,0,0,0,1.08,1.14Z"/><path class="cls-16" d="M313.36,335.5c0,1.2-.65,2.16-1.4,2.15s-1.34-1-1.32-2.2.65-2.17,1.4-2.15S313.38,334.3,313.36,335.5Z"/><path class="cls-4" d="M316.22,324.5c-1.52-1.47-4.7-.72-4.57,1.66a3.35,3.35,0,0,0,1.17,2.44c2,1.4,4.28-.49,4-2.66A2.44,2.44,0,0,0,316.22,324.5Z"/><path class="cls-4" d="M317.52,343.17l-4.14,1.45s-5.8,8.55,0,26.87c0,0,7,.19,12.49-3C325.87,368.51,322.53,348.54,317.52,343.17Z"/><path class="cls-18" d="M312,353.11s8-8.58,13.54.44c0,0,3-7.85-8.56-11.5A17.31,17.31,0,0,0,312,353.11Z"/><path class="cls-15" d="M325.54,353.55s6,13.75,6.57,17.53c0,0-5.27,7.19-17.29,7.69,0,0-4.41-12.4-2.82-25.66C312,353.11,316.88,335.47,325.54,353.55Z"/><path class="cls-14" d="M308.12,366.44h0s-3.09,3.51,1.3,5.05l-.33-1.53Z"/><path class="cls-4" d="M311,374.05l-9.47-33.56-.72.21,9.27,32.83Z"/><polygon class="cls-4" points="303.44 349.12 298.74 348.16 298.89 347.44 303.59 348.39 303.44 349.12"/><rect class="cls-4" x="299.65" y="340.87" width="0.74" height="4.53" transform="translate(-126.03 505.09) rotate(-69.65)"/><rect class="cls-4" x="302.31" y="345.49" width="2.83" height="0.74" transform="translate(-145.52 446.13) rotate(-61.29)"/><rect class="cls-4" x="303.8" y="352.08" width="3.9" height="0.74" transform="translate(-131.3 515.84) rotate(-69.56)"/><rect class="cls-4" x="303.45" y="355.46" width="0.74" height="5.51" transform="translate(-132.72 531.59) rotate(-71.36)"/><rect class="cls-4" x="304.09" y="360.05" width="0.74" height="6.66" transform="translate(-96.52 616.29) rotate(-82.28)"/><path class="cls-17" d="M317.09,346.35s-4.3,1.68,0,11l2.2,5L313,365.84a44,44,0,0,1,2,4.36s7.85-1.31,10.87-5.38C325.87,364.82,322.38,344.25,317.09,346.35Z"/><path class="cls-16" d="M313.43,366.63l-1.77.42a3.49,3.49,0,0,0-2.84-.94s.15.45-.7.33c0,0-.74,3.73,1.3,5.05a6.55,6.55,0,0,0,3.47-1.83l1.66-.62Z"/><path class="cls-8" d="M302.28,339a10.76,10.76,0,0,0-2-4.5,21.54,21.54,0,0,0-1.76-2.33,3.84,3.84,0,0,1-.36-.5c-.05.45-.13.86-.14,1a18.24,18.24,0,0,0,0,4.61,8.12,8.12,0,0,0,1.76,3.93,6.1,6.1,0,0,0,1.95,1.39,8.47,8.47,0,0,0,.47-1.07A6.43,6.43,0,0,0,302.28,339Z"/><path class="cls-8" d="M298.54,341.43a5.75,5.75,0,0,0-3.15-1,24.67,24.67,0,0,0-2.76.22l-.49,0,.11.09c1.27,1.22,2.72,2.82,4.52,3.09a7.27,7.27,0,0,0,3.46-.68A6.33,6.33,0,0,0,298.54,341.43Z"/><path class="cls-8" d="M305.15,342a3.82,3.82,0,0,0-1.65,2.47,6,6,0,0,0,.11,1.55c.62-.12,1.28-.12,1.93-.28a5.48,5.48,0,0,0,2.77-1.65,8.88,8.88,0,0,0,1.43-3c.15-.41.26-.95.43-1.41a19.2,19.2,0,0,1-2.49.84A8.59,8.59,0,0,0,305.15,342Z"/><path class="cls-8" d="M300.66,347.68a7,7,0,0,0-2-1.17,7.49,7.49,0,0,0-3.25-.49c-.66,0-1.93.47-3,.47.68.56,1.28,1.31,1.92,1.74a6.75,6.75,0,0,0,2.65,1.12,5.28,5.28,0,0,0,2.59-.17c.5-.18,1.1-.61,1.6-.83A3.06,3.06,0,0,0,300.66,347.68Z"/><path class="cls-8" d="M307.88,345.86c-.36.4-.83.76-1.12,1a4.43,4.43,0,0,0-1.38,2,5.55,5.55,0,0,0,.27,3.37,4.59,4.59,0,0,0,.72-.33c.61-.41,1.28-.61,1.58-1.35a6.7,6.7,0,0,0,.17-3.21A12.86,12.86,0,0,1,307.88,345.86Z"/><path class="cls-8" d="M302.51,356.06a7.06,7.06,0,0,0-3.21-1.29,16.53,16.53,0,0,1-3.23-.77c.12.28.23.56.31.73a15.67,15.67,0,0,0,1.32,2.15,5.29,5.29,0,0,0,2.76,2.27c1.45.47,2.67-.56,4-.71a6.9,6.9,0,0,0-.45-.85A7.07,7.07,0,0,0,302.51,356.06Z"/><path class="cls-8" d="M302.94,362a8.22,8.22,0,0,0-2.91-1.12,21.45,21.45,0,0,1-2.89-.16c-.34-.07-.82-.05-1.27-.09a16,16,0,0,1,1.41,1.27,12.55,12.55,0,0,0,1.87,1.54,5.82,5.82,0,0,0,4.78.11l.52-.18A5.5,5.5,0,0,0,302.94,362Z"/><path class="cls-6" d="M244.61,408.65c0,1.56-7.52,2.82-16.78,2.82S211,410.21,211,408.65s7.52-2.82,16.79-2.82S244.61,407.1,244.61,408.65Z"/><path class="cls-6" d="M221.85,402.62c0,1.56-7.51,2.82-16.78,2.82s-16.78-1.27-16.78-2.82,7.51-2.82,16.78-2.82S221.85,401.06,221.85,402.62Z"/><path class="cls-4" d="M232.14,352.41a5.06,5.06,0,0,0,6.88.67l-.83-2.87-3.45-.53L233,351.2Z"/><path class="cls-14" d="M228.32,353.3a21.44,21.44,0,0,1-2.06-2.1l-2.15,2.15a21.44,21.44,0,0,0,2.06,2.1,11.63,11.63,0,0,0,2.43,2.23l2.15-2.15A11.63,11.63,0,0,1,228.32,353.3Z"/><rect class="cls-4" x="243.7" y="354.57" width="1.47" height="35.64" transform="translate(-189.48 271.69) rotate(-43.65)"/><path class="cls-14" d="M232.6,356.23a2.11,2.11,0,0,0-2-1.79c-.89,0-1.62,1-2.14,1.61a2.69,2.69,0,0,0-.81,2.55,1.86,1.86,0,0,0,2.11,1.43,3.66,3.66,0,0,0,2.14-1.86A3.28,3.28,0,0,0,232.6,356.23Z"/><path class="cls-4" d="M229.43,361.41l-1.83-1.22.11-.28c.07-.18,1.77-4.52,4.83-5l.21,0,2,2.37-1.84,3.14Zm-.92-1.5,1,.69,2.86-.87,1.44-2.45-1.39-1.64C230.33,356.15,228.91,359,228.51,359.91Z"/><path class="cls-16" d="M232.6,356.23a2.12,2.12,0,0,0-.84-1.39c-3.81,1.1-3.88,4.16-3.89,4.24a1.84,1.84,0,0,0,1.92.95,3.66,3.66,0,0,0,2.14-1.86A3.28,3.28,0,0,0,232.6,356.23Z"/><path class="cls-9" d="M206.27,355.93l1,20.07-8.47,21.05h6.28l9.3-19.15,2.1-18.85S214.93,353.24,206.27,355.93Z"/><path class="cls-9" d="M212.21,358.5,219.54,380v23.38h5.26l2.63-25-3.21-17.68S218.18,355,212.21,358.5Z"/><path class="cls-16" d="M240,337.23a10,10,0,0,0-4.38,1.77l-4.22-3.85,4.43-.7,3.66-.18Z"/><path class="cls-14" d="M240,337.23l-.41-2.4-.55-.54-2.64.13,1.92,3.21A11.29,11.29,0,0,1,240,337.23Z"/><path class="cls-16" d="M235.22,332s.44-9.2,8.15-7.18c0,0,7.32,1.3,3,12.66l-1.37-.53s-1.49,3-3.07,2.35l-6.12-4.88Z"/><path class="cls-4" d="M235.22,332s.44-9.2,8.15-7.18c0,0,5,.89,4.33,7.59,0,0-.77.61-3.38-.2a4,4,0,0,0-2.27,2.45l-1-.45s.88-2.88-.37-3.67l-1.47.47s-.76,2.43-2.48,2.67l-1.16-.19Z"/><path class="cls-16" d="M239.16,331.34c-.32,1.06,0,2.09.62,2.29s1.47-.5,1.79-1.56,0-2.1-.63-2.3S239.48,330.27,239.16,331.34Z"/><path class="cls-17" d="M239.5,340l-8-5.66s-3.21-2.49-8.62,2.41L205.07,355.1s5.26,4.53,19.15,5.56L239,343.41S240.67,341.62,239.5,340Z"/><polygon class="cls-4" points="230.24 353.42 230.41 353.42 235.68 347.26 236.01 346.11 233.17 342.96 230.24 353.42"/><path class="cls-16" d="M239.89,341.81l-2.81,18.85s6.43,9.2,7.89,11.4c0,0,.15.58-3.21,1l-9.91-10.82,2-19.44S237,338.17,239.89,341.81Z"/><path class="cls-14" d="M233.2,349.19l-.43,4.23a8.65,8.65,0,0,1,5.49-.66l.64-4.32-2.53-.93S234.28,348.65,233.2,349.19Z"/><path class="cls-16" d="M241.75,372.6a16.06,16.06,0,0,0,.38,2.42c.84.41,1.51,1.11,2.37,1.5s1.91,1.09,2.72.93a4.27,4.27,0,0,0,.19-2.16,4.06,4.06,0,0,0-.17-2.08,2.1,2.1,0,0,0-1.51-1,9,9,0,0,0-2.24-.44"/><path class="cls-4" d="M251.45,386.89,259,381s7.48,6.28,5.12,13.74C264.12,394.77,256.74,397.18,251.45,386.89Z"/><path class="cls-17" d="M233.17,343l-1,9.45s4-2.76,6.88.67l.87-11.27S237.56,336.86,233.17,343Z"/><polygon class="cls-4" points="232.14 334.78 233.26 334.29 237.83 338.29 237.65 338.7 232.14 334.78"/><polygon class="cls-4" points="215.11 371.25 215.47 368.03 213.21 361.41 215.11 371.25"/><polygon class="cls-4" points="224.8 403.33 232.19 407.71 232.19 408.65 219.29 408.65 219.54 403.33 224.8 403.33"/><polygon class="cls-4" points="205.07 397.05 212.57 401.55 212.57 402.62 198.79 402.62 198.79 397.05 205.07 397.05"/><path class="cls-9" d="M283.88,398.92c0,1-6.87,1.88-15.34,1.88s-15.33-.84-15.33-1.88,6.86-1.87,15.33-1.87S283.88,397.89,283.88,398.92Z"/><path class="cls-4" d="M255.28,399.86a74.29,74.29,0,0,0,13.26.94,74.42,74.42,0,0,0,13.27-.94,74.42,74.42,0,0,0-13.27-.94A74.29,74.29,0,0,0,255.28,399.86Z"/><path class="cls-9" d="M285.22,390.62a45.74,45.74,0,0,0,5,.89c2.21.12,3.23-.78,5.06-1.21A33.45,33.45,0,0,1,303,390a12.61,12.61,0,0,1-1.16-1.15c-.81-.95-.95-1.94-1.91-2.83-.8-.75-2-1.28-2.85-1.95-1.59-1.24-3.17-3.65-5.71-4.12s-5.89,1.38-6.42,3c-3.23.21-4.35,2.46-5.85,4a47.78,47.78,0,0,1-3.83,3.32A54.24,54.24,0,0,1,285.22,390.62Z"/><path class="cls-20" d="M303,390a12.61,12.61,0,0,1-1.16-1.15c-.11-.13-.2-.26-.29-.38a3,3,0,0,1-1.58.34c-.81-.09-1.3-.55-2.21-.44s-1.38.6-2.31.27c-.77-.28-.78-.78-1.76-.78-.82,0-1.39.46-2.21.52-2.31.17-1.65-1.48-3.22-2.14s-3.19,1.16-4.69.31c-1.19-.68-.57-2.25-1.75-2.49a23,23,0,0,0-2.72,2.89,47.78,47.78,0,0,1-3.83,3.32,54.24,54.24,0,0,1,9.91.37,45.74,45.74,0,0,0,5,.89c2.21.12,3.23-.78,5.06-1.21A33.45,33.45,0,0,1,303,390Z"/><polygon class="cls-22" points="494.58 479.51 263.29 479.51 198.38 417 494.58 417 494.58 479.51"/><text class="cls-23" transform="translate(272.52 435.41)">Medio<tspan class="cls-24" x="66.03" y="0"> </tspan><tspan class="cls-25" x="71.03" y="0">ambiente, </tspan><tspan x="0" y="19.42">susten</tspan><tspan class="cls-26" x="79.87" y="19.42">t</tspan><tspan class="cls-25" x="90.71" y="19.42">abili</tspan><tspan class="cls-27" x="143.73" y="19.42">d</tspan><tspan x="157.49" y="19.42">ad </tspan><tspan class="cls-28"><tspan x="0" y="38.83">y</tspan><tspan class="cls-29" x="13.53" y="38.83"> </tspan><tspan class="cls-30" x="18.85" y="38.83">territorio</tspan></tspan></text></g></g></svg>