<svg xmlns="http://www.w3.org/2000/svg" xmlns:xlink="http://www.w3.org/1999/xlink" viewBox="0 0 623.62 623.62"><defs><style>.cls-1{isolation:isolate;}.cls-2,.cls-3{fill:#d17b37;}.cls-3{opacity:0.22;mix-blend-mode:multiply;}.cls-4{fill:#f4a6a7;}.cls-5,.cls-8{fill:#37474f;}.cls-6{fill:#263239;}.cls-7{fill:#455a64;}.cls-17,.cls-8{opacity:0.5;}.cls-9{fill:#f28f8f;}.cls-10{fill:#b26668;}.cls-11{fill:#a56baa;}.cls-12,.cls-20{opacity:0.2;}.cls-13{fill:#e0e0e0;}.cls-14{opacity:0.35;}.cls-15{opacity:0.25;}.cls-16,.cls-22{opacity:0.1;}.cls-17,.cls-22,.cls-26{fill:#fff;}.cls-18{fill:#c9866a;}.cls-19{fill:#b06152;}.cls-21{fill:#ebebeb;}.cls-23{fill:#f0f0f0;}.cls-24{fill:#fbfbfb;}.cls-25{fill:url(#Degradado_sin_nombre_35);}.cls-26{font-size:16.18px;font-family:LuloCleanW01-OneBold;font-weight:700;}.cls-26,.cls-34{letter-spacing:-0.15em;}.cls-27{letter-spacing:-0.2em;}.cls-28{letter-spacing:-0.2em;}.cls-29{letter-spacing:-0.15em;}.cls-30{letter-spacing:-0.19em;}.cls-31{letter-spacing:-0.2em;}.cls-32{letter-spacing:-0.15em;}.cls-33{letter-spacing:-0.2em;}.cls-35{letter-spacing:-0.18em;}.cls-36{letter-spacing:-0.21em;}</style><linearGradient id="Degradado_sin_nombre_35" x1="576.23" y1="399.34" x2="220.41" y2="399.34" gradientUnits="userSpaceOnUse"><stop offset="0" stop-color="#d17b37" stop-opacity="0"/><stop offset="0.14" stop-color="#d17b37"/></linearGradient></defs><g class="cls-1"><g id="Capa_1" data-name="Capa 1"><circle class="cls-2" cx="237.26" cy="294.54" r="137.23"/><ellipse id="Shadow" class="cls-3" cx="178.8" cy="361.48" rx="41.61" ry="24.02"/><ellipse id="Shadow-2" data-name="Shadow" class="cls-3" cx="86.56" cy="341.79" rx="39.16" ry="22.61"/><ellipse id="Shadow-3" data-name="Shadow" class="cls-3" cx="266.4" cy="340.98" rx="39.16" ry="22.61"/><g id="Chartacter"><g id="Body"><path class="cls-4" d="M293.82,344.54c-.57-1.6-1.42-8.06-2.06-10.57a20.56,20.56,0,0,1-.56-5c.1-7.81.77-18.43.89-24.47a40.86,40.86,0,0,0-.69-8.67c-.43-2.33-1-4.35-1.29-5.73,0-4.93-.15-18.15-.2-28.24-.06-12.08-2.17-20-3.57-25.94l-34.14,1.58c-.09,2.2-2.25,16.68-2.65,24.3-.64,11.9-1,23.86-.58,30.28.37,5.77,1.1,11.52,1.68,17.27.26,2.63.51,5.25.73,7.87a36.65,36.65,0,0,1,.23,7.4,12.37,12.37,0,0,1-2.57,6.28,13.91,13.91,0,0,1-2.44,2.41c-3.08,2.38-7,3.41-10.09,5.84a2.5,2.5,0,0,0-.78.87,1.93,1.93,0,0,0-.13.95,4.1,4.1,0,0,0,2.24,3.14,8.31,8.31,0,0,0,3.88.85,18.42,18.42,0,0,0,10.49-3c1.17-.78,2.24-1.68,3.37-2.5.51-.37,1.06-.69,1.56-1.06a4.76,4.76,0,0,1,1.32-.59,32.62,32.62,0,0,0,3.27-1.42,8.2,8.2,0,0,0,1.51-.89,3.74,3.74,0,0,0,1.26-2.07,5.57,5.57,0,0,0,.08-1.47,8.85,8.85,0,0,0-.24-1.85c-.24-1-.69-2-1-2.95s-.44-1.81-.66-2.73c1.19-6.61,2.47-14.11,3.11-19.28a43,43,0,0,0,0-11.16l2.79-23.33c1.61,8.18,6,26.09,6,26.09,1.28,6.32,5,21.45,6.69,31.87.11,2.67,1,6.44,1,12.59,0,2.33,0,5.77,0,7.21a24.16,24.16,0,0,0,.41,7.08c.67,3.2,4.27,2.14,4.88,1.18,0,0,4.27-1.67,5.32-4C294.1,349.68,294.38,346.13,293.82,344.54Z"/><path class="cls-5" d="M249.81,236.34c4.1,4.85,19,5.77,26.34,4.9,8-1,12.21-4.41,12.21-4.41s.56,3.6,1.51,8.95c.56,3.14.48,7,.64,15,.07,3.81.39,22.87.39,22.87-3.61,3.85-15.25,4.5-19.25,2.25l-2.79-13.08L267,285.86s-2.17,2-10.73.91a15.48,15.48,0,0,1-8.2-3.34S248.55,247.73,249.81,236.34Z"/><path class="cls-6" d="M254,250.07c2.68,5.9,11.91,7.3,11.91,7.3l3,15.43L267,285.86l.68-15.51L264,260S254.73,257.45,254,250.07Z"/></g><path class="cls-6" d="M235.28,342.83a2.55,2.55,0,0,0,.73,2.7,13.5,13.5,0,0,0,9.36,1.34c4.54-.85,6.94-2.33,8.68-3.86s4.18-3.71,6.22-4.27a13.16,13.16,0,0,0,4.52-2.06c.58-.59.33-3,.33-3Z"/><path class="cls-7" d="M262.67,324.35a.73.73,0,0,1,.73.53c.19.66.47,2.62.85,3.7a18.44,18.44,0,0,1,.84,5.92c-.17,1.27-3.25,2.35-5.21,3.18a26,26,0,0,0-6.25,4.23,19.33,19.33,0,0,1-9.45,4c-3.53.21-7.58-.59-8.59-2.05-1.25-1.8-2.22-3.92,2.87-6.51,1-.49,4.32-2.63,5.47-3.4,3.08-2.08,5.23-3.94,6.49-7.35a1.87,1.87,0,0,1,.69-1.06,1.8,1.8,0,0,1,1-.15,37.4,37.4,0,0,1,5.21.57c.72.27,1.74.56,1.78,1.39a2.32,2.32,0,0,1-.14.86c-.05.18-.08.41.08.5s.36,0,.49-.16a13,13,0,0,0,1.3-1.66,5.15,5.15,0,0,1,.78-.84,7.66,7.66,0,0,0,.86-.59C262.78,325.1,262.68,324.74,262.67,324.35Z"/><path class="cls-5" d="M253.63,341.91c.87-.76,1.8-1.5,2.73-2.16h0s-5.93,3.87-8.53,2.46a2,2,0,0,1-1-2.59c0-.39-5.84-2.8-7.4-2.87h0c-.42.25-.78.46-1,.57-5.09,2.59-4.12,4.71-2.87,6.51,1,1.46,4,2.45,8.54,2.15A19.76,19.76,0,0,0,253.63,341.91Z"/><path class="cls-5" d="M247.21,338.44c-3.18,1.42-1.75,1.89-.83,1.95s6.21-3.26,9.39-5.93,5.34-5.71,6.57-6.73c.46-.39,1-.85,1.39-1.28-.13-.66-.24-1.26-.33-1.57a.73.73,0,0,0-.73-.53c-.08.56-.09.8-.39,1.12a5.75,5.75,0,0,1-.66.54,5.15,5.15,0,0,0-.78.84,13,13,0,0,1-1.3,1.66C256.91,332,250.39,337,247.21,338.44Z"/><path class="cls-6" d="M246.58,339.93a.28.28,0,0,0,.2-.08.28.28,0,0,0,0-.42c-1-1-5.51-3.17-7.89-2.77a.3.3,0,1,0,.11.59c2.22-.37,6.52,1.81,7.31,2.59A.29.29,0,0,0,246.58,339.93Z"/><path class="cls-6" d="M249.32,338.13a.39.39,0,0,0,.2-.08.29.29,0,0,0,0-.43c-1-1-5.51-3.16-7.89-2.76a.31.31,0,0,0-.27.35.31.31,0,0,0,.37.24c2.23-.37,6.53,1.81,7.31,2.59A.39.39,0,0,0,249.32,338.13Z"/><path class="cls-6" d="M252.06,336.41a.32.32,0,0,0,.2-.08.28.28,0,0,0,0-.42c-1-1-5.51-3.17-7.89-2.77a.31.31,0,0,0-.27.35.32.32,0,0,0,.38.24c2.22-.37,6.52,1.81,7.3,2.59A.32.32,0,0,0,252.06,336.41Z"/><path class="cls-6" d="M254.58,334.49a.39.39,0,0,0,.2-.08.29.29,0,0,0,0-.43c-1-1-5.51-3.16-7.88-2.76a.31.31,0,0,0-.27.35.31.31,0,0,0,.37.24c2.23-.37,6.53,1.81,7.31,2.58A.35.35,0,0,0,254.58,334.49Z"/><path class="cls-6" d="M257,332.57a.39.39,0,0,0,.2-.08.28.28,0,0,0,0-.42c-1.36-1.39-6.06-3.16-8.44-2.76a.31.31,0,0,0-.26.35.32.32,0,0,0,.37.24c2.14-.36,6.64,1.34,7.85,2.57A.33.33,0,0,0,257,332.57Z"/><path class="cls-6" d="M280.72,349.2c.14,3,.63,4.92,1.8,6.61s3.46,2.11,5.78,1.48,5.32-2.14,6-4.75a14.4,14.4,0,0,0,.14-7.09Z"/><path class="cls-7" d="M291.23,327c1,0,.29,4.16.76,8.14.5,4.26,1.94,6,2.39,9.46.52,4,.25,5.8-1.42,8.31s-7.43,5.19-10.18,1.85c-2.24-2.72-2.27-5.87-2-9.89a89.67,89.67,0,0,0,.41-10.24c-.12-3-.82-5.71,0-6.09,0,.44.11,1,.16,1.43s.42,2.25.65,1.95,0-.75,0-1.14a1.25,1.25,0,0,1,.28-1,4.39,4.39,0,0,1,1.58-.67c.94-.21,2.62-.43,3.57-.56.48-.06,1-.1,1.43-.12a4.07,4.07,0,0,1,1.21.09.75.75,0,0,1,.51.38,1.17,1.17,0,0,1,0,.46,2.84,2.84,0,0,0,.1.82c0,.11.12.25.26.22a.25.25,0,0,0,.16-.25C291.22,329.68,291.23,327,291.23,327Z"/><path class="cls-5" d="M294.19,343.46c.08.58.57,4.39-.65,5.14s-2-2.16-2-2.16-3-.66-7.5,1.25c.22.62-.51,2.71-1.71,2.33s-1.59-4.75-1.6-4.81c-.26,3.87-.17,6.91,2,9.55,2.75,3.34,8.52.67,10.18-1.85s1.94-4.32,1.42-8.31C294.33,344.2,294.26,343.82,294.19,343.46Z"/><path class="cls-5" d="M291.22,346.71c0,1.45,1.65.88,1.76-1.18s-1.08-6.86-1-10.39c.06-4.86.2-8.12-.76-8.14l-.05,2.07c0,.37,0,.78,0,1.1,0,3-.39,8.7-.16,11.4A40.89,40.89,0,0,1,291.22,346.71Z"/><path class="cls-5" d="M284.6,347.63a39.88,39.88,0,0,1-.81-5.06c-.28-2.67-1.5-8.06-2.1-11l-.47-3.06c-.68.21-.56,2.58-.33,3.79s.51,2.5.77,4.22c.75,3.42.5,8.46,1,10.43S284.88,349,284.6,347.63Z"/><path class="cls-6" d="M284,347.82l.13,0a13.08,13.08,0,0,1,7.36-1,.41.41,0,0,0,.44-.24.3.3,0,0,0-.25-.37,13.66,13.66,0,0,0-7.87,1.12.29.29,0,0,0-.16.42A.36.36,0,0,0,284,347.82Z"/><path class="cls-6" d="M283.25,344.7l.12,0a16.24,16.24,0,0,1,8.25-1.16.4.4,0,0,0,.43-.26.29.29,0,0,0-.26-.35,16.71,16.71,0,0,0-8.71,1.23.31.31,0,0,0-.18.42A.36.36,0,0,0,283.25,344.7Z"/><path class="cls-6" d="M291.44,340.52a.39.39,0,0,0,.31-.22.28.28,0,0,0-.21-.38c-4.26-1.05-8.52,1.06-8.7,1.15a.31.31,0,0,0-.16.43.36.36,0,0,0,.47.1c.05,0,4.19-2.06,8.15-1.08Z"/><path class="cls-6" d="M291.26,337.71a.38.38,0,0,0,.3-.22.28.28,0,0,0-.21-.38,12.65,12.65,0,0,0-8.87,1.14.3.3,0,0,0-.13.43.39.39,0,0,0,.49.08,12,12,0,0,1,8.26-1.06Z"/><path class="cls-6" d="M291,334.55a.38.38,0,0,0,.3-.22.28.28,0,0,0-.2-.38c-4.38-1.22-8.75,1.13-8.94,1.23a.29.29,0,0,0-.13.42.35.35,0,0,0,.48.09s4.26-2.28,8.33-1.15Z"/><path class="cls-4" d="M256.28,189.65c-4.19.48-6.48,1.22-8.36,5.24s-5.52,13-6.49,15.12a39.24,39.24,0,0,0-3,9.7c-.53,3.65,0,13.76,0,13.76l6.56,7.41,6.41-23.76,4.21-11.35Z"/><path class="cls-5" d="M259.28,188.65c-4.56.76-8.85.62-11.36,5.45S241.61,209,241.61,209s.91,2.47,5,4.41a12.71,12.71,0,0,0,7.18,1.34l4.4-11.5Z"/><path class="cls-7" d="M287.32,189.27s-8.35-1.37-10.27-1.71c-8.48-1-18.59,1.26-18.59,1.26-3.55,1.07-7.37,5-9.41,12.31-1.49,5.38-.64,10.65.4,12.51,0,3.14,0,5.46.1,11.17s.06,8,0,12.7c9,9.28,32.9,8.58,39.15.25a95.25,95.25,0,0,1-.31-16c.68-7.21.82-7.64,1.67-15.05A34.85,34.85,0,0,0,287.32,189.27Z"/><path class="cls-8" d="M278,218.16a10.75,10.75,0,0,1-6.24,1.18,15.48,15.48,0,0,1-5.39-1.65,14.14,14.14,0,0,0-1.65-.71c-1.38-.43-2.32,0-3.54.2a13.35,13.35,0,0,1-5.78-.46,4,4,0,0,1-2.48-1.63,10.26,10.26,0,0,0,7.23,1.06,5.69,5.69,0,0,0,1.89-.63,2.09,2.09,0,0,0,.87-1.4,17.51,17.51,0,0,0,.23-1.79c.12-1.55.66-3.9,1.31-3.2a.47.47,0,0,1,.09.28c.12,1.32-.38,3.73.22,5.29s2.35,2.28,4.22,2.82a18.45,18.45,0,0,0,6.06.77C277.19,218.19,279.19,217.41,278,218.16Z"/><g id="Head"><path class="cls-5" d="M279.34,161.1a4.52,4.52,0,0,1,3.31,2.65c.66,1.25,1.13,3.53-.71,10a25.66,25.66,0,0,1-3.22,7.15,3.28,3.28,0,0,1-1.91,1.48l.15-5,.2-3.49s-2.86-2.56-3.09-5.07a7.81,7.81,0,0,1,1-5Z"/><path class="cls-5" d="M280,161.27c-.49-2.81-4.11-6.19-11.13-6.6a13.42,13.42,0,0,0-12.18,6c-2,3.27.8,6.1.8,6.1l17.61-.78Z"/><path class="cls-4" d="M281.62,178.9c-2.65,1.24-3.85-.82-3.85-.82l0,10.55c-5.1,6.62-19.07,4.08-13.5-.87l0-2.54A15.65,15.65,0,0,1,262,185a5.61,5.61,0,0,1-4.95-4.07,28.1,28.1,0,0,1-.7-4.88,18.55,18.55,0,0,1,.9-7c.48-1.27-.06-3,.3-4.53a4.25,4.25,0,0,1,1.95-3.06c2.81-1.35,5.4.63,9.31,2.15,1.62.63,5.55.93,6.59.46-1.37,1.46-1.38,6.13.63,8a4.52,4.52,0,0,0,1,1.3c.85.73,1.56-1.15,2.28-1.88a3,3,0,0,1,4.59,1.06A4.67,4.67,0,0,1,281.62,178.9Z"/><path class="cls-9" d="M264.29,185.22a21.53,21.53,0,0,0,7.61-1.09c1.82-.74,3.43-3.13,4-5.51,0,1.92-.88,5.31-3.63,6.71a18.33,18.33,0,0,1-8,1.48Z"/><path class="cls-5" d="M274.86,170.15c.72,1.4-.12,5.8-1.47,6.35s-2.87-.35-5.81-1.2a11.13,11.13,0,0,0-6.32-.33c-1.39.36-4.42,1.41-4.92.72-.15,2.4.54,8.14,4.25,9.34,2.63.85,8.24,1,11.55-.64s3.93-3.59,4.55-6.22a47.58,47.58,0,0,1,1.71-5.43Z"/><path class="cls-4" d="M261.44,178.13c0-.12.06-.24.1-.36a2.8,2.8,0,0,1,.64-1.17,2.56,2.56,0,0,1,1.29-.65,4.07,4.07,0,0,1,3.78.76,3.33,3.33,0,0,1,1,2.53c0,.58-.47.78-1,.93a1.77,1.77,0,0,1-1.8-.35.94.94,0,0,0-1.19-.13,5,5,0,0,1-.6.43,1.55,1.55,0,0,1-.88,0,2.06,2.06,0,0,1-.78-.22,1.36,1.36,0,0,1-.62-1A2.52,2.52,0,0,1,261.44,178.13Z"/><path class="cls-10" d="M266.37,176.46l-2.94.93a1.52,1.52,0,0,0,1.92,1A1.57,1.57,0,0,0,266.37,176.46Z"/><path class="cls-9" d="M266.05,177a2.43,2.43,0,0,1,.38,0,1.56,1.56,0,0,1-1.08,1.47,1.16,1.16,0,1,1,.7-1.44Z"/><path class="cls-5" d="M267.81,166.86,270.4,168a1.45,1.45,0,0,0-.77-1.86A1.38,1.38,0,0,0,267.81,166.86Z"/><path class="cls-5" d="M258.23,167.28l2.64-1a1.37,1.37,0,0,0-1.79-.82A1.45,1.45,0,0,0,258.23,167.28Z"/><path class="cls-6" d="M269.5,169.8a1.15,1.15,0,1,1-1.11-1.17A1.14,1.14,0,0,1,269.5,169.8Z"/><path class="cls-6" d="M261.22,169.31a1.15,1.15,0,0,1-1.19,1.08,1.13,1.13,0,1,1,.09-2.25A1.14,1.14,0,0,1,261.22,169.31Z"/><path class="cls-9" d="M265.31,167.1l-1,7.15-3.85-1.42A16.6,16.6,0,0,1,265.31,167.1Z"/></g><path class="cls-11" d="M263,206.46a3.7,3.7,0,0,0-1.14,3.13,1.19,1.19,0,0,0,.65,1h0l1.83.68,1.6-4.43-1.81-.66h0A1.19,1.19,0,0,0,263,206.46Z"/><path class="cls-11" d="M266.65,207.79c-.18-1-1-1.34-1.8-.66a3.65,3.65,0,0,0-1.15,3.12l.65,3.78.43-.35A.79.79,0,0,0,265,213l-.3-1.75a1.45,1.45,0,0,0,.78-.35A3.67,3.67,0,0,0,266.65,207.79Z"/><path class="cls-12" d="M266.65,207.79c-.18-1-1-1.34-1.8-.66a3.65,3.65,0,0,0-1.15,3.12l.65,3.78.43-.35A.79.79,0,0,0,265,213l-.3-1.75a1.45,1.45,0,0,0,.78-.35A3.67,3.67,0,0,0,266.65,207.79Z"/><polygon class="cls-11" points="262.55 213.37 264.36 214.03 263.7 210.25 261.9 209.59 262.55 213.37"/><polygon class="cls-5" points="262.24 210.34 263.46 210.8 263.35 210.15 262.12 209.7 262.24 210.34"/><polygon class="cls-6" points="263.46 210.8 262.24 210.34 262.4 210.21 263.43 210.59 263.46 210.8"/><polygon points="262.4 210.21 262.32 209.77 262.12 209.7 262.24 210.34 262.4 210.21"/><path class="cls-13" d="M277.75,186.84v.84a8.36,8.36,0,0,1,0,4.5,14.16,14.16,0,0,1-1.75,3.91,23.12,23.12,0,0,1-6.53,7.18,29.42,29.42,0,0,1-4.83,2.87c-.41.2-.08.74.29.56,6.15-2.93,11.84-8,13.6-14.83A5.68,5.68,0,0,0,277.75,186.84Z"/><path class="cls-13" d="M264.87,206.46a23.89,23.89,0,0,1-1.2-3.45c-.31-1.22-.55-2.45-.75-3.69a22.38,22.38,0,0,1-.12-7.35,10.64,10.64,0,0,1,1.45-4.21V187a14.57,14.57,0,0,0-1.29,2.15,13.51,13.51,0,0,0-.53,1.67,16.86,16.86,0,0,0-.47,3.68,32.16,32.16,0,0,0,1,8,15.24,15.24,0,0,0,1.39,4.06C264.5,206.81,265,206.8,264.87,206.46Z"/><polygon class="cls-11" points="232.43 214.03 260.57 221.09 270.96 252.22 270.4 252.91 243.61 245.68 231.88 214.72 232.43 214.03"/><polygon class="cls-14" points="260.02 221.78 270.4 252.91 270.96 252.22 260.57 221.09 260.02 221.78"/><polygon class="cls-15" points="231.88 214.72 260.02 221.78 270.4 252.91 243.61 245.68 231.88 214.72"/><g class="cls-16"><path d="M240.69,220.52s-.14-.47-.32-1.05,1.45-.41,3.64.38l5.05,1c2.19.79,4.24,1.34,4.42,1.92l.32,1Z"/></g><path class="cls-5" d="M238.63,215.84c-.11-.36.52-.34,1.41-.19l1.62.39s-.78-1.49,3-.83c4.19.73,4.46,2.72,4.46,2.72a16,16,0,0,0,2,.53c1.4.32,1.58.56,1.72.93l.26.66-14.34-3.59S238.74,216.2,238.63,215.84Z"/><path class="cls-5" d="M240.28,217.75c1.34.47,1.9.7,2.17,1.59s.4,1.44.4,1.44l7.5,2.17s-.53-1.49-.68-2,.82-.59,2.13-.13l-.42-1.24-11.63-3.13Z"/><path class="cls-5" d="M240.32,220.57s-.15-.47-.32-1,1.45-.41,3.63.38l5.06,1c2.19.79,4.24,1.34,4.41,1.92l.33,1.05Z"/><path class="cls-4" d="M296.67,234.48c3.7-1.92,6.44-3.94,6.73-5.86.57-3.86-1.56-14.59-4-24-1.16-4.56-1.15-9.16-4.14-12.08-2.79-2.72-5.45-2.61-7.86-2.95-5.31,7.39-1.64,20.21-1.64,20.21l3.76,13.87"/><path class="cls-4" d="M265.59,236.14a20.72,20.72,0,0,1-4.08.54c-.6,0-2.85-1-4.69-1.5s-3,.62-2.07,1.34a13,13,0,0,0,1.6,1.08c-.76.76-1.3,1.46.25,2.74a2,2,0,0,0,.67,2.24,19.6,19.6,0,0,0,5.18,3.2c1,.38,6.27,0,6.71-.2,1.87-1,3.79-1.85,4.59-2.19,1.38-.58,3.88-1.87,5.49-2.4s14-4,20.06-8c2.26-1.63,5.4-5.3,3.3-7.79-3.41-2.62-9-4.24-13.05-1.55S278,231.22,276,232.17a15.21,15.21,0,0,1-5.73.9,36.89,36.89,0,0,0-5.52.4Z"/><path class="cls-9" d="M256.35,237.6c.75.42,1.47.87,2.19,1.32.36.22.72.46,1.07.69a.88.88,0,0,0,.5.21l.62.07c1.68.11,3.39.11,5.1.25-.85.08-1.71.13-2.56.15a24.48,24.48,0,0,1-2.57,0c-.22,0-.43,0-.65-.08a1.21,1.21,0,0,1-.37-.1,1.46,1.46,0,0,1-.29-.19c-.34-.25-.69-.48-1-.74C257.68,238.65,257,238.14,256.35,237.6Z"/><path class="cls-9" d="M256.6,240.34c.71.47,1.42.94,2.14,1.38l1.09.63.55.3a1.92,1.92,0,0,0,.57.12c.82.11,1.68.13,2.53.17s1.7.06,2.56.16a29.51,29.51,0,0,1-5.15,0,2.5,2.5,0,0,1-.67-.16l-.57-.32c-.36-.23-.73-.45-1.07-.71A16.18,16.18,0,0,1,256.6,240.34Z"/><path class="cls-9" d="M258.65,243.67c.58.23,1.15.47,1.73.67a8.35,8.35,0,0,0,1.76.42,12.24,12.24,0,0,0,1.82,0,11.67,11.67,0,0,1,1.87.12l-1.85.2a8,8,0,0,1-1.89,0A8.13,8.13,0,0,1,258.65,243.67Z"/><path class="cls-5" d="M287.32,189.27c2.95.19,4.48.37,7.32,2.33s3.62,6,4.09,8.5,2.32,9.83,2.83,12.61c-2.18,4.32-8.08,5.23-14.08,4.55-1.35-4.82-3.21-11.88-3.39-15.88S284.42,192.86,287.32,189.27Z"/><path class="cls-4" d="M237.93,233.83c-.85-1.11-.77-1.26-.34-1.85a3.69,3.69,0,0,1,2.94-1.54,7.75,7.75,0,0,1,2.57.24c.53.25.1,1.34-1.22,1.65-2.07.5-2,1-2,1s1.91-.45,2.68-.51a20.71,20.71,0,0,1,3.07.4c.88.12,1.08,1.23-.41,1.64l1.62.22c1.13.16,1.52.74.65,1.44a1.65,1.65,0,0,1-1,.39s1.21,0,1.24.37c.09,1.12-.65,1.43-3.06,2.16a6.77,6.77,0,0,0-1.52.63,5.92,5.92,0,0,1-1.48.76,1.86,1.86,0,0,1-1.35-.12,1.18,1.18,0,0,1-.6-1.36s-1.33,0-1.42-.75a4,4,0,0,1,.29-1.72,1.41,1.41,0,0,1-.75-1.32,2.29,2.29,0,0,1,.45-1.42Z"/><path class="cls-9" d="M245.17,234.91a7.77,7.77,0,0,0-1.46-.13,4.67,4.67,0,0,0-1.41.46,18.19,18.19,0,0,0-2.53,1.38,15.88,15.88,0,0,0,2.7-1,8.4,8.4,0,0,1,1.28-.52C244.19,235,244.7,235,245.17,234.91Z"/><path class="cls-9" d="M246.42,237a3.37,3.37,0,0,0-1.58,0,8.52,8.52,0,0,0-1.5.5,14.73,14.73,0,0,0-2.73,1.49c1-.31,1.95-.71,2.9-1.11A8.5,8.5,0,0,1,246.42,237Z"/></g><g id="Character"><path d="M150.2,225.12l-1,1.39a8.33,8.33,0,0,0,3.55,5.68,11.12,11.12,0,0,0,6.75,1.88l2.21-3.9-11.4-5.23"/><path class="cls-11" d="M167.63,206.42c-4.8.39-7.21,1-10,4.94s-4.92,8.65-5.95,10.13-2.5,2.33-1.48,3.63,2.23,5.38,7.43,6.69,5.58-1,6-2.51,4-9.16,4-9.16Z"/><path class="cls-12" d="M167.63,206.42c-4.8.39-7.21,1-10,4.94s-4.92,8.65-5.95,10.13-2.5,2.33-1.48,3.63,2.23,5.38,7.43,6.69,5.58-1,6-2.51,4-9.16,4-9.16Z"/><circle class="cls-11" cx="152.98" cy="242.23" r="16.18"/><circle class="cls-17" cx="152.98" cy="242.23" r="16.18"/><path class="cls-7" d="M137.07,243.9a5.27,5.27,0,0,1,2.52-2.37,2.84,2.84,0,0,1,.95-.2,21.65,21.65,0,0,1,1.44-4.5c-.28-.29-.56-.58-.83-.88-.64-.73-1.31-1.49-1.89-2.29.12-.19.24-.38.37-.57.56.7,1.09,1.41,1.68,2.08.31.36.63.7,1,1,.17-.33.35-.67.54-1a18.49,18.49,0,0,1,2.63-3.4,4.78,4.78,0,0,1-1-3.36c.25-.15.5-.3.76-.44a4.39,4.39,0,0,0,.67,3.33,22.55,22.55,0,0,1,2.68-2.2,24.49,24.49,0,0,1,6-3c.41,0,.82.1,1.22.17a24.19,24.19,0,0,0-9.45,5.53,2.63,2.63,0,0,0,.85.49c1.27.44,2.79.08,4.09-.07s2.86-.34,4.29-.48a36.31,36.31,0,0,1,8.4,0c.5.07,1,.16,1.55.27l.51.67a17.18,17.18,0,0,0-2.36-.43,41,41,0,0,0-8.79.16c-1.46.15-2.91.34-4.36.5a7.4,7.4,0,0,1-3.91-.18,3.57,3.57,0,0,1-.72-.47,20.15,20.15,0,0,0-1.81,2.2,16.7,16.7,0,0,0-1.3,2.28c.34.35.69.7,1,1a38.8,38.8,0,0,0,19.31,9.83,36.33,36.33,0,0,0,4.87.57c-.09.22-.18.44-.28.66-1.23-.08-2.46-.22-3.66-.41a39.53,39.53,0,0,1-20-9.51c-.55-.49-1.08-1-1.6-1.53a22.17,22.17,0,0,0-1.24,4c1.62.4,2.74,2.29,3.52,3.72,2.58,4.72,4.79,10.31,9.69,13.13l.12.07q-.53,0-1,.06a16.25,16.25,0,0,1-3.58-3.24,39,39,0,0,1-4.32-7c-.65-1.27-1.3-2.55-2-3.78a5,5,0,0,0-2.41-2.4h-.06c-.09.42-.16.85-.23,1.28a24.48,24.48,0,0,0,.13,9.61c0,.16.1.31.15.47a14.64,14.64,0,0,1-1-1.21,24.15,24.15,0,0,1-.16-7.59c.11-.88.24-1.77.41-2.65a3.76,3.76,0,0,0-2.59,1.81,10.6,10.6,0,0,0-.79,1.35c-.05-.27-.09-.55-.12-.83Z"/><path class="cls-18" d="M136.7,246.28c-1-1-.91-1.16-.56-1.8a3.6,3.6,0,0,1,2.66-1.88,7.39,7.39,0,0,1,2.53-.08c.54.19.26,1.32-1,1.79-2,.74-1.86,1.29-1.86,1.29a26.08,26.08,0,0,1,2.54-.83,18.15,18.15,0,0,1,3,0c.87,0,1.2,1.09-.19,1.67l1.59,0c1.12,0,1.58.55.82,1.34a1.68,1.68,0,0,1-.94.52s1.16-.17,1.24.21c.23,1.11-.45,1.5-2.71,2.52-1.92.87-2.45,1.77-2.12,2.55l.25.47s-1-.4-1.87-.84c-.64-.33-1.21-.71-1.07-1.67,0,0-1.28.21-1.48-.58a4.12,4.12,0,0,1,.07-1.74,1.43,1.43,0,0,1-.89-1.22,2.33,2.33,0,0,1,.26-1.46Z"/><path class="cls-19" d="M143.87,246.47a7.74,7.74,0,0,0-1.44.05,4.61,4.61,0,0,0-1.32.63,17.6,17.6,0,0,0-2.28,1.68,17.52,17.52,0,0,0,2.5-1.32,7.58,7.58,0,0,1,1.18-.68C142.93,246.7,143.42,246.62,143.87,246.47Z"/><path class="cls-19" d="M145.34,248.36a3.12,3.12,0,0,0-1.54.17,8.21,8.21,0,0,0-1.4.67,15.06,15.06,0,0,0-2.47,1.81,27.54,27.54,0,0,0,2.68-1.45A7.94,7.94,0,0,1,145.34,248.36Z"/><g id="Bottom"><path class="cls-18" d="M150.57,354.84a30.55,30.55,0,0,0,6.54-5.72c1-1.22,2.35-2.87,2.71-4.4a17.91,17.91,0,0,0,.14-6.11c-1.61-14.22-3.49-28-4.28-35.9-.24-2.37-.39-14.34,0-26.08a152.36,152.36,0,0,1,3.88-28.86c1.36,6.9,12.61,6.56,27.36-.78a20.55,20.55,0,0,1,7.78-2.31c2.72,4.28,4.52,7.66,5.09,13.19a151.46,151.46,0,0,1,.67,17.5c-.32,18.25-.24,19.67-.12,23.37a70,70,0,0,0,.88,10.17c.43,3,1.73,5.94,2.17,15.23.26,5.53-.09,11.44.77,20,.27,2,.78,2.69,1.1,4.64A46.4,46.4,0,0,0,208,358.81a15.87,15.87,0,0,1,1.28,2.94,17.29,17.29,0,0,1,.51,3.5,6.87,6.87,0,0,1-1.11,4.08,8,8,0,0,1-1.42,1.48,10.39,10.39,0,0,1-4.39,2.36,5.93,5.93,0,0,1-3.1-.16,3.29,3.29,0,0,1-2.19-2.22,21.37,21.37,0,0,1-1.62-6c-.1-1.58-.16-5.49-.53-8a87,87,0,0,0-3.22-14.11c-2.94-9.68-5.35-15.72-7.72-23.53a318.58,318.58,0,0,1-7.74-33l-3.44,19.36a35.07,35.07,0,0,1,1.31,12.11c-.48,5.69-2.44,14.67-3,22-.24,2.93.68,5.55,1.16,8.43.27,1.61.4,3-.79,4.21a10.43,10.43,0,0,1-4.32,2.74,10.54,10.54,0,0,0-3.49,1.8,27.62,27.62,0,0,0-2.72,2.69,11.84,11.84,0,0,1-13.69,2,3,3,0,0,1-1.78-1.89,2.29,2.29,0,0,1,.58-1.86,6.85,6.85,0,0,1,1.57-1.26C148.92,356,149.75,355.4,150.57,354.84Z"/><path class="cls-19" d="M176.74,286.14l-2.58-19.48s-9-3.73-11-7.77c0,0,.16,4.48,8.4,9.5L175,286.18l-1.69,19.31Z"/><path class="cls-7" d="M159.55,247.77a23.11,23.11,0,0,0-.58,2.92c.75,6,6.63,13.93,15.19,16,.08-6.82,6-15.81,13.32-18a9.85,9.85,0,0,1,11.15,3.75c-.58-2.38-3.24-6.76-3.94-7.7,0,0-5.17-.14-12.93,3.77-5,2.51-12.31,3.51-16.77,2.66S159.55,247.77,159.55,247.77Z"/></g><path class="cls-7" d="M195.77,244.44c2,4.09,5.37,7.06,5.22,18.1S201,293,201,293s-3.51,4.46-11.73,5.42S178.52,297,178.52,297l-1.42-8.26-1.2,6.91a30.9,30.9,0,0,1-10.4,1.1c-5.93-.36-8.66-2.43-10.57-4.92a331.07,331.07,0,0,1,1.8-33.15c.82-6.26,2.24-12.3,2.24-12.3Z"/><path class="cls-5" d="M174.13,296.08l1.2-7.68-3.16-18.33c-3.38-1.69-8.59-3.66-9.72-9.19,3.1,5.17,11.37,6.84,11.37,6.84s2.29,15.73,3.28,21l-1.2,6.91S175.25,295.84,174.13,296.08Z"/><g id="Top"><path class="cls-11" d="M162.64,236.47c0,3-5.56,8.05-3.67,10.79h0c.24.49,2.13,2.74,6,3.85,7.34,2.09,15.79,2,22.5-.59,8-3.12,8.28-6.08,8.28-6.08,1.32-1.16-1.56-3.59-2.59-5.07a6.54,6.54,0,0,1-1.35-3.83c0-4.43,2.6-7.43,4.79-14.42s-.41-14.16-.41-14.16-4-1-7.46-2.22-13.46-1.68-13.46-1.68c0,1.33-.61,1.65-2,1.95-1.61.34-5.61,1.41-5.61,1.41s-8.59,10-9.6,15S161.2,230,161.2,230a10.25,10.25,0,0,0,.25,2.48C161.75,233.69,162.54,235.58,162.64,236.47Z"/><path class="cls-12" d="M170.63,218.09a24.5,24.5,0,0,1,1.84-4.08s.07,0,.05.07a37.29,37.29,0,0,0-1.65,4c-.48,1.38-.76,2.81-1.17,4.21,0,.09-.1.05-.09,0A16.61,16.61,0,0,1,170.63,218.09Z"/><g id="Head-2" data-name="Head"><path class="cls-6" d="M199,171c.6.48,1.4.77,2,1.25a3.63,3.63,0,0,1,1,4.43,5.74,5.74,0,0,0-.74,1.46c-.19,1.05.7,2,1.06,3a3.16,3.16,0,0,1-1.26,3.64,8.18,8.18,0,0,0-1.24.75c-.76.71-.37,1.73-.77,2.59a2.43,2.43,0,0,1-2.38,1.17,1.93,1.93,0,0,0-.16-2.22c.41.48-.64,1.63-1,1.85-.71.48-1.6.07-2.2.58-.21.18-.35.43-.56.61-.83.76-2.28,0-2.65-1-.29-.86-.18-1.92-.86-2.51a4.08,4.08,0,0,0-.9-.48,4,4,0,0,1-2.24-3.64c0-.67.16-1.43-.3-1.92-.23-.24-.57-.35-.8-.59-.73-.75,0-2.24-.8-2.95-.41-.38-.77-.16-1.21-.28a1.73,1.73,0,0,1-.88-.85,2.9,2.9,0,0,1-.2-2.61c.24-.56.65-1,.91-1.57.49-1.05.39-2.33,1-3.32a3.22,3.22,0,0,1,2.1-1.36,7.52,7.52,0,0,1,3.17.3c1.11.21,2.23-.46,3.26-.78a5.34,5.34,0,0,1,3.19-.07,3.57,3.57,0,0,1,2.3,2.12,10.11,10.11,0,0,0,.56,1.82A2.3,2.3,0,0,0,199,171Z"/><path class="cls-11" d="M192.14,174.83a7.6,7.6,0,0,1,2.37,4.13,2.14,2.14,0,0,1,0,1.28,1.59,1.59,0,0,1-1.68.8,3.12,3.12,0,0,1-1.7-1,6.54,6.54,0,0,1-1.84-3.78c-.08-.66,0-1.69.67-2.07S191.6,174.35,192.14,174.83Z"/><path class="cls-6" d="M186.82,199.12c.08-2.65,3.9-6.86,6.2-11.83,1.09-2.36,2.56-8-1.49-10.06a7.52,7.52,0,0,0-4.41-5.25,14.73,14.73,0,0,0-3.61-1.2,23.27,23.27,0,0,1-3.82-.76,2.7,2.7,0,0,0-2.12.11,5,5,0,0,1-.9.44,3.5,3.5,0,0,1-1.4-.06,1.49,1.49,0,0,0-1.32.31c-.15.16-.24.37-.39.52a2.39,2.39,0,0,1-1.2.37,2.22,2.22,0,0,0-1.34.92,6.85,6.85,0,0,1-.49.78c-.53.6-1.52.67-1.94,1.35-.3.46-.22,1.08-.43,1.59s-.53.75-.72,1.17a3.22,3.22,0,0,0-.23,1,5.68,5.68,0,0,0,.29,3.3c.32.61.39,1.3.68,1.93,1,2,3.32,3.35,5.06,4.71l5.95,4.67Z"/><path class="cls-18" d="M192.15,189.05a2.62,2.62,0,0,0-4.49.12c-1,1.54-2.58,1-1.79-1.41-1.06-.54-2.76-1-1.63-5.39a5.06,5.06,0,0,0-1.23-4.12c-1.72-1.64-5.77-1.67-7.79.23-1.11-1.87-3.66-2.12-5.75-.59-1,.73-2.24,2-2.13,6,.09,1.19-.34,2.64-.42,4.86-.29,8.4,2,10.23,4.21,11.3a8.42,8.42,0,0,0,4.23.81l-.07,2.44a1.64,1.64,0,0,1-1.27,1.55h0a37.35,37.35,0,0,0-1.31,8.57c11.25-5.06,16-8.75,16-8.77s-2-.74-1.85-3.7c.12-2.55.17-5.51.17-5.51a2.68,2.68,0,0,0,2.86.09C192.23,194.26,193.59,190.87,192.15,189.05Z"/><polygon class="cls-19" points="175.26 183.98 174.47 190.87 170.79 189.55 175.26 183.98"/><path class="cls-19" d="M175.36,200.82c2.71,0,8.51-1.33,10-4.85,0,0-.3,2.54-3.67,4.4a17.32,17.32,0,0,1-6.4,1.66Z"/><path class="cls-6" d="M177.89,186a1.19,1.19,0,1,0,1.12-1.26A1.19,1.19,0,0,0,177.89,186Z"/><path class="cls-6" d="M169.18,185.72a1.19,1.19,0,1,0,.94-1.4A1.19,1.19,0,0,0,169.18,185.72Z"/><path class="cls-6" d="M169.65,181.5a1.71,1.71,0,0,1,2,1.33l-3.34.69A1.71,1.71,0,0,1,169.65,181.5Z"/><path class="cls-6" d="M180.6,181.63a1.7,1.7,0,0,1,.82,2.27l-3.09-1.45A1.71,1.71,0,0,1,180.6,181.63Z"/><path class="cls-19" d="M174,193.5c.47-.05,1.51-.29,1.44-.72a3,3,0,0,1,.07-1.39c0-.1.11,0,.1.09a3,3,0,0,0,2.67,3s0,.05,0,.06a2.51,2.51,0,0,1-1.89-.51c-.28-.23-.45-.47-.86-.43-.84.11-2.11.42-2.69-.31A2.53,2.53,0,0,0,174,193.5Z"/><path class="cls-7" d="M169.18,196.7a3,3,0,0,1,1.3-2.4,1,1,0,0,1,1-.12h0l1.41.76L171,198.32l-1.38-.75h0A.93.93,0,0,1,169.18,196.7Z"/><path class="cls-5" d="M171.86,195.05a3,3,0,0,0-1.29,2.4c0,.87.64,1.2,1.38.75a3,3,0,0,0,1.3-2.4C173.22,194.93,172.61,194.6,171.86,195.05Z"/><path class="cls-5" d="M174.55,193.41v.45a.66.66,0,0,1-.28.51l-2.39,1.47,0-.79Z"/><polygon class="cls-7" points="173.16 192.66 174.55 193.41 171.87 195.05 170.48 194.3 173.16 192.66"/><path class="cls-13" d="M168.7,196.72l-.52,0-1.13,0c-.41,0-.82,0-1.13,0l-.2,0a.44.44,0,0,0-.17,0,.35.35,0,0,0-.13.14v.08a.34.34,0,0,0,.15.12.42.42,0,0,0,.16,0h.21c.31,0,.72-.07,1.13-.12l1.12-.13.51-.07Z"/><path class="cls-13" d="M169.31,198l-.42.3L168,199c-.33.24-.67.48-.9.68l-.16.14s-.09.08-.11.12a.27.27,0,0,0,0,.19l.05.06a.35.35,0,0,0,.2,0s.08-.06.13-.09l.16-.14c.23-.2.52-.49.81-.78l.81-.79.36-.37Z"/><path class="cls-13" d="M170.34,198.87l-.16.49c-.1.29-.23.68-.35,1.07s-.27.78-.34,1.08l-.05.21a.47.47,0,0,0,0,.16.34.34,0,0,0,.09.17l.08,0a.31.31,0,0,0,.16-.11.52.52,0,0,0,.06-.15l.05-.21c.08-.29.14-.7.21-1.11s.15-.8.2-1.11l.08-.51Z"/><g class="cls-20"><path d="M168.7,196.72l-.52,0-1.13,0c-.41,0-.82,0-1.13,0l-.2,0a.44.44,0,0,0-.17,0,.35.35,0,0,0-.13.14v.08a.34.34,0,0,0,.15.12.42.42,0,0,0,.16,0h.21c.31,0,.72-.07,1.13-.12l1.12-.13.51-.07Z"/><path d="M169.31,198l-.42.3L168,199c-.33.24-.67.48-.9.68l-.16.14s-.09.08-.11.12a.27.27,0,0,0,0,.19l.05.06a.35.35,0,0,0,.2,0s.08-.06.13-.09l.16-.14c.23-.2.52-.49.81-.78l.81-.79.36-.37Z"/><path d="M170.34,198.87l-.16.49c-.1.29-.23.68-.35,1.07s-.27.78-.34,1.08l-.05.21a.47.47,0,0,0,0,.16.34.34,0,0,0,.09.17l.08,0a.31.31,0,0,0,.16-.11.52.52,0,0,0,.06-.15l.05-.21c.08-.29.14-.7.21-1.11s.15-.8.2-1.11l.08-.51Z"/></g><polygon class="cls-5" points="171.13 194.1 172.07 194.61 171.62 194.89 170.68 194.38 171.13 194.1"/><polygon class="cls-6" points="172.07 194.61 171.13 194.1 171.14 194.27 171.93 194.7 172.07 194.61"/><polygon points="171.14 194.27 170.83 194.46 170.68 194.38 171.13 194.1 171.14 194.27"/></g><g id="Arm"><path class="cls-19" d="M202.29,262.47c.76-.84,1.75-1.57,2.06-2.71a1.91,1.91,0,0,0-.27-1.72,1.11,1.11,0,0,1-.21-.32.81.81,0,0,1,0-.31,2.18,2.18,0,0,0-.08-1.29,1.38,1.38,0,0,0-.83-.7,3.07,3.07,0,0,0,0-1.94c-.26-.74-1-1.33-1.52-.5a7.48,7.48,0,0,0-.58,1.29,15.06,15.06,0,0,0-.74,3.45c-.12,1.22-.41,4.68,1.48,4.85C201.76,262.58,202.18,262.59,202.29,262.47Z"/><path class="cls-18" d="M196.34,207.61c5,0,7.15,3.69,10.68,8.91,4.09,6,9.13,13.55,10.49,16.46,1.67,3.6,2,5-1.83,8.83-2,2-4.76,4.33-7.58,7-2.22,2.1-4.9,4.33-7.06,6.51a2,2,0,0,0-.67,2,5.21,5.21,0,0,1,.23,3.39,1.69,1.69,0,0,0,.76,1.67,2,2,0,0,0,.93.11,7,7,0,0,1-1.78,1,2.68,2.68,0,0,1-2-.07c-.59-.28-1-.85-1.67-1-.34-.11-.71-.09-1-.18a1.66,1.66,0,0,1-.9-.59c-.36-.45-.51-1.1-1-1.38-.24-.13-.53-.15-.79-.26a1.78,1.78,0,0,1-1-1.3,5.05,5.05,0,0,1,0-1.69,45.41,45.41,0,0,1,.92-4.47,4.86,4.86,0,0,1,.72-1.37c.35-.49.67-1,1-1.47,2.51-3.19,10.45-13.84,10.45-13.84L194,223.52S191.62,218,196.34,207.61Z"/><path class="cls-19" d="M202.29,262.47c-1.27,1-3.14,1.64-4.43.37a2.91,2.91,0,0,0-1.1-.62c-.82-.1-1.62-.23-2-1.05a2.76,2.76,0,0,0-.75-1c-.4-.26-.84-.22-1.12-.46a1.72,1.72,0,0,1-.61-.94c-.27-1.91.49-4.08.88-6a10.59,10.59,0,0,1,1.84-3.09l1.48-2c2.86-3.81,6-8.05,8.79-11.89-2.94,3.72-6.14,7.91-9,11.71l-1.49,2a10.71,10.71,0,0,0-1.91,3.21c-.3,1.2-.55,2.42-.75,3.64a6.16,6.16,0,0,0-.09,2.5,2,2,0,0,0,.73,1.08c.38.29.86.25,1.14.45a2.61,2.61,0,0,1,.69.94,2,2,0,0,0,.92.88,5.68,5.68,0,0,0,1.23.24c.79.18,1.32,1,2.13,1.16a4.19,4.19,0,0,0,3.44-1.09Z"/><path class="cls-19" d="M205.28,235.79c2.21,2.17,5.65,2.35,6.92,2.27a7.26,7.26,0,0,1-7.64-1.31Z"/></g><path d="M211.41,222.85a26.08,26.08,0,0,1,2.1,3,13.94,13.94,0,0,1-3.95,5.76,12.22,12.22,0,0,1-5.95,2.81l-2.15-2.62Z"/><path class="cls-11" d="M196.21,207c3.89.59,5.78,1.46,8,4.72s4.88,7.32,6.24,8.48a3.29,3.29,0,0,1,1.29,3.43c-.82,3.14-5,8.17-9.47,8.95-1.85.5-2-.66-3.7-2.76s-3.31-3.79-4.86-5.62S191.71,211.58,196.21,207Z"/><path class="cls-12" d="M196.21,207c3.89.59,5.78,1.46,8,4.72s4.88,7.32,6.24,8.48a3.29,3.29,0,0,1,1.29,3.43c-.82,3.14-5,8.17-9.47,8.95-1.85.5-2-.66-3.7-2.76s-3.31-3.79-4.86-5.62S191.71,211.58,196.21,207Z"/><path class="cls-11" d="M172.71,213.54a6.34,6.34,0,0,1,7.33.83,9.23,9.23,0,0,1,2.77,3.33s5-3.43,6.57-6.38a15.29,15.29,0,0,0,1.77-5.82,9,9,0,0,1-2.44-1.72c-1.21-1.18-1.11-2.45-1.8-2.32a7.63,7.63,0,0,1-.41,2.17,19.56,19.56,0,0,1-5.29,5.59C178.72,210.72,173.88,212,172.71,213.54Z"/><path class="cls-12" d="M172.71,213.54a6.34,6.34,0,0,1,7.33.83,9.23,9.23,0,0,1,2.77,3.33s5-3.43,6.57-6.38a15.29,15.29,0,0,0,1.77-5.82,9,9,0,0,1-2.44-1.72c-1.21-1.18-1.11-2.45-1.8-2.32a7.63,7.63,0,0,1-.41,2.17,19.56,19.56,0,0,1-5.29,5.59C178.72,210.72,173.88,212,172.71,213.54Z"/><path class="cls-11" d="M172.71,213.54a45.16,45.16,0,0,1,1.11-6.36,9.88,9.88,0,0,1,1.34-3.32,4.68,4.68,0,0,0,.17-1.43.82.82,0,0,0-.65.48,7.74,7.74,0,0,1-4.2,2.61c-1.65,2.33-3.2,4-4.4,6.88a5.09,5.09,0,0,1,4.23-1A4.08,4.08,0,0,1,172.71,213.54Z"/><path class="cls-12" d="M172.71,213.54a45.16,45.16,0,0,1,1.11-6.36,9.88,9.88,0,0,1,1.34-3.32,4.68,4.68,0,0,0,.17-1.43.82.82,0,0,0-.65.48,7.74,7.74,0,0,1-4.2,2.61c-1.65,2.33-3.2,4-4.4,6.88a5.09,5.09,0,0,1,4.23-1A4.08,4.08,0,0,1,172.71,213.54Z"/></g><path class="cls-6" d="M144.74,360.13a2.29,2.29,0,0,0,.73,2.39,12.48,12.48,0,0,0,9,1.8c4.24-.73,6.49-2.14,8.13-3.62,1.08-1,2.2-1.83,3.35-2.7a8.09,8.09,0,0,1,1.69-1.14,13.81,13.81,0,0,1,1.91-.64,8,8,0,0,0,3.89-1.84c.78-.82.61-2.67.6-3.75Z"/><path class="cls-7" d="M172.66,342a6.24,6.24,0,0,0,0,2.24,10.83,10.83,0,0,0,.51,1.38,12.16,12.16,0,0,1,.89,4.17,2.55,2.55,0,0,1-.08.87,2.14,2.14,0,0,1-.5.76,9.87,9.87,0,0,1-4.06,2.2,12.73,12.73,0,0,0-3.06,1.54c-2.38,1.73-3.78,4.52-6.39,6a15.27,15.27,0,0,1-6.64,2.19c-3.29.12-7-.76-8-2.22-1.13-1.81-2-3.94,2.77-6.38.91-.46,4.06-2.5,5.13-3.23a22.85,22.85,0,0,0,3.23-2.56,8,8,0,0,0,2-3.1,13.42,13.42,0,0,0,.23-4,3.33,3.33,0,0,1,.12-1c.34-1.09,1.94-1.09,2.9-1.12a9.26,9.26,0,0,1,3.65.58,2.71,2.71,0,0,1,1.05.61c.63.66.58,1.7.85,2.57.08.24.33.51.52.35a.44.44,0,0,0,.1-.16c.33-.89.13-2,.76-2.72s2.27-.9,2.88-1.68l.12-1.1a1.52,1.52,0,0,1,.92.66,2.14,2.14,0,0,1,.24,1.12A16.31,16.31,0,0,1,172.66,342Z"/><path class="cls-5" d="M162.2,359.6a10.76,10.76,0,0,0,1.91-2.31h0s-4.91,3.93-7.3,2.47a2,2,0,0,1-.87-2.58c0-.39-5.38-2.9-6.84-3h0a8.49,8.49,0,0,1-.93.54c-3.73,1.67-4.15,3.63-3.41,6,.92,1.46,4.3,2.86,8.54,2.67A17.64,17.64,0,0,0,162.2,359.6Z"/><path class="cls-6" d="M155.68,357.49a.34.34,0,0,0,.19-.07.3.3,0,0,0,0-.42c-.9-1-5.07-3.26-7.29-2.92a.3.3,0,0,0-.25.34.29.29,0,0,0,.34.25c2.07-.32,6,1.94,6.75,2.72A.29.29,0,0,0,155.68,357.49Z"/><path class="cls-6" d="M159,355.33a.31.31,0,0,0,.18-.07.29.29,0,0,0,0-.42c-.91-1-5.07-3.26-7.29-2.92a.31.31,0,0,0-.26.34.31.31,0,0,0,.35.25c2.07-.31,6,1.94,6.75,2.72A.28.28,0,0,0,159,355.33Z"/><path class="cls-6" d="M162.1,353.09a.33.33,0,0,0,.18-.08.29.29,0,0,0,0-.42c-.91-1-5.08-3.26-7.3-2.91a.29.29,0,1,0,.1.58c2.07-.31,6,1.94,6.75,2.73A.31.31,0,0,0,162.1,353.09Z"/><path class="cls-6" d="M164.43,350.71a.28.28,0,0,0,.19-.07.3.3,0,0,0,0-.42c-.9-1-5.08-3.26-7.29-2.92a.29.29,0,0,0-.25.34.3.3,0,0,0,.34.25c2.07-.31,6,1.94,6.75,2.73A.3.3,0,0,0,164.43,350.71Z"/><path class="cls-6" d="M166,348a.36.36,0,0,0,.19-.08.3.3,0,0,0,0-.41c-1.25-1.41-5.59-3.27-7.81-2.93a.3.3,0,0,0,.09.59c2-.31,6.16,1.48,7.26,2.72A.29.29,0,0,0,166,348Z"/><path class="cls-6" d="M196,367.92c.52,3,1.28,4.9,2.72,6.46s3.85,1.71,6.18.79,5.24-2.83,5.65-5.55a14.4,14.4,0,0,0-.76-7.2Z"/><path class="cls-7" d="M204.15,344.1c1-.1.85,2.28,1.54,6.31.75,4.36,3,7.69,3.9,11.17,1.06,4,1,5.84-.4,8.58s-7,6.17-10.32,3.13c-2.67-2.48-3.11-5.66-3.32-9.77a90.35,90.35,0,0,0-.88-10.4c-.52-3-2.18-6.15-1.36-6.64.11.44,1.31,3.87,1.86,3.79a4.93,4.93,0,0,0-.11-1.15,1.26,1.26,0,0,1,.17-1,4.69,4.69,0,0,1,1.55-.87c.95-.33,2.66-.76,3.63-1,.49-.12,1-.23,1.47-.31a4.46,4.46,0,0,1,1.26-.05.75.75,0,0,1,.57.32,1.2,1.2,0,0,1,.11.46,2.55,2.55,0,0,0,.21.81c.05.12.16.25.3.19a.25.25,0,0,0,.13-.27C204.41,346.88,204.2,344.36,204.15,344.1Z"/><path class="cls-5" d="M209.25,360.45c.16.58,1.15,4.37,0,5.29s-2.32-2-2.32-2-3.22-.29-7.6,2.2c.3.59-.19,2.79-1.49,2.57s-2.25-4.61-2.26-4.67c.22,3.94.71,7,3.3,9.41,3.28,3,8.91-.38,10.32-3.13s1.46-4.61.4-8.58C209.49,361.18,209.37,360.81,209.25,360.45Z"/><path class="cls-6" d="M199.23,366.11l.13-.05a14,14,0,0,1,7.5-2,.4.4,0,0,0,.42-.3.29.29,0,0,0-.3-.33,14.5,14.5,0,0,0-8,2.09.3.3,0,0,0-.1.45A.35.35,0,0,0,199.23,366.11Z"/><path class="cls-6" d="M198.07,363.05a.31.31,0,0,0,.12-.05,17.34,17.34,0,0,1,8.4-2.18.41.41,0,0,0,.41-.31.29.29,0,0,0-.31-.33,17.78,17.78,0,0,0-8.87,2.31.31.31,0,0,0-.13.45A.35.35,0,0,0,198.07,363.05Z"/><path class="cls-6" d="M206,357.82a.4.4,0,0,0,.28-.27.28.28,0,0,0-.27-.35,14.85,14.85,0,0,0-8.86,2.24.3.3,0,0,0-.11.44.38.38,0,0,0,.5.05s4.08-2.6,8.3-2.1Z"/><path class="cls-6" d="M205.47,355a.39.39,0,0,0,.29-.25.3.3,0,0,0-.27-.37,13.51,13.51,0,0,0-9.05,2.25.3.3,0,0,0-.07.45.39.39,0,0,0,.51,0,12.84,12.84,0,0,1,8.43-2.09A.29.29,0,0,0,205.47,355Z"/><path class="cls-6" d="M204.83,351.82a.38.38,0,0,0,.28-.25.29.29,0,0,0-.25-.37c-4.7-.69-8.93,2.22-9.11,2.35a.3.3,0,0,0-.08.45.39.39,0,0,0,.51,0s4.12-2.84,8.48-2.2A.32.32,0,0,0,204.83,351.82Z"/></g><g id="Character-2" data-name="Character"><g id="Bottom-2" data-name="Bottom"><path class="cls-4" d="M108.45,253c-.72-15-2.15-24.93-4.71-28.62-3.56,5.69-12.19,16.8-12.19,16.8L85.3,255.24s2.13,13.39,3.79,18.58a41.4,41.4,0,0,0-9,14.85C78.35,293.12,77,300.5,75.39,307c-1.15,4.71-1.72,5.22-2.61,5.88-.52.38-1.15.8-1.15.8s-4.31,1.73-4.09,4.39c.15,1.92,1.53,4.18-.06,7.87-1.89,4.38-2.7,5.57-.78,8.68,1.65,2.68,5.25,5.5,9,5.74A1.65,1.65,0,0,0,77,338.77c0-1.77-.76-2.44-1.27-4.32s0-5.06.38-7.19a22.76,22.76,0,0,1,3-6.66c1.15-1.89,2.54-4.12,4.49-6.89,2.37-3.35,19.73-28.3,22.55-33.55S109.21,268.65,108.45,253Z"/><path class="cls-6" d="M84.54,254.75l3.92,18.5a39.55,39.55,0,0,0-6.94,10.19c-2.74,5.95-5.69,20-5.69,20A10.66,10.66,0,0,0,80.09,309a16.07,16.07,0,0,0,5.39,2.58s15.67-22.72,19.13-28.09,4.33-10,4.55-15.42-.69-39.84-5.83-43.66S84.54,254.75,84.54,254.75Z"/><path class="cls-4" d="M98.62,340.9a17.55,17.55,0,0,1-2.82-6.45c-.82-3.86-.62-7.85-.5-11.77.15-5,.88-14.63,1.24-22.47.9-19.48,1.55-21.7.86-30.08S95.14,249,95.14,249s3.9-1.71,7-8.94c1.54-3.6,3.89-10.26,2-15.54,0,0-2.28,3.49-12.5,3.05-8.44-.22-13.41-3.5-13.41-3.5-.62,2.39-4,6-7.33,11.61-1.3,2.17-3.23,5.87-2.27,13.25.67,5.18,1.53,7.93,4,16.14,2.62,8.54,7.06,22.79,7.06,22.79-1.13,6.64-2,8.46.28,20.42a93.74,93.74,0,0,0,3.47,11.45,31.56,31.56,0,0,1,1.66,6.63,7.34,7.34,0,0,1-.09,3.2c-.64,1.61-2.42,3-2.22,4.91s2.5,3.69,3.67,5.13c2.47,3,3.68,7.09,6.77,9.48A12.29,12.29,0,0,0,101,351.3a5.92,5.92,0,0,0,3-.73c.63-.37,1.41-.61,1.78-1.29a1.94,1.94,0,0,0-.07-1.92,4,4,0,0,0-1.32-1.11,25.47,25.47,0,0,1-2.69-1.94A17.77,17.77,0,0,1,98.62,340.9Z"/><path class="cls-5" d="M105.71,229.05a11.57,11.57,0,0,0-1.63-4.55s.3,7-6.82,7.33c-6.34.34-15.49-5-20.1-5.86A73.91,73.91,0,0,0,69.89,237c-2.39,4.86-2.26,11.43-.41,18.2s9.67,32.47,9.67,32.47a41.77,41.77,0,0,0,0,18.8,100.75,100.75,0,0,0,4.57,14.13A14.68,14.68,0,0,0,90,322a8.37,8.37,0,0,0,5.45-2.06s2.28-29.17,2.63-38.67-2.19-32.65-2.19-32.65S105.71,245,105.71,229.05Z"/><path class="cls-6" d="M84.05,302.87c0-3.2,0-6.4-.08-9.6a52.36,52.36,0,0,0-.43-9.37c-.57-3-1.85-5.81-2.77-8.69s-1.74-6-2.42-9-1.25-6.06-1.74-9.11c-.47-2.88-.82-5.78-1.28-8.66a16.65,16.65,0,0,0-2.52-7.25,10,10,0,0,0-3.44-2.94l-.15.42a10.42,10.42,0,0,1,2.08,1.55,12.3,12.3,0,0,1,3.1,6.46c.55,2.63.81,5.33,1.21,8,.43,2.87.92,5.74,1.49,8.59s1.22,5.66,2,8.46,1.73,5.57,2.7,8.32A26.86,26.86,0,0,1,83,284.21a29.12,29.12,0,0,1,.33,4.37c0,3,0,6.07.07,9.11l0,4.54c0,1.54.07,3.09,0,4.63-.12,2-.61,4.74-2.47,5.8l.12.41,0,.15a4.62,4.62,0,0,0,1.83-1.81C84.35,308.89,84.07,305.67,84.05,302.87Z"/><path class="cls-11" d="M100,341.38a35.83,35.83,0,0,1-3.61-6.77c-.6-2,.23-3-1-3.75-1.31-.57-3.76.33-5.29,1.37s1.08,5.43,1.86,6.84a22.63,22.63,0,0,0,4.52,5.81A37.49,37.49,0,0,0,100,341.38Z"/><path class="cls-12" d="M100,341.38a35.83,35.83,0,0,1-3.61-6.77c-.6-2,.23-3-1-3.75-1.31-.57-3.76.33-5.29,1.37s1.08,5.43,1.86,6.84a22.63,22.63,0,0,0,4.52,5.81A37.49,37.49,0,0,0,100,341.38Z"/><path class="cls-21" d="M104.61,351.2c-1,1.34-1.33,1.48-3.54,1.92-2,.39-5.78-.55-8.15-1.93a15.83,15.83,0,0,1-5.73-6.84,20.35,20.35,0,0,0-4.26-6.09c-1.1-1.09-1.26-1-1.3-1.91s.26-.73.27-1.44C89.44,340.43,97.17,345.52,104.61,351.2Z"/><path class="cls-11" d="M85.21,327.35a6.5,6.5,0,0,0,1.42,3.2,8.57,8.57,0,0,0,2.43,1.94c1.26.88,2,4.4,3,6.29.69,1.31,2.54,4.49,4.08,5.4a6.2,6.2,0,0,1,4-2.61,15.53,15.53,0,0,0,3.74,3.89c1.1.78,3.25,1.62,2.58,3.22a4.21,4.21,0,0,1-2.57,2.68,12.81,12.81,0,0,1-8.22-.14c-5.16-2.07-5.89-4.72-7.12-7.37a23.51,23.51,0,0,0-3.81-5.29c-1.51-1.72-2.34-1.77-2.83-3.65-.31-1.17.14-1.91.62-3.14a34,34,0,0,0,1.68-4c.24-1,.24-1.41.83-1.48Z"/><path class="cls-7" d="M105.25,348.77a1.92,1.92,0,0,0-1.32,1.76c-.09.75.09,1.44-.87,1.87a7.64,7.64,0,0,1-4.38.36,15.06,15.06,0,0,1-5.61-1.68,13,13,0,0,1-4.85-5A38.67,38.67,0,0,0,84.55,340c-1.23-1.54-2-1.78-3-3.17,0,.26,0,.49-.07.69,1.37,1.84,2.29,2.28,3.9,4.49.58.8,1.57,2.83,2.52,4.6a14.85,14.85,0,0,0,5.21,5.26,16.13,16.13,0,0,0,8.94,1.52c3.09-.63,4.07-1.67,4.54-2.43a4.29,4.29,0,0,0,.27-2.24C106.85,347.74,106.14,348.4,105.25,348.77Z"/><path class="cls-5" d="M96,344.49c.72-1.15,2.91-2.78,4.42-2.55l.16.19c.14-.19,0-.36-.38-.84-.3-.32-1.16-.24-2.35.35a6,6,0,0,0-2.58,2.18A1,1,0,0,0,96,344.49Z"/><path class="cls-5" d="M93.76,342.32c.84-1.07,3.59-3.1,5.07-2.71l.12.21c.17-.17.08-.36-.27-.87s-1.23-.19-2.36.27a9,9,0,0,0-3.21,2.34A1,1,0,0,0,93.76,342.32Z"/><path class="cls-5" d="M92.27,339.73c.89-1,3.81-3,5.27-2.5l.12.22c.17-.16.09-.36-.24-.89-.24-.36-1.3-.21-2.44.2A8.79,8.79,0,0,0,91.66,339,.93.93,0,0,0,92.27,339.73Z"/><path class="cls-5" d="M91,336.85c1-1,4-2.66,5.46-2.07l.08.22c.19-.15.13-.35-.15-.9-.21-.39-1.28-.31-2.45,0A8.87,8.87,0,0,0,90.43,336,.93.93,0,0,0,91,336.85Z"/><path class="cls-11" d="M77,328.78a18.91,18.91,0,0,1,2.67-7.59c1.54-2.5,2.65-3.73,1.73-4.34l-.36.25c-2.2.43-4.14-.83-5.09-1.05s-2.39,3.51-3.15,6.44a19.43,19.43,0,0,0-.45,7.22Z"/><g class="cls-20"><path d="M77,328.78a18.91,18.91,0,0,1,2.67-7.59c1.54-2.5,2.65-3.73,1.73-4.34l-.36.25c-2.2.43-4.14-.83-5.09-1.05s-2.39,3.51-3.15,6.44a19.43,19.43,0,0,0-.45,7.22Z"/></g><path class="cls-21" d="M74.58,340.18c-.45.48-1.09.62-3.61-.68-2.23-1.15-3.88-4.14-5.1-6.92s-.68-6.47,0-8.61a17.26,17.26,0,0,0,.49-7.11c-.24-1.53-.34-1.71.23-2.19s1.08-.86,1.08-.86Z"/><path class="cls-11" d="M74.44,310.29a12.67,12.67,0,0,0-.32,3,4,4,0,0,0,.8,2.53c.55.72-1,3.29-1.78,6.5-.54,2.23-.87,6.23-.54,6.66.81-.56,3.12-.68,4.43-.4a44.83,44.83,0,0,0,.4,6.19c.37,2.31.85,2.73.15,3.65a5.27,5.27,0,0,1-3.23,1.69c-.83,0-4-1.49-6.34-5.59-2.19-3.83-1.35-6.66-.71-10.18a19.72,19.72,0,0,0,.36-6.12c-.27-1.92-.52-3.25,0-4.39a6.53,6.53,0,0,1,2.48-2c1.7-.82,2.36-.89,3.24-2.11s1.44-.78,1.44-.78C74.77,309.24,74.67,309.65,74.44,310.29Z"/><path class="cls-7" d="M76.45,337.71a4,4,0,0,0-1.94,1.44,1.64,1.64,0,0,1-1.65.91,7,7,0,0,1-3.5-2.17A21.85,21.85,0,0,1,66,332.61a11,11,0,0,1-.46-6.74c.69-2.83,1.07-3.81,1.05-6.63s-.48-3.53-.35-4.13a4.91,4.91,0,0,0-.48.5c-.11,1.05.51,1.74.27,5.53A33,33,0,0,1,65,326a12.22,12.22,0,0,0,.54,7.05c.94,2.53,2.76,5.73,6,7.28a5.7,5.7,0,0,0,5.32-.33,4.27,4.27,0,0,0,1-2.26C77.91,337.15,77.26,337.33,76.45,337.71Z"/><path class="cls-5" d="M72.32,329.53c1.69-1,4.6-.67,4.71-.11v.29s.22,0,.24-.77c-.11-.55-.47-.91-2-1a6.88,6.88,0,0,0-3,.55S72,329.35,72.32,329.53Z"/><path class="cls-5" d="M72.44,326.39c2.56-.86,4.78-.06,4.92.33l0,.18s.31,0,.32-.78c-.07-.29-.56-.86-2-1a7.31,7.31,0,0,0-3.18.39S72.14,326.12,72.44,326.39Z"/><path class="cls-5" d="M72.74,323.78c3.11-1.25,5.31.15,5.41.54l-.07.18s.32,0,.4-.74c0-.3-.48-.9-1.9-1.2a6.71,6.71,0,0,0-3.73.37S72.47,323.48,72.74,323.78Z"/><path class="cls-5" d="M73.36,320.7c2.87-.77,5.87.73,6,1.12l-.08.15s.33.07.41-.71c0-.3-.55-.66-1.9-1.2a7,7,0,0,0-4.15-.24S73.09,320.4,73.36,320.7Z"/></g><path class="cls-4" d="M96.1,192c7.76-4.64,12.6,2.15,16.58,6.36,1.58.79,9.46,6.95,10.07,8l11.16-9.47,4.21,4.1c-2.5,3.45-11.17,20.62-16.66,18.11-2.15-1-15.29-11.55-15.29-11.55Z"/><g id="Dumbbell"><path class="cls-5" d="M142.5,192l-.76.13a26.63,26.63,0,0,1,4.62-2.45Z"/><polygon class="cls-6" points="142.82 186.32 144.58 190.39 146.36 189.65 144.19 184.61 142.82 186.32"/><polygon class="cls-5" points="138.23 183.95 138.96 181.92 144.19 184.61 142.82 186.32 138.23 183.95"/><polygon class="cls-7" points="135.39 185.66 135.09 184.24 138.96 181.92 138.23 183.95 135.39 185.66"/><polygon class="cls-7" points="137.15 189.73 135.39 185.66 138.23 183.95 142.82 186.32 144.58 190.39 141.74 192.09 137.15 189.73"/><polygon class="cls-6" points="146.36 189.65 148.09 187.13 145.92 182.09 144.19 184.61 146.36 189.65"/><polygon class="cls-5" points="138.96 181.92 144.19 184.61 145.92 182.09 140.69 179.4 138.96 181.92"/><polygon class="cls-7" points="135.09 184.24 136.83 181.72 140.69 179.4 138.96 181.92 135.09 184.24"/><path class="cls-12" d="M146.36,189.65c-.68-1.71-1.38-3.42-2.1-5.11-1.34-.7-4-2-5.3-2.72-1.3.8-2.59,1.6-3.87,2.42,1.3-.72,2.59-1.47,3.87-2.22,1.28.67,3.87,2,5.16,2.66.36.83.73,1.65,1.1,2.48S146,188.82,146.36,189.65Z"/><polygon class="cls-5" points="140.69 179.4 141.76 179.12 146.11 181.36 145.92 182.09 140.69 179.4"/><polygon class="cls-6" points="147.92 185.55 148.09 187.13 145.92 182.09 146.11 181.36 147.92 185.55"/><g class="cls-20"><path d="M148.1,187.13c-.66-1.73-1.38-3.42-2.1-5.12-1.76-.9-3.52-1.79-5.31-2.61,1.71,1,3.44,1.88,5.19,2.78l0-.05C146.56,183.81,147.3,185.48,148.1,187.13Z"/></g><polygon class="cls-22" points="135.39 185.66 138.24 184.19 142.65 186.5 144.36 190.35 141.74 192.09 144.58 190.39 142.82 186.32 138.23 183.95 135.39 185.66"/><path class="cls-7" d="M146.24,185.27l0,0-.12-.29a0,0,0,0,1,0-.05.14.14,0,0,1,0-.06.69.69,0,0,1,.17-.17.32.32,0,0,1,.18-.06.29.29,0,0,1,.18.08.51.51,0,0,1,.15.23,1,1,0,0,1,.08.3,1,1,0,0,1,0,.34,1.59,1.59,0,0,1-.08.35,2.21,2.21,0,0,1-.18.34.8.8,0,0,1-.21.23.34.34,0,0,1-.2.08.31.31,0,0,1-.17-.07.63.63,0,0,1-.13-.2.57.57,0,0,1,0-.14.61.61,0,0,1,0-.14l-.16.26.28.66a.15.15,0,0,1,0,.07l0,.07-.2.29a.05.05,0,0,1,0,0s0,0,0,0l-.41-1a.13.13,0,0,1,0-.06l0-.07.64-1,.05,0,0,0,.15.35s0,0,0,0v.06s0,.05,0,.08a.19.19,0,0,0,0,.07c0,.07.06.1.11.11a.17.17,0,0,0,.13-.1.34.34,0,0,0,.06-.12.28.28,0,0,0,0-.13v-.12l0-.1s0-.07,0-.08l-.06,0h-.05l0,0Z"/><path class="cls-23" d="M134.19,199.6c-1,1.06-3.51-.8-2.87-2.12L138.56,187c1-1.06,3.51.8,2.87,2.12Z"/><path class="cls-24" d="M131.31,198.41c-.64-2.21,2.58-1,2.89.26C134.84,200.88,131.62,199.68,131.31,198.41Z"/><path class="cls-13" d="M135.71,197.39c1.53-1.49-2-4.1-2.88-2.11C133.83,194.22,136.34,196.08,135.71,197.39Z"/><path class="cls-13" d="M139.67,191.63c1.54-1.5-2-4.11-2.87-2.12C137.79,188.46,140.31,190.31,139.67,191.63Z"/><path class="cls-13" d="M137,195.56c1.46-2.08,3.28-3.85-.3-4.94-.95-.31-2.06,2.36-2.58,2.83C135.09,192.39,137.6,194.24,137,195.56Z"/><path class="cls-5" d="M131.43,208.07l-.76.12a27.28,27.28,0,0,1,4.62-2.44Z"/><polygon class="cls-6" points="131.76 202.42 133.51 206.49 135.29 205.75 133.12 200.71 131.76 202.42"/><polygon class="cls-5" points="127.16 200.05 127.89 198.02 133.12 200.71 131.76 202.42 127.16 200.05"/><polygon class="cls-7" points="124.32 201.76 124.03 200.34 127.89 198.02 127.16 200.05 124.32 201.76"/><polygon class="cls-7" points="126.08 205.83 124.32 201.76 127.16 200.05 131.76 202.42 133.51 206.49 130.67 208.19 126.08 205.83"/><polygon class="cls-6" points="135.29 205.75 137.03 203.22 134.85 198.19 133.12 200.71 135.29 205.75"/><polygon class="cls-5" points="127.89 198.02 133.12 200.71 134.85 198.19 129.62 195.5 127.89 198.02"/><polygon class="cls-7" points="124.03 200.34 125.76 197.82 129.62 195.5 127.89 198.02 124.03 200.34"/><path class="cls-12" d="M135.29,205.75c-.68-1.71-1.38-3.42-2.1-5.11-1.34-.7-4-2-5.3-2.72-1.3.8-2.58,1.6-3.86,2.42q1.93-1.09,3.86-2.22c1.28.67,3.87,2,5.16,2.66.36.83.73,1.65,1.1,2.48S134.91,204.92,135.29,205.75Z"/><polygon class="cls-5" points="129.62 195.5 130.69 195.22 135.04 197.46 134.85 198.19 129.62 195.5"/><polygon class="cls-6" points="136.85 201.65 137.03 203.22 134.85 198.19 135.04 197.46 136.85 201.65"/><g class="cls-20"><path d="M137,203.22c-.66-1.72-1.38-3.42-2.1-5.11-1.75-.9-3.52-1.79-5.31-2.61,1.71,1,3.45,1.88,5.19,2.78l-.05-.05C135.5,199.91,136.24,201.58,137,203.22Z"/></g><polygon class="cls-22" points="124.32 201.76 127.17 200.29 131.59 202.59 133.29 206.45 130.67 208.19 133.51 206.49 131.76 202.42 127.16 200.05 124.32 201.76"/><path class="cls-7" d="M135.17,201.37l0,0L135,201a0,0,0,0,1,0,0,.08.08,0,0,1,0-.06.69.69,0,0,1,.17-.17.32.32,0,0,1,.18-.06.27.27,0,0,1,.18.08.51.51,0,0,1,.15.23,1,1,0,0,1,.08.3,1,1,0,0,1,0,.34,1.59,1.59,0,0,1-.08.35,1.24,1.24,0,0,1-.18.34,1,1,0,0,1-.21.23.34.34,0,0,1-.19.08.36.36,0,0,1-.17-.07.6.6,0,0,1-.14-.2.74.74,0,0,1,0-.14c0-.05,0-.09,0-.14l-.16.26.29.66v.07s0,0,0,.07l-.2.29a.05.05,0,0,1,0,0s0,0,0,0l-.41-1a.13.13,0,0,1,0-.06l0-.07.64-1.05,0,0s0,0,0,0l.15.35s0,0,0,0v.07a.22.22,0,0,1,0,.08.19.19,0,0,0,0,.07c0,.07.07.1.11.1a.17.17,0,0,0,.13-.09.34.34,0,0,0,.06-.12.31.31,0,0,0,0-.13.24.24,0,0,0,0-.12l0-.11a.13.13,0,0,0,0-.07l-.05,0h-.14Z"/></g><path class="cls-4" d="M135.28,198a15.12,15.12,0,0,0,2.39,3.72c4.75-5.89,7.43-6.52,4.2-14-.64-1.55-7.92,0-7.11,2.43-.85.2-1.93,1.41-1.46,2.47a2,2,0,0,0-.6,2.88,1.79,1.79,0,0,1,2.3-.8C136.38,195.29,136.23,197,135.28,198Z"/><path class="cls-4" d="M104.73,218.25c-.18,3.39-.64,6.24-.64,6.24-2.34,7.87-16.4,5.18-25.92-.44a10.92,10.92,0,0,0-1.66-5.49c17.5,5.79,25.21,3,28.21-.31Z"/><path class="cls-5" d="M104.75,214.07c.07,1.38,0,2.82,0,4.18h0c-3,3.3-10.71,6.1-28.21.31a56.48,56.48,0,0,1-3.09-6c-2.38-5.95-2.76-7.58-3.17-12-.32-3.55,1-6.39,4-7.14l4.35-1.08,15.52-.41a8.37,8.37,0,0,0,3.58-.76,124.51,124.51,0,0,1,8.66,11.12A9.24,9.24,0,0,1,104.75,214.07Z"/><g id="Arm-2" data-name="Arm"><path class="cls-9" d="M66.77,248.09a7.28,7.28,0,0,1-2-2.67,1.93,1.93,0,0,1,.27-1.7,1.06,1.06,0,0,0,.21-.31.81.81,0,0,0,0-.31,2.11,2.11,0,0,1,.08-1.27,1.32,1.32,0,0,1,.81-.69,3.07,3.07,0,0,1,0-1.92c.25-.73,1-1.31,1.5-.49a7.59,7.59,0,0,1,.57,1.27,14.69,14.69,0,0,1,.72,3.41c.12,1.2.41,4.61-1.45,4.78C67.29,248.2,66.88,248.21,66.77,248.09Z"/><path class="cls-4" d="M74.59,193.34c-1.06.12-4.5-.37-7,1.22-3.32,2.14-4.2,5.33-5.38,7.84A143.94,143.94,0,0,0,51.76,219c-1.65,3.55-2,4.92,1.8,8.7,2,1.95,4.69,4.28,7.48,6.9,2.19,2.08,4.83,4.27,7,6.41a2,2,0,0,1,.66,2,13.84,13.84,0,0,0-.38,1.44,12.41,12.41,0,0,0,.16,1.91,1.67,1.67,0,0,1-.76,1.64,1.86,1.86,0,0,1-.91.11,6.7,6.7,0,0,0,1.76,1,2.71,2.71,0,0,0,2-.07c.58-.28,1-.84,1.64-1,.34-.1.7-.08,1-.17a1.78,1.78,0,0,0,.89-.58c.35-.45.5-1.09,1-1.37a7.08,7.08,0,0,1,.78-.25,1.72,1.72,0,0,0,1-1.29,4.42,4.42,0,0,0,0-1.66,41,41,0,0,0-.9-4.41,4.37,4.37,0,0,0-.71-1.35c-.34-.49-.66-1-1-1.45-2.47-3.15-10.3-13.65-10.3-13.65l11.09-12.1S79.25,203.6,74.59,193.34Z"/><path class="cls-9" d="M66.77,248.09c1.25.94,3.1,1.62,4.37.36a2.89,2.89,0,0,1,1.08-.61c.81-.09,1.6-.22,2-1a3,3,0,0,1,.74-1c.4-.25.83-.21,1.11-.45a1.69,1.69,0,0,0,.6-.92c.27-1.89-.48-4-.87-5.9A10.7,10.7,0,0,0,74,235.45l-1.46-1.94c-2.83-3.76-5.92-7.94-8.67-11.73,2.89,3.67,6.06,7.8,8.9,11.55l1.47,1.93c.66,1,1.61,2,1.88,3.17s.55,2.38.75,3.58a6,6,0,0,1,.08,2.47,1.89,1.89,0,0,1-.71,1.07c-.38.28-.85.24-1.13.44a2.55,2.55,0,0,0-.68.93,1.92,1.92,0,0,1-.91.87,5.37,5.37,0,0,1-1.21.23c-.78.18-1.3,1-2.1,1.15a4.15,4.15,0,0,1-3.39-1.08Z"/><path class="cls-9" d="M63.82,221.78c-2.18,2.14-5.58,2.31-6.83,2.24a7.19,7.19,0,0,0,7.54-1.29Z"/></g><g id="Head-3" data-name="Head"><path class="cls-6" d="M94.7,185.35a11.17,11.17,0,0,0,4.67-7.18c.14-.86.18-1.75.39-2.6.34-1.46.94-2.83,1.28-4.3a10.36,10.36,0,0,0,0-4.7c-1.73-7.42-11.29-10.45-17.77-8.44-1.74.54-5.69,1.73-6.62,5.55-1.92,1-3.21,3.4-3.36,6.39a12.68,12.68,0,0,0,2.19,7.58,52.61,52.61,0,0,0,4.78,6.06,20.27,20.27,0,0,0,2.62,2.85,7,7,0,0,0,3.25.8,15.07,15.07,0,0,0,3.22,0A12.08,12.08,0,0,0,94.7,185.35Z"/><path class="cls-4" d="M81,189.4a63.06,63.06,0,0,0-.28-7.14A3.16,3.16,0,0,1,76.59,181c-1.14-1.76-1.62-4.26-.1-5.49,1.74-1.42,3.39-1,4.71,1.27,1.86.21,2.61-.95,1-3.46.1-2.24,3.33-2.54,3-8.37,4.57,1.77,10.1-2.44,12.88,2.38,2.14,4.85,4.3,17.59-1.26,19.86a12.7,12.7,0,0,1-4.24.89s0,1.24,0,2.33c0,.87.54,1.27,1.56,1.49,1.12,1.28,3.83,3.56-2.24,4.52a14.92,14.92,0,0,1-13.28-4.11C80.71,191.62,80.91,191,81,189.4Z"/><path class="cls-10" d="M89.18,181l3.3.81A1.7,1.7,0,1,1,89.18,181Z"/><path class="cls-9" d="M89.41,181.73a1.81,1.81,0,0,1,1.93,1.35,1.64,1.64,0,0,1-2.18-1.29A1.83,1.83,0,0,1,89.41,181.73Z"/><path class="cls-6" d="M97.94,171l-2.57-.57A1.32,1.32,0,0,1,97.94,171Z"/><path class="cls-6" d="M86.29,171.89l2.43-1.18C88.08,169.05,85.63,170.32,86.29,171.89Z"/><path class="cls-6" d="M95.37,173.76a1.1,1.1,0,0,0,2.2.07A1.1,1.1,0,0,0,95.37,173.76Z"/><path class="cls-6" d="M87.32,174.1a1.1,1.1,0,0,0,2.2.07A1.1,1.1,0,0,0,87.32,174.1Z"/><polygon class="cls-9" points="96.76 177.46 93.15 179.3 91.99 172.12 96.76 177.46"/><path class="cls-9" d="M92.55,188.11c-4.83-.3-8.41-2-9.5-3.76.78,4.9,8.76,5.27,9.52,5.26Z"/></g></g><polygon class="cls-25" points="576.23 428.8 220.41 428.8 247.96 369.88 576.23 369.88 576.23 428.8"/><text class="cls-26" transform="translate(227.24 386.37)">Vi<tspan class="cls-27" x="21.18" y="0">d</tspan><tspan class="cls-28" x="34.93" y="0">a</tspan><tspan class="cls-29" x="48.8" y="0"> </tspan><tspan class="cls-30" x="54.64" y="0">s</tspan><tspan class="cls-29" x="66.65" y="0">alu</tspan><tspan class="cls-31" x="107.59" y="0">d</tspan><tspan class="cls-29" x="121.34" y="0">able, </tspan><tspan class="cls-32"><tspan x="0" y="19.42">impulso</tspan><tspan class="cls-33" x="90.84" y="19.42"> </tspan><tspan class="cls-34" x="95.84" y="19.42">a</tspan><tspan class="cls-35" x="110.55" y="19.42">l</tspan><tspan class="cls-29" x="121.81" y="19.42" xml:space="preserve"> deporte</tspan><tspan class="cls-36" x="222.26" y="19.42" xml:space="preserve"> y</tspan><tspan class="cls-29" x="240.66" y="19.42"> </tspan><tspan x="0" y="38.83">prevención de</tspan><tspan class="cls-33" x="165.59" y="38.83"> </tspan><tspan class="cls-34" x="170.59" y="38.83">adicciones</tspan></tspan></text></g></g></svg>