<?xml version="1.0" encoding="utf-8"?>
<!-- Generator: Adobe Illustrator 24.2.3, SVG Export Plug-In . SVG Version: 6.00 Build 0)  -->
<svg version="1.1" id="Capa_2" xmlns="http://www.w3.org/2000/svg" xmlns:xlink="http://www.w3.org/1999/xlink" x="0px" y="0px"
	 viewBox="0 0 200 200" style="enable-background:new 0 0 200 200;" xml:space="preserve">
<style type="text/css">
	.st0{fill:#D13D67;}
</style>
<g>
	<path class="st0" d="M155.2,87.1c-0.3,0-0.6,0-0.9,0c-14.3-0.2-28.5-5.7-40.2-15.3c-3.2-2.7-5.1-6.6-5.1-10.9c0-3.2,1.1-6.4,3.2-9
		c12.2-15.2,27.3-23.5,42.6-23.1c15.5,0.4,30.6,9.5,42.7,25.7c1.6,2.2,2.5,5,2.5,7.9c0,4.1-1.9,8-5.1,10.5
		C183.3,82.1,169.2,87.1,155.2,87.1L155.2,87.1z M153.9,35.8c-12.8,0-25.6,7.2-36.2,20.5c-1.1,1.3-1.7,3-1.7,4.6
		c0,2.2,0.9,4.2,2.5,5.5c10.4,8.6,23.1,13.5,35.8,13.7c12.7,0.2,25.6-4.3,36.2-12.7c1.5-1.2,2.4-3,2.4-5c0-1.4-0.4-2.7-1.2-3.7
		c-10.7-14.4-23.9-22.5-37.2-22.9C154.4,35.8,154.1,35.8,153.9,35.8L153.9,35.8z"/>
	<path class="st0" d="M154.5,77c-10.5,0-19.1-8.6-19.1-19.1s8.6-19.1,19.1-19.1s19.1,8.6,19.1,19.1S165,77,154.5,77z M154.5,45.9
		c-6.7,0-12.1,5.4-12.1,12.1S147.8,70,154.5,70s12.1-5.4,12.1-12.1S161.2,45.9,154.5,45.9z"/>
	<g>
		<rect x="105.2" y="9.6" transform="matrix(0.9241 -0.382 0.382 0.9241 -0.1985 43.2119)" class="st0" width="7" height="25.1"/>
		
			<rect x="80.5" y="38.5" transform="matrix(0.2468 -0.9691 0.9691 0.2468 13.8067 119.8204)" class="st0" width="7" height="25.1"/>
		<rect x="88.8" y="19.5" transform="matrix(0.657 -0.7539 0.7539 0.657 6.617 80.9434)" class="st0" width="7" height="27.5"/>
	</g>
</g>
<path class="st0" d="M5.3,83.8l129,82.8c0.8,7.8,5,15.2,12.1,19.8c11.5,7.3,45.4,3.5,49.3,3.1l4.3-0.5l-1.4-4.1
	c-1.2-3.7-12.2-36-23.7-43.3c-7.4-4.7-16.3-5.2-23.9-2.3L22.6,56.8c-6-3.9-14.8-1-19.6,6.5c0,0,0,0,0,0.1
	C-1.8,70.8-0.7,79.9,5.3,83.8z M150.2,180.5c-1.6-1-2.9-2.2-4.1-3.5c3.9-2.8,7.7-3.2,10.3-2.9c4.6,0.6,7.8,3.1,8.6,4.3l6-3.6
	c-3.4-5.6-3.9-10.9-1.6-14.8c1.8-3,4.7-4.3,6.7-4.2c1.4,0.1,2.4,0.7,3.1,2l0,0c4.5,7.9,8.7,18.2,11.2,25.2
	C178.7,184,157.2,184.9,150.2,180.5L150.2,180.5z M171.2,147.5c0.6,0.4,1.3,1,2,1.7c-3.9,0.9-7.5,3.5-9.7,7.3
	c-2,3.4-2.8,7.4-2.2,11.6c-1.2-0.4-2.6-0.7-3.9-0.8c-3.9-0.5-9.3-0.1-14.9,3.8c-2.1-5.6-1.7-12.1,1.7-17.5
	C150,144.4,162.1,141.7,171.2,147.5L171.2,147.5z M144.2,143.2c-2.3,1.8-4.3,4-5.9,6.5c-1.8,2.8-2.9,5.8-3.6,8.8l-20.8-13.4
	l9.8-15.2L144.2,143.2L144.2,143.2z M8.9,67.1C8.9,67.1,8.9,67.1,8.9,67.1c2.7-4.2,7.2-6.2,9.9-4.4l98.9,63.5l-9.8,15.2l-99-63.5
	C6.3,76.1,6.3,71.2,8.9,67.1z"/>
</svg>
