<?xml version="1.0" encoding="utf-8"?>
<!-- Generator: Adobe Illustrator 24.2.3, SVG Export Plug-In . SVG Version: 6.00 Build 0)  -->
<svg version="1.1" id="Capa_3" xmlns="http://www.w3.org/2000/svg" xmlns:xlink="http://www.w3.org/1999/xlink" x="0px" y="0px"
	 viewBox="0 0 200 200" style="enable-background:new 0 0 200 200;" xml:space="preserve">
<style type="text/css">
	.st0{fill:#D13D67;}
</style>
<g>
	<rect x="78.8" y="126.6" class="st0" width="42.4" height="6.1"/>
	<rect x="78.8" y="144" class="st0" width="42.4" height="6.1"/>
</g>
<g>
	<path class="st0" d="M8.3,132.1c0-13.2,6.2-25,15.9-32.5c6.6,5.3,15,8.5,24.2,8.5c9.6,0,18.5-3.5,25.3-9.3
		c5.7,4.1,10.3,9.6,13.3,16.1h6.7c-3.2-8.2-8.7-15.2-15.6-20.5c5.8-6.8,9.2-15.6,9.2-25.1c0-21.4-17.4-38.9-38.9-38.9
		S9.6,47.8,9.6,69.2c0,10.1,3.9,19.2,10.1,26.2C9,104,2.2,117.3,2.2,132.1v37.6h90.1v-6.1H8.3V132.1L8.3,132.1z M15.7,69.2
		c0-18,14.7-32.7,32.7-32.7s32.7,14.7,32.7,32.7c0,8.3-3.1,15.9-8.3,21.7c-1.4,1.6-3.1,3.1-4.8,4.4c-5.5,4.2-12.3,6.6-19.7,6.6
		c-7,0-13.4-2.2-18.7-5.9c-1.8-1.2-3.4-2.6-4.9-4.2C19.2,85.9,15.7,77.9,15.7,69.2L15.7,69.2z"/>
	<path class="st0" d="M178.9,94.3c5.8-6.8,9.2-15.6,9.2-25.1c0-21.4-17.4-38.9-38.9-38.9s-38.9,17.4-38.9,38.9
		c0,10.1,3.8,19.2,10.2,26.2c-6.3,5.1-11.2,11.8-14.2,19.4h6.7c2.8-6,6.9-11.2,12.1-15.2c6.6,5.3,15,8.5,24.2,8.5
		c9.6,0,18.5-3.5,25.3-9.3c10.4,7.5,17.1,19.7,17.1,33.4v31.4h-83.9v6.1h90.1v-37.6C197.8,116.7,190.4,102.9,178.9,94.3L178.9,94.3z
		 M173.8,90.9c-1.4,1.6-3.1,3.1-4.8,4.4c-5.5,4.2-12.3,6.6-19.7,6.6c-7,0-13.4-2.2-18.7-5.9c-1.8-1.2-3.4-2.6-4.9-4.2
		c-5.6-5.9-9.1-13.8-9.1-22.6c0-18,14.7-32.7,32.7-32.7s32.7,14.7,32.7,32.7C182.1,77.5,178.9,85.1,173.8,90.9L173.8,90.9z"/>
</g>
</svg>
