<svg id="Layer_1" data-name="Layer 1" xmlns="http://www.w3.org/2000/svg" viewBox="0 0 200 200"><defs><style>.cls-1{fill:#d13d67;}</style></defs><path class="cls-1" d="M200,153v3.89c-1.23,4.25-3.66,7.49-8,9.07a11.6,11.6,0,0,1,.51,9.8,11.91,11.91,0,0,1-7.12,6.7c.18.49.28.79.4,1.08a11.69,11.69,0,0,1-7.55,15.66c-.41.13-.8.33-1.2.5H123.73c-2.24-1.14-4.51-2.2-6.69-3.43-3.15-1.79-6.19-3.76-9.36-5.52a7.59,7.59,0,0,0-3.45-1c-10-.08-20.08,0-30.11-.07a2.4,2.4,0,0,0-2.33,1.27,10.93,10.93,0,0,1-11.66,5.19,28.48,28.48,0,0,1-4.87-1.7c-2.76,3.26-3.08,3.48-7.81,5.25H43.56c-4.25-1.22-7.51-3.63-9-7.93-6.29,2.76-13.15,1.08-16.6-6.57a3,3,0,0,0-.73.16C9.29,189,.59,182.54.7,173.75c.2-15.89.07-31.78,0-47.67a12.6,12.6,0,0,1,1.85-6.83c2.37-3.87,4.76-7.73,7-11.69a9.14,9.14,0,0,0,1.14-4.2c.1-9.73,0-19.46.09-29.19a3.09,3.09,0,0,0-1.56-3,10.59,10.59,0,0,1-5-10.67A36.56,36.56,0,0,1,6,54.78C2.25,52.13.25,48.43.87,43.68s3.49-7.8,7.85-9.62A11.65,11.65,0,0,1,14.85,17.8c-.25-2.69-.92-5.1-.6-7.37.82-6,5.78-10,12-10,16,0,32,0,48.06,0a12.84,12.84,0,0,1,7,1.95c3.93,2.4,7.87,4.77,11.86,7.05a7,7,0,0,0,3.28,1c10.11.08,20.23,0,30.35.07A2.4,2.4,0,0,0,129,9,10.73,10.73,0,0,1,140,3.86a35.21,35.21,0,0,1,5.54,1.66c5.24-7.45,16.49-7.13,20.91,2.77A11.44,11.44,0,0,1,176,7.83a12,12,0,0,1,6.73,7.05,4.13,4.13,0,0,0,.72-.14c7.58-2.74,13.75.36,16.22,8.14a2,2,0,0,0,.33.45V76.66c-1.14,2.23-2.2,4.5-3.43,6.68-1.72,3-3.67,6-5.31,9a9.72,9.72,0,0,0-1.19,4.36c-.11,9.71,0,19.42-.09,29.13a3.07,3.07,0,0,0,1.55,3,10.6,10.6,0,0,1,5,10.64,37.72,37.72,0,0,1-1.72,5.84C197.59,146.94,199,149.79,200,153ZM126.86,17h-2.28c-9.27,0-18.55,0-27.82,0a13.2,13.2,0,0,1-7.2-2c-3.74-2.32-7.5-4.63-11.35-6.76a9.59,9.59,0,0,0-4.36-1.22C64.06,7,54.27,7,44.48,7H27.55C27,7,26.51,7,26,7a5.32,5.32,0,0,0-5.32,4.91c-.09,2.77,2.13,5,5.28,5.06,4.8.09,9.6,0,14.4.05a3.28,3.28,0,0,1,3.57,3.28,3.42,3.42,0,0,1-3.4,3.32c-.58.05-1.17,0-1.75,0-6.55,0-13.1,0-19.65,0A5.12,5.12,0,0,0,14.07,28a4.89,4.89,0,0,0,3.2,5.22,8.55,8.55,0,0,0,2.67.33c4.48,0,9,0,13.43,0,2.42,0,4,1.41,3.91,3.4s-1.48,3.16-3.84,3.23c-.52,0-1,0-1.55,0-6.1,0-12.2,0-18.29,0a9.75,9.75,0,0,0-3.23.5,4.81,4.81,0,0,0-2.91,5.2,5.23,5.23,0,0,0,5.13,4.24c5.7.06,11.41,0,17.12,0,1.29,0,2.59,0,3.89,0,2.22,0,3.74,1.48,3.68,3.4a3.37,3.37,0,0,1-3.68,3.21c-5.83,0-11.67,0-17.51,0-3.09,0-5.23,2-5.31,4.77s2,4.89,5,5.18a17.89,17.89,0,0,0,1.94,0H50.4c1.17,0,2.34,0,3.5,0a3.24,3.24,0,0,1,2.56,5.32c-.4.58-.88,1.12-1.33,1.67C52.59,77,50,80.05,47.5,83.18a4,4,0,0,0-.38,4.89,3.68,3.68,0,0,0,4.36,1.75,7.34,7.34,0,0,0,2.85-1.89Q69.78,72.71,85.14,57.37a11.91,11.91,0,0,1,9.35-3.87c3.17.11,6.34,0,9.6,0-.12-1-.24-1.84-.31-2.67a10,10,0,0,1,2.46-7.55A11,11,0,0,1,121.47,42c1.74,1.36,3.43,2.78,5.39,4.38ZM97,146.5c-.11,2.23.11,4.29-.38,6.17-1.93,7.37-10.82,10.21-17,5.52-1.84-1.38-3.59-2.89-5.58-4.51V183h2.24c9.07,0,18.15.05,27.23,0a14.78,14.78,0,0,1,8.28,2.31q5.51,3.47,11.18,6.67a7.93,7.93,0,0,0,3.64,1c15.69.06,31.39,0,47.08,0,3.86,0,6.4-2,6.46-5s-2.4-5-6.49-5.06c-4.48,0-8.95,0-13.43,0a3.21,3.21,0,0,1-3.33-3.11,3.37,3.37,0,0,1,3-3.45,12.6,12.6,0,0,1,1.74,0c6.43,0,12.85,0,19.27,0,3.42,0,5.8-2.07,5.83-4.94s-2.25-4.92-5.75-4.94c-4.47,0-8.95,0-13.42,0-2.56,0-4.14-1.38-4.08-3.43s1.53-3.19,4.06-3.2c6.42,0,12.84,0,19.26,0a14.17,14.17,0,0,0,2.52-.17,4.69,4.69,0,0,0,3.87-3.64,4.25,4.25,0,0,0-1.69-4.82,7.6,7.6,0,0,0-3.93-1.29c-6.68-.13-13.36,0-20-.06-2.45,0-4-1.26-4.05-3.24s1.53-3.38,4.09-3.39c5.7,0,11.41,0,17.12,0,3.09,0,5.22-2,5.29-4.79s-2-4.88-5-5.17c-.64-.06-1.3,0-1.94,0H148.59a4.32,4.32,0,0,1-1.73-.05c-1-.51-2.41-1-2.83-1.9s0-2.29.33-3.4c.18-.63.84-1.12,1.3-1.68,2.54-3.11,5.11-6.2,7.62-9.34a4,4,0,0,0,.34-4.89,3.68,3.68,0,0,0-4.37-1.72,6.87,6.87,0,0,0-2.7,1.76C136.34,122,126.11,132.07,116,142.26a12.85,12.85,0,0,1-10.38,4.27C102.7,146.37,99.73,146.5,97,146.5Zm49.88-42.85a31,31,0,0,1,5.32,0,10.56,10.56,0,0,1,6.55,16.89c-1.44,2-3,3.78-4.64,5.8h29.27V123.9c0-9.08,0-18.16,0-27.24a13.89,13.89,0,0,1,2.14-7.73c2.31-3.68,4.56-7.39,6.66-11.19a9.06,9.06,0,0,0,1.17-4.17c.08-15.57.05-31.13.05-46.7a16.78,16.78,0,0,0,0-1.74,5.28,5.28,0,0,0-5-4.84,5,5,0,0,0-4.94,4.8c-.07.71,0,1.43,0,2.14,0,4.35,0,8.69-.05,13a3.2,3.2,0,0,1-3.17,3.28,3.35,3.35,0,0,1-3.35-2.92,12.49,12.49,0,0,1-.08-1.94c0-6.48,0-13,0-19.45,0-3.24-2.18-5.59-5-5.58s-4.85,2.25-4.88,5.61c0,4.22,0,8.43,0,12.65,0,3.32-1.08,5-3.3,5s-3.34-1.57-3.34-4.9c0-6.23,0-12.45,0-18.68a10.08,10.08,0,0,0-.46-3.24,4.86,4.86,0,0,0-5.13-3,5.22,5.22,0,0,0-4.36,5.22c-.05,6.55,0,13.1,0,19.65,0,3.31-1.09,5-3.29,5s-3.34-1.63-3.34-4.92c0-5.52,0-11,0-16.54a4.88,4.88,0,0,0-4.63-5,5,5,0,0,0-5.24,4.47,16.24,16.24,0,0,0-.11,2.52q0,17.79,0,35.6a3.41,3.41,0,0,1-1.94,3.49,3.3,3.3,0,0,1-3.77-.69l-1.51-1.22c-3-2.47-6-5-9-7.38a4.18,4.18,0,0,0-5.06-.39,3.72,3.72,0,0,0-1.67,4.4,7.11,7.11,0,0,0,1.82,2.67q15.28,15.51,30.67,30.95a11.94,11.94,0,0,1,3.82,9.38C146.76,97.37,146.86,100.54,146.86,103.65ZM17.39,73.57v2.54c0,9.15,0,18.3,0,27.45a13.43,13.43,0,0,1-2,7.37c-2.27,3.63-4.53,7.27-6.58,11a10.39,10.39,0,0,0-1.34,4.71c-.09,15.44-.06,30.88-.05,46.32a17,17,0,0,0,.05,2.14,5.35,5.35,0,0,0,4.61,4.6,4.93,4.93,0,0,0,5-3.31,10.34,10.34,0,0,0,.36-2.88c0-4.48,0-8.95,0-13.43,0-2.19,1.33-3.6,3.23-3.62S23.88,157.89,24,160c0,.51,0,1,0,1.55,0,6.17,0,12.33,0,18.49a10.58,10.58,0,0,0,.25,2.7,5.11,5.11,0,0,0,5.19,3.59,4.88,4.88,0,0,0,4.41-4.87c.08-4.22,0-8.43,0-12.65,0-.65,0-1.3,0-2,.1-2.29,1.42-3.77,3.35-3.76s3.26,1.46,3.27,3.79c0,6.81,0,13.62,0,20.43,0,3.38,2,5.64,4.88,5.66s5.07-2.41,5.09-5.72c0-5.06,0-10.12,0-15.18,0-1.69,0-3.38,0-5.06,0-2.4,1.38-4,3.37-3.93s3.22,1.54,3.25,3.84c0,1.81,0,3.63,0,5.45,0,4.08-.05,8.17,0,12.26a4.88,4.88,0,0,0,4.52,5A5,5,0,0,0,67,185.43a15.31,15.31,0,0,0,.19-2.71q0-17.33,0-34.64a18.14,18.14,0,0,1,0-2,3.23,3.23,0,0,1,4.93-2.47,14.06,14.06,0,0,1,1.69,1.3c3.27,2.67,6.51,5.36,9.8,8a3.91,3.91,0,0,0,4.89.23,3.7,3.7,0,0,0,1.62-4.42,7.22,7.22,0,0,0-1.83-2.67Q74.7,132.24,61,118.45c-7.41-7.43-7.12-6.65-7.07-17.17,0-1.64,0-3.28,0-4.63-2.35-.14-4.41.07-6.3-.42a10.56,10.56,0,0,1-5.71-16.64c1.48-2,3.1-3.88,4.82-6ZM60.56,99.68a67,67,0,0,0,.06,6.8,6.34,6.34,0,0,0,1.47,3.59q14.13,14.48,28.47,28.74a3.78,3.78,0,0,0,2.34,1c4.67.09,9.34.13,14,0a5.57,5.57,0,0,0,3.42-1.37q14.53-14.22,28.88-28.62a3.76,3.76,0,0,0,.95-2.36c.09-4.6.15-9.21,0-13.81a6.14,6.14,0,0,0-1.53-3.74q-14.06-14.41-28.33-28.61a4,4,0,0,0-2.52-1c-4.47-.11-8.94,0-13.42-.08A5.7,5.7,0,0,0,89.88,62q-13.69,13.7-27.5,27.25a5.38,5.38,0,0,0-1.86,4.58C60.66,95.78,60.56,97.74,60.56,99.68Z"/></svg>