<svg id="Layer_1" data-name="Layer 1" xmlns="http://www.w3.org/2000/svg" viewBox="0 0 200 200"><defs><style>.cls-1{fill:#fff;}.cls-2{fill:#d13d67;}</style></defs><path class="cls-1" d="M51.47,77.79c2.77,5,8.15,7.8,12.79,11.11s9.12,8.25,8.45,13.91c-.27,2.31-1.39,4.43-2.09,6.65a19.49,19.49,0,0,0,2.55,16.8c3.38-.65,1.17-6.37,3.25-9.11,1.46-1.92,4.64-1.52,6.42.1s2.57,4,3.48,6.25a42.29,42.29,0,0,0,9.73,14.26c3,2.9,6.73,5.86,7,10a15.37,15.37,0,0,1-1.23,5.71,83.72,83.72,0,0,0-3.1,41.89"/><path class="cls-2" d="M150.59,74l.9-1.75a25.49,25.49,0,0,0,1.62-19.54A24.09,24.09,0,0,0,152,49.88a21.74,21.74,0,0,0,2.25-1.16,21.12,21.12,0,1,0-31.36-13.19c-.67.16-1.34.35-2,.56a26.5,26.5,0,0,0-2.49.93A23.38,23.38,0,0,0,116,34.81a21.11,21.11,0,1,0-32.42.57,20.57,20.57,0,0,0-2.09,2,23.94,23.94,0,0,0-3.2-1.27c-.67-.21-1.34-.4-2-.56A21.11,21.11,0,1,0,47.11,49.88,26,26,0,0,0,46,52.67a25.49,25.49,0,0,0,1.62,19.54l1.18,2.3A73,73,0,1,0,150.59,74Zm-22.08-51a16.68,16.68,0,0,1,9.8-8.3,16.87,16.87,0,0,1,5.14-.81,16.77,16.77,0,0,1,6.45,32.25,16.42,16.42,0,0,1-4.51,1.19,16.73,16.73,0,0,1-18.16-12.35h0A16.71,16.71,0,0,1,128.51,22.93Zm-6.29,17.28a18.38,18.38,0,0,1,2.15-.56,21.06,21.06,0,0,0,23.51,11.58A20.61,20.61,0,0,1,149,54a21.1,21.1,0,0,1-1.35,16.24l-.37.71A73,73,0,0,0,125.7,58.2V54.9a25.53,25.53,0,0,0-4.41-14.36ZM82.72,21.6A16.77,16.77,0,1,1,99.5,38.38a16.62,16.62,0,0,1-8.87-2.55A16.7,16.7,0,0,1,82.72,21.6Zm-.23,21.34a20.68,20.68,0,0,1,2.8-3.33c.45-.44.91-.85,1.4-1.25h0a21,21,0,0,0,26.19-.46c.54.41,1.06.84,1.56,1.3a21.35,21.35,0,0,1,6.92,15.7v1.81a72.94,72.94,0,0,0-42.57-.05V54.9A21.16,21.16,0,0,1,82.49,42.94Zm-37.63.48a16.9,16.9,0,0,1-4.07-5.13,16.8,16.8,0,0,1,14.9-24.47,16.87,16.87,0,0,1,5.14.81A16.76,16.76,0,0,1,71.92,34.91a17,17,0,0,1-1.81,4.29,16.8,16.8,0,0,1-16.38,8.08,17.29,17.29,0,0,1-3.14-.69c-.46-.15-.92-.32-1.36-.51A16.77,16.77,0,0,1,44.86,43.42Zm6.65,26.81A21.1,21.1,0,0,1,50.16,54a20,20,0,0,1,1.1-2.75,20.54,20.54,0,0,0,4.47.49,21.11,21.11,0,0,0,19-12.08,20.6,20.6,0,0,1,2.15.56c.6.19,1.18.41,1.75.65a25.43,25.43,0,0,0-4.2,14v3.23A73,73,0,0,0,52.14,71.46ZM33.44,143.41a45.19,45.19,0,0,0,9.4,6l.57.29c5.36,2.73,10.89,5.55,13.51,10.43A28.18,28.18,0,0,1,59,166.08L64.1,185A68.93,68.93,0,0,1,33.44,143.41Zm33.83,43.45,1.69-.45L63.17,165a31.2,31.2,0,0,0-2.43-6.83c-3.26-6.08-9.69-9.36-15.36-12.25l-.57-.29c-5.6-2.85-11-6.22-12.77-11.49l-.27.09a69.3,69.3,0,0,1-.44-7.67A68.39,68.39,0,0,1,50,79.52c2.5,4,6.4,6.68,10.19,9.22,1,.64,1.9,1.27,2.81,1.93,3.09,2.19,8.18,6.66,7.56,11.89a17,17,0,0,1-1.18,4c-.29.75-.58,1.51-.83,2.28a21.8,21.8,0,0,0,2.84,18.7l.81,1.15,1.38-.26c3.58-.69,3.78-4.22,3.91-6.55a7.32,7.32,0,0,1,.66-3.38A1.2,1.2,0,0,1,79,118a3.29,3.29,0,0,1,2.34.81A12.4,12.4,0,0,1,84,123.42l.37.91a44.54,44.54,0,0,0,10.23,15l1.1,1.05c2.48,2.32,5,4.73,5.21,7.55a12.49,12.49,0,0,1-1,4.51l-.13.38a85.64,85.64,0,0,0-3.3,42.28A68.11,68.11,0,0,1,67.27,186.86ZM100,195.18h-.09l.91-.17a81.26,81.26,0,0,1,3-40.8l.13-.37a16.12,16.12,0,0,0,1.21-6.17c-.26-4.55-3.61-7.69-6.56-10.46l-1.07-1a40.1,40.1,0,0,1-9.22-13.53L88,121.8a16,16,0,0,0-3.67-6.15,7.58,7.58,0,0,0-5.65-1.92,5.47,5.47,0,0,0-4,2.11c-1.3,1.71-1.43,3.86-1.53,5.75,0,0,0,.07,0,.11a17.41,17.41,0,0,1-.48-11.59c.22-.68.48-1.36.74-2a19.85,19.85,0,0,0,1.44-5c.65-5.52-2.67-11.18-9.34-15.93-1-.68-1.93-1.34-2.92-2-3.74-2.5-7.28-4.87-9.23-8.4l-1.44.8A68.52,68.52,0,0,1,151,80.6a120.61,120.61,0,0,0-28.38,11.32,35.48,35.48,0,0,0-7.83,5.52c-5.69,5.64-7.55,13.87-8.53,20.41-.94,6.26-1.58,14.32,1.91,21.14s12.16,11.76,19.61,8.35a29,29,0,0,0,3.22-1.8c2.39-1.47,4-2.38,5.27-2a9.19,9.19,0,0,1-1,9.62c-.17.21-.35.42-.54.62a9,9,0,0,0-2,3.07c-1.33,3.92,1.86,7.38,3.23,8.85,2,2.15,3.65,4.19,5.27,6.17,1.46,1.79,3,3.64,4.75,5.6A68.4,68.4,0,0,1,100,195.18Zm49.09-20.72c-1.65-1.84-3.11-3.62-4.51-5.33-1.66-2-3.37-4.13-5.44-6.37-1.21-1.3-2.76-3.19-2.31-4.53a5.68,5.68,0,0,1,1.14-1.59c.22-.24.43-.49.64-.75a13.44,13.44,0,0,0,1.09-15.12l-.28-.47L139,140c-3.66-2.21-7.29,0-10.21,1.81A24.25,24.25,0,0,1,126,143.4c-5.11,2.34-11.45-1.48-13.94-6.38-2.93-5.73-2.33-12.91-1.49-18.53.88-5.88,2.51-13.23,7.3-18a31.26,31.26,0,0,1,6.89-4.8A116.74,116.74,0,0,1,154.1,84.29a68.48,68.48,0,0,1-5,90.17Z"/></svg>