<?xml version="1.0" encoding="utf-8"?>
<!-- Generator: Adobe Illustrator 24.2.3, SVG Export Plug-In . SVG Version: 6.00 Build 0)  -->
<svg version="1.1" id="Capa_1" xmlns="http://www.w3.org/2000/svg" xmlns:xlink="http://www.w3.org/1999/xlink" x="0px" y="0px"
	 viewBox="0 0 200 200" style="enable-background:new 0 0 200 200;" xml:space="preserve">
<style type="text/css">
	.st0{fill:#D13D67;}
</style>
<g>
	<g>
		<g>
			<path class="st0" d="M152.2,34.1l3.8-5.4H24.5c-9.5,0-17.3,7.7-17.3,17.3V56c0,9.5,7.7,17.3,17.3,17.3H156l-3.8-5.4
				C145.2,57.8,145.2,44.2,152.2,34.1z M143.8,66.6H24.5c-5.8,0-10.6-4.8-10.6-10.6V46c0-5.8,4.8-10.6,10.6-10.6h119.3
				C139.1,45.2,139.1,56.8,143.8,66.6z"/>
		</g>
	</g>
</g>
<g>
	<g>
		<g>
			<path class="st0" d="M151.5,132.1l3.8-5.4H23.8c-9.5,0-17.3,7.7-17.3,17.3V154c0,9.5,7.7,17.3,17.3,17.3h131.5l-3.8-5.4
				C144.5,155.8,144.5,142.2,151.5,132.1z M143.2,164.6H23.8c-5.8,0-10.6-4.8-10.6-10.6V144c0-5.8,4.8-10.6,10.6-10.6h119.3
				C138.5,143.2,138.5,154.8,143.2,164.6z"/>
		</g>
	</g>
</g>
<g>
	<g>
		<g>
			<path class="st0" d="M178.1,77.7H46.6l3.8,5.4c7,10.1,7,23.7,0,33.7l-3.8,5.4H158v36.2l11.5-14.4l11.4,14.4v-36.5
				c8.2-1.4,14.4-8.5,14.4-17V95C195.3,85.4,187.6,77.7,178.1,77.7z M174.2,139.4l-4.8-6l-4.8,6v-36.1h9.6V139.4z M188.7,105
				c0,4.9-3.3,9-7.8,10.2v-11.9h4.9v-6.7h-34.9v6.7h7.1v12.3H58.7c4.7-9.9,4.7-21.4,0-31.3h119.3c5.8,0,10.6,4.8,10.6,10.6V105z"/>
		</g>
	</g>
</g>
<g>
	<g>
		<g>
			<rect x="104.6" y="96.7" class="st0" width="35.7" height="6.7"/>
		</g>
	</g>
</g>
<g>
	<g>
		<g>
			<rect x="25" y="47.7" class="st0" width="35.7" height="6.7"/>
		</g>
	</g>
</g>
<g>
	<g>
		<g>
			<rect x="73.5" y="47.7" class="st0" width="24.2" height="6.7"/>
		</g>
	</g>
</g>
<g>
	<g>
		<g>
			<rect x="80.1" y="145.7" class="st0" width="35.7" height="6.7"/>
		</g>
	</g>
</g>
<g>
	<g>
		<g>
			<rect x="43" y="145.7" class="st0" width="24.2" height="6.7"/>
		</g>
	</g>
</g>
</svg>
