<?xml version="1.0" encoding="utf-8"?>
<!-- Generator: Adobe Illustrator 24.2.3, SVG Export Plug-In . SVG Version: 6.00 Build 0)  -->
<svg version="1.1" id="Capa_1" xmlns="http://www.w3.org/2000/svg" xmlns:xlink="http://www.w3.org/1999/xlink" x="0px" y="0px"
	 viewBox="0 0 200 200" style="enable-background:new 0 0 200 200;" xml:space="preserve">
<style type="text/css">
	.st0{fill:#D13D67;}
</style>
<g>
	<g>
		<path class="st0" d="M131.3,126.3c-1.6-1-3-2.2-4.4-3.5c-0.4,0.4-0.7,0.8-1.1,1.3c-1.8,2.2-3.6,4.3-5.4,6.6
			c-5.7,7.4-9.7,16.2-11.6,25.4c-0.4,2.1-2.4,3.7-4.6,3.7h-40c-2.2,0-4.2-1.6-4.6-3.7c-1.9-9.2-5.9-18-11.6-25.4
			c-1.7-2.2-3.5-4.4-5.4-6.6c-4.2-5-8.2-9.7-10.8-15.5c-3.5-7.7-5.4-16.1-5.4-24.3c0-1,0-2.1,0.1-3.1c0.1-2.7,0.5-5.4,1-8.1
			c0.5-2.6,1.2-5.2,2.1-7.7c0.9-2.5,1.9-4.9,3-7.3c1.2-2.3,2.5-4.6,4-6.7c1.5-2.1,3.1-4.2,4.8-6.1c1.7-1.9,3.6-3.7,5.5-5.4
			c2-1.7,4.1-3.2,6.2-4.7c2.2-1.4,4.5-2.7,6.8-3.8c0.8-0.4,1.5-0.7,2.3-1c-0.3-1.5-0.1-3.2,0.6-4.9c0.3-0.9,0.7-1.7,1.1-2.6
			c-2.3,0.8-4.5,1.6-6.7,2.7c-2.6,1.2-5.2,2.7-7.6,4.2c-2.4,1.5-4.7,3.3-6.9,5.2c-2.2,1.9-4.2,3.9-6.2,6c-1.9,2.1-3.7,4.4-5.3,6.8
			s-3.1,4.9-4.4,7.5c-1.3,2.6-2.5,5.3-3.4,8.1c-0.9,2.8-1.7,5.7-2.3,8.6c-0.6,3-1,6-1.1,9c-0.1,1.2-0.1,2.3-0.1,3.5
			c0,9.1,2.1,18.5,6,27c3,6.5,7.4,11.8,11.8,16.9c1.7,2.1,3.5,4.2,5.2,6.3c5.1,6.7,8.7,14.6,10.4,22.8c0.5,2.6,2,4.8,4,6.4
			c-1.7,2-2.6,4.4-2.6,7c0,1,0,2-0.1,2.9c-0.1,2.8-0.2,5.9,0.5,9.2c0.7,3.1,2.8,5.7,5.7,7.1c0.1,0.6,0.2,1.3,0.3,2
			c0.9,4,4.5,6.9,8.7,6.9h28.8c4.2,0,7.8-2.9,8.7-6.9c0.2-0.7,0.3-1.4,0.3-2c2.9-1.4,5-4,5.7-7.1c0.7-3.2,0.6-6.4,0.5-9.2
			c-0.1-1-0.1-2-0.1-2.9c0-2.6-0.9-5-2.6-7c2-1.6,3.4-3.8,3.9-6.4c1.7-8.2,5.3-16.1,10.4-22.8c1.7-2.2,3.4-4.2,5.2-6.3
			c0.4-0.5,0.8-1,1.3-1.5C131.8,126.6,131.5,126.5,131.3,126.3L131.3,126.3z M107.1,181.5c-0.3,1.5-1.6,2.7-3.2,3l-2.5,0.5l0,2.6
			c0,1.3-0.1,2.2-0.3,3c-0.2,1-1.3,1.8-2.4,1.8H69.9c-1.2,0-2.2-0.8-2.4-1.8c-0.2-1-0.3-2.1-0.3-3l0-2.6l-2.5-0.5
			c-1.6-0.3-2.9-1.5-3.2-3c-0.5-2.4-0.4-4.9-0.3-7.6c0-1.1,0.1-2.1,0.1-3.2c0-1.2,0.5-2.3,1.3-3.2c0.9-0.9,2-1.3,3.2-1.3h37.1
			c1.2,0,2.4,0.5,3.2,1.3c0.8,0.9,1.3,2,1.3,3.2c0,1,0,2.1,0.1,3.2C107.6,176.5,107.7,179,107.1,181.5L107.1,181.5z"/>
		<path class="st0" d="M60.4,47.8c0.2,0.9,0.3,1.8,0.5,2.7c-1.6,1.2-3.2,2.6-4.6,4c-8.7,8.8-13.3,20.4-13,32.8l-6.4,0.5v-0.3
			C36.5,73.4,41.7,60.1,51.7,50c2.7-2.7,5.6-5,8.7-7c-0.4,1.3-0.4,2.8-0.1,4.3L60.4,47.8L60.4,47.8z"/>
	</g>
	<path class="st0" d="M92.4,165.5c-0.1-0.8-1.8-20.2,11.3-48c-9.5-0.8-15.4-6.4-18.7-12c-3.4,5.5-9.4,11.1-18.3,12
		c13.1,27.8,11.4,47.1,11.3,48l-6.4-0.6l3.2,0.3l-3.2-0.3c0-0.2,1.6-19.8-12-47.3c-0.7-1.4-0.7-2.9,0.1-4.2c0.9-1.4,2.5-2.2,4.5-2.2
		c13.8,0,17.9-14.5,17.9-14.7c0.4-1.4,1.6-2.5,3.2-2.4c1.5,0.1,2.8,1.1,3.1,2.6c0.1,0.6,3.2,14.4,17.9,14.4c1.9,0,3.6,0.8,4.5,2.2
		c0.8,1.3,0.8,2.8,0.1,4.2c-13.7,27.4-12,47.1-12,47.2L92.4,165.5L92.4,165.5z M105.1,114.8L105.1,114.8z M65.4,114.8L65.4,114.8
		L65.4,114.8z"/>
</g>
<g>
	<g>
		<path class="st0" d="M131.3,19.2c1.4,1.9,2.6,3.5,3.8,5.1c0.2,0.3,0.9,0.4,1.4,0.4c1.5-0.3,2.9-0.8,4.4-1.1c1.9-0.4,3.1,0.2,3.8,2
			c1.8,4,2.9,8.2,3.3,12.6c0.2,1.9-0.5,3.1-2.3,3.6c-1.4,0.4-2.8,0.8-4.2,1.1c-0.9,0.2-1.3,0.6-1.3,1.5c-0.1,1.5-0.5,3.1-0.6,4.6
			c0,0.5,0.3,1.2,0.7,1.5c1.3,0.9,2.7,1.6,4,2.4c1.4,0.9,1.9,2.2,1.3,3.7c-1.6,4.3-3.9,8.3-6.9,11.8c-1.1,1.3-2.4,1.5-4,0.6
			c-1.6-0.9-3.1-1.9-4.6-2.8c-1.8,1.3-3.4,2.5-5,3.7c-0.3,0.3-0.6,1-0.5,1.5c0.3,1.5,0.8,3,1.1,4.5c0.4,1.6-0.2,2.8-1.7,3.5
			c-4.2,1.9-8.6,3.1-13.3,3.5c-1.7,0.1-2.7-0.7-3.2-2.3c-0.5-1.8-0.6-4.1-1.7-5.2c-1.1-1-3.5-0.6-5.2-1c-1.1-0.2-1.6,0.1-2.1,1
			c-0.7,1.3-1.4,2.5-2.2,3.7c-0.9,1.4-2.2,1.8-3.7,1.2c-4.3-1.6-8.2-3.9-11.7-6.8c-1.4-1.2-1.6-2.4-0.7-4.1c0.7-1.3,1.4-2.5,2.2-3.7
			c0.6-0.8,0.4-1.3-0.2-2c-0.7-0.7-1.3-1.5-1.9-2.3c-1.6-2.2-1.5-2.2-4.1-1.5c-0.1,0-0.2,0.1-0.3,0.1c-5.1,1.3-5.8,1.1-7.4-4.1
			c-1-3.2-1.6-6.5-2.2-9.8c-0.4-2,0.4-3.2,2.4-3.7c1.7-0.5,3.9-0.5,5-1.6c1-1,0.6-3.2,1-4.9c0.3-1.3,0.1-2.1-1.2-2.7
			c-1.2-0.5-2.2-1.2-3.3-1.9c-1.6-1-2-2.1-1.3-3.8c1.6-4.3,3.9-8.2,6.8-11.7c1.2-1.4,2.4-1.6,4-0.8c1.3,0.7,2.6,1.5,3.9,2.3
			c0.7,0.5,1.3,0.4,1.9-0.2c0.7-0.7,1.5-1.3,2.3-1.9c2.3-1.6,2.3-1.6,1.6-4.5c-1.4-5.2-1.4-5.4,3.6-7.2c3.4-1.2,7.1-1.8,10.7-2.5
			c1.8-0.3,2.8,0.5,3.3,2.3c0.4,1.4,0.8,2.8,1.1,4.2c0.2,0.9,0.6,1.3,1.5,1.3c0.8,0,1.7,0.1,2.5,0.2c2.2,0.3,3.8-0.5,5-2.4
			c0.4-0.6,0.7-1.2,1.1-1.9c0.9-1.4,2.2-1.9,3.7-1.3c4.4,1.6,8.3,3.9,11.8,6.9c1.4,1.1,1.6,2.4,0.6,4
			C133.2,16.2,132.2,17.7,131.3,19.2L131.3,19.2z M121.7,9.4c-1,1.8-1.7,3.1-2.4,4.4c-1.3,2.2-2.1,2.4-4.5,1.9
			c-2.6-0.5-5.2-0.9-7.8-1.1c-2.6-0.2-3.3-0.6-4-3.1c-0.4-1.5-0.8-2.9-1.2-4.4c-2.6,0.7-4.8,1.3-7.2,1.9c0.5,1.8,0.9,3.4,1.3,5
			c0.4,1.7-0.2,2.9-1.7,3.9c-2.4,1.6-4.7,3.4-6.8,5.2c-1.7,1.4-2.6,1.7-4.5,0.5c-1.4-0.9-2.7-1.8-4.3-2.9c-1.6,2.6-2.8,4.6-4,6.6
			c0.4,0.4,0.4,0.4,0.5,0.5c1.3,0.8,2.7,1.6,4,2.4c1.8,1.1,2.1,2,1.7,4.2c-0.5,2.8-0.9,5.5-1.1,8.3c-0.2,2.2-0.7,3-2.9,3.6
			c-1.5,0.4-3.1,0.8-4.7,1.2l1.9,7.3c1.8-0.5,3.3-0.9,4.8-1.3c2.1-0.5,2.8-0.1,4,1.6c1.7,2.3,3.4,4.6,5.2,6.8
			c1.3,1.6,1.6,2.6,0.5,4.5c-0.8,1.4-1.7,2.7-2.6,4.2c1.2,0.8,2.2,1.5,3.2,2.1c1.1,0.6,2.2,1.2,3.6,1.8c0.8-1.5,1.6-3,2.4-4.3
			c1.1-1.9,2-2.1,4.2-1.7c2.8,0.5,5.6,0.9,8.3,1.2c2.2,0.2,3,0.7,3.6,2.8c0.4,1.5,0.8,3.1,1.3,4.8c2.5-0.7,4.8-1.2,7.2-1.9
			c-0.4-1.7-0.8-3.2-1.2-4.7c-0.5-2.2-0.1-3,1.8-4.3c2.3-1.6,4.5-3.3,6.7-5.1c1.7-1.4,2.6-1.6,4.5-0.5c1.4,0.8,2.7,1.8,4.3,2.9
			c1.6-2.6,2.8-4.7,4-6.6c-0.4-0.4-0.4-0.4-0.5-0.5c-1.3-0.8-2.7-1.6-4-2.4c-1.8-1.1-2.1-2-1.7-4.2c0.5-2.8,0.9-5.5,1.1-8.3
			c0.2-2.2,0.7-3,2.8-3.5c1.6-0.4,3.2-0.8,4.8-1.3c-0.7-2.6-1.3-4.9-1.9-7.3c-1.8,0.5-3.4,0.9-5,1.3c-1.7,0.5-2.8-0.1-3.8-1.5
			c-1.7-2.4-3.5-4.8-5.4-7.1c-1.2-1.5-1.4-2.5-0.4-4.2c0.8-1.4,1.8-2.8,2.9-4.6C126.2,12,124.1,10.8,121.7,9.4L121.7,9.4z"/>
		<path class="st0" d="M125,37.7c2.4,10-3.6,20-13.5,22.4c-9.8,2.4-19.9-3.7-22.2-13.5c-2.4-10.1,3.6-19.9,13.7-22.4
			C112.6,21.8,122.6,28,125,37.7z M119.4,38.9c-1.8-6.8-8.7-10.9-15.4-9.2c-6.8,1.7-10.9,8.8-9.2,15.6c1.8,6.8,8.9,11,15.6,9.1
			C117.1,52.6,121.2,45.7,119.4,38.9z"/>
	</g>
	<g>
		<path class="st0" d="M176.6,89.7c-0.4,0-0.7,0-1.1,0h-0.4c-1.3,0-2.2-0.5-2.7-1.7c-0.3-0.7-0.5-1.2-0.8-1.6
			c-0.1-0.2-0.2-0.3,0.1-0.6c0.6-0.6,1.3-1.3,2.1-2.2c1.4-1.6,0.9-2.8,0.2-3.6l-0.6-0.6c-1.5-1.7-3-3.4-4.8-4.8
			c-3.2-2.6-3.6-2.3-6.3,0.5c-1.1,1.1-1.1,1.2-2.5,0.5c-0.5-0.2-1.3-0.5-2-0.7c-0.3-0.1-0.3-0.1-0.3-0.4c0-0.9,0-2-0.1-3.1
			c-0.1-1.5-0.9-2.4-2.4-2.6c-3.1-0.5-6.4-0.4-9.6,0.2c-1.5,0.3-2.2,1.2-2.2,2.8V72c0,0.8,0,1.6,0.1,2.4c0.1,0.6,0,0.8-0.7,1
			c-0.5,0.2-0.9,0.4-1.3,0.6c-0.6,0.3-1.2,0.7-1.6,0.6c-0.5-0.1-1-0.7-1.6-1.3c-0.3-0.3-0.6-0.6-0.9-0.9c-1.3-1.2-2.6-1.2-3.9,0
			l-0.2,0.2c-1.6,1.5-3.3,3-4.8,4.7c-2.6,3-2.6,3.9,0.3,6.6l0.2,0.2c0.7,0.6,0.8,1.4,0.4,2.3c-0.3,0.8-0.6,1.4-0.7,2
			c-0.1,0.4-0.2,0.4-0.5,0.4c-1,0-2,0-3,0.1c-1.7,0.1-2.5,0.8-2.7,2.4c-0.5,3.2-0.4,6.4,0.2,9.6c0.3,1.4,1.2,2.2,2.7,2.2
			c1.2,0,2.2,0,3-0.1c0.5,0,0.6,0,0.7,0.5c0.2,0.5,0.4,0.9,0.7,1.4c0.4,0.6,0.7,1.3,0.6,1.8c-0.1,0.6-0.8,1.1-1.4,1.7
			c-0.3,0.3-0.6,0.6-0.9,0.9c-1,1.1-1,2.3-0.2,3.5c1.9,2.6,4.3,4.9,7,6.7c1.2,0.8,2.4,0.7,3.4-0.3c0.3-0.3,0.6-0.6,0.9-0.9
			c0.4-0.5,0.9-0.9,1.4-1.4c0.1-0.1,0.4-0.2,0.4-0.1c0.9,0.3,1.9,0.7,2.9,1.1l0.7,0.3v0.6c0,0.9,0,1.8,0,2.7
			c0.1,1.6,0.8,2.5,2.3,2.7c3.1,0.5,6.4,0.4,9.7-0.2c0.1,0,0.2,0,0.2-0.1c1.3-0.3,2-1.3,2-2.6c0-0.4,0-0.8,0-1.2c0-0.7,0-1.3,0-2
			c0-0.1,0.2-0.4,0.3-0.5c0.5-0.2,1-0.4,1.4-0.7c0.5-0.2,1-0.4,1.5-0.7c0.4-0.2,0.4-0.2,0.7,0.1c0.6,0.7,1.3,1.3,2.2,2.1
			c1.2,1.1,2.4,1.1,3.8,0.1c2.4-1.9,4.6-4.1,6.4-6.7c0.9-1.4,0.9-2.6-0.3-3.7c-0.3-0.3-0.6-0.6-0.9-0.9c-0.4-0.4-0.9-0.8-1.3-1.2
			c-0.1-0.1-0.2-0.3-0.2-0.3c0.3-1,0.7-1.9,1.1-2.9l0.3-0.8h0.6c0.9,0,1.8,0,2.7,0c1.6-0.1,2.5-0.8,2.7-2.3c0.5-3.3,0.4-6.5-0.2-9.7
			C179.1,90.4,178.1,89.6,176.6,89.7L176.6,89.7z M167.3,110.2c0.6,0.5,1.1,1,1.7,1.6l0.5,0.4l-2.8,2.9l-0.4-0.4
			c-0.6-0.5-1.1-1.1-1.7-1.6c-1.4-1.3-2.3-1.2-3.8-0.5c-1.7,0.8-3.5,1.6-5.3,2.3c-1.5,0.6-2.2,1.2-2.2,3.1l0,3l-4.2,0l0-0.5
			c0.1-0.8,0.1-1.7,0.1-2.4c0-1.9-0.8-2.5-2.3-3c-1.9-0.7-3.7-1.3-5.4-2.1c-1.5-0.7-2.5-0.7-3.8,0.7c-0.5,0.6-1.1,1.1-1.6,1.7
			l-0.3,0.3l-2.9-2.7l0.3-0.3c0.6-0.6,1.1-1.2,1.7-1.8c1.3-1.4,1.1-2.3,0.4-3.8c-0.8-1.7-1.6-3.5-2.3-5.3c-0.6-1.5-1.2-2.2-3.1-2.2
			c-0.8,0-1.5,0.1-2.3,0.1l-0.5,0l0-0.4c-0.1-0.6-0.1-1.2-0.1-1.8c0-0.5,0-1.1,0-1.7v-0.3h0.5c0.8,0,1.6,0,2.3,0
			c1.9,0,2.5-0.8,3-2.3c0.6-1.7,1.3-3.5,2.1-5.5c0.6-1.4,0.7-2.3-0.6-3.6c-0.5-0.5-1.1-1.1-1.7-1.6l-0.4-0.4l2.8-2.9l0.2,0.2
			c0.6,0.6,1.2,1.2,1.8,1.7c1.3,1.2,2.2,1.3,3.9,0.5c1.7-0.9,3.5-1.6,5.3-2.3c1.5-0.6,2.2-1.2,2.2-3.1c0-0.7,0-1.4,0-2.1v-1l4.1,0
			c0,0.2,0,0.4,0,0.5c-0.1,0.8-0.1,1.6-0.1,2.4c0,1.9,0.8,2.5,2.3,3c1.9,0.7,3.8,1.4,5.5,2.1c1.4,0.6,2.6,0.4,3.6-0.6
			c0.5-0.5,1.1-1.1,1.6-1.7l0.4-0.5l2.9,2.7l-0.3,0.3c-0.5,0.5-1,1.1-1.5,1.6c-1.4,1.5-1.4,2.4-0.5,4.2c0.8,1.5,1.5,3.2,2.2,4.9
			c0.7,1.8,1.3,2.4,3.3,2.3c0.7,0,1.4-0.1,2.2-0.1l0.6,0l0.1,4.2h-0.7c-0.9,0-1.7,0-2.5,0c-1.7,0-2.4,0.9-2.9,2.2
			c-0.8,2.3-1.5,4.1-2.2,5.7C166.1,108.2,166.3,109.3,167.3,110.2L167.3,110.2z"/>
		<path class="st0" d="M141.4,88c-2.5,2.5-3.8,5.8-3.8,9.4c0,3.6,1.4,6.9,3.9,9.4c3.4,3.4,8.3,4.5,12.7,3.4c2.2-0.6,4.4-1.8,6.1-3.5
			c2.5-2.5,3.8-5.8,3.8-9.4c0-3.6-1.4-6.9-3.9-9.3C155,82.7,146.7,82.7,141.4,88L141.4,88z M156.8,103c-3.1,3.2-8.3,3.3-11.5,0.3
			c-1.6-1.5-2.5-3.5-2.5-5.7c-0.1-2.2,0.7-4.3,2.3-5.9c1.1-1.1,2.4-1.9,3.8-2.2c0.6-0.2,1.3-0.3,2-0.3c2.2,0,4.2,0.8,5.8,2.3
			C159.8,94.6,159.9,99.8,156.8,103L156.8,103z"/>
	</g>
</g>
</svg>
