<svg id="Layer_1" data-name="Layer 1" xmlns="http://www.w3.org/2000/svg" viewBox="0 0 200 200"><defs><style>.cls-1{fill:#d13d67;}</style></defs><path class="cls-1" d="M181.58,24.2A62.44,62.44,0,0,0,100,18.37a62.44,62.44,0,0,0-85.38,90c1.16,1.4,2.44,2.81,3.8,4.17L100,194.09l81.58-81.58c1.38-1.38,2.65-2.78,3.8-4.16A62.08,62.08,0,0,0,181.58,24.2ZM27.91,109.89H68.38l9.45-37.41,11.75,37.41H116l10.68,19.35,10.77-18.85h34.16L100,182Zm151.68-8H132.47l-5.68,9.93L121,101.33H95.86L76.94,41.07,61.72,101.33H20A53.86,53.86,0,0,1,97.24,27.1L100,29.43l2.76-2.33a53.86,53.86,0,0,1,76.83,74.74Z"/></svg>