<svg id="Ãconos" xmlns="http://www.w3.org/2000/svg" viewBox="0 0 700 700"><defs><style>.cls-1{fill:#d13d67;}</style></defs><path id="Lenguajes" class="cls-1" d="M631,179.41c-2.64-2.64-5.36-5.28-8.19-7.85-6.19-5.53-11.89-10.23-17.43-14.36-5.85-4.36-12-8.51-18.72-12.68-6.56-4-13.31-7.64-20.07-10.89a227.47,227.47,0,0,0-21-8.94l-.66-.21c-6.92-2.53-14.11-4.78-21.39-6.69a236.9,236.9,0,0,0-59.15-7.4c-3.08,0-6.16.08-9.2.25a233.39,233.39,0,0,0-162.06,74.14c-1.24,1.24-2.39,2.48-3.37,3.63-2,2.13-3.83,4.34-5.75,6.61-.77.94-1.52,1.9-2.27,2.87s-1.44,1.84-2.28,2.87a166,166,0,0,0-32.34,94.42l-5.27,7.38c-3.32,4.66-6.73,9.23-10.23,13.65C146.23,425.42,28.32,456.82,23.31,458.11L0,463.62l19.77,13.76C26.5,482,186.83,589.61,390.93,589.61a551.73,551.73,0,0,0,117.44-12.53c.38-.06.73-.14,1.09-.22l7.08-1.6c3.2-.76,6.31-1.52,9.4-2.29a233.74,233.74,0,0,0,100-56.08l.91-.09.68-1.35a234.58,234.58,0,0,0,44.08-57.64l.41-.75v0a235,235,0,0,0-41-277.63Zm-107.1,242.9a97,97,0,0,0,37.55-76.59,90.5,90.5,0,0,0-1.56-16.85,96.8,96.8,0,0,0-192.12,17A10.73,10.73,0,0,0,389.13,347a4.76,4.76,0,0,0,.15-1.32l-.07-1.21A75.38,75.38,0,0,1,540,345.72a74.68,74.68,0,0,1-9.38,36.4,146.21,146.21,0,0,1-20.36,23.55l-1,.89a144.22,144.22,0,0,1-97,37.78c-79,0-143.5-64.27-143.83-143.84a149.68,149.68,0,0,1,28-86.75l1.2-.81v-.67a182.22,182.22,0,0,1,12.37-14.07c.6-.66,1.21-1.26,1.83-1.85l1.1-1.1a209.27,209.27,0,0,1,47.73-36.33,203.48,203.48,0,0,1,37.76-16.43A206.11,206.11,0,0,1,457.43,132c2.36-.16,4.83-.18,7.15-.15a212.78,212.78,0,0,1,151.2,62.67A220.19,220.19,0,0,1,642,226.14,213.88,213.88,0,0,1,519.17,552.58l0,0c-3.56,1-7.41,1.88-12.81,2.94a22.15,22.15,0,0,1-2.27.53,531.55,531.55,0,0,1-94.28,11.75c-6.33.25-12.67.33-19,.33-160.14,0-293.64-69.41-339.36-96.33,37.34-13.17,116.79-48.38,183.78-126.21,4.58-5.22,9.21-10.88,14.06-17.17a165.27,165.27,0,0,0,274.63,93.87ZM508.69,573.56h0Z"/></svg>