<svg id="Íconos" xmlns="http://www.w3.org/2000/svg" viewBox="0 0 700 700"><defs><style>.cls-1{fill:#d13d67;}</style></defs><path id="Saberes_y_pensamiento_científico" data-name="Saberes y pensamiento científico" class="cls-1" d="M624.37,155.2C600,115.15,548.06,95.76,478,100.61c-1.39.07-2.7.18-4,.31-15.6-30.85-34-55.19-54.65-72.37C397.52,10.41,374.26,1.22,350.2,1.22S302.79,10.46,281,28.68C260.24,46,241.84,70.43,226.24,101.45c-34.64-2.8-65.14.19-90.67,8.89-26.94,9.17-47,24.27-59.55,44.87-24.43,40.14-17.79,95.22,18.7,155.1,2.37,3.83,4.92,7.89,7.6,11.9-2.68,4-5.23,8.07-7.61,11.91C58.25,394,51.62,449.11,76,489.22c20.86,34.23,63.75,53.67,120.77,54.75l4.31.08-2.75-3.32C194,535.5,189.47,529.9,185.14,524l-.54-.74-.91-.07C141,519.81,110,504.28,94.06,478.24c-20.1-33.07-13.47-80.36,18.7-133.18.89-1.5,1.84-3,2.77-4.42a408.8,408.8,0,0,0,34,39.25l2.91,2.95.48-4.11c.1-.92.27-1.82.45-2.77.11-.55.21-1.11.3-1.62,1.08-5.48,2.27-10.5,3.64-15.35l.31-1.07-.76-.82a379.14,379.14,0,0,1-28.82-34.89,425.14,425.14,0,0,1,54.31-60.37c-1.37,13.22-2.25,26.36-2.61,39.15l-.21,7.31,3.87-6.21c.2-.33.41-.64.61-.95l.63-1A184.38,184.38,0,0,1,201,279.35a5.48,5.48,0,0,0,.37-.43c.05-.06.09-.12.14-.17l.48-.51.05-.69c1.12-13.71,2.42-25.63,4-36.38a586.47,586.47,0,0,1,66.28-46.92,570.4,570.4,0,0,1,77.88-39.81,571.33,571.33,0,0,1,78,39.81,581.14,581.14,0,0,1,66.27,46.91c2,14.13,3.52,28.55,4.43,42.87l0,.57.33.46c.24.34.5.65.76,1a8.43,8.43,0,0,1,.6.74l.09.13A182.45,182.45,0,0,1,516,308.52l.62,1c.22.37.44.75.66,1.1l3.8,6.09-.13-7.18c-.32-16.52-1.28-32.58-2.87-47.82a423.64,423.64,0,0,1,54.56,60.46,390.69,390.69,0,0,1-33,39.24l-.76.79.27,1.06C540.7,369.35,542,376,543.1,383l.59,3.88,2.77-2.78A432.46,432.46,0,0,0,585,340c34.87,54.66,42.49,103.68,21.39,138.25-16.34,27-49.1,42.5-94.72,44.9l-.94.05-.56.75c-4,5.51-8.5,11.19-13.64,17.39l-2.69,3.25h5.08c29.54,0,55.31-4.74,76.61-14.07,21.5-9.43,37.95-23.32,48.89-41.29,25.68-42.05,15.9-102.87-26.8-167C640.3,258.12,650.08,197.3,624.37,155.2ZM618,210c0,28-11.43,60.68-33.09,94.55-19.44-25.79-43.28-50.76-70.88-74.25-6.34-39.92-16.58-76.5-30.43-108.82,5.64-.33,10.7-.5,15.39-.5,51.55,0,89.69,16.07,107.39,45.24C614.05,178.81,618,193.54,618,210Zm-128.81.44a579.8,579.8,0,0,0-50-34.1h0A584.57,584.57,0,0,0,378,143.77c29-10.14,57.27-17,84.14-20.35C473.76,149.56,482.83,178.79,489.15,210.4Zm-36.7-107c-33.07,4.86-67.5,14.4-102.42,28.39-34.86-13.88-69.24-23.29-102.24-28C275.71,51.25,312,22.32,350.2,22.32S424.52,51.1,452.45,103.43ZM322.34,143.69a617.51,617.51,0,0,0-61,32.61h0c-17.6,10.75-34.39,22.14-50,33.88,6.43-31.75,15.52-61,27.06-87C265,126.51,293.24,133.41,322.34,143.69ZM217,121.1c-14,32.59-24.22,69.21-30.44,108.9-27.87,23.57-51.76,48.37-71.05,73.78-.93-1.44-1.88-2.93-2.78-4.45C80.6,246.54,74,199.25,94.06,166.18c18.11-29.66,55.86-45.55,107.34-45.55C206.47,120.63,211.69,120.79,217,121.1Zm143,158.73,3.95.1-.56,24.12-4-.11a108.53,108.53,0,0,0-111,111.62l.11,3.78-24,1.85-.19-4.89A132.68,132.68,0,0,1,360.06,279.83ZM511.67,408.45a167.14,167.14,0,0,0-1.61-23.17A163.26,163.26,0,0,0,505.34,363a165.66,165.66,0,0,0-30.58-58.74,165.54,165.54,0,0,0-115.31-60.86c-3.22-.25-6.13-.4-8.88-.44-4.13-.08-8.37,0-12.6.37-5.71.44-10.86,1.06-15.73,1.9a166.13,166.13,0,0,0-22,5.34,162.94,162.94,0,0,0-20.8,8.18,165.06,165.06,0,0,0-19.32,10.78,170,170,0,0,0-17.6,13.16A165.64,165.64,0,0,0,226.81,298a165,165,0,0,0-24.76,36.33,164,164,0,0,0-14.46,42.42,167.6,167.6,0,0,0-2.81,22.91c-.15,2.84-.23,5.72-.23,8.82a166.45,166.45,0,0,0,15.22,68.85c7.65,16.69,18.94,30.08,29.85,43l.07.07c4.32,5.12,8.78,10.4,12.93,15.82a139.71,139.71,0,0,1,25.74,56.58,29.52,29.52,0,0,0,9.15,16,28.86,28.86,0,0,0-5.73,17.31c0,2.35-.08,4.7-.17,7.18v.12c-.26,7.1-.56,15.14,1.26,23.56a28.17,28.17,0,0,0,14.39,18.72c.18,1.52.41,2.92.7,4.24a24.38,24.38,0,0,0,23.87,18.89H384.4a24.37,24.37,0,0,0,23.86-18.88c.29-1.33.52-2.73.7-4.25a28.19,28.19,0,0,0,14.39-18.73c1.82-8.42,1.53-16.46,1.26-23.54l0-1.17c-.07-2.13-.14-4.13-.13-6.15a28.86,28.86,0,0,0-5.73-17.3,29.58,29.58,0,0,0,9.15-16,139.64,139.64,0,0,1,25.74-56.58c4.14-5.42,8.61-10.7,12.93-15.82l.07-.09c10.91-12.94,22.19-26.32,29.84-43A166.31,166.31,0,0,0,511.67,408.45Zm-205.3,267.8a37,37,0,0,1-.67-7.34l-.11-8.13-7.95-1.73a8.36,8.36,0,0,1-6.62-6.16c-1.3-6-1.08-12.17-.85-18.71V634c.12-2.78.21-5.51.2-8.23a9.5,9.5,0,0,1,2.79-6.74,9.72,9.72,0,0,1,6.91-2.87h95a9.71,9.71,0,0,1,6.91,2.87,9.42,9.42,0,0,1,2.79,6.75c0,2.81.1,5.61.2,8.21v.19c.23,6.54.44,12.72-.85,18.69a8.39,8.39,0,0,1-6.62,6.17l-8,1.73-.1,8.13a35.74,35.74,0,0,1-.69,7.35,4.33,4.33,0,0,1-4.26,3.07H310.64A4.33,4.33,0,0,1,306.37,676.25ZM334,596.72c-1-19.17-6.09-56.27-27.6-102.75,22.42-3.24,36.14-17.88,43.15-28.08,6.7,10.29,20.27,25,44.15,28.14-21.48,46.45-26.54,83.52-27.56,102.69Zm63.87,0H386.24c1.2-19.25,6.78-56.5,29.75-102.66a12.49,12.49,0,0,0-.38-12.42c-2.51-4.09-7.32-6.52-12.87-6.52-35.31,0-42.52-33.18-42.81-34.58a10,10,0,0,0-9.44-8.05,9.59,9.59,0,0,0-10.08,7.41c-.09.35-10.09,35.22-43,35.22-5.55,0-10.36,2.43-12.88,6.51a12.46,12.46,0,0,0-.4,12.4c23,46.18,28.56,83.44,29.76,102.69H297.79a9.78,9.78,0,0,1-9.64-7.64,158.76,158.76,0,0,0-29.33-64.44c-4.29-5.63-8.81-11-13.5-16.55-10.45-12.4-20.33-24.12-26.8-38.26a145.17,145.17,0,0,1-13.32-60.11c0-2.57.07-5.17.21-7.72a144,144,0,0,1,2.45-20,142,142,0,0,1,5.08-19.07,144.39,144.39,0,0,1,7.54-17.95A145.68,145.68,0,0,1,271.2,288.3a148,148,0,0,1,16.88-9.43,144.43,144.43,0,0,1,37.42-11.8c4.39-.75,8.9-1.29,13.8-1.66,2.86-.22,5.75-.34,8.58-.34l2.05,0c2.51,0,5.06.17,7.58.38a144.71,144.71,0,0,1,19.9,3,144.91,144.91,0,0,1,53,23.83,148.63,148.63,0,0,1,14.81,12.26,145.72,145.72,0,0,1,24.18,29.82,143.76,143.76,0,0,1,19.72,55,146.9,146.9,0,0,1,1.41,20.28,145.26,145.26,0,0,1-13.32,60.11h0c-6.46,14.09-16.29,25.77-26.71,38.14l-.13.16c-4.88,5.76-9.26,11-13.48,16.5a158.9,158.9,0,0,0-29.33,64.46A9.74,9.74,0,0,1,397.91,596.72ZM465.1,519Z"/></svg>