<svg id="Íconos" xmlns="http://www.w3.org/2000/svg" viewBox="0 0 700 700"><defs><style>.cls-1{fill:#d13d67;}</style></defs><path id="Ética_naturaleza_y_sociedad" data-name="Ética, naturaleza y sociedad" class="cls-1" d="M697.53,168.1C697.53,75.41,622.11,0,529.42,0A168,168,0,0,0,375.25,101.12l-1.21,0c-165.12,0-299.46,134.34-299.46,299.46a293.06,293.06,0,0,0,1.66,30.58A118.29,118.29,0,0,0,23.7,473,116.81,116.81,0,0,0,2.47,540.37a118.08,118.08,0,0,0,118,118A116.73,116.73,0,0,0,189.23,636,298.1,298.1,0,0,0,374,700c165.11,0,299.44-134.33,299.44-299.44A296.65,296.65,0,0,0,650.15,285,167.05,167.05,0,0,0,697.53,168.1ZM209.75,248.15l1.42,1c15.05,10.14,32.11,21.63,38.68,39,3.83,10.16,1.48,19.34-1.64,27.76-4,10.93-7.15,20.15-8.14,30.9a90.25,90.25,0,0,0,15.19,58.59c3,4.38,7.79,6.3,12.57,5,9.85-2.55,15.3-10.25,16.67-23.57.12-1.26.14-2.79.16-4.39.12-7.55.59-13.81,5.13-13.92H290c9,0,13.54,11.94,16.85,20.67.64,1.68,1.24,3.27,1.84,4.67a177.18,177.18,0,0,0,20.48,36.41c7.19,9.69,15.85,19.23,27.25,30l1.56,1.49c8,7.51,17,16,17.17,26.78.12,5.62-1.91,11.34-3.87,16.87-.54,1.5-1.07,3-1.55,4.47-2.61,7.85-4.93,15.77-6.88,23.53a353.15,353.15,0,0,0-6,143.66A274.1,274.1,0,0,1,250.36,648.3a10.58,10.58,0,0,0-.32-4.7l-17.79-66.05A117.73,117.73,0,0,0,98.11,424.6c-.73-8.43-1.09-16.32-1.09-24a275.67,275.67,0,0,1,73.27-187.38C180.5,227.9,194.79,238.14,209.75,248.15ZM377,579a325.21,325.21,0,0,1,10-48.84c1.08-3.83,2.41-7.65,3.82-11.69,4-11.63,8.24-23.66,6.29-36.13-2.3-14.35-11.94-25.43-20.08-33.46q-3-3-6.11-6c-8.46-8.25-16.46-16.05-23.29-25.4-8-11.06-14.62-23.38-21-38.77-5-12-11.42-25.28-25.46-30.55a31.37,31.37,0,0,0-11-2,27.67,27.67,0,0,0-11.51,2.43A25.32,25.32,0,0,0,265.2,363.2a33.78,33.78,0,0,0-1.48,5.33,65.4,65.4,0,0,1,.35-30,120.37,120.37,0,0,1,4.33-13c2.23-5.94,4.54-12.09,5.52-18.7a53.53,53.53,0,0,0-4.33-29.34c-8.66-19.8-26.32-33.61-40.74-43.43q-3-2-6-4.06c-13.68-9.14-27.84-18.59-36.33-33a276.13,276.13,0,0,1,180.84-73.28,167.81,167.81,0,0,0,53.05,172.22,90.78,90.78,0,0,0-6.8,11.38c-10.36,21-14.46,43.93-16.87,61.58-3.43,24.83-2.85,46.52,1.72,64.47,6,23.42,18.74,40.52,38,50.81,17.95,9.61,37.84,10.32,54.57,2a97.85,97.85,0,0,0,9.5-5.7c5.2-3.39,10.58-6.89,16.25-8.17a18.18,18.18,0,0,1,3.3-.5,18.64,18.64,0,0,1,1.08,2.93l0,.13a36.67,36.67,0,0,1,1.75,13.42c-.5,9.87-5.53,16.41-11.36,24l-1.68,2.19c-7.92,10.49-8.05,23.51-.36,35.72,4.57,7.24,10.5,13.69,16.24,19.93,3.07,3.34,6.25,6.8,9.11,10.28l3.51,4.25c6.3,7.62,12.79,15.48,19.48,23a276,276,0,0,1-178.31,69.79A331.12,331.12,0,0,1,377,579ZM529.42,313.77c-80.32,0-145.66-65.35-145.66-145.67S449.1,22.44,529.42,22.44,675.09,87.78,675.09,168.1,609.74,313.77,529.42,313.77Zm.72,211.16c.53-.6,1.06-1.19,1.58-1.8a56.39,56.39,0,0,0,12.49-25.76A59.41,59.41,0,0,0,543,469.65c-2.52-8.42-7.11-18.3-20.27-19.95a30.42,30.42,0,0,0-3.78-.23c-10.35,0-18.83,5.29-27.06,10.43-6.52,4.07-12.68,7.91-19.67,9.27-16.56,3.28-32.49-7.56-41.11-17.84-10.75-12.86-15.47-31.54-14.43-57.11,1.36-36.31,8.65-64.85,21.68-84.87a167.65,167.65,0,0,0,193.94-8.45A275.8,275.8,0,0,1,573.9,592.06c-6.53-7.37-12.94-15.06-19.15-22.51-6.69-8-13.61-16.32-20.7-24.25l-.66-.74c-2.95-3.3-6.62-7.4-7.26-11.5C525.66,530.18,527.33,528.07,530.14,524.93ZM215.92,540.37a95.51,95.51,0,1,1-95.5-95.5A95.62,95.62,0,0,1,215.92,540.37Zm1.19,67.28q3.46,12.81,6.92,25.63c-5.77-3.77-11.56-7.87-17.53-12.43A118.72,118.72,0,0,0,217.11,607.65ZM578.92,118l15.86,15.87L503.65,225,463.59,177.9l17.1-14.53L505,192ZM164.68,512l-28.4,28.39,28.4,28.4-15.86,15.87-28.4-28.4L92,584.64,76.15,568.77l28.4-28.4L76.15,512,92,496.11l28.4,28.4,28.4-28.4Z"/></svg>