<svg id="Ãconos" xmlns="http://www.w3.org/2000/svg" viewBox="0 0 700 700"><defs><style>.cls-1{fill:#d13d67;}</style></defs><path id="De_lo_humano_a_lo_comunitario" data-name="De lo humano a lo comunitario" class="cls-1" d="M62.22,408.4a106.14,106.14,0,0,0,105.32,13.41c1.35-5.05,2.89-10.05,4.66-15A49.65,49.65,0,0,1,159,400.51a83.78,83.78,0,0,1-80.36-8.67A84.28,84.28,0,0,1,43.32,332h98.14c1.66-3.47,4.48-10.66,7-23.08H27.32a100.32,100.32,0,0,1,129.94-81.37,189.51,189.51,0,0,1,5.85-22.2,121.35,121.35,0,0,0-36.39-5.66C63.42,199.7,9.39,249,3.72,312c-.33,3.68-.5,7.43-.5,11.15,0,1.93,0,3.85.17,5.72l.2,3.15H20.12A107,107,0,0,0,45.3,392.48,129.19,129.19,0,0,0,0,490.84v103.6H161.06V571.37h-138V490.84A105.88,105.88,0,0,1,62.22,408.4Zm588.93-18.81a105.28,105.28,0,0,0,22.72-56.31c4.73.57,9.88,1.06,14.74,1.47,9.79-84.59-78-155.28-158.39-127.32,2.12,6.71,4.38,16.25,5.76,23.24,55.76-22.8,121.86,19.31,129,78.17-49.7-5.81-102.28-35.58-109.88-40.19a23.92,23.92,0,0,0-15.81-3.46l2.06,24.16S590.65,319,651,329.91c-2.81,55.47-66.55,93.93-116.88,70.18a48.07,48.07,0,0,1-7.29,4.27,182.38,182.38,0,0,1,6.27,20c34.14,12,73.89,4.76,101.75-18.28,52.34,33.64,41.62,112.42,42.06,165.25h-138v23.07H700C698.63,530.11,714.17,431.64,651.15,389.59ZM522.59,346c-6.15-12.54-13.8-37.4-15.4-84.55l-.1-1.32c-2.4-86.3-74.21-156.28-160.71-156.28s-158.21,69.82-160.78,156l-.11,1.62c-1.59,46.89-9.25,71.87-15.39,84.55a22.9,22.9,0,0,0,1.07,22.17,18.35,18.35,0,0,0,15.6,8.92h37.47a155.16,155.16,0,0,0-31.3,94v125H507.05v-125a154.89,154.89,0,0,0-31.35-94h30.21a18.52,18.52,0,0,0,15.59-8.91A23,23,0,0,0,522.59,346Zm-39,125.05V572.63H216.43V471.08a132.39,132.39,0,0,1,39.34-94.49c1-1.11,2.15-2.15,3.42-3.28,2.4-2.24,5-4.51,7.85-6.75a127.41,127.41,0,0,0,79.34,27.34,129,129,0,0,0,82.9-30.22c2.94,2.17,5.57,4.29,8,6.45,2.76,2.38,5,4.44,7,6.5A132.1,132.1,0,0,1,483.56,471.08ZM240.66,264.76a103.5,103.5,0,0,1,6.8-37.18c18.58-3.5,35.21-10.3,49.43-20.23,33.72,24.58,87.61,53.53,155.06,54.31,0,1,.06,2.06.06,3.1a105.68,105.68,0,0,1-211.35,0ZM454,353.62c-2.68-2.43-5.39-4.7-8.1-6.78a128.77,128.77,0,0,0,29.6-82.08c0-1.9-.07-3.8-.14-5.64a123.19,123.19,0,0,0-2.51-20.28l-.3-1.45-1.48.12a189.08,189.08,0,0,1-20.36.53c-58.76-1.28-106.9-26.74-136.94-47.88-5.08-3.56-10.19-7.42-16.09-12.16l-1.17-.93-1.07,1.06a86.88,86.88,0,0,1-16.13,12.64,100.31,100.31,0,0,1-20.41,9.45,114.85,114.85,0,0,1-26.52,5.61l-.91.09-.42.81a120.67,120.67,0,0,0-8.45,21,128.73,128.73,0,0,0,27.11,122.59q-2,1.66-3.81,3.27H192.42a153.63,153.63,0,0,0,8.8-26.86,292.48,292.48,0,0,0,6.53-42.43c.54-6.32,1-12.89,1.23-19.57,0-.38,0-.75,0-1.14s0-.85,0-1.25c1.25-74.44,62.85-135,137.33-135s136,60.53,137.25,134.9c0,.48,0,.93,0,1.37s0,.75,0,1.18c1,23.58,3.57,44.42,7.76,61.94a150.09,150.09,0,0,0,8.79,26.86Z"/></svg>