<?xml version="1.0" encoding="utf-8"?>
<!-- Generator: Adobe Illustrator 24.2.3, SVG Export Plug-In . SVG Version: 6.00 Build 0)  -->
<svg version="1.1" xmlns="http://www.w3.org/2000/svg" xmlns:xlink="http://www.w3.org/1999/xlink" x="0px" y="0px"
	 viewBox="0 0 384.4 376" style="enable-background:new 0 0 384.4 376;" xml:space="preserve">
<style type="text/css">
	.st0{display:none;}
	.st1{display:inline;fill:#DE557C;}
	.st2{fill:#DE557C;}
</style>
<g id="Layer_1" class="st0">
	<path class="st1" d="M300.4,171.8c41.5-33.7,61.8-77.2,45.4-97.8c-5.8-7.2-15.3-10.7-27.1-10.7c-11,0-23.8,3-37.4,8.7
		c-14.9,6.5-28.9,14.9-41.5,25l0,0C239.4,43.3,218,0,191.6,0S144,42.8,143.4,96.1C116.3,75,87.2,63.3,65.6,63.3
		c-11.8,0-21.3,3.4-27.1,10.7c-16.4,20.6,3.9,64.1,45.4,97.8c-52,12.4-89.2,42.8-83.4,68.4c4.3,18.9,30.7,30,65.2,30
		c13.3-0.1,26.6-1.6,39.7-4.5c-22.8,48.3-22.2,96.4,1.5,107.8c3.5,1.7,7.3,2.5,11.2,2.5c23.3,0,53.9-27.5,74.1-68.5
		c20.2,41,50.8,68.5,74.1,68.5c3.9,0,7.7-0.8,11.2-2.5c23.7-11.4,24.3-59.5,1.5-107.9c13,2.9,26.3,4.4,39.6,4.5
		c34.4,0,60.9-11.1,65.2-30C389.6,214.5,352.4,184.1,300.4,171.8z M275.7,177c-4.7-14.5-18.2-24.2-33.4-24.2
		c-6.3,0.2-12.5,1.4-18.4,3.6c2.2-5.9,3.4-12.1,3.6-18.4c0-4.6-0.9-9.2-2.7-13.4c6.4-6.9,13.2-13.2,20.5-19.1
		c24.8-19.7,52.9-32,73.4-32c6.2,0,14.6,1.2,19.1,6.8c5.4,6.8,4.5,19.1-2.5,33.9c-8.2,17.3-23.3,35.3-42.7,50.7
		C287.3,169.4,281.6,173.4,275.7,177L275.7,177z M222,168.1c6.7-3.2,14.1-5.2,20.2-5.2c13.9,0,25.1,11.2,25.1,25.1
		s-11.2,25.1-25.1,25.1c-6.1,0-13.5-2.1-20.2-5.2C230,195.8,230,180.2,222,168.1L222,168.1z M219.3,115.5
		c-12.4-15-34.6-17.1-49.6-4.7c-1.7,1.4-3.3,3-4.7,4.7c-3.6-3.7-7.3-7.4-11.4-11c-0.1-2.1-0.1-4.1-0.1-6.3c0-51.9,20-88.1,38-88.1
		s38.1,36.2,38.1,88.1c0,2.5-0.1,5-0.2,7.4C225.8,108.9,222.4,112.2,219.3,115.5L219.3,115.5z M192.2,213.7
		c-14.2,0-25.7-11.5-25.7-25.7s11.5-25.7,25.7-25.7c14.2,0,25.7,11.5,25.7,25.7C217.9,202.2,206.4,213.7,192.2,213.7z M217.3,238.1
		c0,13.9-11.2,25.1-25.1,25.1s-25.1-11.2-25.1-25.1c0-6.1,2.1-13.5,5.2-20.2c12,8,27.7,8,39.7,0
		C215.2,224.6,217.3,231.9,217.3,238.1z M167.1,138c0-13.9,11.2-25.1,25.1-25.1s25.1,11.2,25.1,25.1c0,6.1-2.1,13.5-5.2,20.2
		c-12-8-27.7-8-39.7,0C169.2,151.4,167.1,144.1,167.1,138z M162.4,207.9c-6.7,3.2-14.1,5.2-20.2,5.2c-13.9,0-25.1-11.2-25.1-25.1
		s11.2-25.1,25.1-25.1l0,0c6.1,0,13.5,2.1,20.2,5.2C154.3,180.2,154.3,195.9,162.4,207.9L162.4,207.9z M46.5,80.3
		c4.5-5.7,12.9-6.8,19.1-6.8c20.5,0,48.7,12.3,73.5,32c7.3,5.8,14.2,12.2,20.5,19c-1.8,4.3-2.7,8.9-2.7,13.5
		c0.2,6.3,1.4,12.5,3.6,18.4c-5.9-2.2-12.1-3.5-18.4-3.7c-11.2,0-21.7,5.3-28.3,14.3c-5.4,0.4-11,1.1-16.7,2
		c-1.8-1.4-3.7-2.7-5.5-4.1C51,132.6,35.3,94.4,46.5,80.3z M104.9,255.5c-12.8,3-25.9,4.5-39.1,4.6c-29.6,0-52.3-9.1-55.3-22.1
		c-4-17.6,26.8-45.1,77.4-56.7c6.8-1.6,13.6-2.7,20.5-3.5c-5.6,18.6,4.8,38.2,23.4,43.9c0.6,0.2,1.2,0.4,1.9,0.5
		c-8.5,9.7-16,20.3-22.2,31.6C109.3,254.4,107.2,254.9,104.9,255.5z M183.9,301.5c-20.1,41.8-48.9,64.3-65.7,64.3
		c-2.3,0-4.6-0.5-6.8-1.5c-16.2-7.8-18.6-49.1,3.9-95.9c9.4-19.6,20.7-34.8,31.8-45.6c4.6-0.6,9.1-1.7,13.5-3.3
		c-2.2,5.9-3.5,12.1-3.6,18.4c0,14.1,8.4,26.9,21.4,32.4c2.2,8.5,4.9,16.8,8.3,24.8C185.8,297.4,184.8,299.5,183.9,301.5
		L183.9,301.5z M273.1,364.4c-2.1,1-4.4,1.5-6.8,1.5c-16.9,0-45.6-22.5-65.8-64.3c-4.4-9.1-8-18.6-10.9-28.4
		c0.8,0.1,1.7,0.1,2.5,0.1c16.5,0,30.8-11.5,34.4-27.6c12.4,7.2,25.6,12.8,39.4,16.7c1,2,2.1,4,3.1,6.1
		C291.6,315.3,289.3,356.6,273.1,364.4L273.1,364.4z M289.7,179.9c2.2,0.4,4.5,0.8,6.8,1.4c24.1,5.5,45.6,15.2,60.5,27.2
		c12.7,10.3,18.9,21,17,29.5c-3,13-25.7,22.1-55.3,22.1c-13.2-0.1-26.3-1.6-39.1-4.6c-20-4.6-38.2-12-52.3-21.3
		c-0.6-5-1.7-9.8-3.4-14.5c5.9,2.2,12.1,3.4,18.4,3.6c19.4,0,35.2-15.8,35.2-35.2v-0.1C281.5,185.5,285.6,182.8,289.7,179.9
		L289.7,179.9z"/>
</g>
<g id="Layer_2">
	<path class="st2" d="M192.5,11.1c-70.7,0-128,57.3-128,128s105.7,226.7,128,226.7c21,0,128-155.9,128-226.7S263.2,11.1,192.5,11.1z
		 M192.5,221.8c-40.7,0-73.7-33-73.7-73.7s33-73.7,73.7-73.7c40.7,0,73.6,33,73.6,73.7S233.2,221.8,192.5,221.8z"/>
</g>
</svg>
