<svg id="Layer_1" data-name="Layer 1" xmlns="http://www.w3.org/2000/svg" viewBox="0 0 384.35 376"><defs><style>.cls-1{fill:#fff;}</style></defs><path class="cls-1" d="M300.38,171.79c41.48-33.73,61.8-77.24,45.43-97.79-5.78-7.2-15.32-10.65-27.09-10.65-11,0-23.84,3-37.44,8.67a183.7,183.7,0,0,0-41.54,25h0C239.38,43.29,218,0,191.56,0S144,42.82,143.42,96.07C116.28,75,87.18,63.31,65.61,63.31c-11.76,0-21.3,3.45-27.06,10.67C22.18,94.57,42.48,138.12,84,171.8,32,184.15-5.25,214.56.61,240.23c4.31,18.88,30.71,30,65.15,30a186.27,186.27,0,0,0,39.65-4.51c-22.77,48.33-22.23,96.4,1.52,107.82A25.49,25.49,0,0,0,118.09,376c23.29,0,53.92-27.53,74.09-68.5C212.36,348.5,243,376,266.28,376a25.39,25.39,0,0,0,11.17-2.46c23.72-11.42,24.28-59.49,1.5-107.85a186.1,186.1,0,0,0,39.64,4.51c34.44,0,60.86-11.1,65.16-30C389.61,214.54,352.39,184.13,300.38,171.79ZM275.68,177a35.2,35.2,0,0,0-33.45-24.23,56.5,56.5,0,0,0-18.45,3.62A56.72,56.72,0,0,0,227.4,138a35.15,35.15,0,0,0-2.66-13.43,184.21,184.21,0,0,1,20.53-19.06c24.75-19.73,52.91-32,73.45-32,6.24,0,14.61,1.17,19.12,6.85,5.43,6.75,4.52,19.13-2.48,33.94C327.19,131.6,312,149.6,292.7,165a173.56,173.56,0,0,1-17,12ZM222,168.12c6.74-3.16,14.11-5.21,20.23-5.21a25.08,25.08,0,1,1,0,50.16c-6.12,0-13.49-2-20.23-5.21a35.79,35.79,0,0,0,0-39.74Zm-2.66-52.61a35.22,35.22,0,0,0-49.58-4.74,34.81,34.81,0,0,0-4.74,4.74c-3.56-3.73-7.32-7.41-11.36-11-.07-2.08-.15-4.14-.15-6.27,0-51.92,20-88.1,38-88.1s38.05,36.18,38.05,88.1c0,2.52-.08,5-.18,7.42-3.54,3.25-6.94,6.54-10.08,9.84Zm-27.16,98.18A25.69,25.69,0,1,1,217.87,188,25.69,25.69,0,0,1,192.18,213.69Zm25.08,24.36a25.08,25.08,0,1,1-50.16,0c0-6.12,2.05-13.49,5.21-20.23a35.79,35.79,0,0,0,39.74,0C215.18,224.56,217.26,231.93,217.26,238.05ZM167.1,138a25.08,25.08,0,1,1,50.16,0c0,6.12-2,13.49-5.21,20.23a35.79,35.79,0,0,0-39.74,0C169.18,151.44,167.1,144.07,167.1,138Zm-4.74,69.92c-6.74,3.16-14.11,5.21-20.23,5.21a25.08,25.08,0,0,1,0-50.16h0c6.12,0,13.49,2.05,20.23,5.21a35.79,35.79,0,0,0,0,39.74ZM46.48,80.31c4.52-5.66,12.9-6.85,19.13-6.85,20.55,0,48.7,12.27,73.48,32a186.5,186.5,0,0,1,20.54,19A35.3,35.3,0,0,0,157,138a56.5,56.5,0,0,0,3.62,18.45,56.57,56.57,0,0,0-18.4-3.67,35.13,35.13,0,0,0-28.31,14.33c-5.44.42-11,1.06-16.66,2-1.85-1.36-3.71-2.68-5.52-4.13C51,132.62,35.26,94.38,46.48,80.31Zm58.38,175.15a176.3,176.3,0,0,1-39.1,4.6C36.18,260.06,13.47,251,10.5,238c-4-17.55,26.8-45.15,77.42-56.7a184.94,184.94,0,0,1,20.51-3.5,35.18,35.18,0,0,0,23.43,43.89c.61.19,1.24.36,1.86.51a175,175,0,0,0-22.19,31.6C109.33,254.35,107.18,254.94,104.86,255.46Zm79,46.07c-20.12,41.78-48.89,64.32-65.75,64.32a15.19,15.19,0,0,1-6.76-1.45c-16.22-7.81-18.59-49.11,3.94-95.89,9.42-19.56,20.73-34.84,31.84-45.63a62.35,62.35,0,0,0,13.47-3.28A56.5,56.5,0,0,0,157,238.05a35.22,35.22,0,0,0,21.42,32.41,183.9,183.9,0,0,0,8.29,24.82c-.94,2.08-1.85,4.17-2.85,6.25Zm89.21,62.86a15.52,15.52,0,0,1-6.77,1.46c-16.85,0-45.63-22.55-65.75-64.32a183.57,183.57,0,0,1-10.89-28.38c.84.06,1.68.12,2.54.12a35.23,35.23,0,0,0,34.37-27.59A171.13,171.13,0,0,0,266,262.4c1.05,2,2.1,4,3.11,6.1,22.51,46.78,20.14,88.08,3.93,95.89ZM289.68,179.9c2.24.43,4.49.84,6.75,1.35,24.11,5.5,45.58,15.17,60.47,27.21,12.71,10.29,18.89,21,17,29.49-3,13-25.7,22.09-55.27,22.09a176.8,176.8,0,0,1-39.09-4.59c-20-4.57-38.18-12-52.3-21.34a61.8,61.8,0,0,0-3.42-14.51,56.81,56.81,0,0,0,18.45,3.62A35.21,35.21,0,0,0,277.45,188v-.12c4.1-2.43,8.15-5.11,12.2-8Z"/></svg>