<svg id="Layer_1" data-name="Layer 1" xmlns="http://www.w3.org/2000/svg" viewBox="0 0 384.35 376"><defs><style>.cls-1{fill:#fff;}</style></defs><path class="cls-1" d="M308.2,183.79C349.68,150.06,370,106.55,353.63,86c-5.78-7.2-15.32-10.65-27.09-10.65-11,0-23.84,3-37.44,8.67a183.51,183.51,0,0,0-41.54,25,0,0,0,0,0,0,0C247.2,55.29,225.78,12,199.38,12s-47.57,42.82-48.14,96.07C124.1,87,95,75.31,73.43,75.31c-11.76,0-21.3,3.45-27.06,10.67C30,106.57,50.3,150.12,91.8,183.8c-52,12.35-89.23,42.76-83.37,68.43,4.31,18.88,30.71,30,65.15,30a186.58,186.58,0,0,0,39.65-4.51C90.46,326.05,91,374.12,114.75,385.54A25.47,25.47,0,0,0,125.91,388c23.29,0,53.92-27.53,74.09-68.5,20.18,41,50.81,68.49,74.1,68.49a25.49,25.49,0,0,0,11.17-2.46c23.72-11.42,24.28-59.49,1.5-107.85a186.49,186.49,0,0,0,39.64,4.51c34.44,0,60.86-11.1,65.16-30C397.43,226.54,360.21,196.13,308.2,183.79ZM283.5,189a35.21,35.21,0,0,0-33.45-24.23,56.54,56.54,0,0,0-18.45,3.62A56.54,56.54,0,0,0,235.22,150a35.08,35.08,0,0,0-2.66-13.43,184.43,184.43,0,0,1,20.53-19.06c24.75-19.73,52.91-32,73.45-32,6.24,0,14.61,1.17,19.12,6.85,5.43,6.75,4.52,19.13-2.48,33.94-8.17,17.3-23.34,35.3-42.66,50.72a174,174,0,0,1-17,12Zm-53.68-8.88c6.74-3.16,14.11-5.21,20.23-5.21a25.08,25.08,0,0,1,0,50.16c-6.12,0-13.49-2.05-20.23-5.21a35.8,35.8,0,0,0,0-39.74Zm-2.66-52.61a35.22,35.22,0,0,0-54.32,0c-3.56-3.73-7.32-7.41-11.36-11-.07-2.08-.15-4.14-.15-6.27,0-51.92,20-88.1,38-88.1s38.05,36.18,38.05,88.1c0,2.52-.08,5-.18,7.42-3.54,3.25-6.94,6.54-10.08,9.84ZM200,225.69A25.69,25.69,0,1,1,225.69,200,25.71,25.71,0,0,1,200,225.69Zm25.08,24.36a25.08,25.08,0,0,1-50.16,0c0-6.12,2.05-13.49,5.21-20.23a35.8,35.8,0,0,0,39.74,0C223,236.56,225.08,243.93,225.08,250.05ZM174.92,150a25.08,25.08,0,0,1,50.16,0c0,6.12-2.05,13.49-5.21,20.23a35.8,35.8,0,0,0-39.74,0C177,163.44,174.92,156.07,174.92,150Zm-4.74,69.92c-6.74,3.16-14.11,5.21-20.23,5.21a25.08,25.08,0,1,1,0-50.16c6.12,0,13.49,2.05,20.23,5.21a35.8,35.8,0,0,0,0,39.74ZM54.3,92.31c4.52-5.66,12.9-6.85,19.13-6.85,20.55,0,48.7,12.27,73.48,32a186.88,186.88,0,0,1,20.54,19A35.19,35.19,0,0,0,164.78,150a56.54,56.54,0,0,0,3.62,18.45A56.54,56.54,0,0,0,150,164.78a35.12,35.12,0,0,0-28.31,14.33c-5.44.42-11,1.06-16.66,2-1.85-1.36-3.71-2.68-5.52-4.13C58.86,144.62,43.08,106.38,54.3,92.31Zm58.38,175.15a176.32,176.32,0,0,1-39.1,4.6C44,272.06,21.29,263,18.32,250c-4-17.55,26.8-45.15,77.42-56.7a184.8,184.8,0,0,1,20.51-3.5,35.18,35.18,0,0,0,25.29,44.4,174.59,174.59,0,0,0-22.19,31.6C117.15,266.35,115,266.94,112.68,267.46Zm79,46.07c-20.12,41.78-48.89,64.32-65.75,64.32a15.2,15.2,0,0,1-6.76-1.45c-16.22-7.81-18.59-49.11,3.94-95.89,9.42-19.56,20.73-34.84,31.84-45.63a62.38,62.38,0,0,0,13.47-3.28,56.54,56.54,0,0,0-3.62,18.45,35.22,35.22,0,0,0,21.42,32.41,184.81,184.81,0,0,0,8.29,24.82C193.57,309.36,192.66,311.45,191.66,313.53Zm89.21,62.86a15.42,15.42,0,0,1-6.77,1.46c-16.85,0-45.63-22.55-65.75-64.32a183.9,183.9,0,0,1-10.89-28.38c.84.06,1.68.12,2.54.12a35.22,35.22,0,0,0,34.37-27.59,171.08,171.08,0,0,0,39.44,16.72c1.05,2,2.1,4,3.11,6.1C299.45,327.28,297.08,368.58,280.87,376.39ZM297.5,191.9c2.24.43,4.49.84,6.75,1.35,24.11,5.5,45.58,15.17,60.47,27.21,12.71,10.29,18.89,21,17,29.49-3,13-25.7,22.09-55.27,22.09a176.21,176.21,0,0,1-39.09-4.59c-20-4.57-38.18-12-52.3-21.34a61.89,61.89,0,0,0-3.42-14.51,56.8,56.8,0,0,0,18.45,3.62A35.22,35.22,0,0,0,285.27,200v-.12c4.1-2.43,8.15-5.11,12.2-8Z" transform="translate(-7.82 -12)"/></svg>