<?xml version="1.0" encoding="UTF-8"?>
<svg id="Capa_1" data-name="Capa 1" xmlns="http://www.w3.org/2000/svg" viewBox="0 0 906.93 1043.76">
  <defs>
    <style>
      .cls-1 {
        fill: #c10053;
      }
    </style>
  </defs>
  <g id="_8" data-name="8">
    <path d="M863.07,1057.47c-.17-1.06-.34-2.12-.51-3.17-3.45-21.44-7.01-42.86-10.64-64.28-6.14-36.18-12.48-72.33-19.25-108.4-3.25-17.34-6.22-34.82-10.72-51.89-3.71-14.06-8.46-27.83-14.4-41.11-9.68-21.62-23.01-41.66-39.93-58.29-8.36-8.22-17.53-15.55-27.25-22.08l34.06,13.65-50.56-102.48c22.59-113.71-37.65-236.66-37.65-236.67,3.18-42.54-8.35-168.11-112.84-268.17-29.82-30.04-60.01-28.91-80.16-23.29-24.67-14.9-89.4-42.76-158.43,19.8-.01,0-.02,0-.04,.01-.17,.16-.33,.31-.49,.47-2.94,2.68-5.89,5.52-8.84,8.54-99.25,99.11-110.3,220.88-107.18,262.64,0,.01-60.24,122.96-37.65,236.67l-50.56,102.48,40.46-16.21c-11.17,7.16-21.69,15.33-31.16,24.65-16.92,16.64-30.25,36.67-39.93,58.29-5.94,13.28-10.69,27.05-14.4,41.11-4.5,17.07-7.47,34.55-10.72,51.89-6.77,36.07-13.11,72.22-19.25,108.4-3.63,21.41-7.19,42.83-10.64,64.28-.17,1.06-.34,2.12-.51,3.17-.42,2.66,.69,5.38,3.49,6.15,2.38,.65,5.72-.81,6.15-3.49,2.44-15.29,4.96-30.56,7.51-45.84,5.74-34.37,11.67-68.72,17.9-103,3.41-18.74,6.9-37.46,10.57-56.14,2.99-15.28,6.79-30.39,12-45.08,8.13-22.88,20.13-45.03,35.74-62.95,13.83-15.87,29.15-27.85,47.22-38.25,8.54-4.92,17.39-9.29,26.4-13.28,4.73-2.09,7.44-3.23,12.34-5.2,4.49-1.81,9.01-3.55,13.54-5.27,17.47-6.6,35.15-12.67,52.31-20.08,15.95-6.89,31.35-15.15,44.68-26.4,13.92-11.75,24.41-26.71,31.24-43.56,7.88-19.45,10.58-40.75,10.84-61.69,13.58,2.33,39.87,5.49,76.74,3.81,.31,0,.62,0,.92,.01h0c4.49,0,8.97-.18,13.44-.57,17.53-1.54,34.61-6.1,50.34-14.05,4.94-2.5,9.71-5.33,14.29-8.45-.21,3.94-.35,7.88-.41,11.82-.32,23.29,2.02,47.37,10.84,69.13,6.82,16.85,17.32,31.81,31.24,43.56,13.33,11.25,28.73,19.51,44.68,26.4,17.16,7.41,34.83,13.49,52.31,20.08,4.53,1.71,9.05,3.46,13.54,5.27,4.9,1.97,7.61,3.1,12.34,5.2,9.01,3.99,17.86,8.36,26.4,13.28,18.07,10.4,33.39,22.38,47.22,38.25,15.62,17.92,27.61,40.07,35.74,62.95,5.22,14.69,9.01,29.79,12,45.08,3.66,18.69,7.16,37.41,10.57,56.14,6.23,34.29,12.16,68.63,17.9,103,2.55,15.27,5.08,30.55,7.51,45.84,.43,2.68,3.77,4.15,6.15,3.49,2.81-.77,3.92-3.49,3.49-6.15ZM601.71,423.18s-.14,.02-.39,.05c-.05,0-.09,.01-.14,.01h-.01c-.18,.02-.36,.03-.54,.04-.91,.05-1.8,.01-2.7-.06h-.02c.19-.68,.38-1.37,.57-2.05,2.71-9.74,5.43-19.48,8.14-29.22,.35-1.25,.7-2.5,1.05-3.75,.64,9.77,1.15,20.02,1.51,30.78-.51,.51-1.05,1-1.6,1.47-.04,.04-.07,.07-.1,.09-.04,.03-.08,.05-.12,.09-.26,.18-.52,.36-.79,.54-.51,.32-1.03,.63-1.57,.91-.25,.12-.53,.23-.79,.37h-.01c-.53,.19-1.07,.36-1.62,.5-.4,.1-.82,.17-1.23,.26,.17-.02,.31-.03,.36-.03Zm-295.4-13.05c1.03,3.68,2.05,7.36,3.07,11.04,.19,.68,.38,1.37,.57,2.05h-.02c-.9,.07-1.79,.11-2.7,.06-.18-.01-.36-.02-.54-.04h-.01c-.05-.01-.11-.03-.17-.03-.4-.09-.83-.16-1.23-.26-.55-.14-1.09-.31-1.62-.5h-.01c-.25-.14-.54-.25-.79-.37-.54-.28-1.06-.59-1.57-.91-.26-.18-.53-.36-.79-.54-.04-.04-.08-.06-.12-.09-.03-.02-.06-.05-.1-.09-.66-.57-1.3-1.15-1.91-1.78-.14-.15-.27-.3-.41-.45,.95-9.05,2.03-17.84,3.25-26.36,0,.03,.02,.06,.02,.09,.69,2.49,1.39,4.98,2.08,7.46,.92,3.59,1.93,7.16,2.99,10.72Zm222.1,94.04c-1.61,1.15-3.25,2.26-4.92,3.33-3.34,2.15-6.79,4.14-10.32,5.96-1.78,.92-3.58,1.79-5.4,2.63-.94,.43-1.89,.84-2.84,1.26-.05,.02-.09,.04-.12,.05-.08,.03-.2,.08-.38,.15-.46,.18-.91,.37-1.37,.55-7.73,3.06-15.75,5.35-23.92,6.87-2.12,.4-4.25,.73-6.38,1.04-.02,0-.04,0-.06,0-.26,.03-.53,.07-.79,.1-.53,.06-1.06,.13-1.59,.19-1.07,.12-2.14,.23-3.21,.32-4.54,.4-9.09,.59-13.65,.59-4.55,0-9.11-.19-13.65-.59-1.07-.1-2.14-.2-3.21-.32-.53-.06-1.06-.12-1.59-.19-.26-.03-.53-.07-.79-.1-.02,0-.04,0-.06,0-2.13-.31-4.26-.64-6.38-1.04-8.17-1.53-16.19-3.81-23.92-6.87-.46-.18-.91-.37-1.37-.55-.18-.07-.3-.12-.38-.15-.03-.01-.07-.03-.12-.05-.95-.41-1.9-.83-2.84-1.26-1.82-.83-3.62-1.71-5.4-2.63-3.53-1.82-6.97-3.82-10.32-5.96-1.67-1.07-3.3-2.18-4.92-3.33-.78-.56-1.56-1.12-2.33-1.69-.38-.29-.77-.58-1.15-.86-.03-.03-.1-.07-.16-.12-.14-.11-.34-.26-.39-.3-3.12-2.46-6.13-5.04-9.03-7.75-5.82-5.45-11.17-11.4-16.06-17.7-.16-.21-.39-.51-.47-.62-.3-.4-.6-.79-.89-1.19-.63-.85-1.25-1.7-1.86-2.56-1.2-1.68-2.37-3.38-3.5-5.1-2.31-3.48-4.49-7.04-6.56-10.67-2.1-3.69-4.09-7.45-5.96-11.27-.95-1.93-1.87-3.88-2.76-5.84-.43-.96-.86-1.92-1.28-2.88-.21-.48-.42-.97-.63-1.45-.1-.24-.21-.49-.31-.73-.01-.03-.01-.03-.02-.05,0-.01,0-.02-.01-.03-3.4-8.21-6.4-16.57-8.96-25.07-.03-.09-.05-.18-.08-.28-.11-.4-.22-.79-.33-1.19-.82-2.96-1.65-5.93-2.48-8.89-1.41-5.39-2.68-10.81-3.79-16.27-.93-4.57-1.76-9.16-2.5-13.77-.3-1.86-.57-3.72-.84-5.58,5.27-27.38,12-51.69,19.88-73.24,19.83-28.25,74.23-21.89,89.47-20.26,.44,.05,.86-.01,1.25-.14,.56,.78,1.12,1.55,1.66,2.35,1.98,2.9,3.84,5.88,5.56,8.94,1.59,2.84,3.04,5.76,4.35,8.74,.03,.06,.05,.1,.06,.14,.02,.05,.04,.1,.07,.17,.14,.33,.27,.66,.4,1,.28,.72,.56,1.43,.82,2.16,.52,1.42,.99,2.86,1.43,4.3,.86,2.88,1.55,5.81,2.06,8.78,.11,.62,.2,1.24,.29,1.87,0,.04,.01,.09,.02,.13,.05,.45,.1,.89,.15,1.34,.15,1.45,.26,2.91,.32,4.37,.13,2.96,.08,5.94-.12,8.9-.1,1.52-.25,3.04-.43,4.55-.03,.29-.07,.57-.11,.86-.01,.1-.03,.2-.04,.3-.12,.84-.25,1.68-.4,2.51-1.13,6.67-2.89,13.23-4.97,19.66-.28,.87-.57,1.74-.86,2.61-.02,.06-.13,.42-.23,.73,0,0,0,0-.02,.01-.1,.1-.18,.29-.26,.42-.55,.9-1.11,1.78-1.68,2.67-1.1,1.7-2.22,3.39-3.34,5.08-4.03,6.14-8.62,13.2-6.99,20.89,.89,4.24,3.97,7.47,7.33,9.95,4.57,3.39,10.21,5.42,15.58,7.15,1.81,.58,3.64,1.11,5.48,1.62,2.52,.69,5.55-.86,6.15-3.49,.6-2.64-.79-5.41-3.49-6.15-3.44-.94-6.85-1.99-10.18-3.26-.33-.13-.65-.25-.98-.38-.16-.06-.32-.13-.47-.19-.53-.21,.44,.18,.42,.18-.58-.03-1.5-.66-2.02-.91-1.06-.5-2.1-1.05-3.11-1.65-.47-.28-.93-.57-1.38-.87-.2-.13-.39-.27-.58-.4-.02-.02-.05-.04-.09-.07-.11-.09-.24-.19-.3-.24-.16-.13-.31-.27-.47-.41-.31-.29-.62-.59-.91-.9-.09-.1-.18-.2-.27-.3-.15-.22-.31-.44-.45-.67-.13-.21-.23-.43-.34-.65-.02-.06-.05-.13-.07-.19-.09-.27-.14-.55-.21-.83-.02-.29-.03-.57-.02-.86,0-.14,.03-.43,.05-.65,.01-.08,.03-.16,.04-.21,.07-.35,.16-.7,.26-1.04,.18-.64,.43-1.25,.65-1.87,.05-.11,.1-.21,.15-.32,.18-.37,.36-.74,.55-1.11,.4-.77,.82-1.52,1.26-2.27,.95-1.62,1.96-3.19,2.99-4.76,1.09-1.66,2.19-3.31,3.27-4.97,.57-.88,1.13-1.77,1.68-2.66,.99-1.6,1.52-3.39,2.1-5.17,2.14-6.47,3.96-13.06,5.17-19.77,2.23-12.37,2.38-24.96-.77-37.19-3.38-13.12-10.21-25.14-18.26-35.93-1.34-1.8-2.72-3.57-4.11-5.33-.28-.36-.65-.62-1.04-.85-.6-.86-1.58-1.4-2.67-1.36l-28.88,1.2c-10.71,.44-21.34,2.47-31.52,6.16-11.15,4.04-18.79,9.72-24.04,15.67,26.37-64.61,63.58-102.18,101.78-122.31,36.28-19.12,83.64-5.91,103.15,19.54,15.14,19.74,40.09,44.32,56.75,110.82,5.34,37.03,9.5,65.27,9.5,65.27l-1,9.83c-.02,.13-.03,.24-.04,.32-.04,.25-.15,1.13-.18,1.28-.32,2.33-.67,4.65-1.04,6.98-.74,4.61-1.57,9.2-2.5,13.77-1.83,8.97-4.04,17.86-6.68,26.63-2.56,8.51-5.56,16.87-8.96,25.07,0,.01,0,.02-.01,.03,0,.02-.01,.02-.02,.05-.1,.24-.21,.49-.31,.73-.21,.48-.42,.97-.63,1.45-.42,.96-.85,1.92-1.28,2.88-.89,1.96-1.81,3.91-2.76,5.84-1.87,3.81-3.86,7.57-5.96,11.27-2.07,3.63-4.25,7.19-6.56,10.67-1.14,1.72-2.31,3.42-3.5,5.1-.61,.86-1.23,1.71-1.86,2.56-.3,.4-.59,.79-.89,1.19-.09,.12-.31,.41-.47,.62-4.89,6.3-10.24,12.24-16.06,17.7-2.9,2.71-5.91,5.29-9.03,7.75-.05,.04-.24,.19-.39,.3-.07,.05-.13,.1-.16,.12-.38,.29-.77,.58-1.15,.86-.77,.57-1.55,1.14-2.33,1.69Zm-101.66-150.95c-.06,.18-.11,.31-.13,.31-.06,0,.04-.16,.13-.31Zm-1.83,22.08c-.02,.05-.02,.05,0,0h0Zm116.34-62.42c0-1.96-.41-3.82-1.14-5.52,.25,.08,.51,.14,.76,.22,.72,.23,1.43,.49,2.13,.77,.04,.02,.07,.03,.11,.04,.4,.18,.79,.36,1.18,.55,1.7,.83,3.34,1.79,4.89,2.86,.33,.23,.65,.47,.98,.7,.18,.18,.46,.35,.64,.5,.81,.66,1.58,1.35,2.34,2.07,.79,.75,1.55,1.54,2.28,2.34,.71,.78,1.61,1.63,2.16,2.54-.16-.22-.53-.7-.07-.08,.18,.24,.36,.48,.54,.73,.36,.5,.72,1,1.06,1.51,.76,1.11,1.48,2.26,2.17,3.42,1.34,2.25,4.56,3.26,6.84,1.79,2.26-1.46,3.22-4.43,1.79-6.84-4.44-7.48-10.33-14.24-17.87-18.72-6.17-3.66-13.23-5.56-20.38-5.85-11.15-.45-22.3,3.03-32.13,8.08-2.04,1.05-4.09,2.16-5.98,3.46-2.15,1.48-3.33,4.46-1.79,6.84,1.38,2.14,4.54,3.38,6.84,1.79,1.44-.99,2.97-1.85,4.51-2.68,1.65-.89,3.32-1.72,5.03-2.49,.47-.21,2.4-1,.52-.24,.54-.22,1.09-.45,1.63-.66,1.16-.45,2.32-.88,3.5-1.27,.05-.02,.1-.03,.16-.05-.42,1.32-.64,2.73-.64,4.19,0,7.72,6.26,13.97,13.97,13.97s13.97-6.26,13.97-13.97Zm9.16-.2c.36,.27,.21,.15,0,0h0Zm-63.05-47.43l.31-8.9c.07-1.86,1.53-3.3,3.29-3.22l28.88,1.2c10.71,.44,21.34,2.47,31.52,6.16,22.8,8.26,30.97,23.38,33.88,33.65,.3,1.07-1.1,1.63-1.56,.63-16.17-34.77-76.57-27.7-92.77-25.96-1.95,.21-3.62-1.47-3.55-3.55Zm-72.73,49.04c1.54-2.39,.36-5.36-1.79-6.84-1.89-1.3-3.94-2.42-5.98-3.46-9.84-5.05-20.98-8.53-32.13-8.08-7.15,.29-14.2,2.19-20.38,5.85-7.54,4.48-13.42,11.24-17.87,18.72-1.43,2.41-.47,5.38,1.79,6.84,2.28,1.47,5.51,.45,6.84-1.79,.69-1.16,1.41-2.3,2.17-3.42,.35-.51,.7-1.01,1.06-1.51,.18-.24,.36-.48,.54-.73,.46-.62,.09-.14-.07,.08,.55-.91,1.45-1.76,2.16-2.54,.73-.81,1.49-1.59,2.28-2.34,.75-.72,1.53-1.41,2.34-2.07,.18-.15,.46-.32,.64-.5,.32-.24,.65-.48,.98-.7,1.56-1.07,3.19-2.03,4.89-2.86,.39-.19,.79-.37,1.18-.55,.04-.01,.07-.03,.11-.04,.7-.28,1.41-.53,2.13-.77,.25-.08,.51-.15,.76-.22-.73,1.69-1.14,3.56-1.14,5.52,0,7.72,6.26,13.97,13.97,13.97s13.97-6.26,13.97-13.97c0-1.46-.23-2.87-.64-4.19,.05,.02,.1,.03,.16,.05,1.18,.39,2.35,.82,3.5,1.27,.55,.21,1.09,.44,1.63,.66-1.89-.76,.05,.03,.52,.24,1.71,.77,3.39,1.6,5.03,2.49,1.53,.83,3.07,1.7,4.51,2.68,2.3,1.59,5.46,.34,6.84-1.79Zm-58.65-1.61c-.21,.15-.36,.27,0,0h0Zm104.21,77c-.39-1.2-.12-2.78,.5-3.85,.6-1.02,1.8-2.05,2.99-2.3,4.26-.9,8.64-1.36,12.99-1.11,2.8,.16,4.87,2.16,5,5,.06,1.25-.6,2.67-1.46,3.54-.86,.86-2.3,1.54-3.54,1.46-2.5-.15-5.01-.05-7.49,.24-.95,.14-1.9,.31-2.84,.51-1.37,.29-2.62,.15-3.85-.5-1.16-.61-1.91-1.78-2.3-2.99Zm42.26,49.75c1.03,1.76,.4,4.1-1.35,5.13-2.28,1.35-5.02,2.19-7.58,2.8-6.39,1.53-12.92,1.56-19.39,.77-6.58,1.99-13.74,2.86-20.63,2.79-6.89,.07-14.05-.8-20.63-2.79-6.48,.78-13.01,.76-19.39-.77-2.56-.62-5.3-1.45-7.58-2.8-1.75-1.04-2.38-3.37-1.35-5.13,1.02-1.74,3.39-2.38,5.13-1.35,.31,.18,.64,.34,.97,.49,.11,.05,.23,.1,.34,.15,.01,0,.02,0,.04,.01,.53,.2,1.06,.4,1.59,.58,.88,.29,1.79,.53,2.69,.76,6.59-3.54,12.03-5.86,17.13-7.82,2.59-1,5.53-.86,8.36,.33,4.57,1.93,10.66,2.87,12.7,3.15,2.05-.28,8.13-1.23,12.7-3.15,2.83-1.19,5.77-1.33,8.36-.33,5.1,1.97,10.54,4.28,17.13,7.82,.91-.22,1.81-.46,2.69-.76,.54-.18,1.06-.38,1.59-.58,.01,0,.02,0,.04-.01,.11-.05,.23-.1,.34-.15,.33-.15,.66-.31,.97-.49,1.74-1.03,4.11-.39,5.13,1.35Zm-34.2,29.57c.46,2.02-.61,4.01-2.62,4.61-1.09,.33-2.22,.56-3.34,.76-2.77,.51-5.59,.81-8.41,.85-.05,0-.11,.02-.16,.02-.07,0-.15,0-.22,0-.07,0-.15,0-.22,0-.05,0-.11-.01-.16-.02-2.82-.05-5.64-.35-8.41-.85-1.12-.2-2.25-.43-3.34-.76-2.01-.61-3.08-2.59-2.62-4.61,.44-1.94,2.74-3.19,4.61-2.62,1.53,.46,3.13,.76,4.72,.99,1.8,.23,3.61,.36,5.42,.37,1.81-.01,3.62-.14,5.42-.37,1.59-.23,3.18-.53,4.72-.99,1.88-.57,4.17,.68,4.61,2.62Z"/>
    <path class="cls-1" d="M828.01,858.84s-11.03-75.04-46.85-130.05c-35.82-55.01-181.87-72.53-181.87-72.53,0,0-13.86,115.39-146.08,127.2-132.22-11.81-146.08-127.2-146.08-127.2,0,0-146.05,17.52-181.87,72.53-35.82,55.01-46.85,130.05-46.85,130.05l115.75,44.3s-16.35,83.62,3.84,140.67l240.47,.82v.1s14.73-.05,14.73-.05l14.74,.05v-.1s240.47-.82,240.47-.82c20.19-57.05,3.84-140.67,3.84-140.67l115.75-44.3Z"/>
  </g>
</svg>