<?xml version="1.0" encoding="UTF-8"?>
<svg id="Capa_1" data-name="Capa 1" xmlns="http://www.w3.org/2000/svg" viewBox="0 0 906.93 1043.76">
  <defs>
    <style>
      .cls-1 {
        fill: #c10053;
      }
    </style>
  </defs>
  <g id="_5" data-name="5">
    <path class="cls-1" d="M800.61,797.08s-5.17-104.75-104.43-132.61l-46.01-13.28c-3.18,40.77-21.58,112.86-107.22,154-17.58,8.45-33.13,20.58-45.67,35.52l-12.21,11.93c-13.89,11.19-25.87,13.37-31.6,13.7-5.74-.33-17.71-2.51-31.6-13.7l-12.21-11.93c-12.54-14.94-28.09-27.07-45.67-35.52-85.64-41.14-104.04-113.23-107.22-154l-46.01,13.28c-99.26,27.86-104.43,132.61-104.43,132.61l-47.47,246.68H848.08l-47.47-246.68Z"/>
    <path d="M412.69,291.92c-2.13-1.73-4.4-3.3-6.73-4.76-9.86-6.2-21.02-10.56-32.66-11.69-7.06-.68-14.43,.11-21.1,2.57-8.37,3.09-15.63,8.36-21.56,15-1.86,2.09-1.91,4.98,0,7.07,1.76,1.91,5.33,1.96,7.07,0,1.68-1.88,3.46-3.67,5.36-5.32,.44-.38,.88-.75,1.33-1.11,.01-.01,.3-.23,.46-.36,.07-.05,.13-.1,.16-.12,.88-.65,1.78-1.27,2.7-1.86,1.79-1.15,3.66-2.17,5.6-3.04,.04-.02,.11-.06,.18-.1,.04-.01,.08-.02,.14-.05,.51-.19,1.01-.39,1.53-.58,.9-.32,1.81-.62,2.74-.88,1.6-.45,3.22-.81,4.86-1.07,.14-.03,.29-.05,.43-.07,.17-.02,.34-.04,.51-.05-1.42,1.68-2.52,3.67-3.14,5.94-2.28,8.3,2.61,16.88,10.91,19.15,8.31,2.28,16.88-2.61,19.16-10.91,.9-3.29,.66-6.62-.45-9.59,.12,.05,.24,.11,.35,.16,4.04,1.8,7.93,3.93,11.62,6.34,1.1,.72,2.19,1.47,3.25,2.25,.05,.04,.1,.07,.14,.1,.01,0,.02,.01,.03,.03,.05,.04,.1,.08,.15,.11,2.16,1.69,4.84,1.87,6.96-.09,1.85-1.69,2.04-5.41,0-7.07Zm66.59,91.09c-.45-1.39-1.27-2.43-2.49-3.24-1.77-1.17-3.74-2.04-5.74-2.75-2.11-.75-4.28-1.1-6.5-1.37-1.28-.16-2.96,.72-3.83,1.59-.95,.94-1.65,2.48-1.59,3.83,.06,1.41,.52,2.86,1.59,3.84,.36,.28,.73,.57,1.09,.85,.75,.43,1.55,.66,2.4,.72,1.51,.25,2.99,.65,4.42,1.19,.93,.43,1.83,.9,2.68,1.47,1.14,.75,2.9,.9,4.18,.54,1.26-.34,2.63-1.31,3.25-2.49,.66-1.26,.99-2.78,.54-4.18Zm.37,74.04c-.42-1.82-2.79-3.36-4.62-2.62-1.92,.78-3.98,1.31-6,1.79-1.04,.25-2.08,.47-3.13,.67-.62,.12-1.24,.23-1.87,.33-.33,.05-.65,.1-.98,.15-.09,.01-.39,.05-.56,.08-2.93,.37-5.88,.56-8.83,.61-2.96-.05-5.91-.24-8.84-.61-.17-.03-.47-.07-.56-.08-.32-.05-.65-.1-.98-.15-.62-.1-1.25-.21-1.87-.33-1.05-.2-2.09-.42-3.13-.67-2.02-.48-4.07-1.01-6-1.79-1.83-.74-4.2,.8-4.62,2.62-.49,2.17,.67,3.82,2.62,4.61,2.01,.81,4.15,1.36,6.25,1.85,5.59,1.31,11.37,1.96,17.1,2.05h.05c5.74-.09,11.51-.74,17.1-2.05,2.1-.49,4.24-1.04,6.25-1.85,1.95-.79,3.11-2.44,2.62-4.61Zm23.82-29.1c-1.55-1.56-3.71-1.25-5.3,0,1.51-1.19,.13-.26-.49,.07-.01,.01-.02,.01-.03,.02-.3,.11-.59,.21-.89,.32-.26,.08-.52,.16-.78,.24-31.35-14.01-42.08-1.98-42.32-1.7-.25-.28-10.98-12.31-42.33,1.7-.26-.08-.52-.16-.78-.24-.3-.11-.59-.21-.89-.32-.01-.01-.02-.01-.03-.02-.62-.33-2-1.26-.49-.07-1.59-1.25-3.75-1.56-5.3,0-1.3,1.29-1.6,4.04,0,5.3,1.85,1.45,4.12,2.21,6.36,2.85,6.91,1.98,14.24,2.67,21.38,3.19,7.34,.53,14.7,.7,22.06,.7h.03c7.36,0,14.72-.17,22.06-.7,7.14-.52,14.47-1.21,21.38-3.19,2.25-.64,4.51-1.4,6.36-2.85,1.6-1.26,1.3-4.01,0-5.3Zm66.29-134.91c-5.93-6.64-13.19-11.91-21.56-15-6.67-2.46-14.04-3.25-21.1-2.57-11.64,1.13-22.8,5.49-32.66,11.69-2.33,1.46-4.6,3.03-6.73,4.76-2.04,1.66-1.85,5.38,0,7.07,2.12,1.96,4.8,1.78,6.96,.09,.05-.03,.1-.07,.15-.11,.01-.02,.02-.03,.03-.03,.04-.03,.09-.06,.14-.1,1.06-.78,2.15-1.53,3.25-2.25,3.7-2.41,7.58-4.54,11.62-6.34,.12-.05,.24-.11,.35-.16-1.11,2.97-1.35,6.3-.45,9.59,2.28,8.3,10.85,13.19,19.16,10.91,8.3-2.27,13.19-10.85,10.91-19.15-.62-2.27-1.72-4.26-3.14-5.94,.17,.01,.34,.03,.51,.05,.14,.02,.29,.04,.43,.07,1.64,.26,3.27,.62,4.86,1.07,.93,.26,1.84,.56,2.74,.88,.52,.19,1.02,.39,1.53,.58,.06,.03,.1,.04,.14,.05,.08,.04,.14,.08,.18,.1,1.94,.87,3.81,1.89,5.6,3.04,.92,.59,1.82,1.21,2.7,1.86,.03,.02,.09,.07,.16,.12,.16,.13,.45,.35,.46,.36,.45,.36,.89,.73,1.33,1.11,1.9,1.65,3.68,3.44,5.36,5.32,1.74,1.96,5.31,1.91,7.07,0,1.92-2.09,1.86-4.98,0-7.07Zm10.85-37.42c-12.09-21.33-43.41-36.43-85.61-21.7-2.99,1.05-4.88,4.03-4.63,7.21,.37,4.56,4.91,7.57,9.22,6.09,15.47-5.32,49.86-17.59,79.6,9.57,.8,.73,1.95-.23,1.42-1.17Zm0,0c-12.09-21.33-43.41-36.43-85.61-21.7-2.99,1.05-4.88,4.03-4.63,7.21,.37,4.56,4.91,7.57,9.22,6.09,15.47-5.32,49.86-17.59,79.6,9.57,.8,.73,1.95-.23,1.42-1.17Zm-32.41,22.42c-6.67-2.46-14.04-3.25-21.1-2.57-11.64,1.13-22.8,5.49-32.66,11.69-2.33,1.46-4.6,3.03-6.73,4.76-2.04,1.66-1.85,5.38,0,7.07,2.12,1.96,4.8,1.78,6.96,.09,.05-.03,.1-.07,.15-.11,.01-.02,.02-.03,.03-.03,.04-.03,.09-.06,.14-.1,1.06-.78,2.15-1.53,3.25-2.25,3.7-2.41,7.58-4.54,11.62-6.34,.12-.05,.24-.11,.35-.16-1.11,2.97-1.35,6.3-.45,9.59,2.28,8.3,10.85,13.19,19.16,10.91,8.3-2.27,13.19-10.85,10.91-19.15-.62-2.27-1.72-4.26-3.14-5.94,.17,.01,.34,.03,.51,.05,.14,.02,.29,.04,.43,.07,1.64,.26,3.27,.62,4.86,1.07,.93,.26,1.84,.56,2.74,.88,.52,.19,1.02,.39,1.53,.58,.06,.03,.1,.04,.14,.05,.08,.04,.14,.08,.18,.1,1.94,.87,3.81,1.89,5.6,3.04,.92,.59,1.82,1.21,2.7,1.86,.03,.02,.09,.07,.16,.12,.16,.13,.45,.35,.46,.36,.45,.36,.89,.73,1.33,1.11,1.9,1.65,3.68,3.44,5.36,5.32,1.74,1.96,5.31,1.91,7.07,0,1.92-2.09,1.86-4.98,0-7.07-5.93-6.64-13.19-11.91-21.56-15Zm-50.03,149.91c1.51-1.19,.13-.26-.49,.07-.01,.01-.02,.01-.03,.02-.3,.11-.59,.21-.89,.32-.26,.08-.52,.16-.78,.24-31.35-14.01-42.08-1.98-42.32-1.7-.25-.28-10.98-12.31-42.33,1.7-.26-.08-.52-.16-.78-.24-.3-.11-.59-.21-.89-.32-.01-.01-.02-.01-.03-.02-.62-.33-2-1.26-.49-.07-1.59-1.25-3.75-1.56-5.3,0-1.3,1.29-1.6,4.04,0,5.3,1.85,1.45,4.12,2.21,6.36,2.85,6.91,1.98,14.24,2.67,21.38,3.19,7.34,.53,14.7,.7,22.06,.7h.03c7.36,0,14.72-.17,22.06-.7,7.14-.52,14.47-1.21,21.38-3.19,2.25-.64,4.51-1.4,6.36-2.85,1.6-1.26,1.3-4.01,0-5.3-1.55-1.56-3.71-1.25-5.3,0Zm-23.14,26.48c-1.92,.78-3.98,1.31-6,1.79-1.04,.25-2.08,.47-3.13,.67-.62,.12-1.24,.23-1.87,.33-.33,.05-.65,.1-.98,.15-.09,.01-.39,.05-.56,.08-2.93,.37-5.88,.56-8.83,.61-2.96-.05-5.91-.24-8.84-.61-.17-.03-.47-.07-.56-.08-.32-.05-.65-.1-.98-.15-.62-.1-1.25-.21-1.87-.33-1.05-.2-2.09-.42-3.13-.67-2.02-.48-4.07-1.01-6-1.79-1.83-.74-4.2,.8-4.62,2.62-.49,2.17,.67,3.82,2.62,4.61,2.01,.81,4.15,1.36,6.25,1.85,5.59,1.31,11.37,1.96,17.1,2.05h.05c5.74-.09,11.51-.74,17.1-2.05,2.1-.49,4.24-1.04,6.25-1.85,1.95-.79,3.11-2.44,2.62-4.61-.42-1.82-2.79-3.36-4.62-2.62Zm-13.22-68.67c.75,.43,1.55,.66,2.4,.72,1.51,.25,2.99,.65,4.42,1.19,.93,.43,1.83,.9,2.68,1.47,1.14,.75,2.9,.9,4.18,.54,1.26-.34,2.63-1.31,3.25-2.49,.66-1.26,.99-2.78,.54-4.18-.45-1.39-1.27-2.43-2.49-3.24-1.77-1.17-3.74-2.04-5.74-2.75-2.11-.75-4.28-1.1-6.5-1.37-1.28-.16-2.96,.72-3.83,1.59-.95,.94-1.65,2.48-1.59,3.83,.06,1.41,.52,2.86,1.59,3.84,.36,.28,.73,.57,1.09,.85Zm-59.65-89.17c1.1,.72,2.19,1.47,3.25,2.25,.05,.04,.1,.07,.14,.1,.01,0,.02,.01,.03,.03,.05,.04,.1,.08,.15,.11,2.16,1.69,4.84,1.87,6.96-.09,1.85-1.69,2.04-5.41,0-7.07-2.13-1.73-4.4-3.3-6.73-4.76-9.86-6.2-21.02-10.56-32.66-11.69-7.06-.68-14.43,.11-21.1,2.57-8.37,3.09-15.63,8.36-21.56,15-1.86,2.09-1.91,4.98,0,7.07,1.76,1.91,5.33,1.96,7.07,0,1.68-1.88,3.46-3.67,5.36-5.32,.44-.38,.88-.75,1.33-1.11,.01-.01,.3-.23,.46-.36,.07-.05,.13-.1,.16-.12,.88-.65,1.78-1.27,2.7-1.86,1.79-1.15,3.66-2.17,5.6-3.04,.04-.02,.11-.06,.18-.1,.04-.01,.08-.02,.14-.05,.51-.19,1.01-.39,1.53-.58,.9-.32,1.81-.62,2.74-.88,1.6-.45,3.22-.81,4.86-1.07,.14-.03,.29-.05,.43-.07,.17-.02,.34-.04,.51-.05-1.42,1.68-2.52,3.67-3.14,5.94-2.28,8.3,2.61,16.88,10.91,19.15,8.31,2.28,16.88-2.61,19.16-10.91,.9-3.29,.66-6.62-.45-9.59,.12,.05,.24,.11,.35,.16,4.04,1.8,7.93,3.93,11.62,6.34Zm304.74,312.06c13.87-24.09,19.32-59.47-7.1-93.9-14.14-18.41-15.26-44.33-14.53-70.39C697.4,11.84,433.69,48.49,433.69,48.49c-158.01-8.98-256.74,288.22-249.07,287.46-66.5,69.37-33.94,136.31-19.41,158.96-12.15,24.86-20.04,59.78-3.18,100.19,0,0-15.23,50.66,5.38,111.52,.04,.12,.08,.25,.13,.38,.06,.18,.12,.37,.19,.56,.18,.53,.38,1.12,.62,1.77,.06,.18,.13,.36,.19,.54,.33,.93,.71,1.96,1.13,3.08,.07,.18,.14,.36,.21,.55,.14,.37,.28,.75,.43,1.14,.07,.19,.15,.39,.22,.58,.28,.7,.56,1.4,.84,2.1t-.02,.02c1.2,3.11,2.59,6.58,4.06,10.17,.09-.09,.17-.19,.26-.28,2.73,5.94,5.57,12.49,8.18,19.28,7.59,19.67,13.32,41.25,9.35,55.11-3.09,17.27,60.51-22,73.11-35.03,1.32,14.63-5.03,24.49-10.59,30.17-1.61,1.65,.14,4.31,2.3,3.53,32.53-11.74,36.3-39.52,36.72-58.08,5.68,5.85,38.71,23.92,33.65,12.59-10.59-8.41-11.6-20.3-9.55-30.78,2.23-11.43,10.74-33.52,18.91-41.82,23.17-23.57,20.23-56.87,17.2-72.38,2.22-5.15,4.08-10.45,5.61-15.86,1.85-6.58,3.24-13.27,4.27-20.03,4.38-16.3,4.65-32.66,3.44-46.3,14.98,6.33,55.08,21.84,84.04,19.72l-.3-.16c7.83-.02,15.31-1.43,22.46-4.72,8.88-4.07,16.67-10.42,24.15-16.63,5.65-2.37,11.22-4.94,16.63-7.83,7.44-3.98,14.62-8.49,21.46-13.49-.01,.09-.02,.17-.02,.26-9.05,42.23-12.15,139.59,57.44,174.28-10.07,14.03-5.88,30.25,6.47,43.14,5.03,37.64,47.2,49.01,73.68,23.27,3.9-12.1-16.61,8.31-25.87-.63,12.77-4.15,32.88-19.67,25.78-50.28,0,0,.04-.01,.12-.03,1.14-.33,10.38-3.15,14.37-9.35,3.26-5.5,3.45-12.41,3.3-18.93,13.55,4.55,20.62,6.44,32.7,9.2,0,0,5.23-24.21-17.78-66.8Zm-136.51-155.97c-.93,1.91-1.9,3.8-2.97,5.64-1.05,1.81-2.2,3.55-3.42,5.26-.81,1.15-1.65,2.27-2.5,3.39-.13,.16-.31,.39-.43,.55-.27,.33-.53,.67-.8,1-.52,.64-1.05,1.28-1.58,1.92-13.43,16.05-29.8,28.9-48.17,38.76-2.99,1.61-6.02,3.13-9.1,4.56-3.37,1.58-7.12,2.73-9.99,5.1-4.86,4.02-9.83,7.94-15.2,11.28-2.19,1.36-4.46,2.62-6.81,3.7-.26,.12-.52,.24-.78,.35-.02,.01-.03,.01-.05,.02-.52,.21-1.04,.41-1.57,.6-1.03,.37-2.07,.7-3.12,.99-1.05,.29-2.1,.53-3.16,.73-.53,.1-1.06,.19-1.6,.28-.04,0-.05,.01-.08,.01-.23,.03-.46,.05-.69,.08-2.29,.24-4.6,.32-6.91,.3-.1,0-.18,.01-.27,.01s-.18-.01-.27-.01c-2.31,.02-4.62-.06-6.92-.3-.23-.03-.46-.05-.68-.08-.03,0-.05-.01-.09-.01-.53-.09-1.07-.18-1.6-.28-1.06-.2-2.11-.44-3.15-.73-1.06-.29-2.1-.62-3.13-.99-.52-.19-1.04-.39-1.56-.6-.02-.01-.03-.01-.05-.02-.27-.11-.53-.23-.79-.35-2.35-1.08-4.61-2.34-6.81-3.7-5.36-3.34-10.33-7.26-15.19-11.28-2.88-2.37-6.62-3.52-10-5.1-3.07-1.43-6.11-2.95-9.1-4.56-18.37-9.86-34.74-22.71-48.17-38.76-.53-.64-1.06-1.28-1.58-1.92-.26-.33-.53-.67-.8-1-.12-.16-.3-.39-.42-.55-.85-1.12-1.7-2.24-2.51-3.39-1.21-1.71-2.37-3.45-3.42-5.26-1.1-1.91-2.11-3.87-3.07-5.85-.53-1.09-1.03-2.18-1.53-3.29-.24-.53-.47-1.07-.71-1.61-.07-.17-.14-.33-.21-.49,0-.01-.01-.02-.01-.02,0-.01,0-.02-.01-.03,0-.01-.01-.02-.01-.03-.04-.09-.07-.18-.11-.26-.03-.06-.04-.1-.07-.17-4.95-11.98-8.79-24.41-12.21-36.9-4.36-15.92-7.97-32.04-11.09-48.24-1.39-7.19-2.67-14.39-3.86-21.62,11.29-29.13,16.94-54.85,16.94-54.85,2.69-11.81,5.65-22.97,8.83-33.53,26.11-18.63,54.39-10.51,69.75-5.32l-.06,.09s7.77,1.38,18.23,14.54c.31,.42,.63,.83,.95,1.26,.64,.86,1.28,1.74,1.9,2.62,1.54,2.17,3.01,4.39,4.4,6.66,.81,1.33,1.62,2.71,2.43,4.18l-.14-.32c.88,1.55,1.72,3.13,2.51,4.72,.37,.75,.73,1.49,1.08,2.25,.34,.72,.6,1.85,1.1,2.48h0s0,.02,0,.02c.04,.1,.08,.2,.12,.3,.15,.36,.29,.72,.43,1.08,.3,.77,.59,1.54,.86,2.31,.55,1.54,1.06,3.1,1.51,4.67,.82,2.86,1.47,5.76,1.94,8.69,.05,.31,.09,.63,.14,.94,.09,.68,.16,1.37,.23,2.05,.12,1.39,.21,2.79,.25,4.18,.08,2.58,.01,5.17-.2,7.74-.05,.62-.11,1.24-.18,1.86-.03,.28-.07,.56-.1,.84-.17,1.13-.34,2.26-.56,3.38-.44,2.34-1,4.66-1.65,6.95-1.2,4.26-2.72,8.41-4.4,12.5-.03,.07-.07,.15-.1,.23-.02,.05-.04,.09-.06,.14-.02,.05-.05,.1-.07,.16-.01,.03-.02,.06-.04,.1,0,.01,0,.03-.01,.04-.02,.04-.04,.08-.05,.12-.02,.02-.03,.04-.03,.06-.02,.05-.04,.09-.05,.12-.11,.25-.22,.51-.33,.76-.39,.91-.79,1.82-1.2,2.73l-2.34,5.25c-1.51,3.41-3.03,6.85-4.15,10.41-1.94,6.22-1.86,12.83,1.48,18.59,3.4,5.87,9.27,9.9,15.15,13.01,1.08,.58,2.17,1.12,3.26,1.68,2.53,1.28,6,.75,7.42-1.95,1.31-2.47,.76-6.05-1.94-7.42-2.35-1.19-4.7-2.38-6.94-3.76-.63-.39-1.26-.8-1.87-1.22-.29-.2-.58-.4-.87-.61-.08-.06-.15-.11-.2-.15-.01-.01-.02-.01-.03-.02-1.18-.98-2.31-2.01-3.32-3.17-.15-.17-.3-.36-.44-.54-.07-.1-.14-.19-.21-.29-.46-.68-.85-1.39-1.22-2.12l-.03-.06c-.13-.37-.26-.73-.37-1.11-.1-.36-.19-.72-.27-1.08-.02-.09-.03-.18-.05-.28,0-.82-.09-1.64-.04-2.47,.01-.15,.04-.32,.04-.47,.05-.29,.1-.58,.16-.88,.15-.68,.33-1.36,.52-2.03,.44-1.5,.97-2.97,1.53-4.42,.22-.55,.46-1.11,.68-1.67,0-.02,.01-.04,.02-.06,.06-.11,.1-.23,.15-.35,.03-.07,.06-.14,.09-.21,.19-.43,.38-.86,.56-1.3,1.72-3.91,3.49-7.79,5.15-11.73,3.73-8.88,6.49-17.98,7.57-27.57,1.3-11.64-.46-23.59-4.57-34.52-6.07-16.13-16.35-30.24-28.01-42.78-1.51-1.62-3.05-3.22-4.62-4.79-.81-1.15-1.94-2.06-3.33-2.55-32.84-11.47-59.09-4.86-74.82,8.69,88.61-273.25,338.91-108.14,239.81,210.07Zm-140.56-168.45s.02,.03,.03,.05c.03,.09,.06,.17,.09,.25-.04-.08-.08-.19-.12-.3Zm65.17-50.31c-2.99,1.05-4.88,4.03-4.63,7.21,.37,4.56,4.91,7.57,9.22,6.09,15.47-5.32,49.86-17.59,79.6,9.57,.8,.73,1.95-.23,1.42-1.17-12.09-21.33-43.41-36.43-85.61-21.7Zm53.2,44.12c-6.67-2.46-14.04-3.25-21.1-2.57-11.64,1.13-22.8,5.49-32.66,11.69-2.33,1.46-4.6,3.03-6.73,4.76-2.04,1.66-1.85,5.38,0,7.07,2.12,1.96,4.8,1.78,6.96,.09,.05-.03,.1-.07,.15-.11,.01-.02,.02-.03,.03-.03,.04-.03,.09-.06,.14-.1,1.06-.78,2.15-1.53,3.25-2.25,3.7-2.41,7.58-4.54,11.62-6.34,.12-.05,.24-.11,.35-.16-1.11,2.97-1.35,6.3-.45,9.59,2.28,8.3,10.85,13.19,19.16,10.91,8.3-2.27,13.19-10.85,10.91-19.15-.62-2.27-1.72-4.26-3.14-5.94,.17,.01,.34,.03,.51,.05,.14,.02,.29,.04,.43,.07,1.64,.26,3.27,.62,4.86,1.07,.93,.26,1.84,.56,2.74,.88,.52,.19,1.02,.39,1.53,.58,.06,.03,.1,.04,.14,.05,.08,.04,.14,.08,.18,.1,1.94,.87,3.81,1.89,5.6,3.04,.92,.59,1.82,1.21,2.7,1.86,.03,.02,.09,.07,.16,.12,.16,.13,.45,.35,.46,.36,.45,.36,.89,.73,1.33,1.11,1.9,1.65,3.68,3.44,5.36,5.32,1.74,1.96,5.31,1.91,7.07,0,1.92-2.09,1.86-4.98,0-7.07-5.93-6.64-13.19-11.91-21.56-15Zm-50.03,149.91c1.51-1.19,.13-.26-.49,.07-.01,.01-.02,.01-.03,.02-.3,.11-.59,.21-.89,.32-.26,.08-.52,.16-.78,.24-31.35-14.01-42.08-1.98-42.32-1.7-.25-.28-10.98-12.31-42.33,1.7-.26-.08-.52-.16-.78-.24-.3-.11-.59-.21-.89-.32-.01-.01-.02-.01-.03-.02-.62-.33-2-1.26-.49-.07-1.59-1.25-3.75-1.56-5.3,0-1.3,1.29-1.6,4.04,0,5.3,1.85,1.45,4.12,2.21,6.36,2.85,6.91,1.98,14.24,2.67,21.38,3.19,7.34,.53,14.7,.7,22.06,.7h.03c7.36,0,14.72-.17,22.06-.7,7.14-.52,14.47-1.21,21.38-3.19,2.25-.64,4.51-1.4,6.36-2.85,1.6-1.26,1.3-4.01,0-5.3-1.55-1.56-3.71-1.25-5.3,0Zm-23.14,26.48c-1.92,.78-3.98,1.31-6,1.79-1.04,.25-2.08,.47-3.13,.67-.62,.12-1.24,.23-1.87,.33-.33,.05-.65,.1-.98,.15-.09,.01-.39,.05-.56,.08-2.93,.37-5.88,.56-8.83,.61-2.96-.05-5.91-.24-8.84-.61-.17-.03-.47-.07-.56-.08-.32-.05-.65-.1-.98-.15-.62-.1-1.25-.21-1.87-.33-1.05-.2-2.09-.42-3.13-.67-2.02-.48-4.07-1.01-6-1.79-1.83-.74-4.2,.8-4.62,2.62-.49,2.17,.67,3.82,2.62,4.61,2.01,.81,4.15,1.36,6.25,1.85,5.59,1.31,11.37,1.96,17.1,2.05h.05c5.74-.09,11.51-.74,17.1-2.05,2.1-.49,4.24-1.04,6.25-1.85,1.95-.79,3.11-2.44,2.62-4.61-.42-1.82-2.79-3.36-4.62-2.62Zm-13.22-68.67c.75,.43,1.55,.66,2.4,.72,1.51,.25,2.99,.65,4.42,1.19,.93,.43,1.83,.9,2.68,1.47,1.14,.75,2.9,.9,4.18,.54,1.26-.34,2.63-1.31,3.25-2.49,.66-1.26,.99-2.78,.54-4.18-.45-1.39-1.27-2.43-2.49-3.24-1.77-1.17-3.74-2.04-5.74-2.75-2.11-.75-4.28-1.1-6.5-1.37-1.28-.16-2.96,.72-3.83,1.59-.95,.94-1.65,2.48-1.59,3.83,.06,1.41,.52,2.86,1.59,3.84,.36,.28,.73,.57,1.09,.85Zm-56.26-86.82s.02,.01,.03,.03c.05,.04,.1,.08,.15,.11,2.16,1.69,4.84,1.87,6.96-.09,1.85-1.69,2.04-5.41,0-7.07-2.13-1.73-4.4-3.3-6.73-4.76-9.86-6.2-21.02-10.56-32.66-11.69-7.06-.68-14.43,.11-21.1,2.57-8.37,3.09-15.63,8.36-21.56,15-1.86,2.09-1.91,4.98,0,7.07,1.76,1.91,5.33,1.96,7.07,0,1.68-1.88,3.46-3.67,5.36-5.32,.44-.38,.88-.75,1.33-1.11,.01-.01,.3-.23,.46-.36,.07-.05,.13-.1,.16-.12,.88-.65,1.78-1.27,2.7-1.86,1.79-1.15,3.66-2.17,5.6-3.04,.04-.02,.11-.06,.18-.1,.04-.01,.08-.02,.14-.05,.51-.19,1.01-.39,1.53-.58,.9-.32,1.81-.62,2.74-.88,1.6-.45,3.22-.81,4.86-1.07,.14-.03,.29-.05,.43-.07,.17-.02,.34-.04,.51-.05-1.42,1.68-2.52,3.67-3.14,5.94-2.28,8.3,2.61,16.88,10.91,19.15,8.31,2.28,16.88-2.61,19.16-10.91,.9-3.29,.66-6.62-.45-9.59,.12,.05,.24,.11,.35,.16,4.04,1.8,7.93,3.93,11.62,6.34,1.1,.72,2.19,1.47,3.25,2.25,.05,.04,.1,.07,.14,.1Zm7.14-7.02c-2.13-1.73-4.4-3.3-6.73-4.76-9.86-6.2-21.02-10.56-32.66-11.69-7.06-.68-14.43,.11-21.1,2.57-8.37,3.09-15.63,8.36-21.56,15-1.86,2.09-1.91,4.98,0,7.07,1.76,1.91,5.33,1.96,7.07,0,1.68-1.88,3.46-3.67,5.36-5.32,.44-.38,.88-.75,1.33-1.11,.01-.01,.3-.23,.46-.36,.07-.05,.13-.1,.16-.12,.88-.65,1.78-1.27,2.7-1.86,1.79-1.15,3.66-2.17,5.6-3.04,.04-.02,.11-.06,.18-.1,.04-.01,.08-.02,.14-.05,.51-.19,1.01-.39,1.53-.58,.9-.32,1.81-.62,2.74-.88,1.6-.45,3.22-.81,4.86-1.07,.14-.03,.29-.05,.43-.07,.17-.02,.34-.04,.51-.05-1.42,1.68-2.52,3.67-3.14,5.94-2.28,8.3,2.61,16.88,10.91,19.15,8.31,2.28,16.88-2.61,19.16-10.91,.9-3.29,.66-6.62-.45-9.59,.12,.05,.24,.11,.35,.16,4.04,1.8,7.93,3.93,11.62,6.34,1.1,.72,2.19,1.47,3.25,2.25,.05,.04,.1,.07,.14,.1,.01,0,.02,.01,.03,.03,.05,.04,.1,.08,.15,.11,2.16,1.69,4.84,1.87,6.96-.09,1.85-1.69,2.04-5.41,0-7.07Zm66.59,91.09c-.45-1.39-1.27-2.43-2.49-3.24-1.77-1.17-3.74-2.04-5.74-2.75-2.11-.75-4.28-1.1-6.5-1.37-1.28-.16-2.96,.72-3.83,1.59-.95,.94-1.65,2.48-1.59,3.83,.06,1.41,.52,2.86,1.59,3.84,.36,.28,.73,.57,1.09,.85,.75,.43,1.55,.66,2.4,.72,1.51,.25,2.99,.65,4.42,1.19,.93,.43,1.83,.9,2.68,1.47,1.14,.75,2.9,.9,4.18,.54,1.26-.34,2.63-1.31,3.25-2.49,.66-1.26,.99-2.78,.54-4.18Zm.37,74.04c-.42-1.82-2.79-3.36-4.62-2.62-1.92,.78-3.98,1.31-6,1.79-1.04,.25-2.08,.47-3.13,.67-.62,.12-1.24,.23-1.87,.33-.33,.05-.65,.1-.98,.15-.09,.01-.39,.05-.56,.08-2.93,.37-5.88,.56-8.83,.61-2.96-.05-5.91-.24-8.84-.61-.17-.03-.47-.07-.56-.08-.32-.05-.65-.1-.98-.15-.62-.1-1.25-.21-1.87-.33-1.05-.2-2.09-.42-3.13-.67-2.02-.48-4.07-1.01-6-1.79-1.83-.74-4.2,.8-4.62,2.62-.49,2.17,.67,3.82,2.62,4.61,2.01,.81,4.15,1.36,6.25,1.85,5.59,1.31,11.37,1.96,17.1,2.05h.05c5.74-.09,11.51-.74,17.1-2.05,2.1-.49,4.24-1.04,6.25-1.85,1.95-.79,3.11-2.44,2.62-4.61Zm23.82-29.1c-1.55-1.56-3.71-1.25-5.3,0,1.51-1.19,.13-.26-.49,.07-.01,.01-.02,.01-.03,.02-.3,.11-.59,.21-.89,.32-.26,.08-.52,.16-.78,.24-31.35-14.01-42.08-1.98-42.32-1.7-.25-.28-10.98-12.31-42.33,1.7-.26-.08-.52-.16-.78-.24-.3-.11-.59-.21-.89-.32-.01-.01-.02-.01-.03-.02-.62-.33-2-1.26-.49-.07-1.59-1.25-3.75-1.56-5.3,0-1.3,1.29-1.6,4.04,0,5.3,1.85,1.45,4.12,2.21,6.36,2.85,6.91,1.98,14.24,2.67,21.38,3.19,7.34,.53,14.7,.7,22.06,.7h.03c7.36,0,14.72-.17,22.06-.7,7.14-.52,14.47-1.21,21.38-3.19,2.25-.64,4.51-1.4,6.36-2.85,1.6-1.26,1.3-4.01,0-5.3Zm66.29-134.91c-5.93-6.64-13.19-11.91-21.56-15-6.67-2.46-14.04-3.25-21.1-2.57-11.64,1.13-22.8,5.49-32.66,11.69-2.33,1.46-4.6,3.03-6.73,4.76-2.04,1.66-1.85,5.38,0,7.07,2.12,1.96,4.8,1.78,6.96,.09,.05-.03,.1-.07,.15-.11,.01-.02,.02-.03,.03-.03,.04-.03,.09-.06,.14-.1,1.06-.78,2.15-1.53,3.25-2.25,3.7-2.41,7.58-4.54,11.62-6.34,.12-.05,.24-.11,.35-.16-1.11,2.97-1.35,6.3-.45,9.59,2.28,8.3,10.85,13.19,19.16,10.91,8.3-2.27,13.19-10.85,10.91-19.15-.62-2.27-1.72-4.26-3.14-5.94,.17,.01,.34,.03,.51,.05,.14,.02,.29,.04,.43,.07,1.64,.26,3.27,.62,4.86,1.07,.93,.26,1.84,.56,2.74,.88,.52,.19,1.02,.39,1.53,.58,.06,.03,.1,.04,.14,.05,.08,.04,.14,.08,.18,.1,1.94,.87,3.81,1.89,5.6,3.04,.92,.59,1.82,1.21,2.7,1.86,.03,.02,.09,.07,.16,.12,.16,.13,.45,.35,.46,.36,.45,.36,.89,.73,1.33,1.11,1.9,1.65,3.68,3.44,5.36,5.32,1.74,1.96,5.31,1.91,7.07,0,1.92-2.09,1.86-4.98,0-7.07Zm10.85-37.42c-12.09-21.33-43.41-36.43-85.61-21.7-2.99,1.05-4.88,4.03-4.63,7.21,.37,4.56,4.91,7.57,9.22,6.09,15.47-5.32,49.86-17.59,79.6,9.57,.8,.73,1.95-.23,1.42-1.17Zm-10.85,37.42c-5.93-6.64-13.19-11.91-21.56-15-6.67-2.46-14.04-3.25-21.1-2.57-11.64,1.13-22.8,5.49-32.66,11.69-2.33,1.46-4.6,3.03-6.73,4.76-2.04,1.66-1.85,5.38,0,7.07,2.12,1.96,4.8,1.78,6.96,.09,.05-.03,.1-.07,.15-.11,.01-.02,.02-.03,.03-.03,.04-.03,.09-.06,.14-.1,1.06-.78,2.15-1.53,3.25-2.25,3.7-2.41,7.58-4.54,11.62-6.34,.12-.05,.24-.11,.35-.16-1.11,2.97-1.35,6.3-.45,9.59,2.28,8.3,10.85,13.19,19.16,10.91,8.3-2.27,13.19-10.85,10.91-19.15-.62-2.27-1.72-4.26-3.14-5.94,.17,.01,.34,.03,.51,.05,.14,.02,.29,.04,.43,.07,1.64,.26,3.27,.62,4.86,1.07,.93,.26,1.84,.56,2.74,.88,.52,.19,1.02,.39,1.53,.58,.06,.03,.1,.04,.14,.05,.08,.04,.14,.08,.18,.1,1.94,.87,3.81,1.89,5.6,3.04,.92,.59,1.82,1.21,2.7,1.86,.03,.02,.09,.07,.16,.12,.16,.13,.45,.35,.46,.36,.45,.36,.89,.73,1.33,1.11,1.9,1.65,3.68,3.44,5.36,5.32,1.74,1.96,5.31,1.91,7.07,0,1.92-2.09,1.86-4.98,0-7.07Zm10.85-37.42c-12.09-21.33-43.41-36.43-85.61-21.7-2.99,1.05-4.88,4.03-4.63,7.21,.37,4.56,4.91,7.57,9.22,6.09,15.47-5.32,49.86-17.59,79.6,9.57,.8,.73,1.95-.23,1.42-1.17Zm-167.92,36.3c-2.13-1.73-4.4-3.3-6.73-4.76-9.86-6.2-21.02-10.56-32.66-11.69-7.06-.68-14.43,.11-21.1,2.57-8.37,3.09-15.63,8.36-21.56,15-1.86,2.09-1.91,4.98,0,7.07,1.76,1.91,5.33,1.96,7.07,0,1.68-1.88,3.46-3.67,5.36-5.32,.44-.38,.88-.75,1.33-1.11,.01-.01,.3-.23,.46-.36,.07-.05,.13-.1,.16-.12,.88-.65,1.78-1.27,2.7-1.86,1.79-1.15,3.66-2.17,5.6-3.04,.04-.02,.11-.06,.18-.1,.04-.01,.08-.02,.14-.05,.51-.19,1.01-.39,1.53-.58,.9-.32,1.81-.62,2.74-.88,1.6-.45,3.22-.81,4.86-1.07,.14-.03,.29-.05,.43-.07,.17-.02,.34-.04,.51-.05-1.42,1.68-2.52,3.67-3.14,5.94-2.28,8.3,2.61,16.88,10.91,19.15,8.31,2.28,16.88-2.61,19.16-10.91,.9-3.29,.66-6.62-.45-9.59,.12,.05,.24,.11,.35,.16,4.04,1.8,7.93,3.93,11.62,6.34,1.1,.72,2.19,1.47,3.25,2.25,.05,.04,.1,.07,.14,.1,.01,0,.02,.01,.03,.03,.05,.04,.1,.08,.15,.11,2.16,1.69,4.84,1.87,6.96-.09,1.85-1.69,2.04-5.41,0-7.07Zm66.59,91.09c-.45-1.39-1.27-2.43-2.49-3.24-1.77-1.17-3.74-2.04-5.74-2.75-2.11-.75-4.28-1.1-6.5-1.37-1.28-.16-2.96,.72-3.83,1.59-.95,.94-1.65,2.48-1.59,3.83,.06,1.41,.52,2.86,1.59,3.84,.36,.28,.73,.57,1.09,.85,.75,.43,1.55,.66,2.4,.72,1.51,.25,2.99,.65,4.42,1.19,.93,.43,1.83,.9,2.68,1.47,1.14,.75,2.9,.9,4.18,.54,1.26-.34,2.63-1.31,3.25-2.49,.66-1.26,.99-2.78,.54-4.18Zm24.19,44.94c-1.55-1.56-3.71-1.25-5.3,0,1.51-1.19,.13-.26-.49,.07-.01,.01-.02,.01-.03,.02-.3,.11-.59,.21-.89,.32-.26,.08-.52,.16-.78,.24-31.35-14.01-42.08-1.98-42.32-1.7-.25-.28-10.98-12.31-42.33,1.7-.26-.08-.52-.16-.78-.24-.3-.11-.59-.21-.89-.32-.01-.01-.02-.01-.03-.02-.62-.33-2-1.26-.49-.07-1.59-1.25-3.75-1.56-5.3,0-1.3,1.29-1.6,4.04,0,5.3,1.85,1.45,4.12,2.21,6.36,2.85,6.91,1.98,14.24,2.67,21.38,3.19,7.34,.53,14.7,.7,22.06,.7h.03c7.36,0,14.72-.17,22.06-.7,7.14-.52,14.47-1.21,21.38-3.19,2.25-.64,4.51-1.4,6.36-2.85,1.6-1.26,1.3-4.01,0-5.3Zm-23.82,29.1c-.42-1.82-2.79-3.36-4.62-2.62-1.92,.78-3.98,1.31-6,1.79-1.04,.25-2.08,.47-3.13,.67-.62,.12-1.24,.23-1.87,.33-.33,.05-.65,.1-.98,.15-.09,.01-.39,.05-.56,.08-2.93,.37-5.88,.56-8.83,.61-2.96-.05-5.91-.24-8.84-.61-.17-.03-.47-.07-.56-.08-.32-.05-.65-.1-.98-.15-.62-.1-1.25-.21-1.87-.33-1.05-.2-2.09-.42-3.13-.67-2.02-.48-4.07-1.01-6-1.79-1.83-.74-4.2,.8-4.62,2.62-.49,2.17,.67,3.82,2.62,4.61,2.01,.81,4.15,1.36,6.25,1.85,5.59,1.31,11.37,1.96,17.1,2.05h.05c5.74-.09,11.51-.74,17.1-2.05,2.1-.49,4.24-1.04,6.25-1.85,1.95-.79,3.11-2.44,2.62-4.61Z"/>
  </g>
</svg>