<?xml version="1.0" encoding="UTF-8"?>
<svg id="Capa_1" data-name="Capa 1" xmlns="http://www.w3.org/2000/svg" viewBox="0 0 906.93 1043.76">
  <defs>
    <style>
      .cls-1 {
        fill: #c10053;
      }
    </style>
  </defs>
  <g id="_7" data-name="7">
    <path d="M833.26,1058.97c-.12-1.05-.24-2.1-.37-3.14-2.53-21.82-4.99-43.64-7.4-65.47-4.02-36.46-7.91-72.93-11.51-109.44-3.28-33.29-4.8-67.1-14.38-99.36-6.77-22.8-17.33-44.52-32.97-62.58-12.74-14.71-28.7-26.36-46.03-35.1-16.74-8.45-34.57-14.43-52.49-19.83-17.08-5.15-34.36-9.79-51.05-16.14-2.01-.76-4-1.55-5.99-2.37-.29-.12-.58-.24-.86-.36-.03-.01-.05-.02-.09-.04-.47-.2-.95-.41-1.42-.61-.88-.39-1.76-.78-2.64-1.18-1.03-.47-2.06-.95-3.09-1.45,27.24-61.61,66.08-189.77,37.34-381.62,0,0-31.75-183.35-185.87-180.76l-5.29-.03h0c-152.4-.98-183.88,180.79-183.88,180.79-28.82,192.38,10.31,320.72,37.57,382.13-.67,.32-1.34,.63-2.01,.94-.88,.4-1.76,.79-2.64,1.18-.47,.21-.95,.41-1.42,.61-.04,.02-.05,.02-.09,.04-.29,.12-.58,.24-.86,.36-1.98,.82-3.98,1.61-5.99,2.37-16.69,6.36-33.97,10.99-51.05,16.14-17.91,5.4-35.75,11.39-52.49,19.83-17.33,8.74-33.29,20.39-46.03,35.1-15.64,18.06-26.19,39.78-32.97,62.58-9.58,32.26-11.09,66.06-14.38,99.36-3.6,36.5-7.49,72.98-11.51,109.44-2.41,21.83-4.86,43.65-7.4,65.47-.12,1.05-.24,2.1-.37,3.14-.31,2.69,2.52,5,5,5,2.96,0,4.68-2.31,5-5,1.82-15.54,3.57-31.09,5.32-46.64,3.87-34.57,7.63-69.15,11.17-103.76,1.92-18.78,3.79-37.56,5.54-56.35,1.54-16.5,3.07-32.9,6.5-49.14,5.18-24.5,13.48-47.61,28.07-68.04,2.83-3.97,5.54-7.34,9.22-11.39,3.32-3.65,6.83-7.11,10.53-10.36,6.87-6.05,13.85-10.99,22.42-15.95,4.02-2.33,8.14-4.49,12.32-6.5,2.09-1,4.19-1.97,6.31-2.9,.51-.23,1.03-.45,1.54-.67,.17-.07,.73-.31,.97-.41,1.02-.43,2.04-.85,3.07-1.26,8.54-3.45,17.27-6.43,26.05-9.2,17.17-5.42,34.62-9.98,51.64-15.88,7.66-2.65,15.3-5.59,22.68-9.03,4.17,8.8,7.93,15.86,10.92,21.13,.86,1.51,2.1,.5,2.65-1.15,4.36-13.16,5.28-24.55,5.28-24.55,16.12,29.6,55.59,50.29,68.18,53.09,2.46,.55,4.18-2.31,2.62-4.29-10.01-12.68-24.57-45.79-38.36-89.19,1.98-3.43,3.78-6.99,5.36-10.68,8.28-19.28,11.43-40.3,12.07-61.21,19.87,7.93,44.28,14.06,75.82,14.22,.24,0,.48,0,.72,0,.49,0,.96,.02,1.45,.01l-.04-.02c4.1,.11,8.27-.5,12.18-1.73,16.88-5.33,28.63-19.49,43.05-28.39,7.03-4.34,14.55-6.62,22.24-10.77,.15-.08,.3-.17,.45-.25-.31,5.42-.51,10.84-.55,16.27-.18,24.36,2.51,49.3,12.19,71.86,1.36,3.17,2.87,6.24,4.53,9.22-13.92,44.12-28.7,77.82-38.82,90.65-1.56,1.98,.17,4.83,2.62,4.29,12.59-2.8,52.06-23.49,68.18-53.09,0,0,.92,11.39,5.28,24.55,.55,1.65,1.79,2.66,2.65,1.15,3.05-5.38,6.89-12.6,11.15-21.63,7.71,3.66,15.72,6.75,23.74,9.53,17.02,5.9,34.47,10.46,51.64,15.88,8.79,2.77,17.51,5.76,26.05,9.2,1.03,.41,2.05,.84,3.07,1.26,.24,.1,.8,.34,.97,.41,.51,.22,1.03,.45,1.54,.67,2.12,.93,4.22,1.9,6.31,2.9,4.19,2.01,8.3,4.17,12.32,6.5,8.57,4.96,15.55,9.9,22.42,15.95,3.7,3.26,7.22,6.72,10.53,10.36,3.68,4.05,6.39,7.42,9.22,11.39,14.58,20.43,22.89,43.54,28.07,68.04,3.43,16.23,4.96,32.64,6.5,49.14,1.75,18.79,3.62,37.57,5.54,56.35,3.55,34.61,7.3,69.19,11.17,103.76,1.74,15.55,3.5,31.1,5.32,46.64,.32,2.69,2.04,5,5,5,2.48,0,5.31-2.31,5-5ZM515.75,504.38c-3.2,1.4-7.27,2.99-10.72,5.02-3.51,2.07-6.81,4.47-10.05,6.95-6.92,5.3-13.01,10.69-20.23,15.36-3.32,2.15-7.12,4.23-10.27,5.34-4.11,1.46-6.84,1.93-11.02,1.8,0,0,0,0,0,0h0s0,0,0,0c-4.17,.14-6.9-.34-11.02-1.8-3.15-1.12-6.95-3.19-10.27-5.34-7.22-4.67-13.31-10.06-20.23-15.36-3.23-2.48-6.54-4.88-10.05-6.95-3.45-2.03-7.51-3.62-10.72-5.02-7.23-3.17-14.2-6.92-20.76-11.32-6.09-4.08-11.13-8.19-16.59-13.61-2.64-2.62-5.15-5.36-7.54-8.22-2.43-2.91-3.83-4.76-6.12-8.06-4.26-6.16-7.97-12.68-11.2-19.44-2.96-6.19-5.35-12.2-7.62-18.95-5.16-62.91-.5-123.4,22.57-165.13,3.34-.59,7.11-.97,11.35-.98,18.27-.07,43.61,12.81,50.97,16.78,4.02,2.34,15.34,9.35,21.8,17.6,1.45,2.2,2.8,4.47,4.04,6.79,.56,1.05,1.09,2.11,1.59,3.18,.28,.59,.54,1.18,.81,1.77,.02,.04,.03,.06,.04,.09,.14,.34,.28,.68,.42,1.03,.88,2.25,1.64,4.55,2.23,6.89,.27,1.09,.5,2.19,.69,3.3,.05,.29,.09,.57,.14,.86,0,0,0,.01,0,.02,.14,.79,.18,1.63,.25,2.43,.25,2.82,.33,5.66,.24,8.5-.04,1.36-.12,2.72-.25,4.08-.06,.71-.15,1.42-.22,2.13,0,.05-.02,.14-.03,.23-.05,.33-.09,.65-.14,.98-.87,5.58-2.41,11.05-4.49,16.3-.13,.34-.27,.67-.41,1.01,0,.02-.01,.03-.02,.05-.28,.66-.57,1.31-.87,1.96-.61,1.34-1.26,2.66-1.94,3.96-1.33,2.55-2.81,5.01-4.27,7.49-3.06,5.23-5.87,10.75-6.51,16.86-.63,6.07,1.97,11.92,6.49,15.91,4.19,3.7,9.23,6.09,14.07,8.8,2.28,1.28,5.56,.62,6.84-1.79,1.25-2.36,.64-5.47-1.79-6.84-2.11-1.19-4.27-2.3-6.38-3.5-.97-.55-1.94-1.12-2.88-1.72-.44-.28-.87-.56-1.29-.86-.23-.16-.46-.33-.69-.49-.04-.03-.08-.06-.11-.08-.02-.02-.04-.03-.06-.06-.73-.64-1.46-1.27-2.12-2-.15-.17-.3-.36-.46-.53-.27-.41-.55-.82-.79-1.26-.03-.05-.24-.51-.35-.73-.15-.45-.3-.9-.4-1.37-.04-.18-.08-.37-.11-.56h0c0-.72-.06-1.43-.02-2.15,0-.02,.04-.33,.06-.55,.04-.22,.08-.47,.08-.49,.12-.6,.27-1.2,.44-1.79,.17-.6,.37-1.2,.58-1.79,.12-.33,.26-.66,.38-.99,0-.02,0-.02,.01-.03,.08-.18,.16-.36,.24-.54,1.15-2.52,2.53-4.93,3.94-7.31,3.08-5.22,5.85-10.52,8.07-16.17,4.22-10.74,6.13-22.49,5.23-34.01-.42-5.34-1.39-10.53-3.25-15.57-1.88-5.09-4.29-9.98-7.15-14.58-6.27-10.08-14.42-19.24-24.18-26.06-.79-.74-1.73-1.38-2.8-1.9-28.21-13.44-48.91-13.17-63.09-8.93,3.82-6.03,8.06-11.61,12.79-16.67,70.29-75.35,91.53-81.15,91.53-81.15h0c.43-.04,.88-.05,1.3-.02v.02s21.24,5.8,91.53,81.15c4.69,5.03,8.91,10.56,12.71,16.54-14.16-4.12-34.73-4.24-62.66,9.06-8.49,4.04-8.22,16.5,2.6,14.64,0,0,31.47-18.01,53.06-17.93,4.08,.02,7.72,.36,10.97,.91,23.71,42.81,28,105.41,22.19,170.09-1.77,4.84-3.67,9.4-5.9,14.06-3.23,6.75-6.95,13.28-11.2,19.44-2.29,3.31-3.69,5.16-6.12,8.06-2.38,2.85-4.9,5.6-7.54,8.22-5.46,5.42-10.5,9.52-16.59,13.61-6.56,4.39-13.53,8.15-20.76,11.32Zm-82.84-151.63c-.24,.58-.1,.23,0,0h0Zm-3.05,35.2c.11,.29,.22,.67,.02,.06,0-.02-.01-.04-.02-.06Zm104.78-84.03c.21,.08,.43,.18,.64,.26,.57,.26,1.13,.53,1.69,.82,1.15,.6,2.26,1.27,3.32,2,.28,.2,.56,.4,.84,.6,.04,.03,.06,.06,.12,.11,.57,.48,1.13,.97,1.67,1.48,.59,.57,1.17,1.16,1.71,1.78,.26,.29,.52,.59,.77,.9,0,0,.05,.04,.18,.22,.02,.03,.04,.06,.06,.09,.03,.03,.05,.07,.08,.09-.02-.01-.03-.03-.05-.04,.97,1.34,1.85,2.73,2.63,4.19,.24,.46,.48,.92,.7,1.39,.09,.18,.17,.36,.25,.54,.02,.05,.11,.24,.17,.38,.02,.05,.04,.09,.05,.11,.1,.26,.2,.52,.3,.78,.2,.53,.39,1.07,.57,1.61,.84,2.47,3.47,4.36,6.15,3.49,2.45-.79,4.4-3.5,3.49-6.15-2.31-6.77-5.99-13.2-11.55-17.82-4.64-3.86-10.14-6.64-16.06-7.93-8.22-1.8-16.65-.48-24.12,3.32-2.44,1.24-5,2.77-6.97,4.69-1.16,1.13-2.33,2.26-3.49,3.39-2.63,2.55-5.26,5.1-7.88,7.66-1.88,1.83-1.97,5.26,0,7.07,2.02,1.85,5.07,1.95,7.07,0,2.05-1.99,4.09-3.97,6.14-5.96,1.35-1.31,2.71-2.63,4.06-3.94,.41-.4,.84-.79,1.24-1.2,.06-.06,.12-.12,.18-.18,.21-.15,.42-.31,.51-.36,.57-.4,1.17-.77,1.76-1.14-.42,1.13-.69,2.33-.77,3.6-.42,6.84,4.79,12.72,11.64,13.14,6.85,.42,12.74-4.78,13.16-11.62,.18-2.99-.71-5.8-2.35-8.05,.7,.22,1.4,.45,2.08,.71Zm-25.95,3.64c.07-.09,.37-.28,0,0h0Zm36.95,4.62s.02,.03,.03,.05c-.14-.12-.28-.34-.28-.36,0,0,0,0,0,0,.07,.08,.15,.21,.24,.31Zm-185.04-.31s0,0,0,0c0,.02-.14,.24-.28,.36,.01-.02,.02-.03,.03-.05,.09-.1,.17-.23,.24-.31Zm55.48,7.06c1.97-1.81,1.88-5.25,0-7.07-2.63-2.55-5.26-5.1-7.88-7.66-1.16-1.13-2.33-2.26-3.49-3.39-1.97-1.92-4.53-3.45-6.97-4.69-7.47-3.8-15.9-5.11-24.12-3.32-5.91,1.29-11.42,4.08-16.06,7.93-5.56,4.62-9.24,11.05-11.55,17.82-.9,2.65,1.04,5.36,3.49,6.15,2.68,.87,5.31-1.02,6.15-3.49,.18-.54,.37-1.08,.57-1.61,.1-.26,.2-.52,.3-.78,0-.02,.02-.06,.05-.11,.06-.14,.15-.33,.17-.38,.08-.18,.17-.36,.25-.54,.22-.47,.46-.93,.7-1.39,.77-1.46,1.66-2.85,2.63-4.19-.02,.01-.03,.03-.05,.04,.03-.02,.05-.06,.08-.09,.02-.03,.04-.06,.06-.09,.13-.18,.18-.23,.18-.22,.25-.3,.5-.6,.77-.9,.55-.62,1.12-1.21,1.71-1.78,.54-.51,1.1-1,1.67-1.48,.06-.05,.09-.07,.12-.11,.28-.2,.56-.41,.84-.6,1.06-.74,2.17-1.4,3.32-2,.55-.29,1.12-.56,1.69-.82,.22-.08,.43-.18,.64-.26,.69-.26,1.38-.49,2.08-.71-1.64,2.25-2.54,5.06-2.35,8.05,.42,6.84,6.31,12.04,13.16,11.62,6.85-.42,12.06-6.3,11.64-13.14-.08-1.26-.34-2.47-.77-3.6,.6,.37,1.19,.73,1.76,1.14,.08,.06,.3,.21,.51,.36,.06,.06,.13,.12,.18,.18,.4,.41,.83,.8,1.24,1.2,1.35,1.31,2.71,2.63,4.06,3.94,2.05,1.99,4.09,3.98,6.14,5.96,2.01,1.95,5.05,1.85,7.07,0Zm-18.78-11.37c-.37-.28-.07-.09,0,0h0Zm61.8,99.21c-.68-1.06-.83-2.66-.5-3.85,.31-1.14,1.22-2.44,2.3-2.99,3.72-1.88,7.68-3.32,11.78-4.09,1.39-.26,2.61-.15,3.85,.5,1.16,.61,1.91,1.78,2.3,2.99,.39,1.2,.12,2.78-.5,3.85-.58,1-1.82,2.08-2.99,2.3-2.54,.48-5.03,1.21-7.43,2.17-.66,.29-1.32,.59-1.96,.91-1.25,.63-2.5,.81-3.85,.5-1.27-.29-2.3-1.23-2.99-2.3Zm44.14,37.33c1,1.72,.44,4.15-1.35,5.13-1.8,.99-3.98,1.48-5.96,1.91-6.89,1.51-14.03,2.05-21.06,2.38-6.9,.33-13.81,.36-20.72,.25-.14,0-.28-.03-.42-.05-.14,.02-.28,.05-.42,.05-6.91,.11-13.82,.08-20.72-.25-7.03-.33-14.17-.88-21.06-2.38-1.98-.43-4.16-.93-5.96-1.91-1.78-.98-2.35-3.41-1.35-5.13,1.04-1.78,3.36-2.32,5.13-1.35,.04,.02,.08,.04,.12,.06,.17,.05,.35,.11,.46,.15,1.41,.47,2.87,.81,4.32,1.11,.34,.07,.69,.12,1.04,.18,8.17-4.37,21.19-10,31.42-8.16,0,0,2.55,1.23,7.01,2.1,4.46-.87,7.01-2.1,7.01-2.1,10.23-1.84,23.25,3.79,31.42,8.16,.34-.06,.69-.11,1.04-.18,1.46-.3,2.91-.64,4.32-1.11,.11-.04,.29-.09,.46-.15,.04-.02,.08-.04,.12-.06,1.78-.97,4.09-.44,5.13,1.35Zm-27.46,23.31c.49,2.14-.65,3.87-2.62,4.61-6,2.27-12.63,3.46-19.01,3.72-.14,0-.28-.02-.42-.03-.14,.01-.28,.04-.42,.03-6.38-.26-13.02-1.45-19.01-3.72-1.97-.75-3.11-2.48-2.62-4.61,.42-1.85,2.77-3.31,4.61-2.62,1.73,.66,3.53,1.16,5.32,1.63,1.84,.48,3.69,.88,5.56,1.2,.57,.1,1.13,.18,1.7,.27,0,0,0,0,.01,0,.03,0,.06,0,.11,.01,.27,.03,.54,.06,.81,.09,1.17,.12,2.34,.21,3.51,.26,.14,0,.28,.04,.42,.05,.14-.02,.27-.05,.42-.05,1.17-.05,2.34-.13,3.51-.26,.27-.03,.54-.06,.81-.09,.05,0,.07,0,.11-.01,0,0,0,0,.01,0,.57-.09,1.13-.17,1.7-.27,1.87-.32,3.72-.72,5.56-1.2,1.79-.46,3.59-.97,5.32-1.63,1.84-.7,4.19,.77,4.61,2.62Z"/>
    <path class="cls-1" d="M704.91,833.03c-6.37-35.01-3.23-157.89-3.23-157.89-21.87-10.65-69.53-21.31-69.53-21.31,0,0-52.61,75.61-179.33,84.51-126.72-8.9-179.33-84.51-179.33-84.51,0,0-47.66,10.65-69.53,21.31,0,0,3.13,122.88-3.23,157.89-6.37,35.01-30.82,190.72,3.23,210.77h497.72c34.06-20.05,9.6-175.75,3.23-210.77Z"/>
  </g>
</svg>