<?xml version="1.0" encoding="UTF-8"?>
<svg id="Capa_1" data-name="Capa 1" xmlns="http://www.w3.org/2000/svg" viewBox="0 0 906.93 1043.76">
  <defs>
    <style>
      .cls-1 {
        fill: #c10053;
      }
    </style>
  </defs>
  <g id="_4" data-name="4">
    <path d="M836.67,1035.11c-.25-25.27-.57-50.54-.93-75.81-.55-38.45-1.18-76.91-2.14-115.35-.66-26.27-4.73-52.62-15.94-76.59-8.65-18.5-21.73-34.66-37.82-47.2-15.79-12.31-33.74-21.17-52.39-28.27-18.54-7.06-37.68-12.34-56.77-17.65-18.24-5.07-36.57-10.1-54.18-17.12-1.15-.46-2.29-.92-3.43-1.4-.12-.05-.18-.07-.2-.08-.07-.03-.17-.07-.3-.13-.5-.22-1.01-.43-1.51-.65-2.05-.9-4.09-1.82-6.1-2.79-3.84-1.84-7.61-3.82-11.28-5.98-3.67-2.16-7.23-4.49-10.65-7.02-.38-.28-.75-.56-1.13-.85-.16-.12-.39-.3-.56-.44-.79-.63-1.58-1.27-2.36-1.93-1.55-1.31-3.05-2.66-4.51-4.06-2.95-2.83-5.68-5.87-8.21-9.08-.03-.04-.04-.05-.07-.1-.17-.23-.34-.45-.51-.68-.27-.37-.54-.73-.8-1.1-.6-.84-1.18-1.68-1.74-2.54-1.14-1.74-2.22-3.52-3.22-5.34-1.03-1.86-1.99-3.76-2.87-5.69-.25-.55-.49-1.1-.73-1.65-.01-.03-.02-.04-.03-.07-.1-.25-.21-.5-.31-.75-.39-.97-.76-1.94-1.12-2.93-1.61-4.43-2.87-8.97-3.82-13.58-.49-2.34-.89-4.7-1.22-7.07-.04-.29-.16-1.23-.19-1.48-.08-.72-.16-1.44-.24-2.16-.12-1.25-.23-2.5-.32-3.75-.41-5.76-.46-11.54-.23-17.31,.56-13.93,2.55-26.56,5.54-40.25,.07-.33,.11-.64,.12-.95,6.1-5.19,11.97-10.64,17.57-16.33,8.83-8.98,16.93-18.5,23.05-29.55,6.35-11.47,11.13-23.83,14.99-36.34,1.35,.28,2.72,.46,4.08,.55,11.27,.73,21.35-6.58,28.23-14.84,8.35-10.01,14.09-22.12,17.67-34.6,3.35-11.63,5.15-24.47,2.52-36.43-1.44-6.58-4.6-13.22-9.46-17.96-3.35-3.26-7.35-5.37-11.73-6.53,5.79-12.18,44.02-98.56,1.31-172.56-25.02-43.35-74.16-80.27-123.44-89.04-21.72-3.86-44.08-3.79-62.41,5.28-16.68-14.71-39.23-21.47-66.09-21.47-64.76,0-134.64,63-149.75,115.35-26.44,91.6,16.67,154.99,22.53,163.04-3.62,1.23-6.94,3.17-9.79,5.94-4.86,4.74-8.02,11.38-9.46,17.96-2.63,11.96-.83,24.8,2.52,36.43,3.58,12.48,9.32,24.59,17.67,34.6,6.88,8.26,16.96,15.57,28.23,14.84,1.36-.09,2.73-.27,4.08-.55,3.86,12.51,8.64,24.87,14.99,36.34,6.12,11.05,14.22,20.57,23.05,29.55,5.6,5.69,11.48,11.14,17.57,16.33,.01,.31,.05,.62,.12,.95,2.98,13.7,4.98,26.32,5.54,40.25,.23,5.77,.19,11.55-.23,17.31-.09,1.25-.2,2.5-.32,3.75-.07,.72-.15,1.44-.24,2.16-.03,.25-.15,1.2-.19,1.48-.34,2.37-.74,4.73-1.22,7.07-.95,4.61-2.21,9.16-3.82,13.58-.36,.98-.73,1.96-1.12,2.93-.1,.25-.21,.5-.31,.75-.01,.02-.02,.04-.03,.07-.24,.55-.48,1.1-.73,1.65-.89,1.93-1.84,3.83-2.87,5.69-1.01,1.82-2.08,3.6-3.22,5.34-.56,.86-1.14,1.7-1.74,2.54-.26,.37-.53,.74-.8,1.1-.17,.23-.34,.45-.51,.68-.03,.05-.05,.06-.07,.1-2.53,3.21-5.26,6.25-8.21,9.08-1.46,1.4-2.96,2.75-4.51,4.06-.78,.66-1.56,1.3-2.36,1.93-.17,.13-.4,.32-.56,.44-.37,.28-.75,.57-1.13,.85-3.42,2.53-6.98,4.86-10.65,7.02-3.67,2.16-7.44,4.14-11.28,5.98-2.02,.97-4.05,1.9-6.1,2.79-.5,.22-1.01,.44-1.51,.65-.13,.06-.23,.1-.3,.13-.02,0-.08,.03-.2,.08-1.14,.47-2.28,.94-3.43,1.4-17.61,7.01-35.94,12.04-54.18,17.12-19.09,5.31-38.24,10.59-56.77,17.65-18.65,7.1-36.6,15.96-52.39,28.27-16.09,12.54-29.17,28.71-37.82,47.2-11.21,23.97-15.28,50.32-15.94,76.59-.96,38.45-1.59,76.9-2.14,115.35-.36,25.27-.67,50.54-.93,75.81-.01,1.28-.03,2.55-.04,3.83-.06,6.44,9.94,6.44,10,0,.17-18.31,.39-36.62,.63-54.92,.49-37.66,1.06-75.32,1.85-112.98,.35-16.67,.22-33.45,2.12-50.03,.68-5.88,1.78-12.58,3.22-18.97,1.3-5.8,2.9-11.54,4.84-17.16,2.03-5.88,3.53-9.51,6.18-14.89,2.29-4.64,4.85-9.14,7.69-13.47,1.41-2.15,2.88-4.25,4.43-6.3,.13-.17,.75-.98,.81-1.05,.27-.34,.53-.68,.8-1.01,.85-1.06,1.72-2.1,2.6-3.13,3.13-3.65,6.48-7.12,10.02-10.38,1.8-1.66,3.64-3.27,5.52-4.83,.86-.71,1.74-1.41,2.62-2.11,.25-.2,.37-.3,.43-.34,.06-.04,.18-.13,.44-.33,.53-.4,1.05-.79,1.58-1.18,3.82-2.81,7.77-5.44,11.83-7.89,8.22-4.97,16.87-9.23,25.71-12.99,.28-.11,1.15-.48,1.3-.54,.5-.21,.99-.41,1.49-.61,1.19-.48,2.37-.95,3.56-1.42,2.33-.91,4.67-1.79,7.02-2.64,4.59-1.67,9.22-3.24,13.87-4.73,9.46-3.05,19.01-5.8,28.57-8.48,18.6-5.22,37.33-10.11,55.51-16.67,16.96-6.11,33.48-13.69,47.69-24.93,13.83-10.94,24.13-25.5,29.82-42.2,5.81-17.07,6.7-35.32,5.31-53.25,12.64,3.72,42.92,11.19,82.37,11.24,.85,.04,1.7,.09,2.54,.11,.32,0,.61-.02,.9-.06,.29,.04,.58,.07,.9,.06,5.32-.11,10.62-.67,15.86-1.55,20.82-3.51,40.5-12.95,58.09-24.39,4.83-3.15,9.55-6.49,14.16-9.97-.58,3.23-1.11,6.48-1.57,9.73-3.16,22.53-3.74,46.28,3.68,68.08,5.68,16.69,15.99,31.26,29.82,42.2,14.21,11.24,30.73,18.82,47.69,24.93,18.18,6.56,36.91,11.45,55.51,16.67,9.57,2.68,19.11,5.43,28.57,8.48,4.65,1.5,9.28,3.07,13.87,4.73,2.35,.85,4.69,1.73,7.02,2.64,1.19,.46,2.38,.94,3.56,1.42,.5,.2,1,.41,1.49,.61,.15,.06,1.03,.43,1.3,.54,8.84,3.76,17.48,8.02,25.71,12.99,4.06,2.45,8.01,5.08,11.83,7.89,.53,.39,1.05,.79,1.58,1.18,.26,.19,.38,.29,.44,.33,.05,.04,.17,.14,.43,.34,.88,.7,1.75,1.4,2.62,2.11,1.89,1.56,3.73,3.17,5.52,4.83,3.53,3.27,6.88,6.73,10.02,10.38,.88,1.03,1.75,2.07,2.6,3.13,.27,.34,.54,.67,.8,1.01,.05,.07,.68,.89,.81,1.05,1.54,2.05,3.02,4.15,4.43,6.3,2.84,4.32,5.4,8.83,7.69,13.47,2.65,5.38,4.15,9.01,6.18,14.89,1.94,5.62,3.54,11.36,4.84,17.16,1.43,6.38,2.54,13.08,3.22,18.97,1.91,16.58,1.77,33.37,2.12,50.03,.79,37.66,1.37,75.32,1.85,112.98,.24,18.31,.46,36.61,.63,54.92,.06,6.44,10.06,6.44,10,0-.01-1.28-.02-2.55-.04-3.83ZM281.04,323.06c-.25-.06-.51-.1-.76-.15,.26-.07,.51-.15,.76-.23,0,.13,0,.25,0,.38Zm230.34,210.39c-17.5,9.78-37.01,16.97-57.01,17.39-.32,0-.61,.04-.9,.1-.29-.05-.58-.09-.9-.1-20-.42-39.51-7.61-57.01-17.39-16.96-9.47-32.02-21.01-46.11-34.23-5.48-5.15-10.77-10.51-15.74-16.14-1.69-1.92-3.34-3.86-4.93-5.86-.01,0-.01-.01-.01-.02-.01-.01-.03-.03-.04-.05-.01-.01-.03-.04-.05-.06s-.04-.05-.06-.08c-.23-.3-.62-.81-.73-.96-.38-.52-.76-1.04-1.13-1.57-.83-1.17-1.63-2.36-2.41-3.57-3.23-5.03-6.04-10.33-8.56-15.75-.65-1.4-1.28-2.81-1.89-4.23-.09-.2-.17-.39-.25-.59,0,0,0-.01-.01-.03-.02-.03-.05-.1-.08-.19t-.01-.02s-.01-.01-.01-.02t-.01-.02s-.03-.06-.04-.1c-.01,0-.01-.01-.01-.02-.01-.03-.03-.06-.04-.09-.05-.12-.09-.22-.11-.26-.35-.87-.71-1.73-1.05-2.6-1.27-3.19-2.45-6.42-3.56-9.67-4.93-14.4-8.5-29.25-11.2-44.22-.36-2.01-.71-4.02-1.04-6.03-.4-2.42-2.47-4.2-4.91-4.2h0c-3.07,0-5.41,2.74-4.92,5.77,1.19,7.39,3.61,20.9,7.39,34.81-.24,.04-.49,.08-.74,.13-.3,.02-.58,.04-.88,.06-1.07,.05-2.12-.02-3.19-.1-.17-.02-.34-.05-.52-.09-.56-.1-1.12-.24-1.68-.39-.52-.14-1.04-.3-1.56-.48-.22-.08-.45-.16-.67-.25-.94-.57-2.04-.95-3-1.52-1.04-.6-2.03-1.28-3-1.98-.01-.01-.02-.01-.03-.02-.06-.05-.12-.09-.17-.14l-.02-.02s-.08-.05-.11-.09c-.07-.05-.14-.1-.21-.16-.51-.41-1.01-.84-1.5-1.28-.98-.88-1.92-1.8-2.82-2.75-.93-.99-1.83-2.02-2.69-3.07-.19-.23-.39-.48-.58-.71t-.01-.02s-.03-.05-.06-.07c-.07-.09-.13-.17-.2-.25,.05,.05,.1,.11,.14,.16-.36-.53-.78-1.04-1.16-1.56-1.67-2.35-3.21-4.8-4.62-7.31-1.46-2.61-2.79-5.29-4-8.03-.16-.36-.31-.73-.47-1.09-.01-.01-.01-.03-.02-.04-.01-.02-.02-.04-.02-.06-.02-.05-.04-.08-.05-.1-.27-.69-.55-1.37-.81-2.06-.56-1.45-1.08-2.9-1.57-4.37-1.87-5.58-3.25-11.31-4.11-17.13-.01-.07-.02-.15-.03-.22,0-.03,0-.07,0-.1-.01-.06-.02-.1-.02-.12-.03-.27-.06-.54-.09-.81-.08-.69-.14-1.38-.2-2.07-.12-1.39-.2-2.78-.23-4.18-.07-2.59,.02-5.17,.31-7.75h0s.02-.06,.02-.09h-.01s.01,0,.01-.01c0,0,0,0,0,.01,.28-1.08,.11-.6,.02-.15,.01-.16,.03-.31,.06-.47,.1-.62,.21-1.23,.33-1.84,.24-1.15,.53-2.28,.88-3.39,.23-.73,.48-1.45,.75-2.17,.09-.24,.37-.73,.43-.87-.04,.05-.12,.18-.27,.43,.23-.38,.37-.84,.56-1.24,.7-1.46,1.5-2.87,2.42-4.19,.16-.24,.4-.48,.54-.74,.01,0,.02-.03,.03-.04l.02-.02c.46-.55,.94-1.08,1.45-1.58,.45-.46,.93-.88,1.41-1.3,.03-.02,.06-.05,.09-.07,.03-.02,.06-.04,.09-.07,.05-.02,.09-.05,.13-.09,.15-.1,.29-.2,.44-.3,.94-.64,1.93-1.13,2.94-1.65,.22-.08,.43-.16,.65-.23,.55-.19,1.1-.36,1.66-.51,.52-.13,1.04-.24,1.56-.34,.18-.04,.35-.06,.53-.1,.01,.01,.02,0,.03,0,.99-.09,1.99-.16,2.99-.15,.99,0,1.97,.05,2.96,.15,.13,.01,.27,.03,.4,.04,.36,.06,.72,.12,1.07,.18,1.15,.21,2.26,.5,3.36,.84,.1,.03,.21,.06,.32,.1v.04c.7,.31,1.7,.61,2.83,.9,.02,0,.04,.02,.06,.02,.09,.03,.19,.07,.28,.1-.02-.02-.07-.04-.13-.06,.22,.06,.43,.11,.66,.16,2.15,.48,4.57-.06,5.68-2.14,.28-.53,.45-1.14,.52-1.78h0c.07-.56,.05-1.13-.05-1.68h0c-.09-3.51-.14-7-.15-10.5,11.31-6.05,20.33-16.19,24.91-28.78,7.94-21.83,16.76-40.18,26.1-55.61,2.44,18.71,7.71,36.04,12.69,49.3-26.57,7.48-37.64,21.08-37.64,21.08,28.54-12.56,76.83-10.51,99-8.73,1.42,.28,4.43,1.12,7.49,3.52,1.37,2.19,2.62,4.46,3.7,6.81,.15,.32,.29,.63,.43,.95,.05,.12,.1,.25,.16,.38,.26,.65,.52,1.29,.76,1.95,.49,1.33,.93,2.69,1.32,4.06,.39,1.38,.73,2.77,1.02,4.18,.13,.62,.25,1.25,.35,1.88,.06,.36,.12,.71,.17,1.07,0,.06,.03,.18,.05,.31,.03,.22,.08,.67,.1,.77,.03,.31,.07,.62,.1,.93,.07,.71,.13,1.42,.17,2.13,.08,1.32,.13,2.65,.13,3.98,0,2.71-.15,5.43-.43,8.13-.06,.6-.13,1.2-.21,1.8-.05,.33-.1,.67-.15,1-.2,1.33-.43,2.65-.69,3.96-.5,2.57-1.09,5.12-1.74,7.66-2.47,9.58-5.94,18.85-8.56,28.39-2.19,7.96-4.06,16.88-1.61,25.01,2.89,9.62,11.24,15.23,20.26,18.52,1.32,.48,2.65,.9,4,1.29,2.51,.73,5.56-.88,6.15-3.49,.61-2.67-.8-5.37-3.49-6.15-1.39-.4-2.76-.84-4.12-1.34-.54-.2-1.07-.41-1.61-.62-.31-.14-.61-.27-.92-.42-1.98-.93-3.74-2.09-5.56-3.28-.12-.1-.23-.19-.35-.29-.38-.33-.75-.66-1.1-1.01-.32-.32-.63-.65-.94-.98-.19-.21-.42-.51-.56-.7-.37-.53-.73-1.07-1.05-1.64-.2-.36-.39-.73-.57-1.11-.02-.04-.03-.07-.05-.11,0-.02-.02-.05-.03-.07-.28-.78-.53-1.57-.73-2.38-.1-.41-.18-.82-.26-1.23-.02-.09-.03-.19-.05-.28-.17-1.77-.2-3.54-.09-5.32,.05-.83,.15-1.65,.24-2.47,.03-.18,.06-.37,.09-.55,.08-.52,.18-1.05,.28-1.57,.4-2.09,.89-4.15,1.44-6.21,2.51-9.42,5.95-18.56,8.46-27.97,2.8-10.5,4.67-21.53,3.66-32.42-.56-5.99-1.8-11.88-4.01-17.48-2.62-6.63-6.19-12.6-10.58-18.21-1.03-1.31-2.1-2.58-3.2-3.82-1.04-1.92-3.01-3.21-5.27-3.31l-28.48-1.19c-2.53-.11-5.07-.1-7.6,.05-6.79,.39-12.97,1.22-18.61,2.32-.21-51.41,20.08-87.4,40.11-110.35,30.79-17.05,59.12-16.47,73.94-14.39,37.73,8.59,84.58,38.38,116.15,125.16,4.7,12.92,11.59,27.39,21.73,35.89,0,3.83-.05,7.65-.15,11.48h0c-.1,.56-.12,1.13-.05,1.68h0c.07,.65,.24,1.26,.52,1.79,1.11,2.08,3.53,2.62,5.68,2.14,.23-.05,.44-.1,.66-.16-.06,.02-.11,.04-.13,.06,.09-.03,.19-.07,.28-.1,.02,0,.04-.01,.06-.02,1.13-.29,2.13-.59,2.83-.9v-.04c.11-.04,.22-.07,.32-.1,1.1-.34,2.21-.63,3.36-.84,.35-.06,.71-.12,1.07-.18,.13-.01,.27-.03,.4-.04,.99-.1,1.97-.15,2.96-.15,1-.01,2,.06,2.99,.15,.01,0,.02,.01,.03,0,.18,.04,.35,.06,.53,.1,.52,.1,1.04,.21,1.56,.34,.56,.15,1.11,.32,1.66,.51,.22,.07,.43,.15,.65,.23,1.01,.52,2,1.01,2.94,1.65,.15,.1,.29,.2,.44,.3,.04,.04,.08,.07,.13,.09,.03,.03,.06,.05,.09,.07,.03,.02,.06,.05,.09,.07,.48,.42,.96,.84,1.41,1.3,.51,.5,.99,1.03,1.45,1.58l.02,.02s.02,.03,.03,.04c.14,.26,.38,.5,.54,.74,.92,1.32,1.72,2.73,2.42,4.19,.19,.4,.33,.86,.56,1.24-.15-.25-.23-.38-.27-.43,.06,.14,.34,.63,.43,.87,.27,.72,.52,1.44,.75,2.17,.35,1.11,.64,2.24,.88,3.39,.12,.61,.23,1.22,.33,1.84,.03,.16,.05,.31,.06,.47-.08-.45-.25-.94,.02,.15,0,0,0,0,0-.01,0,.01,.01,.01,.01,.02h-.01s.01,.04,.02,.07h0c.29,2.59,.38,5.17,.31,7.76-.03,1.4-.11,2.79-.23,4.18-.06,.69-.12,1.38-.2,2.07-.03,.27-.06,.54-.09,.81,0,.02,0,.06-.02,.12,0,.03,0,.07,0,.1-.01,.07-.02,.15-.03,.22-.86,5.82-2.24,11.55-4.11,17.13-.49,1.47-1.01,2.92-1.57,4.37-.26,.69-.54,1.37-.81,2.06-.01,.02-.03,.05-.05,.1,0,.02-.01,.04-.02,.06-.01,.01-.01,.03-.02,.04-.16,.36-.31,.73-.47,1.09-1.21,2.74-2.54,5.42-4,8.03-1.41,2.51-2.95,4.96-4.62,7.31-.38,.52-.8,1.03-1.16,1.56,.04-.05,.09-.11,.14-.16-.07,.08-.13,.16-.2,.25-.03,.02-.05,.05-.06,.07t-.01,.02c-.19,.23-.39,.48-.58,.71-.86,1.05-1.76,2.08-2.69,3.07-.9,.95-1.84,1.87-2.82,2.75-.49,.44-.99,.87-1.5,1.28-.07,.06-.14,.11-.21,.16-.03,.04-.07,.07-.11,.09l-.02,.02c-.05,.05-.11,.09-.17,.14-.01,.01-.02,.01-.03,.02-.97,.7-1.96,1.38-3,1.98-.96,.57-2.06,.95-3,1.52-.22,.09-.45,.17-.67,.25-.52,.18-1.04,.34-1.56,.48-.56,.15-1.12,.29-1.68,.39-.18,.04-.35,.07-.52,.09-1.07,.08-2.12,.15-3.19,.1-.3-.02-.58-.04-.88-.06-.25-.05-.5-.09-.74-.13,3.78-13.92,6.2-27.43,7.39-34.81,.49-3.03-1.85-5.77-4.92-5.77h0c-2.45,0-4.52,1.78-4.91,4.2-.33,2.01-.68,4.02-1.04,6.03-2.7,14.97-6.27,29.82-11.2,44.22-1.11,3.25-2.29,6.48-3.56,9.67-.34,.87-.7,1.73-1.05,2.6-.02,.04-.06,.14-.11,.26-.01,.03-.03,.06-.04,.09,0,.01,0,.02-.01,.02-.01,.04-.03,.07-.04,.1t-.01,.02s-.01,.02-.01,.02t-.01,.02c-.03,.09-.06,.16-.08,.19-.01,.02-.01,.03-.01,.03-.08,.2-.16,.39-.25,.59-.61,1.42-1.24,2.83-1.89,4.23-2.52,5.42-5.33,10.72-8.56,15.75-.78,1.21-1.58,2.4-2.41,3.57-.37,.53-.75,1.05-1.13,1.57-.11,.15-.5,.66-.73,.96-.02,.03-.04,.06-.06,.08s-.04,.05-.05,.06c-.01,.02-.03,.04-.04,.05,0,.01,0,.02-.01,.02-1.59,2-3.24,3.94-4.93,5.86-4.97,5.63-10.26,10.99-15.74,16.14-14.09,13.22-29.15,24.76-46.11,34.23Zm-83.62-226.13c-.11-.26-.19-.48,0-.01,0,0,0,0,0,.01Zm139.26,29.88c1.83-1.99,1.98-5.1,0-7.07-11.76-11.69-26.47-21.24-43.4-22.33-9.38-.6-19.02,1.77-27.11,6.55-1.81,1.07-3.6,2.28-5.18,3.67-1.97,1.73-1.9,5.33,0,7.07,2.1,1.93,4.97,1.85,7.07,0,.04-.03,.07-.06,.11-.09,.7-.51,1.41-1,2.15-1.47,1.22-.76,2.47-1.46,3.76-2.09,.39-.19,.79-.38,1.18-.56,.13-.06,.26-.12,.39-.17,.84-.33,1.69-.66,2.55-.95,2.08-.7,4.21-1.24,6.37-1.61,.27-.05,.53-.09,.8-.13,.21-.02,.43-.04,.64-.07-.73,1.21-1.28,2.55-1.59,4.02-1.45,6.97,3.03,13.8,10,15.26,6.97,1.45,13.8-3.03,15.26-10,.33-1.58,.34-3.15,.1-4.66,2.85,1.45,5.63,2.98,8.3,4.83,.97,.67,1.92,1.36,2.85,2.07,0,0,0,0,0,0,.28,.23,.57,.45,.85,.68,.52,.42,1.03,.84,1.54,1.27,2.18,1.83,4.26,3.77,6.27,5.77,1.86,1.85,5.24,1.99,7.07,0Zm-15.74-7.72c.74,.56,.15,.12,0,0h0Zm-69.77-41.32l.92-3.39c.72-2.65,3.08-4.53,5.82-4.64l28.48-1.19c2.53-.11,5.07-.1,7.6,.05,46.94,2.71,65.54,25.61,65.54,25.61-29.78-13.1-81.06-10.31-101.74-8.5-4.37,.38-7.78-3.71-6.62-7.94Zm-89.49,30c2.16,.37,4.29,.91,6.37,1.61,.86,.29,1.71,.62,2.55,.95,.13,.06,.26,.11,.39,.17,.4,.18,.79,.37,1.18,.56,1.29,.63,2.55,1.33,3.76,2.09,.74,.46,1.45,.96,2.15,1.47,.04,.03,.07,.06,.11,.09,2.1,1.85,4.97,1.93,7.07,0,1.9-1.75,1.97-5.34,0-7.07-1.58-1.39-3.37-2.6-5.18-3.67-8.09-4.78-17.73-7.15-27.11-6.55-16.93,1.09-31.65,10.64-43.4,22.33-1.98,1.97-1.83,5.08,0,7.07,1.83,1.99,5.21,1.85,7.07,0,2.02-2,4.1-3.94,6.27-5.77,.51-.43,1.02-.85,1.54-1.27,.28-.23,.57-.45,.85-.68,0,0,0,0,0,0,.94-.71,1.89-1.4,2.85-2.07,2.67-1.85,5.45-3.38,8.3-4.83-.24,1.51-.23,3.08,.1,4.66,1.45,6.97,8.28,11.45,15.26,10,6.97-1.45,11.45-8.28,10-15.26-.3-1.46-.86-2.81-1.59-4.02,.21,.02,.43,.05,.64,.07,.27,.04,.54,.08,.8,.13Zm-36.37,11.32c-.15,.12-.74,.56,0,0h0Zm102.72,81.34c-.39-1.2-.12-2.78,.5-3.85,.57-.97,1.83-2.12,2.99-2.3,3.14-.49,6.15-.49,9.26,.25,2.59,.62,5.17,1.76,7.31,3.36,.75,.44,1.35,1.04,1.79,1.79l.5,1.19c.42,1.29,.11,2.69-.5,3.85-.57,1.08-1.83,1.98-2.99,2.3-1.11,.31-2.88,.22-3.85-.5-.93-.69-1.93-1.26-2.98-1.75-.97-.35-1.96-.62-2.97-.8-1.06-.1-2.12-.1-3.18,0-.8,.17-1.6,.16-2.4-.05-.4-.17-.8-.34-1.19-.5-1.16-.61-1.91-1.78-2.3-2.99Zm45.53,48.39c1.2,2.26,.71,5.6-1.79,6.84-4.9,2.44-9.99,4.51-15.32,5.8-6.52,1.58-13.28,2.22-19.96,2.56-5.08,.26-10.16,.32-15.24,.32-.06,0-.13,0-.19-.01-.06,0-.13,.01-.19,.01-5.08,0-10.17-.07-15.24-.32-6.69-.34-13.44-.98-19.96-2.56-5.32-1.29-10.42-3.36-15.32-5.8-2.5-1.25-2.99-4.58-1.79-6.84,1.32-2.5,4.5-2.96,6.84-1.79,1.31,.65,2.64,1.27,3.97,1.87,.02,.01,.04,.02,.06,.03,.28,.11,.56,.23,.83,.34,.62,.25,1.25,.49,1.89,.71,2.38,.86,4.82,1.56,7.29,2.11,1.34,.3,2.7,.56,4.05,.79,.69,.11,1.38,.21,2.07,.31,.05,0,.1,.01,.15,.02,.4,.05,.8,.1,1.2,.14,7.94,.89,15.96,1,23.95,1,.07,0,.13,.02,.19,.02,.07,0,.13-.02,.19-.02,7.98,0,16.01-.11,23.95-1,.4-.05,.8-.09,1.2-.14,.05,0,.1-.01,.15-.02,.69-.1,1.38-.2,2.07-.31,1.36-.22,2.71-.48,4.05-.79,2.47-.55,4.91-1.25,7.29-2.11,.63-.23,1.26-.47,1.89-.71,.28-.11,.56-.23,.83-.34,.02,0,.04-.02,.06-.03,1.34-.59,2.66-1.21,3.97-1.87,2.34-1.17,5.52-.7,6.84,1.79Z"/>
    <path class="cls-1" d="M875.58,799.9c-2.78-43.21-33.36-80.25-76.75-92.95-74.68-21.86-182.8-50.37-182.8-50.37,0,0-57.28,67.56-162.56,70.14-105.28-2.58-162.56-70.14-162.56-70.14,0,0-108.12,28.51-182.8,50.37-43.39,12.7-73.98,49.73-76.75,92.95-5.99,93.16-15.67,243.87-15.67,243.87H891.25s-9.69-150.71-15.67-243.87Z"/>
  </g>
</svg>