<?xml version="1.0" encoding="UTF-8"?>
<svg id="Capa_1" data-name="Capa 1" xmlns="http://www.w3.org/2000/svg" viewBox="0 0 906.93 1043.76">
  <defs>
    <style>
      .cls-1 {
        fill: #c10053;
      }
    </style>
  </defs>
  <g id="_1" data-name="1">
    <path d="M823.08,1057.6c-.18-1.08-.35-2.15-.52-3.23-3.49-21.97-6.62-44.01-9.49-66.07-4.72-36.25-8.78-72.62-11.28-109.1-2.25-32.9-.71-66.26-7.71-98.67-4.93-22.86-14-44.82-28.73-63.12-12.07-14.99-27.81-26.65-44.92-35.29-16.96-8.57-35.1-14.51-53.27-19.93-17.52-5.23-35.24-9.99-52.3-16.62-1.03-.4-2.07-.81-3.09-1.23-.54-.22-1.08-.44-1.62-.67-.19-.08-.37-.16-.56-.23-.02,0-.02,0-.04-.02-2.01-.86-4.02-1.75-6-2.68-3.91-1.84-7.76-3.82-11.5-5.99-3.64-2.11-7.18-4.39-10.57-6.86-.51-.37-1-.75-1.51-1.12-.13-.1-.23-.17-.3-.23-.02-.02-.06-.05-.17-.14-.78-.62-1.57-1.25-2.33-1.89-1.64-1.36-3.23-2.78-4.78-4.25-3.14-2.99-6.04-6.19-8.77-9.56-.19-.24-.29-.36-.34-.41-.04-.06-.13-.19-.31-.42-.31-.42-.63-.84-.93-1.26-.62-.85-1.22-1.71-1.81-2.58-1.28-1.89-2.49-3.83-3.63-5.8-1.18-2.04-2.28-4.13-3.3-6.25-.56-1.16-1.09-2.32-1.61-3.5-.11-.24-.21-.49-.32-.74-.01-.03-.02-.05-.03-.07-.22-.54-.44-1.09-.66-1.63-1.93-4.89-3.51-9.91-4.79-15-6.5-25.93-5.45-54.02-2.19-81.03,6.36-7.72,12.16-15.9,17.48-24.34,9.36-14.84,17.18-30.58,23.92-46.77,.4-.96,.78-1.94,1.18-2.9,2.83,.81,5.77,1.18,8.76,.85,.79-.09,1.58-.22,2.36-.36,0,1.82,0,3.68-.01,5.54-1.67,.83-2.91,2.55-2.83,4.47,.08,1.86,1.1,3.51,2.63,4.36-.06,1.59-.14,3.1-.24,4.51-1.86,.75-3.3,2.57-3.21,4.64,.12,2.71,2.2,5,5,5,2.62,0,5.12-2.3,5-5-.07-1.52-.76-2.89-1.84-3.81,.13-1.71,.22-3.56,.3-5.5,1.43-.9,2.44-2.47,2.36-4.2-.07-1.67-.9-3.18-2.17-4.09,.02-2.46,.02-4.93,.01-7.3,2.23-.83,4.37-1.92,6.39-3.27,11.99-7.99,19.67-21.42,25.35-34.3,6.05-13.71,12.01-29.39,9.66-44.65-1.16-7.52-5.66-14.59-12.69-17.84-1.38-.64-2.82-1.18-4.31-1.61,22.38-33.57,48.15-98.28-8.17-175.96,0,0-52.21-134.65-153.47-96.95C303.1-14.99,128.65,240.72,258.5,373.64c5.21,5.33,10.92,10.05,16.7,13.98,5.23,10.16,12.01,19.88,21.49,26.2,2.02,1.34,4.16,2.44,6.39,3.27-.01,2.37-.01,4.84,.01,7.3-1.28,.91-2.1,2.42-2.17,4.09-.08,1.74,.93,3.3,2.36,4.2,.07,1.94,.17,3.8,.3,5.5-1.08,.93-1.77,2.29-1.84,3.81-.12,2.7,2.38,5,5,5,2.8,0,4.88-2.29,5-5,.09-2.07-1.35-3.89-3.21-4.64-.1-1.41-.18-2.92-.24-4.51,1.53-.86,2.55-2.5,2.63-4.36,.09-1.92-1.16-3.64-2.83-4.47-.02-1.86-.02-3.72-.01-5.54,.78,.15,1.56,.28,2.36,.36,3.46,.38,6.84-.17,10.07-1.26,.45,1.1,.89,2.21,1.34,3.31,6.75,16.19,14.56,31.93,23.92,46.77,5.32,8.44,11.13,16.62,17.48,24.34,3.26,27.02,4.32,55.1-2.19,81.03-1.28,5.09-2.86,10.12-4.79,15-.22,.55-.44,1.09-.66,1.63,0,.02-.02,.04-.03,.07-.11,.25-.21,.49-.32,.74-.52,1.17-1.05,2.34-1.61,3.5-1.03,2.12-2.13,4.21-3.3,6.25-1.14,1.98-2.35,3.91-3.63,5.8-.59,.87-1.2,1.73-1.81,2.58-.31,.42-.62,.84-.93,1.26-.18,.24-.27,.36-.31,.42-.05,.05-.14,.17-.34,.41-2.72,3.37-5.62,6.58-8.77,9.56-1.55,1.47-3.14,2.89-4.78,4.25-.77,.64-1.55,1.27-2.33,1.89-.11,.08-.15,.12-.17,.14-.07,.05-.17,.13-.3,.23-.5,.37-1,.75-1.51,1.12-3.4,2.48-6.94,4.76-10.57,6.86-3.74,2.17-7.59,4.15-11.5,5.99-1.98,.93-3.99,1.82-6,2.68-.02,0-.02,0-.04,.02-.19,.08-.37,.16-.56,.23-.54,.22-1.08,.45-1.62,.67-1.03,.42-2.06,.83-3.09,1.23-17.06,6.64-34.78,11.39-52.3,16.62-18.17,5.42-36.31,11.36-53.27,19.93-17.11,8.65-32.86,20.3-44.92,35.29-14.73,18.3-23.8,40.26-28.73,63.12-6.99,32.41-5.45,65.77-7.71,98.67-2.5,36.48-6.56,72.85-11.28,109.1-2.87,22.06-6,44.1-9.49,66.07-.17,1.08-.34,2.16-.52,3.23-.44,2.66,.69,5.38,3.49,6.15,2.39,.66,5.71-.81,6.15-3.49,2.59-15.83,4.88-31.72,7.09-47.61,4.85-34.85,9.12-69.8,12.28-104.84,1.66-18.46,3.02-36.95,3.77-55.46,.67-16.57,.58-33.12,2.58-49.62,2.95-24.39,9.53-48.21,22.64-68.7,1.38-2.16,2.83-4.28,4.35-6.35,.35-.48,.71-.95,1.06-1.43,.77-1.03,.09-.14,.57-.74,.81-1.03,1.64-2.05,2.49-3.05,3.12-3.7,6.47-7.21,10.01-10.5,1.74-1.61,3.52-3.17,5.34-4.67,.85-.7,1.72-1.39,2.59-2.08,.01,0,.02-.01,.03-.02,.2-.15,.4-.3,.6-.45,.55-.41,1.1-.82,1.66-1.23,3.76-2.75,7.66-5.29,11.66-7.65,4-2.36,8.1-4.53,12.28-6.55,2.09-1.01,4.2-1.98,6.33-2.92,.5-.22,1-.44,1.51-.66,.16-.07,.69-.3,.93-.4,1.06-.45,2.12-.88,3.19-1.31,8.68-3.5,17.56-6.5,26.49-9.29,17.67-5.52,35.61-10.18,53.08-16.3,17-5.96,33.62-13.36,47.91-24.48,14.86-11.56,25.77-26.93,32.47-44.48,6.21-16.28,8.75-33.79,9.27-51.29,10.98,2.99,36.17,7.86,74.26,3.89,1.17,.05,2.35,.08,3.52,.08h0c1.61,0,3.21-.05,4.82-.14,13.74-.79,27-4.75,39.21-11.03,12.71-6.55,24.14-15.58,34.2-25.69,.23-.23,.45-.48,.68-.71-.28,3.19-.53,6.39-.71,9.59-1.45,25.15-.2,51.53,8.86,75.31,6.69,17.55,17.61,32.92,32.47,44.48,14.3,11.12,30.91,18.52,47.91,24.48,17.47,6.13,35.42,10.78,53.08,16.3,8.93,2.79,17.81,5.8,26.49,9.29,1.07,.43,2.13,.87,3.19,1.31,.24,.1,.77,.33,.93,.4,.5,.22,1,.44,1.51,.66,2.13,.94,4.24,1.91,6.33,2.92,4.18,2.02,8.28,4.19,12.28,6.55,4.01,2.36,7.91,4.91,11.66,7.65,.56,.41,1.1,.82,1.66,1.23,.2,.15,.4,.3,.6,.45,.01,0,.02,.01,.03,.02,.87,.68,1.73,1.37,2.59,2.08,1.83,1.51,3.61,3.06,5.34,4.67,3.55,3.29,6.9,6.8,10.01,10.5,.85,1,1.67,2.02,2.49,3.05,.48,.6-.2-.29,.57,.74,.36,.47,.71,.95,1.06,1.43,1.52,2.07,2.97,4.19,4.35,6.35,13.11,20.49,19.7,44.3,22.64,68.7,1.99,16.5,1.91,33.05,2.58,49.62,.75,18.52,2.11,37.01,3.77,55.46,3.16,35.05,7.43,69.99,12.28,104.84,2.21,15.89,4.5,31.78,7.09,47.61,.44,2.68,3.76,4.15,6.15,3.49,2.8-.77,3.93-3.49,3.49-6.15ZM168.43,705.09c.33-.26,.17-.14,0,0h0Zm187.16-115.32c-.1,.23-.25,.59,0,0h0Zm-54.21-184.84c-.34-.23-.66-.51-1-.76-.12-.07-.26-.16-.38-.25-.03-.02-.07-.04-.1-.06,.03,.02,.04,.02,.07,.04-.25-.2-.49-.4-.73-.61-2.1-1.79-4.02-3.77-5.79-5.87-.08-.1-.16-.2-.25-.3,2.71,1.01,5.33,1.76,7.81,2.25-.04,.22-.08,.43-.09,.65-.08,1.74,.94,3.31,2.37,4.21-.02,.58-.03,1.21-.05,1.88-.64-.38-1.26-.76-1.87-1.18Zm15.26,3.47c-.71,.2-1.43,.34-2.16,.47-.13,.01-.25,.03-.38,.03-.41,.03-.82,.05-1.23,.05-.79,0-1.57-.05-2.35-.12-.16-.03-.31-.05-.47-.08-.44-.09-.87-.18-1.31-.3-.18-.05-.36-.11-.54-.16,.03-1.46,.06-2.78,.09-3.92,1.53-.86,2.54-2.5,2.63-4.36,0-.11,0-.23,0-.34,.93-.18,1.81-.42,2.63-.75,1.08,3.14,2.18,6.27,3.34,9.38-.09,.03-.17,.06-.26,.08Zm104.4,117.01c.3,.13,.76,.33,.18,.08-.06-.03-.12-.05-.18-.08Zm64.88,0c-.06,.03-.12,.05-.18,.08-.58,.25-.11,.05,.18-.08Zm35.39-23.97c-2.59,2.46-5.26,4.84-8.02,7.11-.7,.58-1.4,1.14-2.11,1.7-.29,.23-.58,.45-.86,.68-.13,.1-.25,.19-.38,.29-1.37,1.04-2.77,2.06-4.18,3.04-5.43,3.8-11.17,7.17-17.18,9.96-.76,.35-1.53,.7-2.3,1.03-.08,.04-.17,.07-.25,.11-.34,.12-.67,.28-1,.41-1.49,.6-3,1.17-4.53,1.69-2.98,1.03-6,1.9-9.07,2.62-1.55,.36-3.11,.68-4.68,.95-.81,.14-1.62,.27-2.43,.39-.08,.01-.14,.02-.2,.03-.35,.04-.71,.09-1.06,.13-3.18,.36-6.38,.54-9.59,.55h0c-3.2,0-6.41-.18-9.59-.55-.35-.04-.71-.09-1.06-.13-.06,0-.12-.02-.2-.03-.81-.12-1.62-.25-2.43-.39-1.57-.27-3.13-.59-4.68-.95-3.07-.71-6.09-1.59-9.07-2.62-1.52-.53-3.03-1.09-4.53-1.69-.33-.13-.66-.29-1-.41-.08-.04-.17-.07-.25-.11-.77-.33-1.53-.68-2.3-1.03-6.01-2.79-11.75-6.16-17.18-9.96-1.41-.99-2.81-2-4.18-3.04-.13-.1-.25-.19-.38-.29-.29-.23-.58-.45-.86-.68-.71-.56-1.41-1.13-2.11-1.7-2.76-2.27-5.43-4.65-8.02-7.11-5.37-5.1-10.39-10.57-15.1-16.29-1.22-1.49-2.42-2.99-3.61-4.51-.1-.13-.21-.27-.31-.41-.29-.38-.57-.75-.86-1.13-.57-.76-1.14-1.53-1.71-2.29-2.36-3.22-4.64-6.5-6.84-9.84-9.26-14.05-17.13-29-23.87-44.41-.4-.91-.8-1.83-1.19-2.75-.1-.25-.5-1.19-.41-.97-.21-.51-.43-1.02-.64-1.53-.82-1.99-1.62-3.98-2.41-5.98-1.63-4.16-3.19-8.36-4.67-12.58-1.14-3.24-2.21-6.49-3.26-9.76,.22-1.65,.24-3.5,.04-5.57-4.03-41.72,1.25-87.82,13.84-131.33,23.73-10.54,56.04-2.13,72.43,2.37l-.08,.07c4.67,1.23,8,2.78,10.15,3.99,.11,.14,.23,.28,.34,.42,.05,.07,.26,.33,.39,.5,.88,1.17,1.74,2.36,2.56,3.58,1.63,2.42,3.11,4.94,4.44,7.54,.62,1.21,1.2,2.44,1.75,3.69,.02,.04,.05,.1,.08,.18,.15,.32,.27,.67,.4,1,.27,.68,.53,1.36,.78,2.05,.94,2.6,1.73,5.26,2.35,7.95,.3,1.28,.56,2.57,.78,3.86,.12,.7,.23,1.41,.34,2.12,0,.02,0,.03,0,.04,0,.02,0,.03,0,.05,.04,.35,.09,.71,.12,1.06,.62,5.6,.58,11.27,0,16.88-.06,.6-.14,1.21-.21,1.81,0,.04,0,.07-.01,.1,0,0,0,.01,0,.02-.05,.36-.1,.72-.16,1.09-.22,1.46-.48,2.91-.78,4.35-.57,2.81-1.26,5.59-2.07,8.33-.82,2.8-1.76,5.57-2.79,8.3-.27,.72-.55,1.44-.84,2.15-.07,.17-.33,.82-.47,1.15-.48,1.15-1.01,2.29-1.52,3.43-3.13,7.01-5.87,14.59-4.88,22.4,.7,5.59,3,10.46,6.62,14.76,4.31,5.12,10.28,8.81,16.26,11.66,2.36,1.12,5.51,.73,6.84-1.79,1.18-2.23,.73-5.64-1.79-6.84-2.95-1.4-5.82-2.98-8.5-4.85-.25-.18-.5-.35-.75-.53-.04-.03-.12-.08-.2-.14-.49-.33-.94-.76-1.38-1.14-.96-.83-1.87-1.71-2.72-2.65-.35-.38-.67-.78-1-1.17-.15-.21-.3-.42-.45-.63-.6-.87-1.14-1.79-1.61-2.74-.04-.08-.08-.17-.12-.25,0,.02,0,.04,0,.07,0-.03-.01-.07-.02-.1-.03-.06-.06-.12-.08-.18-.15-.31-.15-.42-.1-.41-.12-.26-.26-.52-.31-.7-.3-.91-.54-1.83-.71-2.77-.02-.1-.03-.19-.05-.29-.04-.38-.08-.77-.1-1.15-.05-.92-.05-1.84,0-2.75,.02-.38,.05-.76,.09-1.14,0,0,0-.02,0-.02,0-.08,0-.16,.02-.23,0-.05,.02-.09,.03-.14,.01-.1,.02-.19,.03-.28,0,.06,0,.1,0,.16,.14-.81,.29-1.62,.49-2.42,.41-1.69,.93-3.35,1.53-4.98,.28-.77,.58-1.53,.89-2.29,.02-.05,.04-.09,.06-.14,.19-.42,.37-.85,.56-1.27,4.92-11.04,8.59-22.29,10.04-34.33,1.35-11.23,.47-22.87-2.99-33.66-4.34-13.54-12.51-25.46-22.89-35.1-1.39-1.29-3.49-1.77-5.26-1.16-33.58-9.87-54.29-8.15-62.74-6.73-2.02,.34-3.89,1.27-5.4,2.69l-4.52,5.64c17.31-54.6,46.12-104.21,82.4-134.65,37.42-4.29,88.08-4.2,117.17,20.53,0,0,39.19,50.33,60.77,79.16,1.58,6.78,2.88,13.63,3.9,20.51,.16,1.11,.32,2.21,.47,3.32,.03,.26,.07,.53,.1,.79,.06,.49,.12,.97,.18,1.46,.27,2.2,.52,4.4,.74,6.61,.44,4.39,.78,8.79,1.03,13.2,.51,9.03,.64,18.07,.43,27.11-.22,9.19-.8,18.37-1.7,27.51-.22,2.25-.46,4.5-.73,6.75-.14,1.22-.29,2.44-.44,3.66-.07,.58-.15,1.16-.22,1.74-.03,.26-.07,.51-.1,.77-.12,.94,.02-.02,.02-.17-.06,2.28-.66,4.68-1,6.93-.35,2.31-.73,4.61-1.13,6.92-.47,2.77,.7,5.25,3.49,6.15,2.34,.76,5.54-.83,6.11-3.31,2.53-2.6,6.62-7.05,11.29-13.16,.15,0,.31,.01,.46,.02,.31,.02,.62,.06,.93,.09,.15,.02,.29,.05,.44,.07,1.05,.19,2.08,.46,3.09,.8,.24,.08,.48,.17,.72,.26,.5,.24,1,.48,1.48,.76,.53,.3,1.03,.64,1.53,.99,.25,.22,.5,.43,.74,.66,.49,.46,.93,.96,1.37,1.47,.02,.02,.04,.05,.05,.07,.23,.33,.45,.66,.66,1.01,.38,.63,.7,1.3,1.02,1.96,.05,.13,.1,.25,.14,.38,.17,.48,.32,.96,.46,1.45,.26,.93,.47,1.87,.63,2.83,0,.05,.02,.11,.03,.16,.02,.13,.03,.25,.04,.38,.06,.59,.1,1.18,.13,1.77,.13,2.66-.23,5.23-.36,7.87,0,.02,0,.03,0,.05-.06,.4-.12,.79-.19,1.19-.14,.83-.3,1.65-.46,2.48-.36,1.74-.78,3.46-1.24,5.17-1.1,4.05-2.46,8.02-3.97,11.93-.42,1.1-.86,2.2-1.31,3.29-.17,.43-.35,.85-.53,1.28-.04,.1-.09,.21-.11,.26-.15,.34-.29,.68-.44,1.02-.88,2.01-1.8,4.01-2.78,5.98-1.72,3.49-3.6,6.9-5.68,10.19-.92,1.45-1.88,2.87-2.88,4.25-.25,.34-.5,.67-.75,1.01-.04,.05-.06,.08-.08,.11-.48,.61-.97,1.21-1.47,1.81-1.78,2.1-3.7,4.09-5.79,5.87-.24,.2-.48,.41-.73,.61,.03-.01,.04-.02,.07-.04-.03,.02-.07,.04-.1,.06-.12,.09-.26,.18-.38,.25-.34,.25-.67,.53-1,.76-.61,.42-1.24,.81-1.87,1.18-.02-.67-.03-1.3-.05-1.88,1.43-.9,2.45-2.47,2.37-4.21-.12-2.71-2.2-5-5-5-2.62,0-5.12,2.3-5,5,.08,1.86,1.1,3.5,2.63,4.36,.03,1.13,.06,2.46,.09,3.92-.18,.05-.36,.11-.54,.16-.43,.11-.87,.21-1.31,.3-.16,.03-.31,.06-.47,.08-.78,.07-1.56,.13-2.35,.12-.41,0-.82-.02-1.23-.05-.13,0-.25-.02-.38-.03-.36-.07-.71-.14-1.07-.21,4.87-12.99,9-26.26,12.44-39.7,.7-2.72-.88-5.3-3.49-6.15-2.54-.82-5.5,.96-6.15,3.49-.55,2.15-1.12,4.3-1.71,6.45-2.4,8.76-5.1,17.44-8.1,26.01-1.48,4.22-3.04,8.41-4.67,12.58-.78,2-1.59,3.99-2.41,5.98-.21,.51-.42,1.02-.64,1.53,.09-.23-.3,.72-.41,.97-.39,.92-.79,1.83-1.19,2.75-6.74,15.41-14.61,30.36-23.87,44.41-2.2,3.33-4.48,6.62-6.84,9.84-.56,.77-1.13,1.53-1.71,2.29-.29,.38-.57,.76-.86,1.13-.1,.13-.21,.27-.31,.41-1.18,1.52-2.38,3.03-3.61,4.51-4.71,5.72-9.73,11.19-15.1,16.29Zm30.06,88.33c.25,.59,.1,.23,0,0h0Zm187.16,115.32c-.17-.14-.33-.26,0,0h0Zm-133.02-301.19s-.01,0-.02,.01c0,0-.01,0-.02,.01-.13,.08-.25,.16-.38,.25-.29,.16-.4,.18,.41-.27Zm-305.12,.27c-.12-.09-.25-.17-.38-.25,0,0-.01,0-.02-.01,0,0-.01,0-.02-.01,.81,.45,.69,.43,.41,.27Zm190.11-153.23l1.02-6.03c.26-1.53,1.32-2.8,2.77-3.24,35-10.67,56.48-8.9,65.13-7.44,2.02,.34,3.89,1.27,5.4,2.69l13.83,17.26c.44,.52-.17,1.26-.74,.91-26.14-16.31-67.07-3.57-82.46,.57-2.81,.76-5.44-1.76-4.94-4.72Zm39.18,30.18c.36,.07,.71,.17,0,0h0Zm-.18-.04c.07,.02,.12,.03,.18,.04-.06-.01-.12-.02-.18-.03,1.56,2.18,2.49,4.85,2.49,7.74,0,7.37-5.98,13.35-13.35,13.35s-13.35-5.98-13.35-13.35c0-1.52,.26-2.97,.73-4.33-.29,.14-.42,.21,0-.02,0,0,0-.01,0-.02-1.49,.75-3.04,1.38-4.51,2.18-1.21,.66-2.39,1.37-3.55,2.13-.73,.48-1.43,.99-2.13,1.5-.02,.02-.04,.03-.06,.05-2.13,1.82-4.95,1.95-7.07,0-1.89-1.73-1.99-5.36,0-7.07,1.55-1.33,3.26-2.52,4.99-3.61,.68-.43,1.38-.83,2.08-1.23h-.08s.82-.48,2.35-1.23c3.02-1.55,6.16-2.82,9.4-3.82,12.74-4.33,34.51-8.6,58.57,.28l-5.18,14.21c-.1,.48-.26,.96-.51,1.44-.01,.02-.03,.04-.04,.07l-.03,.08h-.01c-1.26,2.14-4.66,3.12-6.76,1.64-3.51-2.47-7.21-4.67-11.13-6.42-.18-.08-.37-.16-.55-.24-.06-.02-.1-.04-.18-.08-.38-.15-.76-.3-1.15-.45-.87-.33-1.76-.64-2.65-.93-1.7-.54-3.42-1-5.16-1.37-.83-.17-1.67-.33-2.51-.46-.22-.03-.45-.05-.67-.1,0,0,0,0,0,0Zm-152.28,.04c-.71,.17-.36,.07,0,0h0Zm24.39,7.71c0,7.37-5.98,13.35-13.35,13.35s-13.35-5.98-13.35-13.35c0-2.89,.93-5.56,2.49-7.74-.05,0-.11,.02-.18,.03,.06-.01,.11-.03,.18-.04,0,0,0,0,0,0-.22,.05-.45,.06-.67,.1-.84,.13-1.68,.28-2.51,.46-1.74,.36-3.47,.82-5.16,1.37-.89,.29-1.77,.59-2.65,.93-.38,.15-.76,.3-1.15,.45-.08,.03-.13,.05-.18,.08-.18,.08-.37,.16-.55,.24-3.92,1.75-7.62,3.95-11.13,6.42-2.1,1.48-5.5,.5-6.76-1.65h-.01s-.03-.07-.03-.07c-.01-.02-.03-.04-.04-.07-.25-.48-.41-.96-.51-1.44l-5.18-14.21c24.06-8.88,45.82-4.61,58.57-.28,3.24,1,6.38,2.27,9.4,3.82,1.53,.74,2.35,1.22,2.35,1.22h-.08c.7,.41,1.4,.8,2.08,1.23,1.73,1.09,3.44,2.28,4.99,3.61,1.99,1.71,1.89,5.34,0,7.07-2.12,1.95-4.95,1.82-7.07,0-.02-.02-.04-.04-.06-.05-.7-.51-1.4-1.02-2.13-1.5-1.15-.76-2.34-1.46-3.55-2.13-1.47-.8-3.02-1.43-4.51-2.18,0,0,0,.01,0,.02,.43,.23,.29,.16,0,.02,.47,1.36,.73,2.81,.73,4.33Zm60.74,93.69c-.68-1.06-.83-2.66-.5-3.85,.36-1.29,1.21-2.26,2.3-2.99,1.05-.7,2.18-1.19,3.35-1.66,.76-.31,1.54-.54,2.34-.7,2.51-.48,4.86-.48,7.37,.03,1.27,.26,2.31,1.25,2.99,2.3,.73,1.14,.8,2.57,.5,3.85-.27,1.19-1.26,2.38-2.3,2.99-1.17,.69-2.47,.77-3.78,.52-.69-.06-1.38-.07-2.07-.02-.68,.13-1.34,.31-1.99,.55-.47,.23-.92,.49-1.36,.78-1.11,.75-2.59,.79-3.85,.5-1.27-.29-2.3-1.23-2.99-2.3Zm-52.97,44.8s0,0,0,0c-.33-.13-1.1-.59,0,0Zm100.23-1.39c1.12,1.91,.29,3.92-1.35,5.13-2.28,1.69-5.17,2.78-7.78,3.79-7.68,2.99-15.9,4.46-24.05,5.39-7.31,.83-14.68,1.07-22.03,.94-.03,0-.06,0-.09-.01-.03,0-.06,.01-.09,.01-7.35,.13-14.72-.11-22.03-.94-8.16-.93-16.37-2.4-24.05-5.39-2.61-1.02-5.49-2.1-7.78-3.79-1.63-1.21-2.46-3.22-1.35-5.13,.94-1.61,3.5-2.55,5.13-1.35,.66,.49,1.39,.88,2.11,1.26,.78,.41,1.58,.8,2.38,1.16,.26,.11,.53,.21,.78,.34-.02-.01-.03-.02-.05-.03,.03,.01,.06,.02,.09,.03,3.48-1.06,12.35-3.74,20.35-5.95,6.7-1.85,13.81-1,20.05,2.06,1.63,.8,3.3,1.43,4.45,1.38v8.85h0v-8.85c1.15,.05,2.82-.58,4.45-1.38,6.24-3.06,13.35-3.91,20.05-2.06,8,2.21,16.86,4.89,20.35,5.95,.03-.01,.06-.02,.09-.03-.02,.01-.03,.02-.05,.03,.25-.13,.52-.23,.78-.34,.81-.36,1.6-.74,2.38-1.16,.72-.38,1.46-.78,2.11-1.26,1.63-1.21,4.19-.27,5.13,1.35Zm-10.36,1.39s0,0,0,0c1.1-.59,.33-.14,0,0Zm-20.93,29.09c.97,1.66,.47,4.23-1.35,5.13-4.62,2.28-9.5,3.95-14.61,4.69-7.13,1.03-14.39,.59-21.34-1.37-3.03-.85-6.14-1.93-8.89-3.48-1.77-.99-2.36-3.4-1.35-5.13,1.03-1.77,3.36-2.34,5.13-1.35,.22,.12,.45,.24,.68,.35,.25,.13,.51,.25,.76,.36,.23,.11,1.38,.63,.73,.33-.67-.31,.16,.06,.31,.12,.18,.07,.37,.14,.55,.21,.44,.17,.88,.33,1.32,.48,1.12,.39,2.26,.74,3.4,1.04,1.35,.36,2.71,.66,4.08,.9,.43,.08,.85,.14,1.28,.21,.07,.01,.12,.02,.16,.03,.04,0,.09,0,.17,.02,.75,.09,1.5,.16,2.25,.22,7.6,.56,14.61-.69,21.57-4.12,1.82-.9,4.05-.51,5.13,1.35Zm-49.33-90.13s-.01-.02-.02-.03c-.02-.16-.09-.37-.18-.59,.06,.02,.21,.28,.2,.62Zm-1.27-9.44c.01-.12,.03-.25,.05-.37,0-.04,.02-.08,.02-.13-.02,1.08-.09,.87-.07,.5Z"/>
    <path class="cls-1" d="M688.02,1043.76c80.05-76.23,34.3-239.15,34.3-239.15l8.19-117.13c-79.61-46.92-164.68-74.09-164.68-74.09-44.48,87.78-180.23,87.61-224.62,0,0,0-83.13,25.78-162.74,72.7l8.29,118.52s-49.36,162.92,34.3,239.15c0,0,466.95,0,466.95,0Z"/>
  </g>
</svg>