<?xml version="1.0" encoding="UTF-8"?>
<svg id="Capa_1" data-name="Capa 1" xmlns="http://www.w3.org/2000/svg" viewBox="0 0 906.93 1043.76">
  <defs>
    <style>
      .cls-1 {
        fill: #c10053;
      }
    </style>
  </defs>
  <g id="_3" data-name="3">
    <path d="M530.32,314.36c-8.34,0-15.1-6.76-15.1-15.1,0-2.6,.66-5.05,1.82-7.19-1.99,1.25-3.93,2.58-5.8,4-.11,.09-.26,.2-.37,.29-.21,.17-.42,.34-.63,.51-.43,.35-.85,.7-1.28,1.06-.99,.83-1.96,1.69-2.91,2.57-2.19,2.02-4.28,4.15-6.29,6.36-1.88,2.07-5.15,1.76-7.07,0-2.05-1.89-1.76-5.14,0-7.07,7.61-8.37,16.69-15.85,27.06-20.53,10.63-4.8,22.42-6.7,33.73-2.77,9.08,3.16,17.61,10.39,20.59,19.81,.85,2.67-.99,5.34-3.49,6.15-2.64,.85-5.36-1-6.15-3.49-.05-.15-.1-.29-.16-.43-.12-.26-.24-.52-.37-.78-.42-.84-.9-1.66-1.41-2.46-.29-.46-.6-.9-.92-1.34-.02-.02-.04-.05-.05-.07-.15-.18-.29-.36-.44-.54-.8-.94-1.66-1.84-2.58-2.67-.27-.24-.54-.48-.82-.71-.06-.05-.24-.19-.4-.32-.15-.11-.31-.23-.38-.28-.29-.21-.58-.4-.88-.6-1.29-.84-2.64-1.55-4.03-2.19-.13-.05-.26-.1-.39-.15-.44-.17-.88-.32-1.33-.47-.79-.26-1.6-.49-2.41-.69-.97-.24-1.94-.41-2.92-.58,0,0-.01,0-.02,0-.15-.02-.31-.04-.46-.05-.51-.05-1.03-.1-1.54-.13-1.99-.13-3.98-.1-5.97,.01-.22,.01-.45,.02-.67,.04-.18,.01-.37,.04-.55,.06-.37,.06-.74,.13-1.1,.2,6.24,1.86,10.79,7.63,10.79,14.47,0,8.34-6.76,15.1-15.1,15.1Zm-43.12-66.72c2.09,3.14,6.52,4.18,10.04,2.37,19.91-10.23,33.61-16.13,56.16-19.24,10.97-1.52,21.41,3.09,28.05,7.06,.74,.44,1.54-.49,.91-1.05-6.06-5.38-15.36-12.4-22.91-12.69-23.55-.89-43.64,3.74-68.71,13.53-4.25,1.66-5.93,6.42-3.53,10.02h0Zm-80.02,59.21c1.88,2.07,5.15,1.76,7.07,0,2.05-1.89,1.76-5.14,0-7.07-7.61-8.37-16.69-15.85-27.06-20.53-10.63-4.8-22.42-6.7-33.73-2.77-9.08,3.16-17.61,10.39-20.59,19.81-.85,2.67,.99,5.34,3.49,6.15,2.64,.85,5.36-1,6.15-3.49,.05-.15,.1-.29,.16-.43,.12-.26,.24-.52,.37-.78,.42-.84,.9-1.66,1.41-2.46,.29-.46,.6-.9,.92-1.34,.02-.02,.04-.05,.05-.07,.15-.18,.29-.36,.44-.54,.8-.94,1.66-1.84,2.58-2.67,.27-.24,.54-.48,.82-.71,.06-.05,.24-.19,.4-.32,.15-.11,.31-.23,.38-.28,.29-.21,.58-.4,.88-.6,1.29-.84,2.64-1.55,4.03-2.19,.13-.05,.26-.1,.39-.15,.44-.17,.88-.32,1.33-.47,.79-.26,1.6-.49,2.41-.69,.97-.24,1.94-.41,2.92-.58,0,0,.01,0,.02,0,.15-.02,.31-.04,.46-.05,.51-.05,1.03-.1,1.54-.13,1.99-.13,3.98-.1,5.97,.01,.22,.01,.45,.02,.67,.04,.18,.01,.37,.04,.55,.06,.37,.06,.74,.13,1.1,.2-6.24,1.86-10.79,7.63-10.79,14.47,0,8.34,6.76,15.1,15.1,15.1s15.1-6.76,15.1-15.1c0-2.6-.66-5.05-1.82-7.19,1.99,1.25,3.93,2.58,5.8,4,.11,.09,.26,.2,.37,.29,.21,.17,.42,.34,.63,.51,.43,.35,.85,.7,1.28,1.06,.99,.83,1.96,1.69,2.91,2.57,2.19,2.02,4.28,4.15,6.29,6.36Zm55.99,85.95c1.28,.29,2.72,.23,3.85-.5,.85-.55,1.77-1.01,2.7-1.43,.97-.37,1.96-.67,2.97-.87,.48-.04,.97-.05,1.45-.02,.09,.02,.18,.03,.26,.05,1.27,.33,2.72,.16,3.85-.5,1.04-.61,2.03-1.8,2.3-2.99,.29-1.28,.23-2.72-.5-3.85-.7-1.09-1.71-1.96-2.99-2.3-3.32-.87-6.91-.38-10.08,.85-1.71,.67-3.47,1.41-5.02,2.42-1.09,.71-1.95,1.72-2.3,2.99-.33,1.2-.18,2.79,.5,3.85,.69,1.07,1.71,2.01,2.99,2.3Zm35.48,42.65c-1.34,.26-2.69,.49-4.03,.72-8.35-4.94-18.58-9.74-25.53-12.2-3.7-1.31-7.82-1.38-11.59-.21l-3.84,1.07-3.84-1.07c-3.76-1.16-7.89-1.1-11.59,.21-6.95,2.46-17.18,7.26-25.53,12.2-1.35-.23-2.69-.46-4.03-.72-2-.38-4.04,.54-4.61,2.62-.51,1.84,.63,4.23,2.62,4.61,2.76,.53,5.53,.99,8.31,1.4,8.62,1.25,17.26,1.13,25.88-.22,2.66-.42,5.28-1.02,7.91-1.63,.93-.22,1.87-.4,2.81-.58,.15-.01,.31-.03,.46-.04,.41-.03,.81-.03,1.22-.02,.14,0,.27-.02,.4-.03,.13,.01,.26,.04,.4,.03,.41-.02,.81-.01,1.22,.02,.15,.01,.31,.03,.46,.04,.94,.18,1.88,.36,2.81,.58,2.62,.61,5.25,1.22,7.91,1.63,8.61,1.35,17.25,1.48,25.88,.22,2.78-.4,5.55-.87,8.31-1.4,1.99-.38,3.13-2.77,2.62-4.61-.57-2.08-2.62-3-4.61-2.62Zm-37.31,24.17s.03,0,.04,0c.29-.05,.71-.13-.19,.03,.02,0,.05,0,.07,0,.02,0,.05,0,.08-.01Zm6.15-1.32c-1.25,.42-2.57,.69-3.86,.94-.65,.12-1.3,.23-1.95,.33-.1,.02-.2,.03-.3,.04-.01,0-.03,0-.04,0-.08,.01-.17,.02-.25,.04,.04,0,.06-.01,.1-.02-.42,.05-.83,.1-1.25,.14-1.95,.2-3.91,.29-5.87,.29-.13,0-.27,.03-.4,.04-.13-.02-.26-.04-.4-.04-1.96,0-3.92-.1-5.87-.29-.42-.04-.83-.09-1.25-.14,.04,0,.06,0,.1,.02-.08-.01-.17-.02-.25-.04-.01,0-.02,0-.04,0-.1-.01-.2-.03-.3-.04-.65-.1-1.3-.21-1.95-.33-1.3-.25-2.61-.52-3.86-.94-1.99-.66-4.01,.77-4.61,2.62-.65,2,.76,4,2.62,4.61,1.31,.43,2.67,.71,4.02,.97,3.75,.7,7.58,1.06,11.39,1.07,.14,0,.27-.03,.4-.04,.13,.01,.26,.04,.4,.04,3.82,0,7.64-.37,11.39-1.07,1.35-.25,2.72-.53,4.02-.97,1.86-.62,3.27-2.62,2.62-4.61-.6-1.85-2.62-3.28-4.61-2.62Zm-21.42,1.33s.05,0,.07,0c-.9-.15-.49-.07-.19-.03,.01,0,.03,0,.04,0,.03,0,.06,0,.08,.01Zm185.69-78.02c.19-.35,.12-.24,0,0h0Zm.38-57.39s0-.01-.01-.02c-.06-.09-.15-.2-.23-.3-.05-.07-.11-.13-.17-.19-.1-.11-.05-.03,.42,.51Zm-13.1-7.55s-.08,0-.12-.01c.12,.02,.23,.04,.32,.05-.07-.01-.13-.03-.2-.04Zm184.21,719.21c.12,6.44-9.88,6.44-10,0-.3-16.33-.59-32.66-.88-48.99-.63-35.69-1.24-71.39-1.82-107.08-.3-18.61-.26-37.25-.96-55.84-.53-14.25-1.9-27.99-4.74-41.83-4.47-21.76-11.83-41.13-25.21-58.96-.18-.24-.27-.36-.32-.43,0,0-.04-.04-.17-.21-.34-.43-.69-.87-1.03-1.3-.78-.96-1.57-1.91-2.37-2.84-1.5-1.74-3.05-3.44-4.65-5.09-3.13-3.23-6.45-6.28-9.92-9.13-.81-.66-1.62-1.32-2.44-1.96-.02-.02-.06-.04-.09-.07-.15-.11-.3-.23-.44-.34-.52-.39-1.04-.78-1.56-1.17-1.77-1.3-3.58-2.56-5.42-3.78-3.6-2.39-7.32-4.61-11.11-6.67-3.85-2.1-7.79-4.04-11.78-5.86-.94-.43-1.89-.85-2.83-1.26-.47-.21-.95-.41-1.42-.62-.25-.11-.5-.21-.75-.32-.06-.02-.13-.05-.21-.08-1.98-.81-3.96-1.62-5.95-2.39-8.25-3.19-16.66-5.97-25.11-8.59-16.65-5.14-33.51-9.59-49.98-15.3-15.77-5.46-31.43-12.07-45.05-21.85-14.09-10.13-25.58-23.36-32.96-39.12-9.61-20.53-12.75-43.41-12.9-65.9-.02-2.92,.02-5.84,.1-8.75-6.33,5.65-13.14,10.75-20.42,15.11-14.38,8.61-30.4,13.94-47.05,15.75-2.39,.26-4.79,.43-7.2,.53-.36,.08-.75,.12-1.16,.12-.66,0-1.33-.01-1.99-.03-.1,0-.2,0-.3,0-28.43,1.02-55,.48-78.43-2.68-1.57,15.81-5.12,31.41-11.87,45.84-7.38,15.77-18.86,28.99-32.96,39.12-13.61,9.78-29.28,16.4-45.05,21.85-16.47,5.7-33.34,10.15-49.98,15.3-8.45,2.61-16.86,5.39-25.11,8.59-1.99,.77-3.98,1.58-5.95,2.39-.08,.03-.15,.06-.21,.08-.25,.11-.5,.21-.75,.32-.48,.2-.95,.41-1.42,.62-.95,.41-1.89,.83-2.83,1.26-3.99,1.82-7.93,3.76-11.78,5.86-3.79,2.07-7.51,4.29-11.11,6.67-1.84,1.22-3.64,2.48-5.42,3.78-.52,.38-1.04,.78-1.56,1.17-.15,.11-.3,.23-.44,.34-.03,.03-.07,.05-.09,.07-.82,.65-1.64,1.3-2.44,1.96-3.47,2.86-6.79,5.91-9.92,9.13-1.6,1.65-3.15,3.35-4.65,5.09-.81,.94-1.6,1.88-2.37,2.84-.35,.43-.69,.86-1.03,1.3-.13,.17-.17,.21-.17,.21-.05,.07-.14,.19-.32,.43-13.37,17.83-20.74,37.2-25.21,58.96-2.84,13.84-4.21,27.57-4.74,41.83-.7,18.59-.66,37.24-.96,55.84-.58,35.69-1.19,71.39-1.82,107.08-.29,16.33-.58,32.66-.88,48.99-.12,6.44-10.12,6.44-10,0,.02-1.12,.04-2.24,.06-3.35,.42-22.88,.82-45.77,1.22-68.65,.65-37.39,1.28-74.78,1.87-112.17,.47-29.89,1.06-59.81,9.74-88.69,6.07-20.18,15.9-39.2,30.26-54.74,12.22-13.22,27.38-23.42,43.57-31.13,16.18-7.71,33.27-13.24,50.42-18.34,14.25-4.24,28.62-8.2,42.65-13.14-45.22,1.01-62.67-52.16-62.67-52.16-58.29-16.65-24.98-101.11-24.98-101.11-33.31,4.76-15.46-33.12-15.46-33.12-26.83-19.84-19.44-49.73-8.44-71.41-17.8-2.54-35.71-11.58-30.41-38.7,0,0,5.4,4.15,20.71,2.49,0,0-38.72-63.15,30.62-107.18,0,0-34.22-55.67,27.91-67.3,0,0-18.01-58.16,40.52-49.85,0,0,8.35-49,66.83-54.47,56.57-44.02,146.49-75.32,191.51,.45,10.56,4.17,20.83,9.34,30.66,15.52,95.09,59.81,77.55,179.84,77.55,179.84,12.19,25.45,9.02,37.58,5.32,42.95,5.6,3.76,9.72,9.53,11.75,15.99,3.62,11.56,.69,24.4-3.75,35.29-1.73,4.25-3.68,8.4-5.86,12.44-1.06,1.96-2.26,3.84-3.3,5.81-.16,.3-.27,.62-.43,.91,.11-.2,.18-.33,.24-.44-.08,.16-.18,.37-.24,.52-.25,.71-.47,1.44-.68,2.17-1.76,6.26-2.29,12.84-5.66,18.53-.14,.24-.3,.47-.44,.7,.22,.91,.43,1.81,.62,2.73,3.36,16.64,.59,34.17-17.17,47.31,0,0,14.27,59.26-18.81,75.4,0,0,5.2,61.84-26.23,78.11,.01,.02,.02,.03,.03,.05,0,0,0,0,0,0,1.28,1.62,2.6,3.2,3.97,4.73,2.71,3.01,5.61,5.85,8.68,8.49,.72,.62,1.44,1.23,2.18,1.82,.37,.3,.74,.59,1.11,.89,.18,.14,.28,.23,.34,.28,.06,.05,.16,.12,.33,.24,1.61,1.21,3.23,2.38,4.9,3.51,3.35,2.27,6.81,4.35,10.36,6.29,3.6,1.96,7.28,3.77,11.02,5.45,.89,.4,1.78,.79,2.68,1.18,.17,.07,.69,.29,.89,.38,.44,.18,.87,.36,1.31,.54,1.88,.77,3.78,1.52,5.68,2.24,16.18,6.15,32.9,10.69,49.48,15.63,17.15,5.1,34.24,10.63,50.42,18.34,16.19,7.71,31.35,17.91,43.57,31.13,14.36,15.54,24.19,34.56,30.26,54.74,8.68,28.87,9.27,58.79,9.74,88.69,.58,37.39,1.21,74.78,1.87,112.17,.4,22.88,.81,45.77,1.22,68.65,.02,1.12,.04,2.24,.06,3.35ZM168.45,702.02c.16-.12,.11-.08,0,0h0Zm35.09-19.87c-.23,.09-.26,.11,0,0h0Zm408.14-278.48c-.19,.16-.3,.26,0,0h0Zm12.03-85.8s.12,.06,.21,.1c-.07-.03-.15-.06-.21-.1Zm-329.96,85.79c.31,.26,.19,.16,0,0h0Zm81.9,116.81l.77,.35c-.26-.23-.52-.45-.78-.69,0,.11,0,.22,0,.34Zm158.27-16.89c2.91-3.1,5.69-6.32,8.36-9.63,.55-.68,1.09-1.38,1.64-2.07,.01-.02,.05-.06,.11-.14,.15-.19,.41-.54,.52-.68,.35-.46,.7-.92,1.04-1.38,1.31-1.76,2.59-3.54,3.85-5.35,5.12-7.37,9.75-15.09,13.95-23.03,2.16-4.09,4.21-8.23,6.15-12.42,1-2.16,1.98-4.33,2.92-6.52,.23-.52,.45-1.04,.67-1.56,.07-.16,.11-.27,.14-.33,.02-.04,.07-.16,.18-.43,.46-1.11,.92-2.23,1.38-3.35,3.68-9.14,6.93-18.46,9.78-27.9,4.47-14.81,7.99-29.9,10.66-45.13,.42-2.39,2.48-4.14,4.91-4.14,3.1,0,5.44,2.8,4.91,5.86-1.92,11.02-4.27,21.97-7.1,32.78-.69,2.65-1.42,5.29-2.17,7.93,.42,.08,.88,.19,1.3,.2-1.25-.01,.36,.03,.65,.06,1.71,.17,3.44,.24,5.16,.17,.43-.02,.85-.05,1.28-.08,.1,0,.2-.02,.3-.03,.61-.14,1.26-.21,1.87-.35,.66-.16,1.31-.35,1.95-.57,.2-.07,.4-.15,.6-.22,.03-.01,.06-.03,.09-.04,1.05-.5,1.94-1.22,2.94-1.78,0,0,.02-.01,.02-.02,.2-.17,.4-.35,.6-.54,.42-.39,.82-.79,1.21-1.22,.33-.36,.64-.75,.95-1.12,.15-.21,.3-.42,.45-.64,.65-.94,1.25-1.92,1.81-2.92,.24-.42,.44-.99,.73-1.39,.09-.26,.19-.52,.27-.79,1.99-6.18,2.23-13.03,5.37-18.82,2.03-3.74,4.21-7.37,6.05-11.21,.43-.9,.86-1.82,1.26-2.73,.19-.41,.37-.83,.55-1.25,0-.01,0-.02,.01-.03,.07-.17,.15-.35,.22-.53,.66-1.61,1.27-3.24,1.83-4.89,1.01-2.97,1.85-6,2.44-9.08,.14-.74,.26-1.49,.38-2.24,.03-.29,.07-.58,.1-.88,.13-1.29,.21-2.58,.23-3.87,.02-1.16-.02-2.32-.11-3.48-.03-.34-.06-.68-.1-1.03,0-.03,0-.08-.02-.14-.02-.12-.03-.24-.04-.29-.04-.25-.08-.5-.13-.75-.19-.99-.42-1.97-.71-2.94-.15-.51-.32-1.02-.5-1.52-.06-.15-.11-.31-.17-.46-.78-1.54-1.51-3.05-2.53-4.46,.06,.07,.11,.13,.19,.22-.13-.15-.25-.32-.38-.47-.02-.02-.04-.04-.06-.07-.07-.08-.13-.15-.17-.19-.19-.22-.37-.44-.56-.65-.55-.6-1.13-1.17-1.73-1.71-.28-.25-.56-.48-.84-.71-.06-.05-.13-.1-.19-.14-.65-.46-1.33-.9-2.02-1.3-.66-.38-1.33-.73-2.02-1.04-.05-.02-.1-.05-.15-.07-.31-.12-.62-.24-.93-.35-1.31-.45-2.65-.8-4.02-1.03,.88,.14,.24,0-.14-.04-.02,0-.04,0-.06,0,0,0,0,0,0,0-.19-.03-.38-.05-.57-.09,.17,.03,.32,.05,.45,.08-.26-.03-.53-.05-.79-.07-.65-.04-1.31-.06-1.96-.05-.54,.01-1.08,.06-1.61,.11-.01,0-.03,0-.04,0-.3,.05-.59,.12-.89,.19-.52,.12-1.03,.29-1.53,.46-.15,.08-.31,.15-.46,.23-1.39,.75-2.9,.81-4.23,.31-3.49-.45-6.28-3.5-6.13-7.27,.3-7.59,.44-15.8,.42-22.51-.02-10.27-.4-20.54-1.16-30.78-.38-5.08-.86-10.15-1.43-15.21-.28-2.43-.57-4.86-.9-7.29h.01s-.01-.06-.02-.1v-.07c-.04-.23-.07-.46-.1-.69-.1-.66-.19-1.32-.28-1.97-.18-1.24-.37-2.47-.56-3.71-1.37-8.89-3.08-17.73-5.15-26.49-14.33-31.76-35.17-52.92-53.79-66.62-16.25-9.67-91.36-47.37-142.74,46.59,0,0-12.14,21.2-31.77,42.67,16.75,1.28,32.71,5.61,51.38,12.84,1.85-.83,4.27-.5,5.66,.99,1.28,1.38,2.53,2.78,3.74,4.22,8.93,10.71,15.59,23.19,18.91,36.78,2.81,11.55,3.35,23.63,1.84,35.4-1.31,10.2-3.81,20.18-7.7,29.71-.94,2.3-1.93,4.56-2.98,6.81-.66,1.4-1.3,2.81-1.92,4.23-.04,.09-.08,.18-.12,.27-.11,.28-.23,.55-.34,.83-.26,.63-.5,1.27-.74,1.91-.85,2.28-1.59,4.61-2.07,7-.09,.44-.16,.88-.23,1.32,0,.02,0,.03,0,.05-.02,.24-.04,.47-.06,.71-.07,.99-.08,2,0,2.99,.01,.14,.02,.28,.04,.43,.08,.44,.17,.88,.28,1.32,.12,.47,.26,.93,.41,1.39,.06,.17,.12,.33,.18,.49,.44,.88,.89,1.75,1.43,2.57,.26,.4,.55,.79,.83,1.18,.02,.02,.03,.04,.05,.06,.17,.21,.34,.41,.52,.61,1.73,1.99,3.7,3.76,5.76,5.41,.15,.12,.33,.23,.47,.37,.2,.15,.41,.31,.61,.46,.65,.48,1.31,.96,1.98,1.42,1.45,1.02,2.93,1.99,4.43,2.94,2.36,1.5,3.1,4.37,1.79,6.84-1.23,2.32-4.63,3.2-6.84,1.79-1.49-.95-2.98-1.93-4.43-2.94-8.78-6.14-17.45-14.08-17.56-25.6-.05-4.98,1.38-9.91,3.17-14.5,1.2-3.07,2.55-6.08,3.94-9.06,.45-.96,.89-1.93,1.31-2.9,.08-.17,.15-.35,.22-.52,.2-.5,.41-.99,.61-1.49,1.75-4.4,3.23-8.91,4.43-13.49,.65-2.49,1.22-5.01,1.7-7.54,.25-1.31,.47-2.62,.67-3.94,.06-.39,.11-.78,.17-1.17,.08-.61,.15-1.23,.22-1.84,.62-5.67,.78-11.39,.41-17.09-.09-1.46-.23-2.92-.39-4.37-.04-.38-.09-.77-.14-1.15,0-.02,0-.04,0-.06-.11-.74-.22-1.48-.35-2.21-.51-3-1.17-5.97-2-8.9-.85-3.03-1.88-6.01-3.07-8.92-.05-.11-.09-.23-.14-.34-.03-.06-.04-.09-.05-.12,0-.02-.02-.04-.03-.05-.15-.34-.3-.69-.46-1.03-.31-.69-.63-1.37-.96-2.05-.64-1.32-1.32-2.62-2.03-3.91-6.81-7.33-16.12-11.2-16.12-11.2l1.5-.63c-.69-.14-1.37-.38-2.02-.71-18.8-9.66-32.08-15.46-52.47-18.69-12.27,12.33-26.88,23.99-42.93,30.93,.97,22.27-3.07,50.33-22.57,72.27,6.25,14.43,.65,28.03-9.54,41.71,3.01,5.74,3.29,12.48,5.25,18.57,.09,.27,.18,.53,.27,.79,.28,.41,.49,.97,.73,1.39,.56,1,1.16,1.98,1.81,2.92,.15,.21,.3,.43,.45,.64,.32,.37,.62,.76,.95,1.12,.39,.42,.79,.83,1.21,1.22,.2,.18,.4,.36,.6,.54,0,0,.02,.01,.02,.02,.55,.31,1.08,.66,1.61,1.01,1.39,.64,2.83,1.2,4.32,1.67,.51,.1,1.02,.18,1.52,.29,.1,.01,.2,.02,.3,.03,.43,.04,.85,.07,1.28,.08,1.72,.08,3.45,0,5.16-.17,.29-.03,1.9-.07,.65-.06,.47,0,.99-.15,1.45-.23,.42-.07,.84-.17,1.26-.25-.72-2.54-1.42-5.09-2.09-7.65-2.83-10.82-5.18-21.76-7.1-32.78-.53-3.05,1.81-5.86,4.91-5.86,2.43,0,4.49,1.75,4.91,4.14,2.67,15.23,6.19,30.32,10.66,45.13,2.85,9.44,6.1,18.76,9.78,27.9,.46,1.12,.92,2.24,1.38,3.35,.11,.27,.16,.39,.18,.43,.03,.06,.07,.17,.14,.33,.22,.52,.44,1.04,.67,1.56,.94,2.19,1.92,4.36,2.92,6.52,1.94,4.19,3.99,8.33,6.15,12.42,4.2,7.94,8.83,15.66,13.95,23.03,1.26,1.81,2.54,3.59,3.85,5.35,.34,.46,.69,.92,1.04,1.38,.11,.14,.37,.49,.52,.68,.06,.08,.1,.12,.11,.14,.55,.69,1.09,1.39,1.64,2.07,2.67,3.31,5.45,6.53,8.36,9.63,2.84,3.03,5.8,5.95,8.89,8.74,1.47,1.33,2.97,2.63,4.5,3.89,.82,.69,1.66,1.36,2.5,2.03,.09,.07,.18,.14,.27,.22h.01s.04,.03,.06,.05c.02,.01,.04,.03,.06,.05,.05,.04,.11,.08,.16,.12,.01,.01,.02,.01,.02,.02,.03,.02,.07,.04,.1,.08h0c.28,.21,.56,.42,.84,.64,6.33,4.74,13.1,8.9,20.24,12.31,.94,.45,1.89,.89,2.85,1.31,.28,.13,.57,.25,.86,.37,.02,.01,.04,.02,.06,.03,.01,0,.01,.01,.01,.01,.03,.01,.06,.02,.1,.04,.01,0,.02,.01,.04,.02s.05,.02,.08,.03c.18,.08,.39,.17,.54,.23,1.78,.72,3.58,1.4,5.39,2.03,3.77,1.31,7.6,2.42,11.49,3.3,1.91,.43,3.83,.82,5.76,1.15,1.06,.18,2.13,.33,3.19,.49,.02,0,.03,0,.04,.01,0,.01,0,0,0,0,.03,0,.06,.01,.07,.01h.04s.02,.01,.02,.01c.07,0,.17,.02,.28,.03,.48,.05,.96,.11,1.44,.17,3.5,.38,7.01,.58,10.53,.64,3.52-.06,7.03-.27,10.53-.64,.48-.06,.96-.12,1.44-.17,.11,0,.21-.03,.28-.03,0,0,.01,0,.02-.01h.04s.04-.01,.07-.01c0,0,0,.01,0,0,.01-.01,.02-.01,.04-.01,1.06-.16,2.13-.31,3.19-.49,1.93-.33,3.85-.72,5.76-1.15,3.89-.88,7.72-1.99,11.49-3.3,1.81-.63,3.61-1.31,5.39-2.03,.15-.06,.36-.15,.54-.23,.03-.01,.06-.02,.08-.03s.03-.02,.04-.02c.04-.02,.07-.03,.1-.04,0,0,0-.01,.01-.01,.02-.01,.04-.02,.06-.03,.29-.12,.58-.24,.86-.37,.96-.42,1.91-.86,2.85-1.31,7.14-3.41,13.91-7.57,20.24-12.31,.28-.22,.56-.43,.84-.64h0s.07-.06,.1-.08c0-.01,.01-.01,.02-.02,.05-.04,.11-.08,.16-.12,.02-.02,.04-.04,.06-.05,.02-.02,.04-.03,.06-.05h.01c.09-.08,.18-.15,.27-.22,.84-.67,1.68-1.34,2.5-2.03,1.53-1.26,3.03-2.56,4.5-3.89,3.09-2.79,6.05-5.71,8.89-8.74Zm-104.1-233.99c.03,.08,.09,.22,.19,.45,.02-.05-.12-.32-.19-.45Zm273.56,412.55c.26,.11,.23,.09,0,0h0Zm35.09,19.87c-.11-.08-.16-.12,0,0h0Z"/>
    <path class="cls-1" d="M801.31,913.04c-79.21-45.08-91.64-193.06-94.12-240.72-3.22-2.46-68.95-23.32-69.53-22.3,0,0-36.72,111.78-184.19,121.3-147.47-9.51-184.19-121.3-184.19-121.3-.59-1.02-66.32,19.84-69.53,22.3-2.48,47.66-14.91,195.64-94.12,240.72-6.43,51.25-17.12,95.68-33.64,130.72H834.95c-16.53-35.05-27.21-79.47-33.64-130.72Z"/>
  </g>
</svg>