<?xml version="1.0" encoding="UTF-8"?>
<svg id="Capa_1" data-name="Capa 1" xmlns="http://www.w3.org/2000/svg" viewBox="0 0 906.93 1043.76">
  <defs>
    <style>
      .cls-1 {
        fill: #c10053;
      }
    </style>
  </defs>
  <g id="_6" data-name="6">
    <path d="M822.79,1009.07c-.52-26.05-1-52.1-1.44-78.16-.33-19.33-.64-38.67-.91-58-.26-18.27-.08-36.6-.72-54.86-.71-20.35-4.48-41.11-14.59-59.02-8.03-14.23-19.96-25.71-33.93-34.08-14.1-8.45-29.87-13.9-45.63-18.33-16.41-4.62-33.08-8.18-49.57-12.51-8.26-2.17-16.48-4.53-24.57-7.3-4.05-1.39-8.06-2.88-12.01-4.51-.27-.11-.94-.4-1.1-.46-.37-.16-.74-.32-1.11-.48-.92-.4-1.84-.81-2.75-1.23-1.87-.85-3.73-1.74-5.57-2.67-3.71-1.87-7.34-3.9-10.87-6.1-1.78-1.11-3.54-2.27-5.27-3.48-.91-.64-1.81-1.28-2.7-1.94-.36-.26-.71-.53-1.07-.8-.13-.1-.22-.16-.28-.21-.06-.05-.16-.13-.29-.24-3.24-2.6-6.37-5.32-9.32-8.26-1.54-1.53-3.03-3.12-4.46-4.74-.77-.87-1.52-1.75-2.26-2.64-.33-.41-.67-.81-.99-1.22-.1-.13-.43-.54-.6-.77-5.63-7.37-10.2-15.45-13.88-23.95-.02-.04-.03-.07-.04-.1-.02-.05-.04-.11-.08-.19-.13-.31-.26-.62-.38-.94-.23-.57-.46-1.14-.68-1.71-.45-1.16-.88-2.33-1.3-3.5-.91-2.56-1.74-5.14-2.51-7.75-1.6-5.44-2.88-10.98-3.91-16.55-1.24-6.71-1.86-11.56-2.46-18.35-.62-7.06-.93-14.15-.99-21.25-.15-16.81,1.06-33.61,3.03-50.3,.01-.11,.01-.23,.02-.34h0c2.02-2.71,3.93-5.5,5.75-8.34,8.08-12.58,14.49-26.19,20.11-40.02,3.28-8.07,6.26-16.28,8.93-24.61,0,0,0,0,0,0,.02,0,.03,0,.05,0,.1,.01,.21,.02,.31,.03,10.61,.71,19.11-7.15,24.94-15.09,6.95-9.49,11.46-20.89,14.77-32.1,3.12-10.6,5.39-21.87,5.38-32.97-.02-10.9-3.29-25.04-14.13-30.17-3.67-1.74-7.72-2.5-11.78-2.05-1.05,.12-2.14,.25-3.2,.47-.01-.31-.03-.62-.05-.93,6.99-11.99,17.63-36.35,17.63-73.67,0-63.99-28.82-72.02-28.82-72.02,11.62-66.5-60.09-81.14-60.21-81.2C324.66,15.67,272.47,171.31,270.73,188.67c-7.29,72.87,7.3,112.9,15.23,128.59-.98-.19-1.97-.32-2.94-.43-4.05-.45-8.11,.31-11.78,2.05-10.84,5.13-14.11,19.27-14.12,30.17-.02,11.1,2.25,22.37,5.38,32.97,3.3,11.21,7.81,22.61,14.76,32.1,5.83,7.94,14.33,15.8,24.94,15.09,.11-.01,.21-.02,.32-.03,2.67,8.33,5.65,16.54,8.92,24.61,5.62,13.83,12.03,27.44,20.11,40.02,1.82,2.84,3.73,5.63,5.75,8.33,0,0,0,0,0,0,0,.11,0,.22,.02,.34,1.97,16.69,3.18,33.49,3.03,50.3-.06,7.09-.37,14.18-.99,21.25-.6,6.8-1.22,11.64-2.46,18.35-1.03,5.58-2.32,11.11-3.91,16.55-.76,2.6-1.6,5.19-2.51,7.75-.42,1.17-.85,2.34-1.3,3.5-.22,.57-.45,1.14-.68,1.71-.13,.31-.26,.63-.38,.94-.04,.09-.06,.14-.08,.19-.01,.03-.03,.06-.04,.1-3.67,8.5-8.25,16.59-13.88,23.95-.18,.23-.5,.64-.6,.77-.33,.41-.66,.82-.99,1.22-.74,.89-1.49,1.77-2.26,2.64-1.44,1.63-2.93,3.21-4.46,4.74-2.94,2.94-6.07,5.66-9.32,8.26-.14,.11-.23,.18-.29,.24-.06,.05-.15,.11-.28,.21-.36,.27-.71,.54-1.07,.8-.89,.66-1.79,1.31-2.7,1.94-1.72,1.2-3.48,2.36-5.27,3.48-3.53,2.2-7.16,4.22-10.87,6.1-1.84,.93-3.69,1.82-5.57,2.67-.91,.42-1.83,.83-2.75,1.23-.37,.16-.74,.32-1.11,.48-.15,.06-.82,.35-1.1,.46-3.96,1.63-7.97,3.12-12.01,4.51-8.08,2.77-16.3,5.13-24.57,7.3-16.48,4.33-33.16,7.89-49.57,12.51-15.76,4.44-31.53,9.88-45.63,18.33-13.96,8.37-25.89,19.85-33.93,34.08-10.11,17.91-13.87,38.67-14.59,59.02-.64,18.26-.46,36.59-.72,54.86-.27,19.34-.58,38.67-.91,58-.44,26.05-.92,52.1-1.44,78.16-.03,1.32-.05,2.63-.08,3.95-.13,6.44,9.87,6.44,10,0,.39-18.96,.74-37.93,1.08-56.89,.68-37.86,1.3-75.72,1.75-113.58,.1-8.4,.03-16.83,.35-25.23,.11-2.88,.29-5.76,.54-8.63,.12-1.34,.25-2.68,.4-4.02,.07-.66,.15-1.31,.23-1.97,.04-.29,.07-.58,.11-.86,0-.05,.01-.09,.02-.14,0-.06,.02-.13,.04-.25,1.4-9.71,3.78-19.16,7.4-28.28,.05-.13,.08-.21,.11-.27,.03-.08,.08-.17,.14-.32,.21-.48,.42-.95,.63-1.43,.45-.99,.91-1.97,1.4-2.94,.94-1.89,1.95-3.76,3.02-5.58,1.04-1.77,2.15-3.5,3.32-5.19,.54-.79,1.1-1.56,1.67-2.33,.08-.1,.39-.52,.58-.76,.22-.28,.67-.84,.77-.97,2.41-2.96,5.02-5.75,7.8-8.36,1.41-1.32,2.87-2.6,4.37-3.83,.35-.29,.71-.58,1.07-.86,.16-.13,.36-.28,.52-.4,.74-.56,1.49-1.12,2.25-1.67,6.29-4.51,13.09-8.26,20.13-11.45,.86-.39,1.73-.77,2.6-1.15,.19-.08,.38-.16,.58-.25,.48-.2,.97-.4,1.45-.6,1.88-.76,3.77-1.49,5.67-2.19,3.77-1.39,7.58-2.66,11.41-3.86,16.28-5.07,32.95-8.71,49.48-12.83,16.84-4.2,33.57-8.92,49.53-15.83,15.66-6.78,30.4-16.04,42.23-28.45,13.72-14.38,22.93-32.33,28.33-51.36,5.56-19.63,7.46-40.19,7.4-60.63,46.11,8.64,103.07,7.24,112.3,5.86,16.8-2.17,33.06-7.06,48.65-13.7,13.78-5.87,27.14-13.16,39.03-22.31,2.04-1.57,4.03-3.18,5.94-4.88,0,0,0,0,0,0-.42,4.48-.78,8.96-1.05,13.45-1.69,27.39-.86,55.66,6.67,82.21,5.4,19.04,14.61,36.98,28.33,51.36,11.83,12.4,26.57,21.66,42.23,28.45,15.96,6.91,32.68,11.63,49.53,15.83,16.53,4.12,33.2,7.77,49.48,12.83,3.83,1.19,7.64,2.47,11.41,3.86,1.9,.7,3.8,1.43,5.67,2.19,.48,.2,.97,.4,1.45,.6,.19,.08,.38,.16,.58,.25,.87,.38,1.74,.76,2.6,1.15,7.04,3.19,13.84,6.94,20.13,11.45,.76,.54,1.5,1.1,2.25,1.67,.15,.12,.36,.28,.52,.4,.36,.29,.71,.57,1.07,.86,1.5,1.23,2.96,2.5,4.37,3.83,2.79,2.61,5.4,5.4,7.8,8.36,.1,.13,.55,.69,.77,.97,.18,.24,.5,.65,.58,.76,.57,.77,1.13,1.54,1.67,2.33,1.17,1.69,2.28,3.42,3.32,5.19,1.07,1.82,2.08,3.68,3.02,5.58,.48,.97,.95,1.95,1.4,2.94,.22,.47,.42,.95,.63,1.43,.06,.14,.11,.24,.14,.32,.02,.06,.06,.14,.11,.27,3.62,9.12,5.99,18.57,7.4,28.28,.02,.11,.03,.19,.04,.25,0,.04,.01,.08,.02,.14,.04,.29,.07,.58,.11,.86,.08,.65,.16,1.31,.23,1.97,.15,1.34,.28,2.68,.4,4.02,.25,2.87,.42,5.75,.54,8.63,.32,8.4,.25,16.82,.35,25.23,.45,37.86,1.07,75.72,1.75,113.58,.34,18.96,.69,37.93,1.08,56.89,.13,6.44,10.13,6.44,10,0-.03-1.32-.05-2.63-.08-3.95ZM560.49,495.05c-.42,.57-.83,1.13-1.26,1.7-.18,.25-.37,.51-.57,.76,0,.01-.02,.03-.05,.06h0s-.04,.05-.05,.07c-.01,.02-.03,.03-.04,.05-.82,1.03-1.64,2.05-2.49,3.04-1.55,1.82-3.17,3.56-4.91,5.19-1.95,1.84-4.01,3.55-6.1,5.23-.04,.03-.07,.06-.1,.08h-.01s-.05,.06-.1,.09c-.01,0-.03,.02-.04,.03-.02,.01-.03,.02-.03,.03t-.03,.02s-.05,.03-.08,.05c-.36,.27-.72,.55-1.09,.82-.62,.46-1.25,.92-1.88,1.37-1.18,.85-2.38,1.68-3.59,2.5-12.89,8.67-26.97,15.64-41.46,20.84-14.25,5.11-29.05,8.65-44.11,9.53h-.03c-15.08-.88-29.88-4.42-44.13-9.53-14.5-5.2-28.58-12.17-41.46-20.84-1.21-.82-2.41-1.65-3.6-2.5-.63-.45-1.26-.91-1.88-1.37-.36-.27-.72-.55-1.09-.82-.03-.02-.05-.04-.07-.05h-.01l-.02-.02s-.03-.03-.04-.03c-.03-.03-.08-.08-.15-.12-.03-.03-.06-.05-.09-.08-2.1-1.68-4.16-3.39-6.11-5.23-1.74-1.63-3.36-3.37-4.91-5.19-.85-.99-1.66-2-2.48-3.03h0c-.04-.06-.08-.11-.12-.15t-.01-.02s-.01-.01-.02-.02c-.01-.03-.03-.05-.06-.08-.17-.23-.34-.45-.51-.68-.42-.57-.84-1.13-1.25-1.7-8.01-11.11-14.39-23.4-19.95-35.89-10.22-22.98-17.93-47.9-22.78-73.15-.43-2.26-2.29-4.06-4.59-4.22-3.3-.22-5.85,2.74-5.24,5.92,2.02,10.57,4.55,21.06,7.54,31.39-.22-.03-.45-.06-.6-.09-.46-.11-.91-.23-1.36-.37-.38-.12-.75-.29-1.14-.41-.17-.08-.34-.16-.51-.25-.89-.44-1.76-.95-2.58-1.51-.23-.15-.46-.31-.68-.47-.01-.01-.03-.03-.06-.04-.03-.03-.08-.07-.13-.1t-.02-.02s-.04-.03-.05-.03c-.01-.02-.02-.03-.03-.03-.01-.01-.02-.01-.03-.02s-.02-.02-.03-.02c-.02-.02-.05-.04-.07-.06s-.04-.04-.06-.05c-.19-.16-.37-.31-.55-.47-1.69-1.47-3.24-3.09-4.66-4.82-.13-.16-.26-.32-.39-.48-.03-.04-.06-.08-.09-.12-.37-.49-.73-.98-1.09-1.48-.73-1.04-1.43-2.09-2.1-3.17-1.41-2.26-2.69-4.6-3.88-6.98-.62-1.24-1.21-2.49-1.77-3.75-.21-.48-.42-.95-.63-1.42h0s-.03-.08-.04-.11c-.02-.04-.03-.08-.05-.12-.04-.09-.07-.17-.11-.26-.15-.35-.29-.7-.43-1.05-1.07-2.66-2.04-5.35-2.93-8.07-1.76-5.37-3.2-10.84-4.3-16.38-.27-1.32-.51-2.64-.73-3.97-.11-.64-.21-1.29-.31-1.94-.05-.3-.09-.6-.13-.89-.01-.08-.03-.17-.03-.25,0-.04-.02-.07-.02-.11,0-.09-.01-.17-.03-.25-.23-2.19-.48-4.36-.6-6.55-.12-2.12-.16-4.26-.06-6.39,.05-.87,.11-1.74,.2-2.61-.02,.08-.03,.17-.05,.27,.03-.15,.05-.29,.07-.44-.01,.05-.01,.09-.01,.14,.07-.45,.11-.68,.11-.77v-.02s.01-.05,.01-.07c.16-.94,.34-1.87,.55-2.79,.36-1.63,.82-3.24,1.41-4.81,.05-.13,.15-.32,.23-.49-.03,.04-.05,.09-.08,.13,.11-.24,.21-.51,.32-.74,.29-.61,.6-1.2,.94-1.79,.31-.53,.64-1.04,1-1.54,.16-.18,.3-.38,.46-.56,.47-.55,1-1.07,1.56-1.55h.01c.74-.4,1.42-.96,2.18-1.35-.08,.02-.16,.05-.25,.08,.12-.05,.24-.1,.37-.14-.04,.02-.08,.04-.11,.06,.52-.18,.71-.26,.71-.27,.28-.1,.55-.18,.83-.26,.4-.11,.8-.2,1.21-.28h.05c.74-.07,1.48-.12,2.22-.11,.58,.01,1.15,.07,1.72,.12h.01c.27,.04,.54,.1,.81,.15,.84,.16,5.41,.65,5.41,.65h0c3.76,0,6.82-3,6.93-6.76,.13-4.48,.37-8.95,.75-13.43,1.38-16.22,4.15-32.18,7.79-48.3,3.28-14.49,7.25-28.83,11.89-42.93,15.39-28.15,39.95-50.89,79.16-51.62,19.75-.37,35.52,6.43,45.4,12.32,7.22,4.3,16.2,4.35,23.56,.29,9.91-5.47,25.44-11.85,44.79-12.6,36.58-1.42,60.24,16.51,75.54,40.86,.63,1.77,1.25,3.55,1.87,5.36,5.44,15.85,10.01,31.99,13.7,48.33,3.65,16.12,6.41,32.08,7.79,48.3,.38,4.47,.63,8.95,.75,13.43,.11,3.76,3.17,6.76,6.93,6.76h0s4.65-.51,5.41-.65c.27-.05,.53-.11,.8-.15h0c.58-.05,1.15-.11,1.73-.12,.74-.01,1.45,.04,2.18,.09,.03,.01,.06,.02,.09,.02,.41,.08,.81,.17,1.21,.28,.28,.07,.56,.16,.83,.26,0,.01,.19,.09,.72,.27-.04-.02-.08-.04-.12-.06,.13,.04,.25,.09,.37,.14-.09-.03-.17-.06-.25-.08,.76,.38,1.42,.93,2.16,1.32,.16,.14,.32,.27,.46,.41,.4,.37,.78,.76,1.14,1.17,.16,.19,.31,.41,.48,.59,.35,.49,.67,.99,.97,1.51,.34,.59,.66,1.18,.95,1.79,.11,.23,.2,.5,.31,.74-.03-.04-.05-.09-.08-.13,.08,.17,.18,.36,.23,.49,.59,1.57,1.05,3.18,1.42,4.81,.21,.92,.38,1.85,.54,2.79,0,.02,.01,.05,.01,.07v.02c0,.09,.04,.32,.12,.79h0c.1,.88,.16,1.75,.2,2.62,.1,2.13,.06,4.27-.05,6.39-.14,2.37-.41,4.7-.67,7.06,0,.03-.01,.07-.01,.1-.05,.29-.09,.59-.14,.89-.09,.65-.2,1.3-.31,1.94-.22,1.33-.46,2.65-.72,3.97-1.11,5.54-2.55,11.01-4.3,16.38-.89,2.72-1.87,5.41-2.94,8.07-.12,.31-.25,.62-.37,.93,0,.02-.02,.05-.03,.08,0,.01-.01,.03-.02,.04-.04,.1-.09,.21-.13,.31-.02,.05-.05,.1-.07,.16-.01,.02-.01,.03-.02,.05-.21,.46-.41,.92-.61,1.39-.57,1.26-1.16,2.51-1.78,3.75-1.18,2.38-2.47,4.72-3.88,6.98-.67,1.08-1.37,2.13-2.1,3.17-.31,.45-.65,.89-.97,1.33-.04,.05-.08,.1-.12,.15-.03,.05-.06,.09-.09,.12-.13,.16-.26,.32-.39,.48-1.43,1.74-2.99,3.4-4.71,4.87-.16,.14-.32,.28-.49,.42,0,.02-.03,.03-.06,.05-.01,.01-.03,.02-.05,.04-.01,.02-.03,.03-.05,.04s-.03,.03-.06,.05c-.01,0-.03,.02-.05,.03,0,0-.01,.02-.02,.02-.05,.03-.1,.07-.13,.1-.03,.01-.05,.03-.06,.04-.22,.16-.45,.32-.67,.47-.83,.56-1.69,1.07-2.59,1.51-.17,.09-.34,.17-.51,.25-.38,.12-.75,.29-1.14,.41-.45,.14-.9,.26-1.36,.37-.15,.03-.38,.06-.59,.09-.02,0-.03,0-.05,0,0,0,0,0,0,0,2.96-10.28,5.47-20.7,7.5-31.21,.55-2.84-1.33-5.7-4.19-6.08-2.68-.35-5.08,1.45-5.57,4.03-4.85,25.3-12.56,50.28-22.81,73.31-5.56,12.49-11.93,24.78-19.94,35.89Zm15.61-176.11c1.66,2.25,.28,5.5-1.79,6.84-2.44,1.57-5.29,.31-6.84-1.79-.24-.32-.47-.64-.71-.96-.02-.03-.03-.04-.06-.07-.39-.48-.78-.97-1.18-1.44-.73-.87-1.48-1.71-2.25-2.53-1.53-1.62-3.15-3.15-4.87-4.56-.14-.11-.27-.22-.41-.33-.46-.24-.9-.68-1.32-.97-.77-.54-1.55-1.05-2.35-1.54-1.54-.94-3.14-1.75-4.79-2.49-.14-.05-.27-.11-.41-.16-.37-.14-.74-.28-1.11-.41-.43-.15-.86-.28-1.29-.41,.49,1.33,.81,2.76,.91,4.25,.53,8.29-5.75,15.44-14.04,15.97s-15.44-5.75-15.97-14.04c-.09-1.34,.02-2.65,.28-3.92-.05,.02-.1,.04-.15,.06-.13,.05-.25,.11-.31,.13-.21,.09-.42,.19-.63,.28-.43,.2-.86,.4-1.29,.6-1.56,.75-3.1,1.56-4.59,2.43-1.34,.78-2.68,1.59-3.92,2.52-2.24,1.68-5.51,.27-6.84-1.79-1.58-2.45-.29-5.28,1.79-6.84,1.67-1.25,3.5-2.32,5.32-3.32,9.07-4.99,19.48-8.24,29.91-7.97,6.98,.18,13.78,1.96,19.95,5.21,7.7,4.05,13.86,10.32,18.97,17.25Zm-91.6-40.04c-.65-2.1,.35-4.36,2.36-5.27,11.51-5.23,43.5-18.93,73.18-22.1,1.67-.18,3.33,.6,4.7,1.65,10.2,7.87,17.62,17.68,22.56,25.69,1.41,2.28-1.42,4.77-3.53,3.11-14.61-11.5-44.03-23.49-91.4,4.41-2.39,1.41-5.48,.19-6.31-2.46l-1.57-5.03Zm-86.55,37.51c-1.24-.93-2.58-1.74-3.92-2.52-1.5-.87-3.03-1.69-4.59-2.43-.43-.21-.86-.41-1.29-.6-.21-.09-.42-.19-.63-.28-.06-.03-.19-.08-.31-.13-.06-.02-.11-.04-.15-.06,.25,1.26,.36,2.57,.28,3.92-.53,8.29-7.68,14.57-15.97,14.04s-14.57-7.68-14.04-15.97c.1-1.49,.41-2.92,.91-4.25-.43,.14-.86,.26-1.29,.41-.37,.13-.74,.27-1.11,.41-.14,.05-.27,.11-.41,.16-1.64,.74-3.25,1.56-4.79,2.49-.8,.49-1.58,1-2.35,1.54-.43,.3-.86,.73-1.32,.97-.14,.11-.28,.22-.41,.33-1.72,1.41-3.34,2.94-4.87,4.56-.78,.82-1.53,1.67-2.25,2.53-.4,.48-.79,.96-1.18,1.44-.03,.03-.04,.05-.06,.07-.24,.32-.48,.64-.71,.96-1.55,2.1-4.4,3.36-6.84,1.79-2.08-1.34-3.45-4.59-1.79-6.84,5.11-6.94,11.28-13.2,18.97-17.25,6.17-3.25,12.98-5.02,19.95-5.21,10.43-.27,20.84,2.98,29.91,7.97,1.82,1,3.65,2.07,5.32,3.32,2.09,1.56,3.37,4.39,1.79,6.84-1.33,2.06-4.6,3.47-6.84,1.79Zm-76.79-34.43c-2.11,1.66-4.93-.83-3.53-3.11,4.94-8.01,12.36-17.82,22.56-25.69,1.37-1.05,3.02-1.83,4.7-1.65,25.36,2.71,52.4,13.1,66.92,19.33l4.06,1.81c4.56,2.03,7.72,6.04,7.72,6.05,.09,.11,.18,.21,.26,.31,8.27,10.38,12.23,22.97,13.87,35.99,1.41,11.15,.9,22.42-.63,33.52-.5,3.58-1.11,7.16-1.97,10.68-.85,3.52-2.22,6.87-3.73,10.16-1.85,4.05-4.02,7.95-5.86,12.01-.12,.26-.23,.51-.34,.77-.03,.07-.08,.19-.13,.3,0,.02-.02,.05-.03,.06-.1,.25-.2,.5-.3,.75-.34,.89-.65,1.78-.92,2.69-.26,.87-.45,1.75-.62,2.65-.01,.12-.03,.25-.03,.37-.03,.41-.04,.81-.04,1.22,0,.34,.03,.69,.05,1.03,.03,.13,.05,.27,.08,.4,.09,.39,.2,.77,.33,1.15-.05-.08-.09-.16-.14-.26,.08,.14,.14,.29,.21,.44,.09,.21,.21,.41,.23,.42,.16,.3,.33,.6,.51,.89,.07,.11,.15,.22,.23,.33,.7,.76,1.41,1.48,2.2,2.16,.01,.01,.02,.02,.03,.03,0,0,0,0,.01,0,.24,.17,.47,.34,.71,.5,.51,.34,1.03,.67,1.55,.98,1.28,.75,2.62,1.39,3.97,2.01,.03,.01,.04,.02,.06,.03,.1,.04,.21,.09,.31,.13,.43,.17,.86,.34,1.3,.51,.81,.3,1.62,.59,2.44,.86,1.98,.66,3.98,1.23,5.99,1.76,2.62,.69,3.96,3.43,3.38,5.96-.59,2.57-3.51,4.02-5.96,3.38-2.01-.53-4.02-1.1-5.99-1.76-5.84-1.94-12.13-4.55-16.41-9.17-3.21-3.47-5.04-7.97-4.77-12.73,.52-9.14,6.15-17.16,9.81-25.28,.12-.26,.24-.53,.35-.8-.02,.06-.05,.12-.07,.19,.03-.09,.07-.18,.11-.27,.2-.46,.18-.44,.09-.22,.15-.36,.3-.72,.44-1.08,.32-.84,.63-1.69,.9-2.54,.34-1.08,.61-2.18,.86-3.28,.38-1.62,.7-3.26,1-4.9,.18-.99,.34-1.98,.5-2.97,.08-.53,.16-1.07,.24-1.6,.02-.16,.04-.32,.07-.48,0-.05,.01-.09,.02-.14,.66-5.14,1.03-10.32,1.1-15.5,.04-2.9-.03-5.79-.2-8.68-.09-1.49-.21-2.97-.36-4.46-.08-.8-.18-1.59-.28-2.39,0,0,0,0,0-.01,0-.02,0-.03,0-.05-.06-.4-.12-.8-.18-1.2-.47-3.01-1.09-5.99-1.88-8.93-.32-1.18-.68-2.35-1.06-3.51-3.98-9.28-11.95-14.52-12.84-15.08-47.06-27.51-76.32-15.57-90.88-4.11Zm102.45,110.9s-.01-.06-.02-.08c.24,.44,.31,.6,.29,.59-.05-.1-.12-.19-.17-.29-.02-.04-.04-.08-.06-.13-.01-.03-.03-.06-.04-.09Zm.02-29.73s-.01,.02-.02,.03c.05-.12,.09-.22,.12-.3-.03,.07-.06,.15-.09,.22,0,.02-.01,.03-.02,.04Zm37.9,43.93c-1.35-2.09-.54-5.51,1.74-6.63,6.23-3.05,13.18-4.58,20.12-3.89,2.71,.27,4.72,2.01,4.84,4.84,.05,1.21-.58,2.59-1.42,3.43-.8,.8-2.26,1.53-3.43,1.42-1.45-.14-2.91-.2-4.36-.15-.73,.03-1.46,.08-2.18,.15-.11,.01-.22,.03-.33,.04-.28,.05-.57,.09-.85,.14-1.44,.26-2.87,.63-4.26,1.08-.69,.23-1.37,.48-2.05,.75-.01,0-.02,.01-.04,.02-.38,.18-.77,.36-1.15,.54-2.44,1.19-5.12,.6-6.63-1.74Zm42.9,38.84c-5.3,1.75-10.68,3.26-16.13,4.48-2.57,.57-5.15,1.09-7.74,1.54-1.19,.21-2.38,.4-3.57,.58-.62,.09-1.24,.18-1.87,.27,0,0,0,0-.01,0-.39,.05-.78,.1-1.16,.15-8.95,1.1-18,1.45-27.01,1.02-3.78-.18-7.56-.49-11.32-.95-.37-.04-.73-.09-1.1-.14,.06,0,.11,.02,.19,.03-.15-.02-.31-.04-.46-.06,.01,0,.03,0,.04,0,.08,0,.15,.02,.23,.03-.92-.14-.64-.09-.36-.05,0,0-.02,0-.03,0-.89-.12-1.78-.26-2.66-.4-1.58-.25-3.15-.52-4.72-.82-4.8-.92-9.56-2.07-14.22-3.53-1.49-.47-2.98-.96-4.45-1.51-.64-.24-2.89-1.19-.48-.16-1.25-.54-2.37-.86-3.73-.49-1.12,.31-2.34,1.18-2.9,2.23-1.1,2.08-.75,5.56,1.74,6.63,6.19,2.66,12.8,4.4,19.39,5.76,15.95,3.3,32.43,4.12,48.62,2.46,12.35-1.27,24.52-3.83,36.3-7.73,2.4-.79,4.22-3.38,3.38-5.96-.77-2.39-3.38-4.24-5.96-3.38Zm-29.4,6.88c-.64,.09-.26,.04,0,0h0Z"/>
    <path class="cls-1" d="M875.58,810.9c-2.78-43.21-33.36-80.25-76.75-92.95-74.68-21.86-183.08-49.85-183.08-49.85,0,0-57.02,56.63-162.28,58.65-105.26-2.02-162.28-58.65-162.28-58.65,0,0-108.4,27.99-183.08,49.85-43.39,12.7-73.98,49.73-76.75,92.95-5.99,93.16-15.67,232.87-15.67,232.87H891.25s-9.69-139.71-15.67-232.87Z"/>
  </g>
</svg>